%TF.GenerationSoftware,KiCad,Pcbnew,9.0.6*%
%TF.CreationDate,2026-01-26T21:03:18+01:00*%
%TF.ProjectId,neptune-imu,6e657074-756e-4652-9d69-6d752e6b6963,1.0*%
%TF.SameCoordinates,Original*%
%TF.FileFunction,Copper,L5,Inr*%
%TF.FilePolarity,Positive*%
%FSLAX46Y46*%
G04 Gerber Fmt 4.6, Leading zero omitted, Abs format (unit mm)*
G04 Created by KiCad (PCBNEW 9.0.6) date 2026-01-26 21:03:18*
%MOMM*%
%LPD*%
G01*
G04 APERTURE LIST*
%TA.AperFunction,ComponentPad*%
%ADD10R,2.580000X1.000000*%
%TD*%
%TA.AperFunction,ViaPad*%
%ADD11C,0.600000*%
%TD*%
%TA.AperFunction,ViaPad*%
%ADD12C,0.800000*%
%TD*%
%TA.AperFunction,ViaPad*%
%ADD13C,0.500000*%
%TD*%
G04 APERTURE END LIST*
D10*
%TO.N,/I2C_2_SDA*%
%TO.C,J2*%
X77332000Y-50917062D03*
%TO.N,unconnected-(J2-Pin_2-Pad2)*%
X81502000Y-50917062D03*
%TO.N,/I2C_2_SCL*%
X77332000Y-52917062D03*
%TO.N,unconnected-(J2-Pin_4-Pad4)*%
X81502000Y-52917062D03*
%TO.N,unconnected-(J2-Pin_5-Pad5)*%
X77332000Y-54917062D03*
%TO.N,GND*%
X81502000Y-54917062D03*
%TO.N,unconnected-(J2-Pin_7-Pad7)*%
X77332000Y-56917062D03*
%TO.N,GND*%
X81502000Y-56917062D03*
X77332000Y-58917062D03*
X81502000Y-58917062D03*
%TO.N,unconnected-(J2-Pin_11-Pad11)*%
X77332000Y-60917062D03*
%TO.N,unconnected-(J2-Pin_12-Pad12)*%
X81502000Y-60917062D03*
%TO.N,unconnected-(J2-Pin_13-Pad13)*%
X77332000Y-62917062D03*
%TO.N,unconnected-(J2-Pin_14-Pad14)*%
X81502000Y-62917062D03*
%TO.N,unconnected-(J2-Pin_15-Pad15)*%
X77332000Y-64917062D03*
%TO.N,unconnected-(J2-Pin_16-Pad16)*%
X81502000Y-64917062D03*
%TO.N,GND*%
X77332000Y-66917062D03*
X81502000Y-66917062D03*
X77332000Y-68917062D03*
X81502000Y-68917062D03*
%TD*%
%TO.N,/VOUT_A1*%
%TO.C,J3*%
X117722000Y-50917062D03*
X121892000Y-50917062D03*
%TO.N,unconnected-(J3-Pin_3-Pad3)*%
X117722000Y-52917062D03*
%TO.N,unconnected-(J3-Pin_4-Pad4)*%
X121892000Y-52917062D03*
%TO.N,unconnected-(J3-Pin_5-Pad5)*%
X117722000Y-54917062D03*
%TO.N,unconnected-(J3-Pin_6-Pad6)*%
X121892000Y-54917062D03*
%TO.N,/VOUT_B1*%
X117722000Y-56917062D03*
X121892000Y-56917062D03*
%TO.N,unconnected-(J3-Pin_9-Pad9)*%
X117722000Y-58917062D03*
%TO.N,unconnected-(J3-Pin_10-Pad10)*%
X121892000Y-58917062D03*
%TO.N,unconnected-(J3-Pin_11-Pad11)*%
X117722000Y-60917062D03*
%TO.N,unconnected-(J3-Pin_12-Pad12)*%
X121892000Y-60917062D03*
%TO.N,GND*%
X117722000Y-62917062D03*
X121892000Y-62917062D03*
X117722000Y-64917062D03*
X121892000Y-64917062D03*
%TO.N,unconnected-(J3-Pin_17-Pad17)*%
X117722000Y-66917062D03*
%TO.N,unconnected-(J3-Pin_18-Pad18)*%
X121892000Y-66917062D03*
%TO.N,unconnected-(J3-Pin_19-Pad19)*%
X117722000Y-68917062D03*
%TO.N,unconnected-(J3-Pin_20-Pad20)*%
X121892000Y-68917062D03*
%TD*%
D11*
%TO.N,GND*%
X86016000Y-46984000D03*
D12*
X115830000Y-78316000D03*
D11*
X85116000Y-46984000D03*
D12*
X116478000Y-72631000D03*
D13*
X103647000Y-76401062D03*
D11*
X86016000Y-44284000D03*
D13*
X81525000Y-44401000D03*
D11*
X86916000Y-45184000D03*
X87816000Y-44284000D03*
X87816000Y-45184000D03*
D12*
X111877000Y-78319500D03*
D13*
X105636000Y-78131062D03*
X87329000Y-77306062D03*
D12*
X100598480Y-43692062D03*
X113259000Y-42967061D03*
X91369000Y-44051000D03*
D11*
X87816000Y-46984000D03*
D13*
X82815000Y-47553000D03*
D11*
X86916000Y-46984000D03*
X85116000Y-45184000D03*
D13*
X102547000Y-82163062D03*
D11*
X86916000Y-44284000D03*
X90171000Y-38117062D03*
X85116000Y-44284000D03*
D13*
X88929000Y-79746062D03*
D11*
X86016000Y-46084000D03*
D13*
X90113000Y-43756000D03*
X103978000Y-81114062D03*
X87410000Y-81157062D03*
X89652000Y-81157062D03*
D11*
X87816000Y-46084000D03*
X86916000Y-46084000D03*
D13*
X102827000Y-81179062D03*
D11*
X85116000Y-46084000D03*
X86016000Y-45184000D03*
D12*
X89357000Y-82419062D03*
X112348000Y-72611500D03*
X92598480Y-43692062D03*
D11*
%TO.N,/reset*%
X85853000Y-38117062D03*
D13*
%TO.N,+3.3V*%
X87052000Y-72819062D03*
X90113000Y-42796000D03*
X105636000Y-79091062D03*
D12*
X91369000Y-42501000D03*
D11*
X86716000Y-49088000D03*
X90759000Y-78526062D03*
D13*
X90612000Y-81157062D03*
D12*
X98598480Y-43692062D03*
D13*
X94246000Y-77005062D03*
X94246000Y-80796062D03*
D12*
X106598480Y-43692062D03*
X90907000Y-82419062D03*
D13*
X82815000Y-48513000D03*
D12*
X113259000Y-39417061D03*
X117380000Y-78316000D03*
D13*
X86450000Y-81157062D03*
%TO.N,+1V8*%
X101867000Y-81179062D03*
X102847000Y-76000000D03*
D11*
%TO.N,/USART1_RX*%
X102598480Y-43692062D03*
D13*
%TO.N,/SWDIO*%
X85765000Y-41794000D03*
%TO.N,/SWCLK*%
X85200000Y-41100000D03*
D11*
%TO.N,/USART1_TX*%
X104598480Y-43692062D03*
D13*
%TO.N,/I2C3_SDA*%
X86529000Y-77306062D03*
X82867000Y-44884000D03*
X94246000Y-79776062D03*
%TO.N,/I2C3_SCL*%
X84599000Y-73416062D03*
X89823000Y-45384000D03*
X94246000Y-75985062D03*
%TO.N,/ICM209481_INT_1v8*%
X105073000Y-80231062D03*
X91985000Y-73372062D03*
%TO.N,/I2C_2_SDA*%
X83105000Y-46403001D03*
%TO.N,/I2C_2_SCL*%
X83105000Y-45703000D03*
%TD*%
%TA.AperFunction,Conductor*%
%TO.N,GND*%
G36*
X114198059Y-35435745D02*
G01*
X114876918Y-35850454D01*
X114880463Y-35852703D01*
X115682860Y-36380988D01*
X115686327Y-36383355D01*
X116470412Y-36938525D01*
X116473797Y-36941009D01*
X116887589Y-37255552D01*
X117238650Y-37522410D01*
X117241888Y-37524959D01*
X117986624Y-38131923D01*
X117989832Y-38134630D01*
X118554249Y-38627351D01*
X118657628Y-38717599D01*
X118713558Y-38766424D01*
X118716671Y-38769235D01*
X118777904Y-38826456D01*
X119418620Y-39425192D01*
X119421638Y-39428110D01*
X120100947Y-40107421D01*
X120103865Y-40110439D01*
X120759817Y-40812387D01*
X120762629Y-40815501D01*
X121321319Y-41455488D01*
X121394423Y-41539229D01*
X121397130Y-41542438D01*
X122004067Y-42287146D01*
X122006664Y-42290445D01*
X122588030Y-43055255D01*
X122590514Y-43058639D01*
X123145677Y-43842721D01*
X123148045Y-43846188D01*
X123676355Y-44648626D01*
X123678603Y-44652171D01*
X124024321Y-45218099D01*
X124093317Y-45331042D01*
X124111500Y-45395685D01*
X124111500Y-74438478D01*
X124093317Y-74503121D01*
X123678607Y-75181980D01*
X123676358Y-75185525D01*
X123148073Y-75987922D01*
X123145706Y-75991389D01*
X122590536Y-76775476D01*
X122588052Y-76778860D01*
X122006663Y-77543698D01*
X122004066Y-77546997D01*
X121397139Y-78291690D01*
X121394432Y-78294899D01*
X120762639Y-79018625D01*
X120759825Y-79021741D01*
X120103872Y-79723689D01*
X120100954Y-79726707D01*
X119421644Y-80406019D01*
X119418626Y-80408937D01*
X118716679Y-81064891D01*
X118713563Y-81067705D01*
X117989851Y-81699487D01*
X117986643Y-81702194D01*
X117241923Y-82309146D01*
X117238624Y-82311743D01*
X116473802Y-82893122D01*
X116470417Y-82895606D01*
X115686331Y-83450778D01*
X115682864Y-83453145D01*
X114880469Y-83981432D01*
X114876924Y-83983681D01*
X114198085Y-84398379D01*
X114133442Y-84416562D01*
X85090582Y-84416562D01*
X85025939Y-84398379D01*
X84347080Y-83983670D01*
X84343535Y-83981421D01*
X83541138Y-83453136D01*
X83537671Y-83450769D01*
X82753586Y-82895599D01*
X82750202Y-82893115D01*
X81985364Y-82311726D01*
X81982065Y-82309129D01*
X81593574Y-81992508D01*
X81237372Y-81702202D01*
X81234163Y-81699495D01*
X80697479Y-81230982D01*
X85699499Y-81230982D01*
X85728340Y-81375969D01*
X85728343Y-81375979D01*
X85784912Y-81512550D01*
X85784919Y-81512563D01*
X85867048Y-81635477D01*
X85867051Y-81635481D01*
X85971580Y-81740010D01*
X85971584Y-81740013D01*
X86094498Y-81822142D01*
X86094511Y-81822149D01*
X86231082Y-81878718D01*
X86231087Y-81878720D01*
X86231091Y-81878720D01*
X86231092Y-81878721D01*
X86376079Y-81907562D01*
X86376082Y-81907562D01*
X86523920Y-81907562D01*
X86621462Y-81888158D01*
X86668913Y-81878720D01*
X86805495Y-81822146D01*
X86928416Y-81740013D01*
X87032951Y-81635478D01*
X87115084Y-81512557D01*
X87171658Y-81375975D01*
X87191847Y-81274481D01*
X87200500Y-81230982D01*
X89861499Y-81230982D01*
X89890340Y-81375969D01*
X89890343Y-81375979D01*
X89946912Y-81512550D01*
X89946919Y-81512563D01*
X90029048Y-81635477D01*
X90029051Y-81635481D01*
X90133580Y-81740010D01*
X90138292Y-81743877D01*
X90136802Y-81745692D01*
X90174927Y-81791321D01*
X90183627Y-81860647D01*
X90164328Y-81909690D01*
X90108990Y-81992508D01*
X90108983Y-81992521D01*
X90041106Y-82156394D01*
X90041103Y-82156403D01*
X90006500Y-82330366D01*
X90006500Y-82507757D01*
X90041103Y-82681720D01*
X90041106Y-82681729D01*
X90108983Y-82845602D01*
X90108990Y-82845615D01*
X90207535Y-82993096D01*
X90207538Y-82993100D01*
X90332961Y-83118523D01*
X90332965Y-83118526D01*
X90480446Y-83217071D01*
X90480459Y-83217078D01*
X90603363Y-83267985D01*
X90644334Y-83284956D01*
X90644336Y-83284956D01*
X90644341Y-83284958D01*
X90818304Y-83319561D01*
X90818307Y-83319562D01*
X90818309Y-83319562D01*
X90995693Y-83319562D01*
X90995694Y-83319561D01*
X91053682Y-83308026D01*
X91169658Y-83284958D01*
X91169661Y-83284956D01*
X91169666Y-83284956D01*
X91333547Y-83217075D01*
X91481035Y-83118526D01*
X91606464Y-82993097D01*
X91705013Y-82845609D01*
X91772894Y-82681728D01*
X91807500Y-82507753D01*
X91807500Y-82330371D01*
X91807500Y-82330368D01*
X91807499Y-82330366D01*
X91772896Y-82156403D01*
X91772893Y-82156394D01*
X91705016Y-81992521D01*
X91705009Y-81992508D01*
X91606464Y-81845027D01*
X91606461Y-81845023D01*
X91481038Y-81719600D01*
X91481034Y-81719597D01*
X91338740Y-81624518D01*
X91293935Y-81570905D01*
X91285228Y-81501580D01*
X91293070Y-81473963D01*
X91298381Y-81461142D01*
X91333658Y-81375975D01*
X91353847Y-81274481D01*
X91362500Y-81230982D01*
X91362500Y-81083141D01*
X91333659Y-80938154D01*
X91333658Y-80938153D01*
X91333658Y-80938149D01*
X91316258Y-80896142D01*
X91277087Y-80801573D01*
X91277080Y-80801560D01*
X91194951Y-80678646D01*
X91194948Y-80678642D01*
X91090419Y-80574113D01*
X91090415Y-80574110D01*
X90967501Y-80491981D01*
X90967488Y-80491974D01*
X90830917Y-80435405D01*
X90830907Y-80435402D01*
X90685920Y-80406562D01*
X90685918Y-80406562D01*
X90538082Y-80406562D01*
X90538080Y-80406562D01*
X90393092Y-80435402D01*
X90393082Y-80435405D01*
X90256511Y-80491974D01*
X90256498Y-80491981D01*
X90133584Y-80574110D01*
X90133580Y-80574113D01*
X90029051Y-80678642D01*
X90029048Y-80678646D01*
X89946919Y-80801560D01*
X89946912Y-80801573D01*
X89890343Y-80938144D01*
X89890340Y-80938154D01*
X89861500Y-81083141D01*
X89861500Y-81083144D01*
X89861500Y-81230980D01*
X89861500Y-81230982D01*
X89861499Y-81230982D01*
X87200500Y-81230982D01*
X87200500Y-81083141D01*
X87171659Y-80938154D01*
X87171658Y-80938153D01*
X87171658Y-80938149D01*
X87154258Y-80896142D01*
X87115087Y-80801573D01*
X87115080Y-80801560D01*
X87032951Y-80678646D01*
X87032948Y-80678642D01*
X86928419Y-80574113D01*
X86928415Y-80574110D01*
X86805501Y-80491981D01*
X86805488Y-80491974D01*
X86668917Y-80435405D01*
X86668907Y-80435402D01*
X86523920Y-80406562D01*
X86523918Y-80406562D01*
X86376082Y-80406562D01*
X86376080Y-80406562D01*
X86231092Y-80435402D01*
X86231082Y-80435405D01*
X86094511Y-80491974D01*
X86094498Y-80491981D01*
X85971584Y-80574110D01*
X85971580Y-80574113D01*
X85867051Y-80678642D01*
X85867048Y-80678646D01*
X85784919Y-80801560D01*
X85784912Y-80801573D01*
X85728343Y-80938144D01*
X85728340Y-80938154D01*
X85699500Y-81083141D01*
X85699500Y-81083144D01*
X85699500Y-81230980D01*
X85699500Y-81230982D01*
X85699499Y-81230982D01*
X80697479Y-81230982D01*
X80628156Y-81170465D01*
X80510439Y-81067701D01*
X80507323Y-81064887D01*
X79805376Y-80408934D01*
X79802358Y-80406016D01*
X79246325Y-79849982D01*
X93495499Y-79849982D01*
X93524340Y-79994969D01*
X93524343Y-79994979D01*
X93580912Y-80131550D01*
X93580918Y-80131561D01*
X93638121Y-80217172D01*
X93658998Y-80283849D01*
X93640513Y-80351229D01*
X93638121Y-80354952D01*
X93580918Y-80440562D01*
X93580912Y-80440573D01*
X93524343Y-80577144D01*
X93524340Y-80577154D01*
X93495500Y-80722141D01*
X93495500Y-80722144D01*
X93495500Y-80869980D01*
X93495500Y-80869982D01*
X93495499Y-80869982D01*
X93524340Y-81014969D01*
X93524343Y-81014979D01*
X93580912Y-81151550D01*
X93580919Y-81151563D01*
X93663048Y-81274477D01*
X93663051Y-81274481D01*
X93767580Y-81379010D01*
X93767584Y-81379013D01*
X93890498Y-81461142D01*
X93890511Y-81461149D01*
X94014605Y-81512550D01*
X94027087Y-81517720D01*
X94027091Y-81517720D01*
X94027092Y-81517721D01*
X94172079Y-81546562D01*
X94172082Y-81546562D01*
X94319920Y-81546562D01*
X94417462Y-81527158D01*
X94464913Y-81517720D01*
X94601495Y-81461146D01*
X94724416Y-81379013D01*
X94828951Y-81274478D01*
X94843314Y-81252982D01*
X101116499Y-81252982D01*
X101145340Y-81397969D01*
X101145343Y-81397979D01*
X101201912Y-81534550D01*
X101201919Y-81534563D01*
X101284048Y-81657477D01*
X101284051Y-81657481D01*
X101388580Y-81762010D01*
X101388584Y-81762013D01*
X101511498Y-81844142D01*
X101511511Y-81844149D01*
X101648082Y-81900718D01*
X101648087Y-81900720D01*
X101648091Y-81900720D01*
X101648092Y-81900721D01*
X101793079Y-81929562D01*
X101793082Y-81929562D01*
X101940920Y-81929562D01*
X102051517Y-81907562D01*
X102085913Y-81900720D01*
X102222495Y-81844146D01*
X102345416Y-81762013D01*
X102449951Y-81657478D01*
X102532084Y-81534557D01*
X102588658Y-81397975D01*
X102617500Y-81252980D01*
X102617500Y-81105144D01*
X102617500Y-81105141D01*
X102588659Y-80960154D01*
X102588658Y-80960153D01*
X102588658Y-80960149D01*
X102585580Y-80952718D01*
X102532087Y-80823573D01*
X102532080Y-80823560D01*
X102449951Y-80700646D01*
X102449948Y-80700642D01*
X102345419Y-80596113D01*
X102345415Y-80596110D01*
X102222501Y-80513981D01*
X102222488Y-80513974D01*
X102085917Y-80457405D01*
X102085907Y-80457402D01*
X101940920Y-80428562D01*
X101940918Y-80428562D01*
X101793082Y-80428562D01*
X101793080Y-80428562D01*
X101648092Y-80457402D01*
X101648082Y-80457405D01*
X101511511Y-80513974D01*
X101511498Y-80513981D01*
X101388584Y-80596110D01*
X101388580Y-80596113D01*
X101284051Y-80700642D01*
X101284048Y-80700646D01*
X101201919Y-80823560D01*
X101201912Y-80823573D01*
X101145343Y-80960144D01*
X101145340Y-80960154D01*
X101116500Y-81105141D01*
X101116500Y-81105144D01*
X101116500Y-81252980D01*
X101116500Y-81252982D01*
X101116499Y-81252982D01*
X94843314Y-81252982D01*
X94911084Y-81151557D01*
X94945818Y-81067701D01*
X94952488Y-81051599D01*
X94952488Y-81051598D01*
X94967658Y-81014975D01*
X94996500Y-80869980D01*
X94996500Y-80722144D01*
X94996500Y-80722141D01*
X94967659Y-80577154D01*
X94967658Y-80577153D01*
X94967658Y-80577149D01*
X94967656Y-80577144D01*
X94911087Y-80440573D01*
X94911080Y-80440560D01*
X94853879Y-80354953D01*
X94848861Y-80338929D01*
X94839297Y-80325131D01*
X94838637Y-80306277D01*
X94838232Y-80304982D01*
X104322499Y-80304982D01*
X104351340Y-80449969D01*
X104351343Y-80449979D01*
X104407912Y-80586550D01*
X104407919Y-80586563D01*
X104490048Y-80709477D01*
X104490051Y-80709481D01*
X104594580Y-80814010D01*
X104594584Y-80814013D01*
X104717498Y-80896142D01*
X104717511Y-80896149D01*
X104818897Y-80938144D01*
X104854087Y-80952720D01*
X104854091Y-80952720D01*
X104854092Y-80952721D01*
X104999079Y-80981562D01*
X104999082Y-80981562D01*
X105146920Y-80981562D01*
X105244462Y-80962158D01*
X105291913Y-80952720D01*
X105428495Y-80896146D01*
X105551416Y-80814013D01*
X105655951Y-80709478D01*
X105738084Y-80586557D01*
X105743239Y-80574113D01*
X105768149Y-80513974D01*
X105794658Y-80449975D01*
X105823500Y-80304980D01*
X105823500Y-80157144D01*
X105823500Y-80157141D01*
X105794659Y-80012154D01*
X105794658Y-80012153D01*
X105794658Y-80012149D01*
X105780353Y-79977615D01*
X105772885Y-79908148D01*
X105804160Y-79845669D01*
X105850101Y-79817020D01*
X105849286Y-79815051D01*
X105991488Y-79756149D01*
X105991488Y-79756148D01*
X105991495Y-79756146D01*
X106114416Y-79674013D01*
X106218951Y-79569478D01*
X106301084Y-79446557D01*
X106357658Y-79309975D01*
X106380904Y-79193113D01*
X106386500Y-79164982D01*
X106386500Y-79017141D01*
X106357659Y-78872154D01*
X106357658Y-78872153D01*
X106357658Y-78872149D01*
X106357656Y-78872144D01*
X106301087Y-78735573D01*
X106301080Y-78735560D01*
X106218951Y-78612646D01*
X106218948Y-78612642D01*
X106114419Y-78508113D01*
X106114415Y-78508110D01*
X105991501Y-78425981D01*
X105991488Y-78425974D01*
X105854917Y-78369405D01*
X105854907Y-78369402D01*
X105721342Y-78342834D01*
X105709920Y-78340562D01*
X105709918Y-78340562D01*
X105562082Y-78340562D01*
X105562080Y-78340562D01*
X105417092Y-78369402D01*
X105417082Y-78369405D01*
X105280511Y-78425974D01*
X105280498Y-78425981D01*
X105157584Y-78508110D01*
X105157580Y-78508113D01*
X105053051Y-78612642D01*
X105053048Y-78612646D01*
X104970919Y-78735560D01*
X104970912Y-78735573D01*
X104914343Y-78872144D01*
X104914340Y-78872154D01*
X104885500Y-79017141D01*
X104885500Y-79017144D01*
X104885500Y-79164980D01*
X104885500Y-79164982D01*
X104885499Y-79164982D01*
X104914340Y-79309969D01*
X104914343Y-79309979D01*
X104928645Y-79344507D01*
X104936114Y-79413977D01*
X104904838Y-79476456D01*
X104858904Y-79505118D01*
X104859714Y-79507073D01*
X104717511Y-79565974D01*
X104717498Y-79565981D01*
X104594584Y-79648110D01*
X104594580Y-79648113D01*
X104490051Y-79752642D01*
X104490048Y-79752646D01*
X104407919Y-79875560D01*
X104407912Y-79875573D01*
X104351343Y-80012144D01*
X104351340Y-80012154D01*
X104322500Y-80157141D01*
X104322500Y-80157144D01*
X104322500Y-80304980D01*
X104322500Y-80304982D01*
X104322499Y-80304982D01*
X94838232Y-80304982D01*
X94833001Y-80288275D01*
X94837425Y-80271590D01*
X94836856Y-80255304D01*
X94848896Y-80228333D01*
X94850388Y-80222707D01*
X94852065Y-80219884D01*
X94911084Y-80131557D01*
X94967658Y-79994975D01*
X94977096Y-79947524D01*
X94996500Y-79849982D01*
X94996500Y-79702141D01*
X94967659Y-79557154D01*
X94967658Y-79557153D01*
X94967658Y-79557149D01*
X94967656Y-79557144D01*
X94911087Y-79420573D01*
X94911080Y-79420560D01*
X94828951Y-79297646D01*
X94828948Y-79297642D01*
X94724419Y-79193113D01*
X94724415Y-79193110D01*
X94601501Y-79110981D01*
X94601488Y-79110974D01*
X94464917Y-79054405D01*
X94464907Y-79054402D01*
X94319920Y-79025562D01*
X94319918Y-79025562D01*
X94172082Y-79025562D01*
X94172080Y-79025562D01*
X94027092Y-79054402D01*
X94027082Y-79054405D01*
X93890511Y-79110974D01*
X93890498Y-79110981D01*
X93767584Y-79193110D01*
X93767580Y-79193113D01*
X93663051Y-79297642D01*
X93663048Y-79297646D01*
X93580919Y-79420560D01*
X93580912Y-79420573D01*
X93524343Y-79557144D01*
X93524340Y-79557154D01*
X93495500Y-79702141D01*
X93495500Y-79702144D01*
X93495500Y-79849980D01*
X93495500Y-79849982D01*
X93495499Y-79849982D01*
X79246325Y-79849982D01*
X79180076Y-79783733D01*
X79123048Y-79726705D01*
X79120130Y-79723687D01*
X78889099Y-79476456D01*
X78464174Y-79021736D01*
X78461363Y-79018623D01*
X78028415Y-78522675D01*
X77962540Y-78447215D01*
X89958500Y-78447215D01*
X89958500Y-78604908D01*
X89989261Y-78759551D01*
X89989264Y-78759563D01*
X90049602Y-78905234D01*
X90049609Y-78905247D01*
X90137210Y-79036350D01*
X90137213Y-79036354D01*
X90248707Y-79147848D01*
X90248711Y-79147851D01*
X90379814Y-79235452D01*
X90379827Y-79235459D01*
X90525498Y-79295797D01*
X90525503Y-79295799D01*
X90649753Y-79320514D01*
X90680153Y-79326561D01*
X90680156Y-79326562D01*
X90680158Y-79326562D01*
X90837844Y-79326562D01*
X90837845Y-79326561D01*
X90992497Y-79295799D01*
X91138179Y-79235456D01*
X91269289Y-79147851D01*
X91380789Y-79036351D01*
X91468394Y-78905241D01*
X91474693Y-78890035D01*
X91528735Y-78759563D01*
X91528737Y-78759559D01*
X91559500Y-78604904D01*
X91559500Y-78447220D01*
X91559500Y-78447217D01*
X91559499Y-78447215D01*
X91551040Y-78404691D01*
X91528737Y-78292565D01*
X91528374Y-78291688D01*
X91501706Y-78227304D01*
X116479500Y-78227304D01*
X116479500Y-78404695D01*
X116514103Y-78578658D01*
X116514106Y-78578667D01*
X116581983Y-78742540D01*
X116581990Y-78742553D01*
X116680535Y-78890034D01*
X116680538Y-78890038D01*
X116805961Y-79015461D01*
X116805965Y-79015464D01*
X116953446Y-79114009D01*
X116953459Y-79114016D01*
X117035146Y-79147851D01*
X117117334Y-79181894D01*
X117117336Y-79181894D01*
X117117341Y-79181896D01*
X117291304Y-79216499D01*
X117291307Y-79216500D01*
X117291309Y-79216500D01*
X117468693Y-79216500D01*
X117468694Y-79216499D01*
X117526682Y-79204964D01*
X117642658Y-79181896D01*
X117642661Y-79181894D01*
X117642666Y-79181894D01*
X117806547Y-79114013D01*
X117954035Y-79015464D01*
X118079464Y-78890035D01*
X118178013Y-78742547D01*
X118245894Y-78578666D01*
X118257032Y-78522675D01*
X118276266Y-78425978D01*
X118280500Y-78404691D01*
X118280500Y-78227309D01*
X118280500Y-78227306D01*
X118280499Y-78227304D01*
X118245896Y-78053341D01*
X118245893Y-78053332D01*
X118178016Y-77889459D01*
X118178009Y-77889446D01*
X118079464Y-77741965D01*
X118079461Y-77741961D01*
X117954038Y-77616538D01*
X117954034Y-77616535D01*
X117806553Y-77517990D01*
X117806540Y-77517983D01*
X117642667Y-77450106D01*
X117642658Y-77450103D01*
X117468694Y-77415500D01*
X117468691Y-77415500D01*
X117291309Y-77415500D01*
X117291306Y-77415500D01*
X117117341Y-77450103D01*
X117117332Y-77450106D01*
X116953459Y-77517983D01*
X116953446Y-77517990D01*
X116805965Y-77616535D01*
X116805961Y-77616538D01*
X116680538Y-77741961D01*
X116680535Y-77741965D01*
X116581990Y-77889446D01*
X116581983Y-77889459D01*
X116514106Y-78053332D01*
X116514103Y-78053341D01*
X116479500Y-78227304D01*
X91501706Y-78227304D01*
X91468397Y-78146889D01*
X91468390Y-78146876D01*
X91380789Y-78015773D01*
X91380786Y-78015769D01*
X91269292Y-77904275D01*
X91269288Y-77904272D01*
X91138185Y-77816671D01*
X91138172Y-77816664D01*
X90992501Y-77756326D01*
X90992489Y-77756323D01*
X90837845Y-77725562D01*
X90837842Y-77725562D01*
X90680158Y-77725562D01*
X90680155Y-77725562D01*
X90525510Y-77756323D01*
X90525498Y-77756326D01*
X90379827Y-77816664D01*
X90379814Y-77816671D01*
X90248711Y-77904272D01*
X90248707Y-77904275D01*
X90137213Y-78015769D01*
X90137210Y-78015773D01*
X90049609Y-78146876D01*
X90049602Y-78146889D01*
X89989264Y-78292560D01*
X89989261Y-78292572D01*
X89958500Y-78447215D01*
X77962540Y-78447215D01*
X77919048Y-78397394D01*
X77829566Y-78294891D01*
X77826864Y-78291688D01*
X77632605Y-78053334D01*
X77219926Y-77546979D01*
X77217343Y-77543698D01*
X77092895Y-77379982D01*
X85778499Y-77379982D01*
X85807340Y-77524969D01*
X85807343Y-77524979D01*
X85863912Y-77661550D01*
X85863919Y-77661563D01*
X85946048Y-77784477D01*
X85946051Y-77784481D01*
X86050580Y-77889010D01*
X86050584Y-77889013D01*
X86173498Y-77971142D01*
X86173511Y-77971149D01*
X86281244Y-78015773D01*
X86310087Y-78027720D01*
X86310091Y-78027720D01*
X86310092Y-78027721D01*
X86455079Y-78056562D01*
X86455082Y-78056562D01*
X86602920Y-78056562D01*
X86700462Y-78037158D01*
X86747913Y-78027720D01*
X86884495Y-77971146D01*
X87007416Y-77889013D01*
X87111951Y-77784478D01*
X87194084Y-77661557D01*
X87250658Y-77524975D01*
X87265551Y-77450103D01*
X87279500Y-77379982D01*
X87279500Y-77232141D01*
X87250659Y-77087154D01*
X87250658Y-77087153D01*
X87250658Y-77087149D01*
X87247274Y-77078980D01*
X87194087Y-76950573D01*
X87194080Y-76950560D01*
X87111951Y-76827646D01*
X87111948Y-76827642D01*
X87007419Y-76723113D01*
X87007415Y-76723110D01*
X86884501Y-76640981D01*
X86884488Y-76640974D01*
X86747917Y-76584405D01*
X86747907Y-76584402D01*
X86602920Y-76555562D01*
X86602918Y-76555562D01*
X86455082Y-76555562D01*
X86455080Y-76555562D01*
X86310092Y-76584402D01*
X86310082Y-76584405D01*
X86173511Y-76640974D01*
X86173498Y-76640981D01*
X86050584Y-76723110D01*
X86050580Y-76723113D01*
X85946051Y-76827642D01*
X85946048Y-76827646D01*
X85863919Y-76950560D01*
X85863912Y-76950573D01*
X85807343Y-77087144D01*
X85807340Y-77087154D01*
X85778500Y-77232141D01*
X85778500Y-77232144D01*
X85778500Y-77379980D01*
X85778500Y-77379982D01*
X85778499Y-77379982D01*
X77092895Y-77379982D01*
X76974302Y-77223969D01*
X76635963Y-76778871D01*
X76633479Y-76775487D01*
X76595364Y-76721656D01*
X76136739Y-76073918D01*
X76126164Y-76058982D01*
X93495499Y-76058982D01*
X93524340Y-76203969D01*
X93524343Y-76203979D01*
X93580912Y-76340550D01*
X93580918Y-76340561D01*
X93638121Y-76426172D01*
X93658998Y-76492849D01*
X93640513Y-76560229D01*
X93638121Y-76563952D01*
X93580918Y-76649562D01*
X93580912Y-76649573D01*
X93524343Y-76786144D01*
X93524340Y-76786154D01*
X93495500Y-76931141D01*
X93495500Y-76931144D01*
X93495500Y-77078980D01*
X93495500Y-77078982D01*
X93495499Y-77078982D01*
X93524340Y-77223969D01*
X93524343Y-77223979D01*
X93580912Y-77360550D01*
X93580919Y-77360563D01*
X93663048Y-77483477D01*
X93663051Y-77483481D01*
X93767580Y-77588010D01*
X93767584Y-77588013D01*
X93890498Y-77670142D01*
X93890511Y-77670149D01*
X94024291Y-77725562D01*
X94027087Y-77726720D01*
X94027091Y-77726720D01*
X94027092Y-77726721D01*
X94172079Y-77755562D01*
X94172082Y-77755562D01*
X94319920Y-77755562D01*
X94417462Y-77736158D01*
X94464913Y-77726720D01*
X94601495Y-77670146D01*
X94724416Y-77588013D01*
X94828951Y-77483478D01*
X94911084Y-77360557D01*
X94967658Y-77223975D01*
X94996500Y-77078980D01*
X94996500Y-76931144D01*
X94996500Y-76931141D01*
X94967659Y-76786154D01*
X94967658Y-76786153D01*
X94967658Y-76786149D01*
X94941547Y-76723111D01*
X94911087Y-76649573D01*
X94911080Y-76649560D01*
X94853879Y-76563953D01*
X94833001Y-76497275D01*
X94851485Y-76429895D01*
X94853879Y-76426171D01*
X94911080Y-76340563D01*
X94911081Y-76340561D01*
X94911084Y-76340557D01*
X94967658Y-76203975D01*
X94980038Y-76141736D01*
X94993528Y-76073920D01*
X102096499Y-76073920D01*
X102125340Y-76218907D01*
X102125343Y-76218917D01*
X102181912Y-76355488D01*
X102181919Y-76355501D01*
X102264048Y-76478415D01*
X102264051Y-76478419D01*
X102368580Y-76582948D01*
X102368584Y-76582951D01*
X102491498Y-76665080D01*
X102491511Y-76665087D01*
X102628082Y-76721656D01*
X102628087Y-76721658D01*
X102628091Y-76721658D01*
X102628092Y-76721659D01*
X102773079Y-76750500D01*
X102773082Y-76750500D01*
X102920920Y-76750500D01*
X103058613Y-76723110D01*
X103065913Y-76721658D01*
X103202495Y-76665084D01*
X103325416Y-76582951D01*
X103429951Y-76478416D01*
X103512084Y-76355495D01*
X103568658Y-76218913D01*
X103578096Y-76171462D01*
X103597500Y-76073920D01*
X103597500Y-75926079D01*
X103568659Y-75781092D01*
X103568658Y-75781091D01*
X103568658Y-75781087D01*
X103562473Y-75766154D01*
X103512087Y-75644511D01*
X103512080Y-75644498D01*
X103429951Y-75521584D01*
X103429948Y-75521580D01*
X103325419Y-75417051D01*
X103325415Y-75417048D01*
X103202501Y-75334919D01*
X103202488Y-75334912D01*
X103065917Y-75278343D01*
X103065907Y-75278340D01*
X102920920Y-75249500D01*
X102920918Y-75249500D01*
X102773082Y-75249500D01*
X102773080Y-75249500D01*
X102628092Y-75278340D01*
X102628082Y-75278343D01*
X102491511Y-75334912D01*
X102491498Y-75334919D01*
X102368584Y-75417048D01*
X102368580Y-75417051D01*
X102264051Y-75521580D01*
X102264048Y-75521584D01*
X102181919Y-75644498D01*
X102181912Y-75644511D01*
X102125343Y-75781082D01*
X102125340Y-75781092D01*
X102096500Y-75926079D01*
X102096500Y-75926082D01*
X102096500Y-76073918D01*
X102096500Y-76073920D01*
X102096499Y-76073920D01*
X94993528Y-76073920D01*
X94996500Y-76058982D01*
X94996500Y-75911141D01*
X94967659Y-75766154D01*
X94967658Y-75766153D01*
X94967658Y-75766149D01*
X94917269Y-75644498D01*
X94911087Y-75629573D01*
X94911080Y-75629560D01*
X94828951Y-75506646D01*
X94828948Y-75506642D01*
X94724419Y-75402113D01*
X94724415Y-75402110D01*
X94601501Y-75319981D01*
X94601488Y-75319974D01*
X94464917Y-75263405D01*
X94464907Y-75263402D01*
X94319920Y-75234562D01*
X94319918Y-75234562D01*
X94172082Y-75234562D01*
X94172080Y-75234562D01*
X94027092Y-75263402D01*
X94027082Y-75263405D01*
X93890511Y-75319974D01*
X93890498Y-75319981D01*
X93767584Y-75402110D01*
X93767580Y-75402113D01*
X93663051Y-75506642D01*
X93663048Y-75506646D01*
X93580919Y-75629560D01*
X93580912Y-75629573D01*
X93524343Y-75766144D01*
X93524340Y-75766154D01*
X93495500Y-75911141D01*
X93495500Y-75911144D01*
X93495500Y-76058980D01*
X93495500Y-76058982D01*
X93495499Y-76058982D01*
X76126164Y-76058982D01*
X76078302Y-75991385D01*
X76075952Y-75987944D01*
X75547620Y-75185475D01*
X75545404Y-75181980D01*
X75130682Y-74503095D01*
X75112500Y-74438453D01*
X75112500Y-73489982D01*
X83848499Y-73489982D01*
X83877340Y-73634969D01*
X83877343Y-73634979D01*
X83933912Y-73771550D01*
X83933919Y-73771563D01*
X84016048Y-73894477D01*
X84016051Y-73894481D01*
X84120580Y-73999010D01*
X84120584Y-73999013D01*
X84243498Y-74081142D01*
X84243511Y-74081149D01*
X84380082Y-74137718D01*
X84380087Y-74137720D01*
X84380091Y-74137720D01*
X84380092Y-74137721D01*
X84525079Y-74166562D01*
X84525082Y-74166562D01*
X84672920Y-74166562D01*
X84770462Y-74147158D01*
X84817913Y-74137720D01*
X84954495Y-74081146D01*
X85077416Y-73999013D01*
X85181951Y-73894478D01*
X85264084Y-73771557D01*
X85320658Y-73634975D01*
X85339407Y-73540720D01*
X85349500Y-73489982D01*
X85349500Y-73342141D01*
X85320659Y-73197154D01*
X85320658Y-73197153D01*
X85320658Y-73197149D01*
X85311297Y-73174550D01*
X85264087Y-73060573D01*
X85264080Y-73060560D01*
X85181951Y-72937646D01*
X85181948Y-72937642D01*
X85137288Y-72892982D01*
X86301499Y-72892982D01*
X86330340Y-73037969D01*
X86330343Y-73037979D01*
X86386912Y-73174550D01*
X86386919Y-73174563D01*
X86469048Y-73297477D01*
X86469051Y-73297481D01*
X86573580Y-73402010D01*
X86573584Y-73402013D01*
X86696498Y-73484142D01*
X86696511Y-73484149D01*
X86833082Y-73540718D01*
X86833087Y-73540720D01*
X86833091Y-73540720D01*
X86833092Y-73540721D01*
X86978079Y-73569562D01*
X86978082Y-73569562D01*
X87125920Y-73569562D01*
X87223462Y-73550158D01*
X87270913Y-73540720D01*
X87393406Y-73489982D01*
X87407488Y-73484149D01*
X87407488Y-73484148D01*
X87407495Y-73484146D01*
X87464612Y-73445982D01*
X91234499Y-73445982D01*
X91263340Y-73590969D01*
X91263343Y-73590979D01*
X91319912Y-73727550D01*
X91319919Y-73727563D01*
X91402048Y-73850477D01*
X91402051Y-73850481D01*
X91506580Y-73955010D01*
X91506584Y-73955013D01*
X91629498Y-74037142D01*
X91629511Y-74037149D01*
X91766082Y-74093718D01*
X91766087Y-74093720D01*
X91766091Y-74093720D01*
X91766092Y-74093721D01*
X91911079Y-74122562D01*
X91911082Y-74122562D01*
X92058920Y-74122562D01*
X92156462Y-74103158D01*
X92203913Y-74093720D01*
X92340495Y-74037146D01*
X92463416Y-73955013D01*
X92567951Y-73850478D01*
X92650084Y-73727557D01*
X92706658Y-73590975D01*
X92735500Y-73445980D01*
X92735500Y-73298144D01*
X92735500Y-73298141D01*
X92706659Y-73153154D01*
X92706658Y-73153153D01*
X92706658Y-73153149D01*
X92706656Y-73153144D01*
X92650087Y-73016573D01*
X92650080Y-73016560D01*
X92567951Y-72893646D01*
X92567948Y-72893642D01*
X92463419Y-72789113D01*
X92463415Y-72789110D01*
X92340501Y-72706981D01*
X92340488Y-72706974D01*
X92203917Y-72650405D01*
X92203907Y-72650402D01*
X92058920Y-72621562D01*
X92058918Y-72621562D01*
X91911082Y-72621562D01*
X91911080Y-72621562D01*
X91766092Y-72650402D01*
X91766082Y-72650405D01*
X91629511Y-72706974D01*
X91629498Y-72706981D01*
X91506584Y-72789110D01*
X91506580Y-72789113D01*
X91402051Y-72893642D01*
X91402048Y-72893646D01*
X91319919Y-73016560D01*
X91319912Y-73016573D01*
X91263343Y-73153144D01*
X91263340Y-73153154D01*
X91234500Y-73298141D01*
X91234500Y-73298144D01*
X91234500Y-73445980D01*
X91234500Y-73445982D01*
X91234499Y-73445982D01*
X87464612Y-73445982D01*
X87530416Y-73402013D01*
X87634951Y-73297478D01*
X87650484Y-73274230D01*
X87684608Y-73223162D01*
X87684608Y-73223161D01*
X87701985Y-73197154D01*
X87717084Y-73174557D01*
X87773658Y-73037975D01*
X87802368Y-72893646D01*
X87802500Y-72892982D01*
X87802500Y-72745141D01*
X87773659Y-72600154D01*
X87773658Y-72600153D01*
X87773658Y-72600149D01*
X87773230Y-72599115D01*
X87717087Y-72463573D01*
X87717080Y-72463560D01*
X87634951Y-72340646D01*
X87634948Y-72340642D01*
X87530419Y-72236113D01*
X87530415Y-72236110D01*
X87407501Y-72153981D01*
X87407488Y-72153974D01*
X87270917Y-72097405D01*
X87270907Y-72097402D01*
X87125920Y-72068562D01*
X87125918Y-72068562D01*
X86978082Y-72068562D01*
X86978080Y-72068562D01*
X86833092Y-72097402D01*
X86833082Y-72097405D01*
X86696511Y-72153974D01*
X86696498Y-72153981D01*
X86573584Y-72236110D01*
X86573580Y-72236113D01*
X86469051Y-72340642D01*
X86469048Y-72340646D01*
X86386919Y-72463560D01*
X86386912Y-72463573D01*
X86330343Y-72600144D01*
X86330340Y-72600154D01*
X86301500Y-72745141D01*
X86301500Y-72745144D01*
X86301500Y-72892980D01*
X86301500Y-72892982D01*
X86301499Y-72892982D01*
X85137288Y-72892982D01*
X85077418Y-72833112D01*
X84954501Y-72750981D01*
X84954488Y-72750974D01*
X84817917Y-72694405D01*
X84817907Y-72694402D01*
X84672920Y-72665562D01*
X84672918Y-72665562D01*
X84525082Y-72665562D01*
X84525080Y-72665562D01*
X84380092Y-72694402D01*
X84380082Y-72694405D01*
X84243511Y-72750974D01*
X84243498Y-72750981D01*
X84120584Y-72833110D01*
X84120580Y-72833113D01*
X84016051Y-72937642D01*
X84016048Y-72937646D01*
X83933919Y-73060560D01*
X83933912Y-73060573D01*
X83877343Y-73197144D01*
X83877340Y-73197154D01*
X83848500Y-73342141D01*
X83848500Y-73342144D01*
X83848500Y-73489980D01*
X83848500Y-73489982D01*
X83848499Y-73489982D01*
X75112500Y-73489982D01*
X75112500Y-69464906D01*
X75542000Y-69464906D01*
X75548401Y-69524434D01*
X75548403Y-69524441D01*
X75598645Y-69659148D01*
X75598649Y-69659155D01*
X75684809Y-69774249D01*
X75684812Y-69774252D01*
X75799906Y-69860412D01*
X75799913Y-69860416D01*
X75934620Y-69910658D01*
X75934627Y-69910660D01*
X75994155Y-69917061D01*
X75994172Y-69917062D01*
X77082000Y-69917062D01*
X77582000Y-69917062D01*
X78669828Y-69917062D01*
X78669844Y-69917061D01*
X78729372Y-69910660D01*
X78729379Y-69910658D01*
X78864086Y-69860416D01*
X78864093Y-69860412D01*
X78979187Y-69774252D01*
X78979190Y-69774249D01*
X79065350Y-69659155D01*
X79065354Y-69659148D01*
X79115596Y-69524441D01*
X79115598Y-69524434D01*
X79121999Y-69464906D01*
X79712000Y-69464906D01*
X79718401Y-69524434D01*
X79718403Y-69524441D01*
X79768645Y-69659148D01*
X79768649Y-69659155D01*
X79854809Y-69774249D01*
X79854812Y-69774252D01*
X79969906Y-69860412D01*
X79969913Y-69860416D01*
X80104620Y-69910658D01*
X80104627Y-69910660D01*
X80164155Y-69917061D01*
X80164172Y-69917062D01*
X81252000Y-69917062D01*
X81752000Y-69917062D01*
X82839828Y-69917062D01*
X82839844Y-69917061D01*
X82899372Y-69910660D01*
X82899379Y-69910658D01*
X83034086Y-69860416D01*
X83034093Y-69860412D01*
X83149187Y-69774252D01*
X83149190Y-69774249D01*
X83235350Y-69659155D01*
X83235354Y-69659148D01*
X83285596Y-69524441D01*
X83285598Y-69524434D01*
X83291999Y-69464906D01*
X83292000Y-69464889D01*
X83292000Y-69167062D01*
X81752000Y-69167062D01*
X81752000Y-69917062D01*
X81252000Y-69917062D01*
X81252000Y-69167062D01*
X79712000Y-69167062D01*
X79712000Y-69464906D01*
X79121999Y-69464906D01*
X79122000Y-69464889D01*
X79122000Y-69167062D01*
X77582000Y-69167062D01*
X77582000Y-69917062D01*
X77082000Y-69917062D01*
X77082000Y-69167062D01*
X75542000Y-69167062D01*
X75542000Y-69464906D01*
X75112500Y-69464906D01*
X75112500Y-68870984D01*
X76982000Y-68870984D01*
X76982000Y-68963140D01*
X77005852Y-69052157D01*
X77051930Y-69131967D01*
X77117095Y-69197132D01*
X77196905Y-69243210D01*
X77285922Y-69267062D01*
X77378078Y-69267062D01*
X77467095Y-69243210D01*
X77546905Y-69197132D01*
X77612070Y-69131967D01*
X77658148Y-69052157D01*
X77682000Y-68963140D01*
X77682000Y-68870984D01*
X81152000Y-68870984D01*
X81152000Y-68963140D01*
X81175852Y-69052157D01*
X81221930Y-69131967D01*
X81287095Y-69197132D01*
X81366905Y-69243210D01*
X81455922Y-69267062D01*
X81548078Y-69267062D01*
X81637095Y-69243210D01*
X81716905Y-69197132D01*
X81782070Y-69131967D01*
X81828148Y-69052157D01*
X81852000Y-68963140D01*
X81852000Y-68870984D01*
X81828148Y-68781967D01*
X81782070Y-68702157D01*
X81746975Y-68667062D01*
X81752000Y-68667062D01*
X83292000Y-68667062D01*
X83292000Y-68369234D01*
X83291999Y-68369217D01*
X83285598Y-68309689D01*
X83285596Y-68309682D01*
X83235354Y-68174975D01*
X83235350Y-68174968D01*
X83149190Y-68059875D01*
X83091021Y-68016329D01*
X83049150Y-67960395D01*
X83044166Y-67890703D01*
X83077651Y-67829380D01*
X83091021Y-67817795D01*
X83149190Y-67774248D01*
X83235350Y-67659155D01*
X83235354Y-67659148D01*
X83285596Y-67524441D01*
X83285598Y-67524434D01*
X83291999Y-67464906D01*
X83292000Y-67464889D01*
X83292000Y-67167062D01*
X81752000Y-67167062D01*
X81752000Y-68667062D01*
X81746975Y-68667062D01*
X81716905Y-68636992D01*
X81637095Y-68590914D01*
X81548078Y-68567062D01*
X81455922Y-68567062D01*
X81366905Y-68590914D01*
X81287095Y-68636992D01*
X81221930Y-68702157D01*
X81175852Y-68781967D01*
X81152000Y-68870984D01*
X77682000Y-68870984D01*
X77658148Y-68781967D01*
X77612070Y-68702157D01*
X77576975Y-68667062D01*
X77582000Y-68667062D01*
X79122000Y-68667062D01*
X79122000Y-68369234D01*
X79121999Y-68369217D01*
X79115598Y-68309689D01*
X79115596Y-68309682D01*
X79065354Y-68174975D01*
X79065350Y-68174968D01*
X78979190Y-68059875D01*
X78921021Y-68016329D01*
X78879150Y-67960395D01*
X78874166Y-67890703D01*
X78907651Y-67829380D01*
X78921021Y-67817795D01*
X78979190Y-67774248D01*
X79065350Y-67659155D01*
X79065354Y-67659148D01*
X79115596Y-67524441D01*
X79115598Y-67524434D01*
X79121999Y-67464906D01*
X79712000Y-67464906D01*
X79718401Y-67524434D01*
X79718403Y-67524441D01*
X79768645Y-67659148D01*
X79768649Y-67659155D01*
X79854809Y-67774249D01*
X79912979Y-67817796D01*
X79954849Y-67873730D01*
X79959833Y-67943422D01*
X79926347Y-68004745D01*
X79912979Y-68016328D01*
X79854809Y-68059874D01*
X79768649Y-68174968D01*
X79768645Y-68174975D01*
X79718403Y-68309682D01*
X79718401Y-68309689D01*
X79712000Y-68369217D01*
X79712000Y-68667062D01*
X81252000Y-68667062D01*
X81252000Y-67167062D01*
X79712000Y-67167062D01*
X79712000Y-67464906D01*
X79121999Y-67464906D01*
X79122000Y-67464889D01*
X79122000Y-67167062D01*
X77582000Y-67167062D01*
X77582000Y-68667062D01*
X77576975Y-68667062D01*
X77546905Y-68636992D01*
X77467095Y-68590914D01*
X77378078Y-68567062D01*
X77285922Y-68567062D01*
X77196905Y-68590914D01*
X77117095Y-68636992D01*
X77051930Y-68702157D01*
X77005852Y-68781967D01*
X76982000Y-68870984D01*
X75112500Y-68870984D01*
X75112500Y-67464906D01*
X75542000Y-67464906D01*
X75548401Y-67524434D01*
X75548403Y-67524441D01*
X75598645Y-67659148D01*
X75598649Y-67659155D01*
X75684809Y-67774249D01*
X75742979Y-67817796D01*
X75784849Y-67873730D01*
X75789833Y-67943422D01*
X75756347Y-68004745D01*
X75742979Y-68016328D01*
X75684809Y-68059874D01*
X75598649Y-68174968D01*
X75598645Y-68174975D01*
X75548403Y-68309682D01*
X75548401Y-68309689D01*
X75542000Y-68369217D01*
X75542000Y-68667062D01*
X77082000Y-68667062D01*
X77082000Y-67167062D01*
X75542000Y-67167062D01*
X75542000Y-67464906D01*
X75112500Y-67464906D01*
X75112500Y-50369197D01*
X75541500Y-50369197D01*
X75541500Y-51464932D01*
X75541501Y-51464938D01*
X75547908Y-51524545D01*
X75598202Y-51659390D01*
X75598206Y-51659397D01*
X75684452Y-51774606D01*
X75684453Y-51774606D01*
X75684454Y-51774608D01*
X75713615Y-51796438D01*
X75742145Y-51817796D01*
X75784015Y-51873730D01*
X75788999Y-51943422D01*
X75755513Y-52004745D01*
X75742145Y-52016328D01*
X75684452Y-52059517D01*
X75598206Y-52174726D01*
X75598202Y-52174733D01*
X75547908Y-52309579D01*
X75541501Y-52369178D01*
X75541501Y-52369185D01*
X75541500Y-52369197D01*
X75541500Y-53464932D01*
X75541501Y-53464938D01*
X75547908Y-53524545D01*
X75598202Y-53659390D01*
X75598206Y-53659397D01*
X75684452Y-53774606D01*
X75684453Y-53774606D01*
X75684454Y-53774608D01*
X75687516Y-53776900D01*
X75742145Y-53817796D01*
X75784015Y-53873730D01*
X75788999Y-53943422D01*
X75755513Y-54004745D01*
X75742145Y-54016328D01*
X75684452Y-54059517D01*
X75598206Y-54174726D01*
X75598202Y-54174733D01*
X75547908Y-54309579D01*
X75541501Y-54369178D01*
X75541501Y-54369185D01*
X75541500Y-54369197D01*
X75541500Y-55464932D01*
X75541501Y-55464938D01*
X75547908Y-55524545D01*
X75598202Y-55659390D01*
X75598206Y-55659397D01*
X75684452Y-55774606D01*
X75684453Y-55774606D01*
X75684454Y-55774608D01*
X75713615Y-55796438D01*
X75742145Y-55817796D01*
X75784015Y-55873730D01*
X75788999Y-55943422D01*
X75755513Y-56004745D01*
X75742145Y-56016328D01*
X75684452Y-56059517D01*
X75598206Y-56174726D01*
X75598202Y-56174733D01*
X75547908Y-56309579D01*
X75541501Y-56369178D01*
X75541501Y-56369185D01*
X75541500Y-56369197D01*
X75541500Y-57464932D01*
X75541501Y-57464938D01*
X75547908Y-57524545D01*
X75598202Y-57659390D01*
X75598206Y-57659397D01*
X75684452Y-57774606D01*
X75684453Y-57774606D01*
X75684454Y-57774608D01*
X75719727Y-57801013D01*
X75742562Y-57818108D01*
X75784432Y-57874042D01*
X75789416Y-57943734D01*
X75755930Y-58005056D01*
X75742562Y-58016640D01*
X75684809Y-58059874D01*
X75598649Y-58174968D01*
X75598645Y-58174975D01*
X75548403Y-58309682D01*
X75548401Y-58309689D01*
X75542000Y-58369217D01*
X75542000Y-58667062D01*
X77087025Y-58667062D01*
X77051930Y-58702157D01*
X77005852Y-58781967D01*
X76982000Y-58870984D01*
X76982000Y-58963140D01*
X77005852Y-59052157D01*
X77051930Y-59131967D01*
X77087025Y-59167062D01*
X75542000Y-59167062D01*
X75542000Y-59464906D01*
X75548401Y-59524434D01*
X75548403Y-59524441D01*
X75598645Y-59659148D01*
X75598649Y-59659155D01*
X75684809Y-59774248D01*
X75742561Y-59817482D01*
X75784432Y-59873416D01*
X75789416Y-59943108D01*
X75755931Y-60004431D01*
X75742563Y-60016014D01*
X75684454Y-60059515D01*
X75684452Y-60059517D01*
X75598206Y-60174726D01*
X75598202Y-60174733D01*
X75547908Y-60309579D01*
X75541501Y-60369178D01*
X75541501Y-60369185D01*
X75541500Y-60369197D01*
X75541500Y-61464932D01*
X75541501Y-61464938D01*
X75547908Y-61524545D01*
X75598202Y-61659390D01*
X75598206Y-61659397D01*
X75684452Y-61774606D01*
X75684453Y-61774606D01*
X75684454Y-61774608D01*
X75713615Y-61796438D01*
X75742145Y-61817796D01*
X75784015Y-61873730D01*
X75788999Y-61943422D01*
X75755513Y-62004745D01*
X75742145Y-62016328D01*
X75684452Y-62059517D01*
X75598206Y-62174726D01*
X75598202Y-62174733D01*
X75547908Y-62309579D01*
X75541501Y-62369178D01*
X75541501Y-62369185D01*
X75541500Y-62369197D01*
X75541500Y-63464932D01*
X75541501Y-63464938D01*
X75547908Y-63524545D01*
X75598202Y-63659390D01*
X75598206Y-63659397D01*
X75684452Y-63774606D01*
X75684453Y-63774606D01*
X75684454Y-63774608D01*
X75713615Y-63796438D01*
X75742145Y-63817796D01*
X75784015Y-63873730D01*
X75788999Y-63943422D01*
X75755513Y-64004745D01*
X75742145Y-64016328D01*
X75684452Y-64059517D01*
X75598206Y-64174726D01*
X75598202Y-64174733D01*
X75547908Y-64309579D01*
X75541501Y-64369178D01*
X75541501Y-64369185D01*
X75541500Y-64369197D01*
X75541500Y-65464932D01*
X75541501Y-65464938D01*
X75547908Y-65524545D01*
X75598202Y-65659390D01*
X75598206Y-65659397D01*
X75684452Y-65774606D01*
X75684453Y-65774606D01*
X75684454Y-65774608D01*
X75719727Y-65801013D01*
X75742562Y-65818108D01*
X75784432Y-65874042D01*
X75789416Y-65943734D01*
X75755930Y-66005056D01*
X75742562Y-66016640D01*
X75684809Y-66059874D01*
X75598649Y-66174968D01*
X75598645Y-66174975D01*
X75548403Y-66309682D01*
X75548401Y-66309689D01*
X75542000Y-66369217D01*
X75542000Y-66667062D01*
X77087025Y-66667062D01*
X77051930Y-66702157D01*
X77005852Y-66781967D01*
X76982000Y-66870984D01*
X76982000Y-66963140D01*
X77005852Y-67052157D01*
X77051930Y-67131967D01*
X77117095Y-67197132D01*
X77196905Y-67243210D01*
X77285922Y-67267062D01*
X77378078Y-67267062D01*
X77467095Y-67243210D01*
X77546905Y-67197132D01*
X77612070Y-67131967D01*
X77658148Y-67052157D01*
X77682000Y-66963140D01*
X77682000Y-66870984D01*
X77658148Y-66781967D01*
X77612070Y-66702157D01*
X77576975Y-66667062D01*
X79122000Y-66667062D01*
X79122000Y-66369234D01*
X79121999Y-66369217D01*
X79115598Y-66309689D01*
X79115596Y-66309682D01*
X79065354Y-66174975D01*
X79065350Y-66174968D01*
X78979190Y-66059874D01*
X78979187Y-66059871D01*
X78921438Y-66016640D01*
X78879567Y-65960707D01*
X78874583Y-65891015D01*
X78908069Y-65829692D01*
X78921432Y-65818111D01*
X78979546Y-65774608D01*
X79065796Y-65659393D01*
X79116091Y-65524545D01*
X79122500Y-65464935D01*
X79122499Y-64369190D01*
X79116091Y-64309579D01*
X79065884Y-64174968D01*
X79065797Y-64174733D01*
X79065793Y-64174726D01*
X79014123Y-64105705D01*
X78979546Y-64059516D01*
X78921854Y-64016327D01*
X78879984Y-63960395D01*
X78875000Y-63890703D01*
X78908485Y-63829380D01*
X78921854Y-63817796D01*
X78979546Y-63774608D01*
X79065796Y-63659393D01*
X79116091Y-63524545D01*
X79122500Y-63464935D01*
X79122499Y-62369190D01*
X79116091Y-62309579D01*
X79065884Y-62174968D01*
X79065797Y-62174733D01*
X79065793Y-62174726D01*
X78979814Y-62059874D01*
X78979546Y-62059516D01*
X78921854Y-62016327D01*
X78879984Y-61960395D01*
X78875000Y-61890703D01*
X78908485Y-61829380D01*
X78921854Y-61817796D01*
X78979546Y-61774608D01*
X79065796Y-61659393D01*
X79116091Y-61524545D01*
X79122500Y-61464935D01*
X79122499Y-60369197D01*
X79711500Y-60369197D01*
X79711500Y-61464932D01*
X79711501Y-61464938D01*
X79717908Y-61524545D01*
X79768202Y-61659390D01*
X79768206Y-61659397D01*
X79854452Y-61774606D01*
X79854453Y-61774606D01*
X79854454Y-61774608D01*
X79883615Y-61796438D01*
X79912145Y-61817796D01*
X79954015Y-61873730D01*
X79958999Y-61943422D01*
X79925513Y-62004745D01*
X79912145Y-62016328D01*
X79854452Y-62059517D01*
X79768206Y-62174726D01*
X79768202Y-62174733D01*
X79717908Y-62309579D01*
X79711501Y-62369178D01*
X79711501Y-62369185D01*
X79711500Y-62369197D01*
X79711500Y-63464932D01*
X79711501Y-63464938D01*
X79717908Y-63524545D01*
X79768202Y-63659390D01*
X79768206Y-63659397D01*
X79854452Y-63774606D01*
X79854453Y-63774606D01*
X79854454Y-63774608D01*
X79883615Y-63796438D01*
X79912145Y-63817796D01*
X79954015Y-63873730D01*
X79958999Y-63943422D01*
X79925513Y-64004745D01*
X79912145Y-64016328D01*
X79854452Y-64059517D01*
X79768206Y-64174726D01*
X79768202Y-64174733D01*
X79717908Y-64309579D01*
X79711501Y-64369178D01*
X79711501Y-64369185D01*
X79711500Y-64369197D01*
X79711500Y-65464932D01*
X79711501Y-65464938D01*
X79717908Y-65524545D01*
X79768202Y-65659390D01*
X79768206Y-65659397D01*
X79854452Y-65774606D01*
X79854453Y-65774606D01*
X79854454Y-65774608D01*
X79889727Y-65801013D01*
X79912562Y-65818108D01*
X79954432Y-65874042D01*
X79959416Y-65943734D01*
X79925930Y-66005056D01*
X79912562Y-66016640D01*
X79854809Y-66059874D01*
X79768649Y-66174968D01*
X79768645Y-66174975D01*
X79718403Y-66309682D01*
X79718401Y-66309689D01*
X79712000Y-66369217D01*
X79712000Y-66667062D01*
X81257025Y-66667062D01*
X81221930Y-66702157D01*
X81175852Y-66781967D01*
X81152000Y-66870984D01*
X81152000Y-66963140D01*
X81175852Y-67052157D01*
X81221930Y-67131967D01*
X81287095Y-67197132D01*
X81366905Y-67243210D01*
X81455922Y-67267062D01*
X81548078Y-67267062D01*
X81637095Y-67243210D01*
X81716905Y-67197132D01*
X81782070Y-67131967D01*
X81828148Y-67052157D01*
X81852000Y-66963140D01*
X81852000Y-66870984D01*
X81828148Y-66781967D01*
X81782070Y-66702157D01*
X81746975Y-66667062D01*
X83292000Y-66667062D01*
X83292000Y-66369234D01*
X83291999Y-66369217D01*
X83285598Y-66309689D01*
X83285596Y-66309682D01*
X83235354Y-66174975D01*
X83235350Y-66174968D01*
X83149190Y-66059874D01*
X83149187Y-66059871D01*
X83091438Y-66016640D01*
X83049567Y-65960707D01*
X83044583Y-65891015D01*
X83078069Y-65829692D01*
X83091432Y-65818111D01*
X83149546Y-65774608D01*
X83235796Y-65659393D01*
X83286091Y-65524545D01*
X83292500Y-65464935D01*
X83292499Y-64369190D01*
X83286091Y-64309579D01*
X83235884Y-64174968D01*
X83235797Y-64174733D01*
X83235793Y-64174726D01*
X83184123Y-64105705D01*
X83149546Y-64059516D01*
X83091854Y-64016327D01*
X83049984Y-63960395D01*
X83045000Y-63890703D01*
X83078485Y-63829380D01*
X83091854Y-63817796D01*
X83149546Y-63774608D01*
X83235796Y-63659393D01*
X83286091Y-63524545D01*
X83292500Y-63464935D01*
X83292499Y-62369190D01*
X83286091Y-62309579D01*
X83235884Y-62174968D01*
X83235797Y-62174733D01*
X83235793Y-62174726D01*
X83149814Y-62059874D01*
X83149546Y-62059516D01*
X83091854Y-62016327D01*
X83049984Y-61960395D01*
X83045000Y-61890703D01*
X83078485Y-61829380D01*
X83091854Y-61817796D01*
X83149546Y-61774608D01*
X83235796Y-61659393D01*
X83286091Y-61524545D01*
X83292500Y-61464935D01*
X83292499Y-60369190D01*
X83286091Y-60309579D01*
X83275806Y-60282004D01*
X85361314Y-60282004D01*
X85399900Y-61026787D01*
X85399901Y-61026796D01*
X85477386Y-61768548D01*
X85477388Y-61768563D01*
X85477391Y-61768584D01*
X85593552Y-62505209D01*
X85593554Y-62505223D01*
X85748098Y-63234840D01*
X85892199Y-63774248D01*
X85940582Y-63955357D01*
X86170487Y-64664825D01*
X86437180Y-65361299D01*
X86437184Y-65361309D01*
X86437186Y-65361313D01*
X86437189Y-65361321D01*
X86739929Y-66042865D01*
X87070725Y-66693530D01*
X87077918Y-66707678D01*
X87276373Y-67052157D01*
X87450213Y-67353907D01*
X87560790Y-67524544D01*
X87855785Y-67979765D01*
X88293538Y-68583564D01*
X88762271Y-69163643D01*
X88762277Y-69163650D01*
X88762283Y-69163657D01*
X88762287Y-69163662D01*
X89260681Y-69718394D01*
X89260690Y-69718403D01*
X89260699Y-69718413D01*
X89787459Y-70246358D01*
X90341108Y-70746031D01*
X90920133Y-71216065D01*
X91522946Y-71655174D01*
X92147900Y-72062156D01*
X92793283Y-72435897D01*
X93457329Y-72775373D01*
X94138220Y-73079657D01*
X94834093Y-73347914D01*
X95543043Y-73579412D01*
X96263130Y-73773515D01*
X96992382Y-73929694D01*
X97728805Y-74047519D01*
X98470382Y-74126670D01*
X98470387Y-74126670D01*
X98470394Y-74126671D01*
X98910456Y-74150460D01*
X99215083Y-74166929D01*
X99951959Y-74168170D01*
X99960864Y-74168186D01*
X99960864Y-74168185D01*
X99960871Y-74168186D01*
X100705704Y-74130438D01*
X101087432Y-74090996D01*
X101447530Y-74053790D01*
X101447540Y-74053788D01*
X101447544Y-74053788D01*
X102184360Y-73938446D01*
X102184366Y-73938444D01*
X102184377Y-73938443D01*
X102914117Y-73784731D01*
X102914120Y-73784730D01*
X102914135Y-73784727D01*
X103634872Y-73593052D01*
X104344598Y-73363947D01*
X105041372Y-73098037D01*
X105723285Y-72796051D01*
X106388471Y-72458815D01*
X107035111Y-72087252D01*
X107661433Y-71682380D01*
X108265724Y-71245305D01*
X108680629Y-70910811D01*
X108682757Y-70909929D01*
X108684141Y-70908081D01*
X108714866Y-70896620D01*
X108745170Y-70884061D01*
X108747442Y-70884470D01*
X108749605Y-70883664D01*
X108781642Y-70890633D01*
X108813932Y-70896452D01*
X108816326Y-70898178D01*
X108817878Y-70898516D01*
X108846132Y-70919667D01*
X108929877Y-71003412D01*
X108929898Y-71003435D01*
X109039392Y-71112929D01*
X109039398Y-71112933D01*
X109054081Y-71127616D01*
X109054082Y-71127617D01*
X109222742Y-71248038D01*
X109222749Y-71248042D01*
X109408922Y-71339057D01*
X109515765Y-71370864D01*
X109607547Y-71398189D01*
X109813194Y-71423823D01*
X110020256Y-71415259D01*
X110223084Y-71372730D01*
X110416145Y-71297398D01*
X110594174Y-71191315D01*
X110752315Y-71057377D01*
X110886253Y-70899236D01*
X110992336Y-70721207D01*
X111067668Y-70528146D01*
X111110197Y-70325318D01*
X111118761Y-70118256D01*
X111093127Y-69912609D01*
X111051936Y-69774249D01*
X111033995Y-69713984D01*
X110942980Y-69527811D01*
X110942976Y-69527804D01*
X110822555Y-69359144D01*
X110820468Y-69357057D01*
X110795877Y-69332466D01*
X110749284Y-69285873D01*
X110749285Y-69285873D01*
X110702692Y-69239280D01*
X110702689Y-69239278D01*
X110660543Y-69197132D01*
X110614602Y-69151190D01*
X110581118Y-69089866D01*
X110586102Y-69020175D01*
X110605744Y-68985688D01*
X110940239Y-68570780D01*
X111377311Y-67966487D01*
X111782181Y-67340163D01*
X112153741Y-66693523D01*
X112318166Y-66369197D01*
X115931500Y-66369197D01*
X115931500Y-67464932D01*
X115931501Y-67464938D01*
X115937908Y-67524545D01*
X115988202Y-67659390D01*
X115988206Y-67659397D01*
X116074452Y-67774606D01*
X116074453Y-67774606D01*
X116074454Y-67774608D01*
X116103615Y-67796438D01*
X116132145Y-67817796D01*
X116174015Y-67873730D01*
X116178999Y-67943422D01*
X116145513Y-68004745D01*
X116132145Y-68016328D01*
X116074452Y-68059517D01*
X115988206Y-68174726D01*
X115988202Y-68174733D01*
X115937908Y-68309579D01*
X115931501Y-68369178D01*
X115931501Y-68369185D01*
X115931500Y-68369197D01*
X115931500Y-69464932D01*
X115931501Y-69464938D01*
X115937908Y-69524545D01*
X115988202Y-69659390D01*
X115988206Y-69659397D01*
X116074452Y-69774606D01*
X116074455Y-69774609D01*
X116189664Y-69860855D01*
X116189671Y-69860859D01*
X116324517Y-69911153D01*
X116324516Y-69911153D01*
X116331444Y-69911897D01*
X116384127Y-69917562D01*
X119059872Y-69917561D01*
X119119483Y-69911153D01*
X119254331Y-69860858D01*
X119369546Y-69774608D01*
X119455796Y-69659393D01*
X119506091Y-69524545D01*
X119512500Y-69464935D01*
X119512499Y-68369190D01*
X119506091Y-68309579D01*
X119468548Y-68208922D01*
X119455797Y-68174733D01*
X119455793Y-68174726D01*
X119374921Y-68066696D01*
X119369546Y-68059516D01*
X119311854Y-68016327D01*
X119269984Y-67960395D01*
X119265000Y-67890703D01*
X119298485Y-67829380D01*
X119311854Y-67817796D01*
X119369546Y-67774608D01*
X119455796Y-67659393D01*
X119506091Y-67524545D01*
X119512500Y-67464935D01*
X119512499Y-66369197D01*
X120101500Y-66369197D01*
X120101500Y-67464932D01*
X120101501Y-67464938D01*
X120107908Y-67524545D01*
X120158202Y-67659390D01*
X120158206Y-67659397D01*
X120244452Y-67774606D01*
X120244453Y-67774606D01*
X120244454Y-67774608D01*
X120273615Y-67796438D01*
X120302145Y-67817796D01*
X120344015Y-67873730D01*
X120348999Y-67943422D01*
X120315513Y-68004745D01*
X120302145Y-68016328D01*
X120244452Y-68059517D01*
X120158206Y-68174726D01*
X120158202Y-68174733D01*
X120107908Y-68309579D01*
X120101501Y-68369178D01*
X120101501Y-68369185D01*
X120101500Y-68369197D01*
X120101500Y-69464932D01*
X120101501Y-69464938D01*
X120107908Y-69524545D01*
X120158202Y-69659390D01*
X120158206Y-69659397D01*
X120244452Y-69774606D01*
X120244455Y-69774609D01*
X120359664Y-69860855D01*
X120359671Y-69860859D01*
X120494517Y-69911153D01*
X120494516Y-69911153D01*
X120501444Y-69911897D01*
X120554127Y-69917562D01*
X123229872Y-69917561D01*
X123289483Y-69911153D01*
X123424331Y-69860858D01*
X123539546Y-69774608D01*
X123625796Y-69659393D01*
X123676091Y-69524545D01*
X123682500Y-69464935D01*
X123682499Y-68369190D01*
X123676091Y-68309579D01*
X123638548Y-68208922D01*
X123625797Y-68174733D01*
X123625793Y-68174726D01*
X123544921Y-68066696D01*
X123539546Y-68059516D01*
X123481854Y-68016327D01*
X123439984Y-67960395D01*
X123435000Y-67890703D01*
X123468485Y-67829380D01*
X123481854Y-67817796D01*
X123539546Y-67774608D01*
X123625796Y-67659393D01*
X123676091Y-67524545D01*
X123682500Y-67464935D01*
X123682499Y-66369190D01*
X123677299Y-66320819D01*
X123676091Y-66309578D01*
X123625797Y-66174733D01*
X123625793Y-66174726D01*
X123539547Y-66059517D01*
X123539544Y-66059515D01*
X123497894Y-66028335D01*
X123481437Y-66016015D01*
X123439567Y-65960081D01*
X123434583Y-65890389D01*
X123468069Y-65829066D01*
X123481439Y-65817482D01*
X123539189Y-65774250D01*
X123539190Y-65774249D01*
X123625350Y-65659155D01*
X123625354Y-65659148D01*
X123675596Y-65524441D01*
X123675598Y-65524434D01*
X123681999Y-65464906D01*
X123682000Y-65464889D01*
X123682000Y-65167062D01*
X122136975Y-65167062D01*
X122172070Y-65131967D01*
X122218148Y-65052157D01*
X122242000Y-64963140D01*
X122242000Y-64870984D01*
X122218148Y-64781967D01*
X122172070Y-64702157D01*
X122136975Y-64667062D01*
X122142000Y-64667062D01*
X123682000Y-64667062D01*
X123682000Y-64369234D01*
X123681999Y-64369217D01*
X123675598Y-64309689D01*
X123675596Y-64309682D01*
X123625354Y-64174975D01*
X123625350Y-64174968D01*
X123539190Y-64059875D01*
X123481021Y-64016329D01*
X123439150Y-63960395D01*
X123434166Y-63890703D01*
X123467651Y-63829380D01*
X123481021Y-63817795D01*
X123539190Y-63774248D01*
X123625350Y-63659155D01*
X123625354Y-63659148D01*
X123675596Y-63524441D01*
X123675598Y-63524434D01*
X123681999Y-63464906D01*
X123682000Y-63464889D01*
X123682000Y-63167062D01*
X122142000Y-63167062D01*
X122142000Y-64667062D01*
X122136975Y-64667062D01*
X122106905Y-64636992D01*
X122027095Y-64590914D01*
X121938078Y-64567062D01*
X121845922Y-64567062D01*
X121756905Y-64590914D01*
X121677095Y-64636992D01*
X121611930Y-64702157D01*
X121565852Y-64781967D01*
X121542000Y-64870984D01*
X121542000Y-64963140D01*
X121565852Y-65052157D01*
X121611930Y-65131967D01*
X121647025Y-65167062D01*
X120102000Y-65167062D01*
X120102000Y-65464906D01*
X120108401Y-65524434D01*
X120108403Y-65524441D01*
X120158645Y-65659148D01*
X120158649Y-65659155D01*
X120244809Y-65774248D01*
X120302561Y-65817482D01*
X120344432Y-65873416D01*
X120349416Y-65943108D01*
X120315931Y-66004431D01*
X120302563Y-66016014D01*
X120244454Y-66059515D01*
X120244452Y-66059517D01*
X120158206Y-66174726D01*
X120158202Y-66174733D01*
X120107908Y-66309579D01*
X120101501Y-66369178D01*
X120101501Y-66369185D01*
X120101500Y-66369197D01*
X119512499Y-66369197D01*
X119512499Y-66369190D01*
X119507580Y-66323431D01*
X119506091Y-66309578D01*
X119455797Y-66174733D01*
X119455793Y-66174726D01*
X119369547Y-66059517D01*
X119369544Y-66059515D01*
X119327894Y-66028335D01*
X119311437Y-66016015D01*
X119269567Y-65960081D01*
X119264583Y-65890389D01*
X119298069Y-65829066D01*
X119311439Y-65817482D01*
X119369189Y-65774250D01*
X119369190Y-65774249D01*
X119455350Y-65659155D01*
X119455354Y-65659148D01*
X119505596Y-65524441D01*
X119505598Y-65524434D01*
X119511999Y-65464906D01*
X119512000Y-65464889D01*
X119512000Y-65167062D01*
X117966975Y-65167062D01*
X118002070Y-65131967D01*
X118048148Y-65052157D01*
X118072000Y-64963140D01*
X118072000Y-64870984D01*
X118048148Y-64781967D01*
X118002070Y-64702157D01*
X117966975Y-64667062D01*
X117972000Y-64667062D01*
X119512000Y-64667062D01*
X119512000Y-64369234D01*
X119511999Y-64369217D01*
X119505598Y-64309689D01*
X119505596Y-64309682D01*
X119455354Y-64174975D01*
X119455350Y-64174968D01*
X119369190Y-64059875D01*
X119311021Y-64016329D01*
X119269150Y-63960395D01*
X119264166Y-63890703D01*
X119297651Y-63829380D01*
X119311021Y-63817795D01*
X119369190Y-63774248D01*
X119455350Y-63659155D01*
X119455354Y-63659148D01*
X119505596Y-63524441D01*
X119505598Y-63524434D01*
X119511999Y-63464906D01*
X120102000Y-63464906D01*
X120108401Y-63524434D01*
X120108403Y-63524441D01*
X120158645Y-63659148D01*
X120158649Y-63659155D01*
X120244809Y-63774249D01*
X120302979Y-63817796D01*
X120344849Y-63873730D01*
X120349833Y-63943422D01*
X120316347Y-64004745D01*
X120302979Y-64016328D01*
X120244809Y-64059874D01*
X120158649Y-64174968D01*
X120158645Y-64174975D01*
X120108403Y-64309682D01*
X120108401Y-64309689D01*
X120102000Y-64369217D01*
X120102000Y-64667062D01*
X121642000Y-64667062D01*
X121642000Y-63167062D01*
X120102000Y-63167062D01*
X120102000Y-63464906D01*
X119511999Y-63464906D01*
X119512000Y-63464889D01*
X119512000Y-63167062D01*
X117972000Y-63167062D01*
X117972000Y-64667062D01*
X117966975Y-64667062D01*
X117936905Y-64636992D01*
X117857095Y-64590914D01*
X117768078Y-64567062D01*
X117675922Y-64567062D01*
X117586905Y-64590914D01*
X117507095Y-64636992D01*
X117441930Y-64702157D01*
X117395852Y-64781967D01*
X117372000Y-64870984D01*
X117372000Y-64963140D01*
X117395852Y-65052157D01*
X117441930Y-65131967D01*
X117477025Y-65167062D01*
X115932000Y-65167062D01*
X115932000Y-65464906D01*
X115938401Y-65524434D01*
X115938403Y-65524441D01*
X115988645Y-65659148D01*
X115988649Y-65659155D01*
X116074809Y-65774248D01*
X116132561Y-65817482D01*
X116174432Y-65873416D01*
X116179416Y-65943108D01*
X116145931Y-66004431D01*
X116132563Y-66016014D01*
X116074454Y-66059515D01*
X116074452Y-66059517D01*
X115988206Y-66174726D01*
X115988202Y-66174733D01*
X115937908Y-66309579D01*
X115931501Y-66369178D01*
X115931501Y-66369185D01*
X115931500Y-66369197D01*
X112318166Y-66369197D01*
X112490975Y-66028335D01*
X112792958Y-65346420D01*
X113058865Y-64649646D01*
X113287968Y-63939919D01*
X113414292Y-63464906D01*
X115932000Y-63464906D01*
X115938401Y-63524434D01*
X115938403Y-63524441D01*
X115988645Y-63659148D01*
X115988649Y-63659155D01*
X116074809Y-63774249D01*
X116132979Y-63817796D01*
X116174849Y-63873730D01*
X116179833Y-63943422D01*
X116146347Y-64004745D01*
X116132979Y-64016328D01*
X116074809Y-64059874D01*
X115988649Y-64174968D01*
X115988645Y-64174975D01*
X115938403Y-64309682D01*
X115938401Y-64309689D01*
X115932000Y-64369217D01*
X115932000Y-64667062D01*
X117472000Y-64667062D01*
X117472000Y-63167062D01*
X115932000Y-63167062D01*
X115932000Y-63464906D01*
X113414292Y-63464906D01*
X113479640Y-63219181D01*
X113633356Y-62489405D01*
X113748695Y-61752589D01*
X113825343Y-61010749D01*
X113863088Y-60265916D01*
X113861828Y-59520128D01*
X113826732Y-58870984D01*
X113821567Y-58775440D01*
X113821566Y-58775426D01*
X113742412Y-58033850D01*
X113624583Y-57297428D01*
X113618080Y-57267062D01*
X113468405Y-56568186D01*
X113468397Y-56568156D01*
X113274304Y-55848118D01*
X113274301Y-55848111D01*
X113274296Y-55848089D01*
X113042796Y-55139140D01*
X112774536Y-54443268D01*
X112741429Y-54369185D01*
X112470264Y-53762411D01*
X112470260Y-53762404D01*
X112470249Y-53762378D01*
X112130770Y-53098334D01*
X111757027Y-52452953D01*
X111350043Y-51828001D01*
X110910931Y-51225188D01*
X110910916Y-51225170D01*
X110910908Y-51225159D01*
X110440918Y-50646194D01*
X110440911Y-50646186D01*
X110440895Y-50646166D01*
X110190926Y-50369197D01*
X115931500Y-50369197D01*
X115931500Y-51464932D01*
X115931501Y-51464938D01*
X115937908Y-51524545D01*
X115988202Y-51659390D01*
X115988206Y-51659397D01*
X116074452Y-51774606D01*
X116074453Y-51774606D01*
X116074454Y-51774608D01*
X116103615Y-51796438D01*
X116132145Y-51817796D01*
X116174015Y-51873730D01*
X116178999Y-51943422D01*
X116145513Y-52004745D01*
X116132145Y-52016328D01*
X116074452Y-52059517D01*
X115988206Y-52174726D01*
X115988202Y-52174733D01*
X115937908Y-52309579D01*
X115931501Y-52369178D01*
X115931501Y-52369185D01*
X115931500Y-52369197D01*
X115931500Y-53464932D01*
X115931501Y-53464938D01*
X115937908Y-53524545D01*
X115988202Y-53659390D01*
X115988206Y-53659397D01*
X116074452Y-53774606D01*
X116074453Y-53774606D01*
X116074454Y-53774608D01*
X116077516Y-53776900D01*
X116132145Y-53817796D01*
X116174015Y-53873730D01*
X116178999Y-53943422D01*
X116145513Y-54004745D01*
X116132145Y-54016328D01*
X116074452Y-54059517D01*
X115988206Y-54174726D01*
X115988202Y-54174733D01*
X115937908Y-54309579D01*
X115931501Y-54369178D01*
X115931501Y-54369185D01*
X115931500Y-54369197D01*
X115931500Y-55464932D01*
X115931501Y-55464938D01*
X115937908Y-55524545D01*
X115988202Y-55659390D01*
X115988206Y-55659397D01*
X116074452Y-55774606D01*
X116074453Y-55774606D01*
X116074454Y-55774608D01*
X116103615Y-55796438D01*
X116132145Y-55817796D01*
X116174015Y-55873730D01*
X116178999Y-55943422D01*
X116145513Y-56004745D01*
X116132145Y-56016328D01*
X116074452Y-56059517D01*
X115988206Y-56174726D01*
X115988202Y-56174733D01*
X115937908Y-56309579D01*
X115931501Y-56369178D01*
X115931501Y-56369185D01*
X115931500Y-56369197D01*
X115931500Y-57464932D01*
X115931501Y-57464938D01*
X115937908Y-57524545D01*
X115988202Y-57659390D01*
X115988206Y-57659397D01*
X116074452Y-57774606D01*
X116074453Y-57774606D01*
X116074454Y-57774608D01*
X116103615Y-57796438D01*
X116132145Y-57817796D01*
X116174015Y-57873730D01*
X116178999Y-57943422D01*
X116145513Y-58004745D01*
X116132145Y-58016328D01*
X116074452Y-58059517D01*
X115988206Y-58174726D01*
X115988202Y-58174733D01*
X115937908Y-58309579D01*
X115931501Y-58369178D01*
X115931501Y-58369185D01*
X115931500Y-58369197D01*
X115931500Y-59464932D01*
X115931501Y-59464938D01*
X115937908Y-59524545D01*
X115988202Y-59659390D01*
X115988206Y-59659397D01*
X116074452Y-59774606D01*
X116074453Y-59774606D01*
X116074454Y-59774608D01*
X116103615Y-59796438D01*
X116132145Y-59817796D01*
X116174015Y-59873730D01*
X116178999Y-59943422D01*
X116145513Y-60004745D01*
X116132145Y-60016328D01*
X116074452Y-60059517D01*
X115988206Y-60174726D01*
X115988202Y-60174733D01*
X115937908Y-60309579D01*
X115931501Y-60369178D01*
X115931501Y-60369185D01*
X115931500Y-60369197D01*
X115931500Y-61464932D01*
X115931501Y-61464938D01*
X115937908Y-61524545D01*
X115988202Y-61659390D01*
X115988206Y-61659397D01*
X116074452Y-61774606D01*
X116074453Y-61774606D01*
X116074454Y-61774608D01*
X116109727Y-61801013D01*
X116132562Y-61818108D01*
X116174432Y-61874042D01*
X116179416Y-61943734D01*
X116145930Y-62005056D01*
X116132562Y-62016640D01*
X116074809Y-62059874D01*
X115988649Y-62174968D01*
X115988645Y-62174975D01*
X115938403Y-62309682D01*
X115938401Y-62309689D01*
X115932000Y-62369217D01*
X115932000Y-62667062D01*
X117477025Y-62667062D01*
X117441930Y-62702157D01*
X117395852Y-62781967D01*
X117372000Y-62870984D01*
X117372000Y-62963140D01*
X117395852Y-63052157D01*
X117441930Y-63131967D01*
X117507095Y-63197132D01*
X117586905Y-63243210D01*
X117675922Y-63267062D01*
X117768078Y-63267062D01*
X117857095Y-63243210D01*
X117936905Y-63197132D01*
X118002070Y-63131967D01*
X118048148Y-63052157D01*
X118072000Y-62963140D01*
X118072000Y-62870984D01*
X118048148Y-62781967D01*
X118002070Y-62702157D01*
X117966975Y-62667062D01*
X119512000Y-62667062D01*
X119512000Y-62369234D01*
X119511999Y-62369217D01*
X119505598Y-62309689D01*
X119505596Y-62309682D01*
X119455354Y-62174975D01*
X119455350Y-62174968D01*
X119369190Y-62059874D01*
X119369187Y-62059871D01*
X119311438Y-62016640D01*
X119269567Y-61960707D01*
X119264583Y-61891015D01*
X119298069Y-61829692D01*
X119311432Y-61818111D01*
X119369546Y-61774608D01*
X119455796Y-61659393D01*
X119506091Y-61524545D01*
X119512500Y-61464935D01*
X119512499Y-60369190D01*
X119506091Y-60309579D01*
X119495806Y-60282004D01*
X119455797Y-60174733D01*
X119455793Y-60174726D01*
X119369547Y-60059518D01*
X119369548Y-60059518D01*
X119369546Y-60059516D01*
X119311854Y-60016327D01*
X119269984Y-59960395D01*
X119265000Y-59890703D01*
X119298485Y-59829380D01*
X119311854Y-59817796D01*
X119369546Y-59774608D01*
X119455796Y-59659393D01*
X119506091Y-59524545D01*
X119512500Y-59464935D01*
X119512499Y-58369190D01*
X119506091Y-58309579D01*
X119455884Y-58174968D01*
X119455797Y-58174733D01*
X119455793Y-58174726D01*
X119404123Y-58105705D01*
X119369546Y-58059516D01*
X119311854Y-58016327D01*
X119269984Y-57960395D01*
X119265000Y-57890703D01*
X119298485Y-57829380D01*
X119311854Y-57817796D01*
X119369546Y-57774608D01*
X119455796Y-57659393D01*
X119506091Y-57524545D01*
X119512500Y-57464935D01*
X119512499Y-56369190D01*
X119506091Y-56309579D01*
X119455884Y-56174968D01*
X119455797Y-56174733D01*
X119455793Y-56174726D01*
X119404123Y-56105705D01*
X119369546Y-56059516D01*
X119311854Y-56016327D01*
X119269984Y-55960395D01*
X119265000Y-55890703D01*
X119298485Y-55829380D01*
X119311854Y-55817796D01*
X119369546Y-55774608D01*
X119455796Y-55659393D01*
X119506091Y-55524545D01*
X119512500Y-55464935D01*
X119512499Y-54369190D01*
X119506091Y-54309579D01*
X119455884Y-54174968D01*
X119455797Y-54174733D01*
X119455793Y-54174726D01*
X119369814Y-54059874D01*
X119369546Y-54059516D01*
X119311854Y-54016327D01*
X119269984Y-53960395D01*
X119265000Y-53890703D01*
X119298485Y-53829380D01*
X119311854Y-53817796D01*
X119369546Y-53774608D01*
X119455796Y-53659393D01*
X119506091Y-53524545D01*
X119512500Y-53464935D01*
X119512499Y-52369190D01*
X119506091Y-52309579D01*
X119455796Y-52174731D01*
X119455795Y-52174730D01*
X119455793Y-52174726D01*
X119369547Y-52059518D01*
X119369548Y-52059518D01*
X119369546Y-52059516D01*
X119311854Y-52016327D01*
X119269984Y-51960395D01*
X119265000Y-51890703D01*
X119298485Y-51829380D01*
X119311854Y-51817796D01*
X119369546Y-51774608D01*
X119455796Y-51659393D01*
X119506091Y-51524545D01*
X119512500Y-51464935D01*
X119512499Y-50369197D01*
X120101500Y-50369197D01*
X120101500Y-51464932D01*
X120101501Y-51464938D01*
X120107908Y-51524545D01*
X120158202Y-51659390D01*
X120158206Y-51659397D01*
X120244452Y-51774606D01*
X120244453Y-51774606D01*
X120244454Y-51774608D01*
X120273615Y-51796438D01*
X120302145Y-51817796D01*
X120344015Y-51873730D01*
X120348999Y-51943422D01*
X120315513Y-52004745D01*
X120302145Y-52016328D01*
X120244452Y-52059517D01*
X120158206Y-52174726D01*
X120158202Y-52174733D01*
X120107908Y-52309579D01*
X120101501Y-52369178D01*
X120101501Y-52369185D01*
X120101500Y-52369197D01*
X120101500Y-53464932D01*
X120101501Y-53464938D01*
X120107908Y-53524545D01*
X120158202Y-53659390D01*
X120158206Y-53659397D01*
X120244452Y-53774606D01*
X120244453Y-53774606D01*
X120244454Y-53774608D01*
X120247516Y-53776900D01*
X120302145Y-53817796D01*
X120344015Y-53873730D01*
X120348999Y-53943422D01*
X120315513Y-54004745D01*
X120302145Y-54016328D01*
X120244452Y-54059517D01*
X120158206Y-54174726D01*
X120158202Y-54174733D01*
X120107908Y-54309579D01*
X120101501Y-54369178D01*
X120101501Y-54369185D01*
X120101500Y-54369197D01*
X120101500Y-55464932D01*
X120101501Y-55464938D01*
X120107908Y-55524545D01*
X120158202Y-55659390D01*
X120158206Y-55659397D01*
X120244452Y-55774606D01*
X120244453Y-55774606D01*
X120244454Y-55774608D01*
X120273615Y-55796438D01*
X120302145Y-55817796D01*
X120344015Y-55873730D01*
X120348999Y-55943422D01*
X120315513Y-56004745D01*
X120302145Y-56016328D01*
X120244452Y-56059517D01*
X120158206Y-56174726D01*
X120158202Y-56174733D01*
X120107908Y-56309579D01*
X120101501Y-56369178D01*
X120101501Y-56369185D01*
X120101500Y-56369197D01*
X120101500Y-57464932D01*
X120101501Y-57464938D01*
X120107908Y-57524545D01*
X120158202Y-57659390D01*
X120158206Y-57659397D01*
X120244452Y-57774606D01*
X120244453Y-57774606D01*
X120244454Y-57774608D01*
X120273615Y-57796438D01*
X120302145Y-57817796D01*
X120344015Y-57873730D01*
X120348999Y-57943422D01*
X120315513Y-58004745D01*
X120302145Y-58016328D01*
X120244452Y-58059517D01*
X120158206Y-58174726D01*
X120158202Y-58174733D01*
X120107908Y-58309579D01*
X120101501Y-58369178D01*
X120101501Y-58369185D01*
X120101500Y-58369197D01*
X120101500Y-59464932D01*
X120101501Y-59464938D01*
X120107908Y-59524545D01*
X120158202Y-59659390D01*
X120158206Y-59659397D01*
X120244452Y-59774606D01*
X120244453Y-59774606D01*
X120244454Y-59774608D01*
X120273615Y-59796438D01*
X120302145Y-59817796D01*
X120344015Y-59873730D01*
X120348999Y-59943422D01*
X120315513Y-60004745D01*
X120302145Y-60016328D01*
X120244452Y-60059517D01*
X120158206Y-60174726D01*
X120158202Y-60174733D01*
X120107908Y-60309579D01*
X120101501Y-60369178D01*
X120101501Y-60369185D01*
X120101500Y-60369197D01*
X120101500Y-61464932D01*
X120101501Y-61464938D01*
X120107908Y-61524545D01*
X120158202Y-61659390D01*
X120158206Y-61659397D01*
X120244452Y-61774606D01*
X120244453Y-61774606D01*
X120244454Y-61774608D01*
X120279727Y-61801013D01*
X120302562Y-61818108D01*
X120344432Y-61874042D01*
X120349416Y-61943734D01*
X120315930Y-62005056D01*
X120302562Y-62016640D01*
X120244809Y-62059874D01*
X120158649Y-62174968D01*
X120158645Y-62174975D01*
X120108403Y-62309682D01*
X120108401Y-62309689D01*
X120102000Y-62369217D01*
X120102000Y-62667062D01*
X121647025Y-62667062D01*
X121611930Y-62702157D01*
X121565852Y-62781967D01*
X121542000Y-62870984D01*
X121542000Y-62963140D01*
X121565852Y-63052157D01*
X121611930Y-63131967D01*
X121677095Y-63197132D01*
X121756905Y-63243210D01*
X121845922Y-63267062D01*
X121938078Y-63267062D01*
X122027095Y-63243210D01*
X122106905Y-63197132D01*
X122172070Y-63131967D01*
X122218148Y-63052157D01*
X122242000Y-62963140D01*
X122242000Y-62870984D01*
X122218148Y-62781967D01*
X122172070Y-62702157D01*
X122136975Y-62667062D01*
X123682000Y-62667062D01*
X123682000Y-62369234D01*
X123681999Y-62369217D01*
X123675598Y-62309689D01*
X123675596Y-62309682D01*
X123625354Y-62174975D01*
X123625350Y-62174968D01*
X123539190Y-62059874D01*
X123539187Y-62059871D01*
X123481438Y-62016640D01*
X123439567Y-61960707D01*
X123434583Y-61891015D01*
X123468069Y-61829692D01*
X123481432Y-61818111D01*
X123539546Y-61774608D01*
X123625796Y-61659393D01*
X123676091Y-61524545D01*
X123682500Y-61464935D01*
X123682499Y-60369190D01*
X123676091Y-60309579D01*
X123665806Y-60282004D01*
X123625797Y-60174733D01*
X123625793Y-60174726D01*
X123539547Y-60059518D01*
X123539548Y-60059518D01*
X123539546Y-60059516D01*
X123481854Y-60016327D01*
X123439984Y-59960395D01*
X123435000Y-59890703D01*
X123468485Y-59829380D01*
X123481854Y-59817796D01*
X123539546Y-59774608D01*
X123625796Y-59659393D01*
X123676091Y-59524545D01*
X123682500Y-59464935D01*
X123682499Y-58369190D01*
X123676091Y-58309579D01*
X123625884Y-58174968D01*
X123625797Y-58174733D01*
X123625793Y-58174726D01*
X123574123Y-58105705D01*
X123539546Y-58059516D01*
X123481854Y-58016327D01*
X123439984Y-57960395D01*
X123435000Y-57890703D01*
X123468485Y-57829380D01*
X123481854Y-57817796D01*
X123539546Y-57774608D01*
X123625796Y-57659393D01*
X123676091Y-57524545D01*
X123682500Y-57464935D01*
X123682499Y-56369190D01*
X123676091Y-56309579D01*
X123625884Y-56174968D01*
X123625797Y-56174733D01*
X123625793Y-56174726D01*
X123574123Y-56105705D01*
X123539546Y-56059516D01*
X123481854Y-56016327D01*
X123439984Y-55960395D01*
X123435000Y-55890703D01*
X123468485Y-55829380D01*
X123481854Y-55817796D01*
X123539546Y-55774608D01*
X123625796Y-55659393D01*
X123676091Y-55524545D01*
X123682500Y-55464935D01*
X123682499Y-54369190D01*
X123676091Y-54309579D01*
X123625884Y-54174968D01*
X123625797Y-54174733D01*
X123625793Y-54174726D01*
X123539814Y-54059874D01*
X123539546Y-54059516D01*
X123481854Y-54016327D01*
X123439984Y-53960395D01*
X123435000Y-53890703D01*
X123468485Y-53829380D01*
X123481854Y-53817796D01*
X123539546Y-53774608D01*
X123625796Y-53659393D01*
X123676091Y-53524545D01*
X123682500Y-53464935D01*
X123682499Y-52369190D01*
X123676091Y-52309579D01*
X123625796Y-52174731D01*
X123625795Y-52174730D01*
X123625793Y-52174726D01*
X123539547Y-52059518D01*
X123539548Y-52059518D01*
X123539546Y-52059516D01*
X123481854Y-52016327D01*
X123439984Y-51960395D01*
X123435000Y-51890703D01*
X123468485Y-51829380D01*
X123481854Y-51817796D01*
X123539546Y-51774608D01*
X123625796Y-51659393D01*
X123676091Y-51524545D01*
X123682500Y-51464935D01*
X123682499Y-50369190D01*
X123676091Y-50309579D01*
X123670993Y-50295911D01*
X123625797Y-50174733D01*
X123625793Y-50174726D01*
X123539547Y-50059517D01*
X123539544Y-50059514D01*
X123424335Y-49973268D01*
X123424328Y-49973264D01*
X123289482Y-49922970D01*
X123289483Y-49922970D01*
X123229883Y-49916563D01*
X123229881Y-49916562D01*
X123229873Y-49916562D01*
X123229864Y-49916562D01*
X120554129Y-49916562D01*
X120554123Y-49916563D01*
X120494516Y-49922970D01*
X120359671Y-49973264D01*
X120359664Y-49973268D01*
X120244455Y-50059514D01*
X120244452Y-50059517D01*
X120158206Y-50174726D01*
X120158202Y-50174733D01*
X120107908Y-50309579D01*
X120101501Y-50369178D01*
X120101501Y-50369185D01*
X120101500Y-50369197D01*
X119512499Y-50369197D01*
X119512499Y-50369190D01*
X119506091Y-50309579D01*
X119500993Y-50295911D01*
X119455797Y-50174733D01*
X119455793Y-50174726D01*
X119369547Y-50059517D01*
X119369544Y-50059514D01*
X119254335Y-49973268D01*
X119254328Y-49973264D01*
X119119482Y-49922970D01*
X119119483Y-49922970D01*
X119059883Y-49916563D01*
X119059881Y-49916562D01*
X119059873Y-49916562D01*
X119059864Y-49916562D01*
X116384129Y-49916562D01*
X116384123Y-49916563D01*
X116324516Y-49922970D01*
X116189671Y-49973264D01*
X116189664Y-49973268D01*
X116074455Y-50059514D01*
X116074452Y-50059517D01*
X115988206Y-50174726D01*
X115988202Y-50174733D01*
X115937908Y-50309579D01*
X115931501Y-50369178D01*
X115931501Y-50369185D01*
X115931500Y-50369197D01*
X110190926Y-50369197D01*
X110190915Y-50369185D01*
X109941223Y-50092522D01*
X109941217Y-50092515D01*
X109413283Y-49565771D01*
X109413273Y-49565761D01*
X108969261Y-49166846D01*
X108858497Y-49067332D01*
X108858476Y-49067315D01*
X108278429Y-48598610D01*
X108278420Y-48598603D01*
X107674631Y-48160861D01*
X107674623Y-48160855D01*
X107674619Y-48160853D01*
X107048752Y-47755279D01*
X107048747Y-47755276D01*
X107048733Y-47755267D01*
X107048725Y-47755263D01*
X106402550Y-47383002D01*
X106402533Y-47382993D01*
X106402529Y-47382991D01*
X105737721Y-47045010D01*
X105737719Y-47045009D01*
X105737707Y-47045003D01*
X105056155Y-46742262D01*
X105056157Y-46742262D01*
X104359685Y-46475573D01*
X104359672Y-46475568D01*
X104211104Y-46427425D01*
X103650211Y-46245669D01*
X103650208Y-46245668D01*
X102929680Y-46053183D01*
X102200075Y-45898646D01*
X102200054Y-45898642D01*
X101463429Y-45782484D01*
X101463408Y-45782481D01*
X101463393Y-45782479D01*
X101235161Y-45758638D01*
X100721649Y-45704997D01*
X99976833Y-45666413D01*
X99236043Y-45666832D01*
X99231061Y-45666835D01*
X98486315Y-45706259D01*
X98486314Y-45706259D01*
X98486297Y-45706260D01*
X97744664Y-45784576D01*
X97744656Y-45784577D01*
X97744649Y-45784578D01*
X97279927Y-45858398D01*
X97008081Y-45901580D01*
X96278677Y-46056936D01*
X95558352Y-46250238D01*
X95558335Y-46250244D01*
X94849167Y-46480933D01*
X94849163Y-46480934D01*
X94152979Y-46748414D01*
X93471749Y-47051933D01*
X92807324Y-47390666D01*
X92807284Y-47390687D01*
X92161522Y-47763682D01*
X91536111Y-48169964D01*
X91536110Y-48169965D01*
X90932800Y-48608401D01*
X90932788Y-48608410D01*
X90353276Y-49077764D01*
X90353263Y-49077774D01*
X89799046Y-49576833D01*
X89799027Y-49576851D01*
X89271704Y-50104177D01*
X89271667Y-50104216D01*
X88772659Y-50658382D01*
X88772640Y-50658404D01*
X88303257Y-51237956D01*
X87864845Y-51841238D01*
X87864819Y-51841276D01*
X87458557Y-52466664D01*
X87458554Y-52466669D01*
X87093706Y-53098334D01*
X87085525Y-53112497D01*
X86746813Y-53776892D01*
X86443299Y-54458116D01*
X86175816Y-55154311D01*
X85945126Y-55863495D01*
X85945118Y-55863519D01*
X85751826Y-56583822D01*
X85599839Y-57297425D01*
X85596468Y-57313250D01*
X85479471Y-58049805D01*
X85479469Y-58049819D01*
X85401155Y-58791454D01*
X85401154Y-58791467D01*
X85401154Y-58791470D01*
X85361733Y-59536217D01*
X85361733Y-59536228D01*
X85361314Y-60282004D01*
X83275806Y-60282004D01*
X83235796Y-60174731D01*
X83235795Y-60174730D01*
X83235793Y-60174726D01*
X83149547Y-60059517D01*
X83149544Y-60059515D01*
X83091856Y-60016329D01*
X83091437Y-60016015D01*
X83049567Y-59960081D01*
X83044583Y-59890389D01*
X83078069Y-59829066D01*
X83091439Y-59817482D01*
X83149189Y-59774250D01*
X83149190Y-59774249D01*
X83235350Y-59659155D01*
X83235354Y-59659148D01*
X83285596Y-59524441D01*
X83285598Y-59524434D01*
X83291999Y-59464906D01*
X83292000Y-59464889D01*
X83292000Y-59167062D01*
X81746975Y-59167062D01*
X81782070Y-59131967D01*
X81828148Y-59052157D01*
X81852000Y-58963140D01*
X81852000Y-58870984D01*
X81828148Y-58781967D01*
X81782070Y-58702157D01*
X81746975Y-58667062D01*
X81752000Y-58667062D01*
X83292000Y-58667062D01*
X83292000Y-58369234D01*
X83291999Y-58369217D01*
X83285598Y-58309689D01*
X83285596Y-58309682D01*
X83235354Y-58174975D01*
X83235350Y-58174968D01*
X83149190Y-58059875D01*
X83091021Y-58016329D01*
X83049150Y-57960395D01*
X83044166Y-57890703D01*
X83077651Y-57829380D01*
X83091021Y-57817795D01*
X83149190Y-57774248D01*
X83235350Y-57659155D01*
X83235354Y-57659148D01*
X83285596Y-57524441D01*
X83285598Y-57524434D01*
X83291999Y-57464906D01*
X83292000Y-57464889D01*
X83292000Y-57167062D01*
X81752000Y-57167062D01*
X81752000Y-58667062D01*
X81746975Y-58667062D01*
X81716905Y-58636992D01*
X81637095Y-58590914D01*
X81548078Y-58567062D01*
X81455922Y-58567062D01*
X81366905Y-58590914D01*
X81287095Y-58636992D01*
X81221930Y-58702157D01*
X81175852Y-58781967D01*
X81152000Y-58870984D01*
X81152000Y-58963140D01*
X81175852Y-59052157D01*
X81221930Y-59131967D01*
X81257025Y-59167062D01*
X79712000Y-59167062D01*
X79712000Y-59464906D01*
X79718401Y-59524434D01*
X79718403Y-59524441D01*
X79768645Y-59659148D01*
X79768649Y-59659155D01*
X79854809Y-59774248D01*
X79912561Y-59817482D01*
X79954432Y-59873416D01*
X79959416Y-59943108D01*
X79925931Y-60004431D01*
X79912563Y-60016014D01*
X79854454Y-60059515D01*
X79854452Y-60059517D01*
X79768206Y-60174726D01*
X79768202Y-60174733D01*
X79717908Y-60309579D01*
X79711501Y-60369178D01*
X79711501Y-60369185D01*
X79711500Y-60369197D01*
X79122499Y-60369197D01*
X79122499Y-60369190D01*
X79116091Y-60309579D01*
X79105806Y-60282004D01*
X79065797Y-60174733D01*
X79065793Y-60174726D01*
X78979547Y-60059517D01*
X78979544Y-60059515D01*
X78921856Y-60016329D01*
X78921437Y-60016015D01*
X78879567Y-59960081D01*
X78874583Y-59890389D01*
X78908069Y-59829066D01*
X78921439Y-59817482D01*
X78979189Y-59774250D01*
X78979190Y-59774249D01*
X79065350Y-59659155D01*
X79065354Y-59659148D01*
X79115596Y-59524441D01*
X79115598Y-59524434D01*
X79121999Y-59464906D01*
X79122000Y-59464889D01*
X79122000Y-59167062D01*
X77576975Y-59167062D01*
X77612070Y-59131967D01*
X77658148Y-59052157D01*
X77682000Y-58963140D01*
X77682000Y-58870984D01*
X77658148Y-58781967D01*
X77612070Y-58702157D01*
X77576975Y-58667062D01*
X79122000Y-58667062D01*
X79122000Y-58369234D01*
X79121999Y-58369217D01*
X79115598Y-58309689D01*
X79115596Y-58309682D01*
X79065354Y-58174975D01*
X79065350Y-58174968D01*
X78979190Y-58059874D01*
X78979187Y-58059871D01*
X78921438Y-58016640D01*
X78879567Y-57960707D01*
X78874583Y-57891015D01*
X78908069Y-57829692D01*
X78921432Y-57818111D01*
X78979546Y-57774608D01*
X79065796Y-57659393D01*
X79116091Y-57524545D01*
X79122500Y-57464935D01*
X79122500Y-57464906D01*
X79712000Y-57464906D01*
X79718401Y-57524434D01*
X79718403Y-57524441D01*
X79768645Y-57659148D01*
X79768649Y-57659155D01*
X79854809Y-57774249D01*
X79912979Y-57817796D01*
X79954849Y-57873730D01*
X79959833Y-57943422D01*
X79926347Y-58004745D01*
X79912979Y-58016328D01*
X79854809Y-58059874D01*
X79768649Y-58174968D01*
X79768645Y-58174975D01*
X79718403Y-58309682D01*
X79718401Y-58309689D01*
X79712000Y-58369217D01*
X79712000Y-58667062D01*
X81252000Y-58667062D01*
X81252000Y-57167062D01*
X79712000Y-57167062D01*
X79712000Y-57464906D01*
X79122500Y-57464906D01*
X79122499Y-56870984D01*
X81152000Y-56870984D01*
X81152000Y-56963140D01*
X81175852Y-57052157D01*
X81221930Y-57131967D01*
X81287095Y-57197132D01*
X81366905Y-57243210D01*
X81455922Y-57267062D01*
X81548078Y-57267062D01*
X81637095Y-57243210D01*
X81716905Y-57197132D01*
X81782070Y-57131967D01*
X81828148Y-57052157D01*
X81852000Y-56963140D01*
X81852000Y-56870984D01*
X81828148Y-56781967D01*
X81782070Y-56702157D01*
X81746975Y-56667062D01*
X81752000Y-56667062D01*
X83292000Y-56667062D01*
X83292000Y-56369234D01*
X83291999Y-56369217D01*
X83285598Y-56309689D01*
X83285596Y-56309682D01*
X83235354Y-56174975D01*
X83235350Y-56174968D01*
X83149190Y-56059875D01*
X83091021Y-56016329D01*
X83049150Y-55960395D01*
X83044166Y-55890703D01*
X83077651Y-55829380D01*
X83091021Y-55817795D01*
X83149190Y-55774248D01*
X83235350Y-55659155D01*
X83235354Y-55659148D01*
X83285596Y-55524441D01*
X83285598Y-55524434D01*
X83291999Y-55464906D01*
X83292000Y-55464889D01*
X83292000Y-55167062D01*
X81752000Y-55167062D01*
X81752000Y-56667062D01*
X81746975Y-56667062D01*
X81716905Y-56636992D01*
X81637095Y-56590914D01*
X81548078Y-56567062D01*
X81455922Y-56567062D01*
X81366905Y-56590914D01*
X81287095Y-56636992D01*
X81221930Y-56702157D01*
X81175852Y-56781967D01*
X81152000Y-56870984D01*
X79122499Y-56870984D01*
X79122499Y-56369191D01*
X79122498Y-56369185D01*
X79122497Y-56369178D01*
X79116091Y-56309579D01*
X79065884Y-56174968D01*
X79065797Y-56174733D01*
X79065793Y-56174726D01*
X79014123Y-56105705D01*
X78979546Y-56059516D01*
X78921854Y-56016327D01*
X78879984Y-55960395D01*
X78875000Y-55890703D01*
X78908485Y-55829380D01*
X78921854Y-55817796D01*
X78979546Y-55774608D01*
X79065796Y-55659393D01*
X79116091Y-55524545D01*
X79122500Y-55464935D01*
X79122500Y-55464906D01*
X79712000Y-55464906D01*
X79718401Y-55524434D01*
X79718403Y-55524441D01*
X79768645Y-55659148D01*
X79768649Y-55659155D01*
X79854809Y-55774249D01*
X79912979Y-55817796D01*
X79954849Y-55873730D01*
X79959833Y-55943422D01*
X79926347Y-56004745D01*
X79912979Y-56016328D01*
X79854809Y-56059874D01*
X79768649Y-56174968D01*
X79768645Y-56174975D01*
X79718403Y-56309682D01*
X79718401Y-56309689D01*
X79712000Y-56369217D01*
X79712000Y-56667062D01*
X81252000Y-56667062D01*
X81252000Y-55167062D01*
X79712000Y-55167062D01*
X79712000Y-55464906D01*
X79122500Y-55464906D01*
X79122499Y-54870984D01*
X79122499Y-54369191D01*
X79122498Y-54369185D01*
X79122497Y-54369178D01*
X79116091Y-54309579D01*
X79065884Y-54174968D01*
X79065797Y-54174733D01*
X79065793Y-54174726D01*
X78979814Y-54059874D01*
X78979546Y-54059516D01*
X78921854Y-54016327D01*
X78879984Y-53960395D01*
X78875000Y-53890703D01*
X78908485Y-53829380D01*
X78921854Y-53817796D01*
X78979546Y-53774608D01*
X79065796Y-53659393D01*
X79116091Y-53524545D01*
X79122500Y-53464935D01*
X79122499Y-52369190D01*
X79116091Y-52309579D01*
X79065796Y-52174731D01*
X79065795Y-52174730D01*
X79065793Y-52174726D01*
X78979547Y-52059518D01*
X78979548Y-52059518D01*
X78979546Y-52059516D01*
X78921854Y-52016327D01*
X78879984Y-51960395D01*
X78875000Y-51890703D01*
X78908485Y-51829380D01*
X78921854Y-51817796D01*
X78979546Y-51774608D01*
X79065796Y-51659393D01*
X79116091Y-51524545D01*
X79122500Y-51464935D01*
X79122499Y-50369197D01*
X79711500Y-50369197D01*
X79711500Y-51464932D01*
X79711501Y-51464938D01*
X79717908Y-51524545D01*
X79768202Y-51659390D01*
X79768206Y-51659397D01*
X79854452Y-51774606D01*
X79854453Y-51774606D01*
X79854454Y-51774608D01*
X79883615Y-51796438D01*
X79912145Y-51817796D01*
X79954015Y-51873730D01*
X79958999Y-51943422D01*
X79925513Y-52004745D01*
X79912145Y-52016328D01*
X79854452Y-52059517D01*
X79768206Y-52174726D01*
X79768202Y-52174733D01*
X79717908Y-52309579D01*
X79711501Y-52369178D01*
X79711501Y-52369185D01*
X79711500Y-52369197D01*
X79711500Y-53464932D01*
X79711501Y-53464938D01*
X79717908Y-53524545D01*
X79768202Y-53659390D01*
X79768206Y-53659397D01*
X79854452Y-53774606D01*
X79854453Y-53774606D01*
X79854454Y-53774608D01*
X79857516Y-53776900D01*
X79912562Y-53818108D01*
X79954432Y-53874042D01*
X79959416Y-53943734D01*
X79925930Y-54005056D01*
X79912562Y-54016640D01*
X79854809Y-54059874D01*
X79768649Y-54174968D01*
X79768645Y-54174975D01*
X79718403Y-54309682D01*
X79718401Y-54309689D01*
X79712000Y-54369217D01*
X79712000Y-54667062D01*
X81257025Y-54667062D01*
X81221930Y-54702157D01*
X81175852Y-54781967D01*
X81152000Y-54870984D01*
X81152000Y-54963140D01*
X81175852Y-55052157D01*
X81221930Y-55131967D01*
X81287095Y-55197132D01*
X81366905Y-55243210D01*
X81455922Y-55267062D01*
X81548078Y-55267062D01*
X81637095Y-55243210D01*
X81716905Y-55197132D01*
X81782070Y-55131967D01*
X81828148Y-55052157D01*
X81852000Y-54963140D01*
X81852000Y-54870984D01*
X81828148Y-54781967D01*
X81782070Y-54702157D01*
X81746975Y-54667062D01*
X83292000Y-54667062D01*
X83292000Y-54369234D01*
X83291999Y-54369217D01*
X83285598Y-54309689D01*
X83285596Y-54309682D01*
X83235354Y-54174975D01*
X83235350Y-54174968D01*
X83149190Y-54059874D01*
X83149187Y-54059871D01*
X83091438Y-54016640D01*
X83049567Y-53960707D01*
X83044583Y-53891015D01*
X83078069Y-53829692D01*
X83091432Y-53818111D01*
X83149546Y-53774608D01*
X83235796Y-53659393D01*
X83286091Y-53524545D01*
X83292500Y-53464935D01*
X83292499Y-52369190D01*
X83286091Y-52309579D01*
X83235796Y-52174731D01*
X83235795Y-52174730D01*
X83235793Y-52174726D01*
X83149547Y-52059518D01*
X83149548Y-52059518D01*
X83149546Y-52059516D01*
X83091854Y-52016327D01*
X83049984Y-51960395D01*
X83045000Y-51890703D01*
X83078485Y-51829380D01*
X83091854Y-51817796D01*
X83149546Y-51774608D01*
X83235796Y-51659393D01*
X83286091Y-51524545D01*
X83292500Y-51464935D01*
X83292499Y-50369190D01*
X83286091Y-50309579D01*
X83280993Y-50295911D01*
X83235797Y-50174733D01*
X83235793Y-50174726D01*
X83149547Y-50059517D01*
X83149544Y-50059514D01*
X83034335Y-49973268D01*
X83034328Y-49973264D01*
X82899482Y-49922970D01*
X82899483Y-49922970D01*
X82839883Y-49916563D01*
X82839881Y-49916562D01*
X82839873Y-49916562D01*
X82839864Y-49916562D01*
X80164129Y-49916562D01*
X80164123Y-49916563D01*
X80104516Y-49922970D01*
X79969671Y-49973264D01*
X79969664Y-49973268D01*
X79854455Y-50059514D01*
X79854452Y-50059517D01*
X79768206Y-50174726D01*
X79768202Y-50174733D01*
X79717908Y-50309579D01*
X79711501Y-50369178D01*
X79711501Y-50369185D01*
X79711500Y-50369197D01*
X79122499Y-50369197D01*
X79122499Y-50369190D01*
X79116091Y-50309579D01*
X79110993Y-50295911D01*
X79065797Y-50174733D01*
X79065793Y-50174726D01*
X78979547Y-50059517D01*
X78979544Y-50059514D01*
X78864335Y-49973268D01*
X78864328Y-49973264D01*
X78729482Y-49922970D01*
X78729483Y-49922970D01*
X78669883Y-49916563D01*
X78669881Y-49916562D01*
X78669873Y-49916562D01*
X78669864Y-49916562D01*
X75994129Y-49916562D01*
X75994123Y-49916563D01*
X75934516Y-49922970D01*
X75799671Y-49973264D01*
X75799664Y-49973268D01*
X75684455Y-50059514D01*
X75684452Y-50059517D01*
X75598206Y-50174726D01*
X75598202Y-50174733D01*
X75547908Y-50309579D01*
X75541501Y-50369178D01*
X75541501Y-50369185D01*
X75541500Y-50369197D01*
X75112500Y-50369197D01*
X75112500Y-48586920D01*
X82064499Y-48586920D01*
X82093340Y-48731907D01*
X82093343Y-48731917D01*
X82149912Y-48868488D01*
X82149919Y-48868501D01*
X82232048Y-48991415D01*
X82232051Y-48991419D01*
X82336580Y-49095948D01*
X82336584Y-49095951D01*
X82459498Y-49178080D01*
X82459511Y-49178087D01*
X82596082Y-49234656D01*
X82596087Y-49234658D01*
X82596091Y-49234658D01*
X82596092Y-49234659D01*
X82741079Y-49263500D01*
X82741082Y-49263500D01*
X82888920Y-49263500D01*
X82986462Y-49244096D01*
X83033913Y-49234658D01*
X83170495Y-49178084D01*
X83293416Y-49095951D01*
X83380214Y-49009153D01*
X85915500Y-49009153D01*
X85915500Y-49166846D01*
X85946261Y-49321489D01*
X85946264Y-49321501D01*
X86006602Y-49467172D01*
X86006609Y-49467185D01*
X86094210Y-49598288D01*
X86094213Y-49598292D01*
X86205707Y-49709786D01*
X86205711Y-49709789D01*
X86336814Y-49797390D01*
X86336827Y-49797397D01*
X86482498Y-49857735D01*
X86482503Y-49857737D01*
X86637153Y-49888499D01*
X86637156Y-49888500D01*
X86637158Y-49888500D01*
X86794844Y-49888500D01*
X86794845Y-49888499D01*
X86949497Y-49857737D01*
X87095179Y-49797394D01*
X87226289Y-49709789D01*
X87337789Y-49598289D01*
X87425394Y-49467179D01*
X87485737Y-49321497D01*
X87516500Y-49166842D01*
X87516500Y-49009158D01*
X87516500Y-49009155D01*
X87516499Y-49009153D01*
X87488520Y-48868495D01*
X87485737Y-48854503D01*
X87434959Y-48731913D01*
X87425397Y-48708827D01*
X87425390Y-48708814D01*
X87337789Y-48577711D01*
X87337786Y-48577707D01*
X87226292Y-48466213D01*
X87226288Y-48466210D01*
X87095185Y-48378609D01*
X87095172Y-48378602D01*
X86949501Y-48318264D01*
X86949489Y-48318261D01*
X86794845Y-48287500D01*
X86794842Y-48287500D01*
X86637158Y-48287500D01*
X86637155Y-48287500D01*
X86482510Y-48318261D01*
X86482498Y-48318264D01*
X86336827Y-48378602D01*
X86336814Y-48378609D01*
X86205711Y-48466210D01*
X86205707Y-48466213D01*
X86094213Y-48577707D01*
X86094210Y-48577711D01*
X86006609Y-48708814D01*
X86006602Y-48708827D01*
X85946264Y-48854498D01*
X85946261Y-48854510D01*
X85915500Y-49009153D01*
X83380214Y-49009153D01*
X83397951Y-48991416D01*
X83414529Y-48966604D01*
X83436199Y-48934175D01*
X83436200Y-48934173D01*
X83480077Y-48868506D01*
X83480080Y-48868501D01*
X83480084Y-48868495D01*
X83536658Y-48731913D01*
X83561228Y-48608396D01*
X83565500Y-48586920D01*
X83565500Y-48439079D01*
X83536659Y-48294092D01*
X83536658Y-48294091D01*
X83536658Y-48294087D01*
X83495602Y-48194969D01*
X83480087Y-48157511D01*
X83480080Y-48157498D01*
X83397951Y-48034584D01*
X83397948Y-48034580D01*
X83293419Y-47930051D01*
X83293415Y-47930048D01*
X83170501Y-47847919D01*
X83170488Y-47847912D01*
X83033917Y-47791343D01*
X83033907Y-47791340D01*
X82888920Y-47762500D01*
X82888918Y-47762500D01*
X82741082Y-47762500D01*
X82741080Y-47762500D01*
X82596092Y-47791340D01*
X82596082Y-47791343D01*
X82459511Y-47847912D01*
X82459498Y-47847919D01*
X82336584Y-47930048D01*
X82336580Y-47930051D01*
X82232051Y-48034580D01*
X82232048Y-48034584D01*
X82149919Y-48157498D01*
X82149912Y-48157511D01*
X82093343Y-48294082D01*
X82093340Y-48294092D01*
X82064500Y-48439079D01*
X82064500Y-48439082D01*
X82064500Y-48586918D01*
X82064500Y-48586920D01*
X82064499Y-48586920D01*
X75112500Y-48586920D01*
X75112500Y-45395643D01*
X75130683Y-45331000D01*
X75143462Y-45310082D01*
X75358594Y-44957920D01*
X82116499Y-44957920D01*
X82145340Y-45102907D01*
X82145343Y-45102917D01*
X82201912Y-45239488D01*
X82201919Y-45239501D01*
X82284048Y-45362415D01*
X82284051Y-45362419D01*
X82340187Y-45418555D01*
X82373672Y-45479878D01*
X82374123Y-45530427D01*
X82354500Y-45629077D01*
X82354500Y-45629082D01*
X82354500Y-45776918D01*
X82354500Y-45776920D01*
X82354499Y-45776920D01*
X82383340Y-45921907D01*
X82383343Y-45921917D01*
X82417984Y-46005548D01*
X82425453Y-46075017D01*
X82417984Y-46100452D01*
X82383343Y-46184083D01*
X82383340Y-46184093D01*
X82354500Y-46329080D01*
X82354500Y-46329083D01*
X82354500Y-46476919D01*
X82354500Y-46476921D01*
X82354499Y-46476921D01*
X82383340Y-46621908D01*
X82383343Y-46621918D01*
X82439912Y-46758489D01*
X82439919Y-46758502D01*
X82522048Y-46881416D01*
X82522051Y-46881420D01*
X82626580Y-46985949D01*
X82626584Y-46985952D01*
X82749498Y-47068081D01*
X82749511Y-47068088D01*
X82886082Y-47124657D01*
X82886087Y-47124659D01*
X82886091Y-47124659D01*
X82886092Y-47124660D01*
X83031079Y-47153501D01*
X83031082Y-47153501D01*
X83178920Y-47153501D01*
X83276462Y-47134097D01*
X83323913Y-47124659D01*
X83460495Y-47068085D01*
X83583416Y-46985952D01*
X83687951Y-46881417D01*
X83770084Y-46758496D01*
X83826658Y-46621914D01*
X83854701Y-46480937D01*
X83855500Y-46476921D01*
X83855500Y-46329080D01*
X83826659Y-46184093D01*
X83826658Y-46184092D01*
X83826658Y-46184088D01*
X83792013Y-46100449D01*
X83784545Y-46030985D01*
X83792013Y-46005549D01*
X83826658Y-45921913D01*
X83838493Y-45862415D01*
X83855500Y-45776920D01*
X83855500Y-45629079D01*
X83826659Y-45484092D01*
X83826658Y-45484091D01*
X83826658Y-45484087D01*
X83815819Y-45457920D01*
X89072499Y-45457920D01*
X89101340Y-45602907D01*
X89101343Y-45602917D01*
X89157912Y-45739488D01*
X89157919Y-45739501D01*
X89240048Y-45862415D01*
X89240051Y-45862419D01*
X89344580Y-45966948D01*
X89344584Y-45966951D01*
X89467498Y-46049080D01*
X89467511Y-46049087D01*
X89591523Y-46100454D01*
X89604087Y-46105658D01*
X89604091Y-46105658D01*
X89604092Y-46105659D01*
X89749079Y-46134500D01*
X89749082Y-46134500D01*
X89896920Y-46134500D01*
X89994462Y-46115096D01*
X90041913Y-46105658D01*
X90178495Y-46049084D01*
X90301416Y-45966951D01*
X90405951Y-45862416D01*
X90488084Y-45739495D01*
X90544658Y-45602913D01*
X90571510Y-45467922D01*
X90573500Y-45457920D01*
X90573500Y-45310079D01*
X90544659Y-45165092D01*
X90544658Y-45165091D01*
X90544658Y-45165087D01*
X90539362Y-45152301D01*
X90488087Y-45028511D01*
X90488080Y-45028498D01*
X90405951Y-44905584D01*
X90405948Y-44905580D01*
X90301419Y-44801051D01*
X90301415Y-44801048D01*
X90178501Y-44718919D01*
X90178488Y-44718912D01*
X90041917Y-44662343D01*
X90041907Y-44662340D01*
X89896920Y-44633500D01*
X89896918Y-44633500D01*
X89749082Y-44633500D01*
X89749080Y-44633500D01*
X89604092Y-44662340D01*
X89604082Y-44662343D01*
X89467511Y-44718912D01*
X89467498Y-44718919D01*
X89344584Y-44801048D01*
X89344580Y-44801051D01*
X89240051Y-44905580D01*
X89240048Y-44905584D01*
X89157919Y-45028498D01*
X89157912Y-45028511D01*
X89101343Y-45165082D01*
X89101340Y-45165092D01*
X89072500Y-45310079D01*
X89072500Y-45310082D01*
X89072500Y-45457918D01*
X89072500Y-45457920D01*
X89072499Y-45457920D01*
X83815819Y-45457920D01*
X83770084Y-45347505D01*
X83770081Y-45347500D01*
X83770080Y-45347498D01*
X83687951Y-45224584D01*
X83687948Y-45224580D01*
X83631812Y-45168444D01*
X83598327Y-45107121D01*
X83597876Y-45056570D01*
X83604499Y-45023279D01*
X83611192Y-44989625D01*
X83617500Y-44957919D01*
X83617500Y-44810079D01*
X83588659Y-44665092D01*
X83588658Y-44665091D01*
X83588658Y-44665087D01*
X83583308Y-44652171D01*
X83532087Y-44528511D01*
X83532080Y-44528498D01*
X83449951Y-44405584D01*
X83449948Y-44405580D01*
X83345419Y-44301051D01*
X83345415Y-44301048D01*
X83222501Y-44218919D01*
X83222488Y-44218912D01*
X83085917Y-44162343D01*
X83085907Y-44162340D01*
X82940920Y-44133500D01*
X82940918Y-44133500D01*
X82793082Y-44133500D01*
X82793080Y-44133500D01*
X82648092Y-44162340D01*
X82648082Y-44162343D01*
X82511511Y-44218912D01*
X82511498Y-44218919D01*
X82388584Y-44301048D01*
X82388580Y-44301051D01*
X82284051Y-44405580D01*
X82284048Y-44405584D01*
X82201919Y-44528498D01*
X82201912Y-44528511D01*
X82145343Y-44665082D01*
X82145340Y-44665092D01*
X82116500Y-44810079D01*
X82116500Y-44810082D01*
X82116500Y-44957918D01*
X82116500Y-44957920D01*
X82116499Y-44957920D01*
X75358594Y-44957920D01*
X75545420Y-44652095D01*
X75547609Y-44648644D01*
X76075943Y-43846174D01*
X76078274Y-43842760D01*
X76247776Y-43603366D01*
X97697980Y-43603366D01*
X97697980Y-43780757D01*
X97732583Y-43954720D01*
X97732586Y-43954729D01*
X97800463Y-44118602D01*
X97800470Y-44118615D01*
X97899015Y-44266096D01*
X97899018Y-44266100D01*
X98024441Y-44391523D01*
X98024445Y-44391526D01*
X98171926Y-44490071D01*
X98171939Y-44490078D01*
X98282582Y-44535907D01*
X98335814Y-44557956D01*
X98335816Y-44557956D01*
X98335821Y-44557958D01*
X98509784Y-44592561D01*
X98509787Y-44592562D01*
X98509789Y-44592562D01*
X98687173Y-44592562D01*
X98687174Y-44592561D01*
X98745162Y-44581026D01*
X98861138Y-44557958D01*
X98861141Y-44557956D01*
X98861146Y-44557956D01*
X99025027Y-44490075D01*
X99172515Y-44391526D01*
X99297944Y-44266097D01*
X99396493Y-44118609D01*
X99464374Y-43954728D01*
X99470176Y-43925563D01*
X99498979Y-43780757D01*
X99498980Y-43780755D01*
X99498980Y-43613215D01*
X101797980Y-43613215D01*
X101797980Y-43770908D01*
X101828741Y-43925551D01*
X101828744Y-43925563D01*
X101889082Y-44071234D01*
X101889089Y-44071247D01*
X101976690Y-44202350D01*
X101976693Y-44202354D01*
X102088187Y-44313848D01*
X102088191Y-44313851D01*
X102219294Y-44401452D01*
X102219307Y-44401459D01*
X102364978Y-44461797D01*
X102364983Y-44461799D01*
X102507115Y-44490071D01*
X102519633Y-44492561D01*
X102519636Y-44492562D01*
X102519638Y-44492562D01*
X102677324Y-44492562D01*
X102677325Y-44492561D01*
X102831977Y-44461799D01*
X102977659Y-44401456D01*
X103108769Y-44313851D01*
X103220269Y-44202351D01*
X103307874Y-44071241D01*
X103368217Y-43925559D01*
X103398980Y-43770904D01*
X103398980Y-43613220D01*
X103398980Y-43613217D01*
X103398979Y-43613215D01*
X103797980Y-43613215D01*
X103797980Y-43770908D01*
X103828741Y-43925551D01*
X103828744Y-43925563D01*
X103889082Y-44071234D01*
X103889089Y-44071247D01*
X103976690Y-44202350D01*
X103976693Y-44202354D01*
X104088187Y-44313848D01*
X104088191Y-44313851D01*
X104219294Y-44401452D01*
X104219307Y-44401459D01*
X104364978Y-44461797D01*
X104364983Y-44461799D01*
X104507115Y-44490071D01*
X104519633Y-44492561D01*
X104519636Y-44492562D01*
X104519638Y-44492562D01*
X104677324Y-44492562D01*
X104677325Y-44492561D01*
X104831977Y-44461799D01*
X104977659Y-44401456D01*
X105108769Y-44313851D01*
X105220269Y-44202351D01*
X105307874Y-44071241D01*
X105368217Y-43925559D01*
X105398980Y-43770904D01*
X105398980Y-43613220D01*
X105398979Y-43613212D01*
X105397020Y-43603366D01*
X105697980Y-43603366D01*
X105697980Y-43780757D01*
X105732583Y-43954720D01*
X105732586Y-43954729D01*
X105800463Y-44118602D01*
X105800470Y-44118615D01*
X105899015Y-44266096D01*
X105899018Y-44266100D01*
X106024441Y-44391523D01*
X106024445Y-44391526D01*
X106171926Y-44490071D01*
X106171939Y-44490078D01*
X106282582Y-44535907D01*
X106335814Y-44557956D01*
X106335816Y-44557956D01*
X106335821Y-44557958D01*
X106509784Y-44592561D01*
X106509787Y-44592562D01*
X106509789Y-44592562D01*
X106687173Y-44592562D01*
X106687174Y-44592561D01*
X106745162Y-44581026D01*
X106861138Y-44557958D01*
X106861141Y-44557956D01*
X106861146Y-44557956D01*
X107025027Y-44490075D01*
X107172515Y-44391526D01*
X107297944Y-44266097D01*
X107396493Y-44118609D01*
X107464374Y-43954728D01*
X107470176Y-43925563D01*
X107498979Y-43780757D01*
X107498980Y-43780755D01*
X107498980Y-43603368D01*
X107498979Y-43603366D01*
X107464376Y-43429403D01*
X107464373Y-43429394D01*
X107396496Y-43265521D01*
X107396489Y-43265508D01*
X107297944Y-43118027D01*
X107297941Y-43118023D01*
X107172518Y-42992600D01*
X107172514Y-42992597D01*
X107025033Y-42894052D01*
X107025020Y-42894045D01*
X106861147Y-42826168D01*
X106861138Y-42826165D01*
X106687174Y-42791562D01*
X106687171Y-42791562D01*
X106509789Y-42791562D01*
X106509786Y-42791562D01*
X106335821Y-42826165D01*
X106335812Y-42826168D01*
X106171939Y-42894045D01*
X106171926Y-42894052D01*
X106024445Y-42992597D01*
X106024441Y-42992600D01*
X105899018Y-43118023D01*
X105899015Y-43118027D01*
X105800470Y-43265508D01*
X105800463Y-43265521D01*
X105732586Y-43429394D01*
X105732583Y-43429403D01*
X105697980Y-43603366D01*
X105397020Y-43603366D01*
X105373021Y-43482718D01*
X105368217Y-43458565D01*
X105330246Y-43366893D01*
X105307877Y-43312889D01*
X105307870Y-43312876D01*
X105220269Y-43181773D01*
X105220266Y-43181769D01*
X105108772Y-43070275D01*
X105108768Y-43070272D01*
X104977665Y-42982671D01*
X104977652Y-42982664D01*
X104831981Y-42922326D01*
X104831969Y-42922323D01*
X104677325Y-42891562D01*
X104677322Y-42891562D01*
X104519638Y-42891562D01*
X104519635Y-42891562D01*
X104364990Y-42922323D01*
X104364978Y-42922326D01*
X104219307Y-42982664D01*
X104219294Y-42982671D01*
X104088191Y-43070272D01*
X104088187Y-43070275D01*
X103976693Y-43181769D01*
X103976690Y-43181773D01*
X103889089Y-43312876D01*
X103889082Y-43312889D01*
X103828744Y-43458560D01*
X103828741Y-43458572D01*
X103797980Y-43613215D01*
X103398979Y-43613215D01*
X103385708Y-43546500D01*
X103368217Y-43458565D01*
X103330246Y-43366893D01*
X103307877Y-43312889D01*
X103307870Y-43312876D01*
X103220269Y-43181773D01*
X103220266Y-43181769D01*
X103108772Y-43070275D01*
X103108768Y-43070272D01*
X102977665Y-42982671D01*
X102977652Y-42982664D01*
X102831981Y-42922326D01*
X102831969Y-42922323D01*
X102677325Y-42891562D01*
X102677322Y-42891562D01*
X102519638Y-42891562D01*
X102519635Y-42891562D01*
X102364990Y-42922323D01*
X102364978Y-42922326D01*
X102219307Y-42982664D01*
X102219294Y-42982671D01*
X102088191Y-43070272D01*
X102088187Y-43070275D01*
X101976693Y-43181769D01*
X101976690Y-43181773D01*
X101889089Y-43312876D01*
X101889082Y-43312889D01*
X101828744Y-43458560D01*
X101828741Y-43458572D01*
X101797980Y-43613215D01*
X99498980Y-43613215D01*
X99498980Y-43603368D01*
X99498979Y-43603366D01*
X99464376Y-43429403D01*
X99464373Y-43429394D01*
X99396496Y-43265521D01*
X99396489Y-43265508D01*
X99297944Y-43118027D01*
X99297941Y-43118023D01*
X99172518Y-42992600D01*
X99172514Y-42992597D01*
X99025033Y-42894052D01*
X99025020Y-42894045D01*
X98861147Y-42826168D01*
X98861138Y-42826165D01*
X98687174Y-42791562D01*
X98687171Y-42791562D01*
X98509789Y-42791562D01*
X98509786Y-42791562D01*
X98335821Y-42826165D01*
X98335812Y-42826168D01*
X98171939Y-42894045D01*
X98171926Y-42894052D01*
X98024445Y-42992597D01*
X98024441Y-42992600D01*
X97899018Y-43118023D01*
X97899015Y-43118027D01*
X97800470Y-43265508D01*
X97800463Y-43265521D01*
X97732586Y-43429394D01*
X97732583Y-43429403D01*
X97697980Y-43603366D01*
X76247776Y-43603366D01*
X76633468Y-43058639D01*
X76635946Y-43055264D01*
X76666619Y-43014913D01*
X76776835Y-42869920D01*
X89362499Y-42869920D01*
X89391340Y-43014907D01*
X89391343Y-43014917D01*
X89447912Y-43151488D01*
X89447919Y-43151501D01*
X89530048Y-43274415D01*
X89530051Y-43274419D01*
X89634580Y-43378948D01*
X89634584Y-43378951D01*
X89757498Y-43461080D01*
X89757511Y-43461087D01*
X89894082Y-43517656D01*
X89894087Y-43517658D01*
X89894091Y-43517658D01*
X89894092Y-43517659D01*
X90039079Y-43546500D01*
X90039082Y-43546500D01*
X90186920Y-43546500D01*
X90284462Y-43527096D01*
X90331913Y-43517658D01*
X90366298Y-43503415D01*
X90416267Y-43482718D01*
X90468488Y-43461087D01*
X90468488Y-43461086D01*
X90468495Y-43461084D01*
X90591416Y-43378951D01*
X90695951Y-43274416D01*
X90695955Y-43274408D01*
X90698907Y-43270813D01*
X90756649Y-43231472D01*
X90826493Y-43229594D01*
X90863660Y-43246365D01*
X90892320Y-43265515D01*
X90942453Y-43299013D01*
X90942455Y-43299014D01*
X90942459Y-43299016D01*
X91065363Y-43349923D01*
X91106334Y-43366894D01*
X91106336Y-43366894D01*
X91106341Y-43366896D01*
X91280304Y-43401499D01*
X91280307Y-43401500D01*
X91280309Y-43401500D01*
X91457693Y-43401500D01*
X91457694Y-43401499D01*
X91515682Y-43389964D01*
X91631658Y-43366896D01*
X91631661Y-43366894D01*
X91631666Y-43366894D01*
X91795547Y-43299013D01*
X91943035Y-43200464D01*
X92068464Y-43075035D01*
X92167013Y-42927547D01*
X92234894Y-42763666D01*
X92269500Y-42589691D01*
X92269500Y-42412309D01*
X92269500Y-42412306D01*
X92269499Y-42412304D01*
X92234896Y-42238341D01*
X92234893Y-42238332D01*
X92224421Y-42213051D01*
X92190402Y-42130919D01*
X92167016Y-42074459D01*
X92167009Y-42074446D01*
X92068464Y-41926965D01*
X92068461Y-41926961D01*
X91943038Y-41801538D01*
X91943034Y-41801535D01*
X91795553Y-41702990D01*
X91795540Y-41702983D01*
X91631667Y-41635106D01*
X91631658Y-41635103D01*
X91457694Y-41600500D01*
X91457691Y-41600500D01*
X91280309Y-41600500D01*
X91280306Y-41600500D01*
X91106341Y-41635103D01*
X91106332Y-41635106D01*
X90942459Y-41702983D01*
X90942446Y-41702990D01*
X90794965Y-41801535D01*
X90794961Y-41801538D01*
X90669538Y-41926961D01*
X90669535Y-41926965D01*
X90575757Y-42067313D01*
X90522144Y-42112118D01*
X90452819Y-42120825D01*
X90425203Y-42112983D01*
X90331917Y-42074343D01*
X90331907Y-42074340D01*
X90186920Y-42045500D01*
X90186918Y-42045500D01*
X90039082Y-42045500D01*
X90039080Y-42045500D01*
X89894092Y-42074340D01*
X89894082Y-42074343D01*
X89757511Y-42130912D01*
X89757498Y-42130919D01*
X89634584Y-42213048D01*
X89634580Y-42213051D01*
X89530051Y-42317580D01*
X89530048Y-42317584D01*
X89447919Y-42440498D01*
X89447912Y-42440511D01*
X89391343Y-42577082D01*
X89391340Y-42577092D01*
X89362500Y-42722079D01*
X89362500Y-42722082D01*
X89362500Y-42869918D01*
X89362500Y-42869920D01*
X89362499Y-42869920D01*
X76776835Y-42869920D01*
X77217370Y-42290382D01*
X77219897Y-42287172D01*
X77826889Y-41542400D01*
X77829536Y-41539261D01*
X78148470Y-41173920D01*
X84449499Y-41173920D01*
X84478340Y-41318907D01*
X84478343Y-41318917D01*
X84534912Y-41455488D01*
X84534919Y-41455501D01*
X84617048Y-41578415D01*
X84617051Y-41578419D01*
X84721580Y-41682948D01*
X84721584Y-41682951D01*
X84844498Y-41765080D01*
X84844505Y-41765084D01*
X84946239Y-41807223D01*
X85000640Y-41851062D01*
X85020402Y-41897591D01*
X85043340Y-42012907D01*
X85043343Y-42012917D01*
X85099912Y-42149488D01*
X85099919Y-42149501D01*
X85182048Y-42272415D01*
X85182051Y-42272419D01*
X85286580Y-42376948D01*
X85286584Y-42376951D01*
X85409498Y-42459080D01*
X85409511Y-42459087D01*
X85546082Y-42515656D01*
X85546087Y-42515658D01*
X85546091Y-42515658D01*
X85546092Y-42515659D01*
X85691079Y-42544500D01*
X85691082Y-42544500D01*
X85838920Y-42544500D01*
X85936462Y-42525096D01*
X85983913Y-42515658D01*
X86120495Y-42459084D01*
X86243416Y-42376951D01*
X86347951Y-42272416D01*
X86430084Y-42149495D01*
X86486658Y-42012913D01*
X86515500Y-41867918D01*
X86515500Y-41720082D01*
X86515500Y-41720079D01*
X86486659Y-41575092D01*
X86486658Y-41575091D01*
X86486658Y-41575087D01*
X86486656Y-41575082D01*
X86430087Y-41438511D01*
X86430080Y-41438498D01*
X86347951Y-41315584D01*
X86347948Y-41315580D01*
X86243419Y-41211051D01*
X86243415Y-41211048D01*
X86120501Y-41128919D01*
X86120491Y-41128914D01*
X86018761Y-41086776D01*
X85964358Y-41042935D01*
X85944597Y-40996406D01*
X85941254Y-40979600D01*
X85921658Y-40881087D01*
X85921656Y-40881082D01*
X85865087Y-40744511D01*
X85865080Y-40744498D01*
X85782951Y-40621584D01*
X85782948Y-40621580D01*
X85678419Y-40517051D01*
X85678415Y-40517048D01*
X85555501Y-40434919D01*
X85555488Y-40434912D01*
X85418917Y-40378343D01*
X85418907Y-40378340D01*
X85273920Y-40349500D01*
X85273918Y-40349500D01*
X85126082Y-40349500D01*
X85126080Y-40349500D01*
X84981092Y-40378340D01*
X84981082Y-40378343D01*
X84844511Y-40434912D01*
X84844498Y-40434919D01*
X84721584Y-40517048D01*
X84721580Y-40517051D01*
X84617051Y-40621580D01*
X84617048Y-40621584D01*
X84534919Y-40744498D01*
X84534912Y-40744511D01*
X84478343Y-40881082D01*
X84478340Y-40881092D01*
X84449500Y-41026079D01*
X84449500Y-41026082D01*
X84449500Y-41173918D01*
X84449500Y-41173920D01*
X84449499Y-41173920D01*
X78148470Y-41173920D01*
X78461415Y-40815440D01*
X78464145Y-40812418D01*
X79120158Y-40110408D01*
X79123017Y-40107451D01*
X79802388Y-39428081D01*
X79805345Y-39425222D01*
X79908994Y-39328365D01*
X112358500Y-39328365D01*
X112358500Y-39505756D01*
X112393103Y-39679719D01*
X112393106Y-39679728D01*
X112460983Y-39843601D01*
X112460990Y-39843614D01*
X112559535Y-39991095D01*
X112559538Y-39991099D01*
X112684961Y-40116522D01*
X112684965Y-40116525D01*
X112832446Y-40215070D01*
X112832459Y-40215077D01*
X112955363Y-40265984D01*
X112996334Y-40282955D01*
X112996336Y-40282955D01*
X112996341Y-40282957D01*
X113170304Y-40317560D01*
X113170307Y-40317561D01*
X113170309Y-40317561D01*
X113347693Y-40317561D01*
X113347694Y-40317560D01*
X113405682Y-40306025D01*
X113521658Y-40282957D01*
X113521661Y-40282955D01*
X113521666Y-40282955D01*
X113685547Y-40215074D01*
X113833035Y-40116525D01*
X113958464Y-39991096D01*
X114057013Y-39843608D01*
X114124894Y-39679727D01*
X114159500Y-39505752D01*
X114159500Y-39328370D01*
X114159500Y-39328367D01*
X114159499Y-39328365D01*
X114124896Y-39154402D01*
X114124893Y-39154393D01*
X114057016Y-38990520D01*
X114057009Y-38990507D01*
X113958464Y-38843026D01*
X113958461Y-38843022D01*
X113833038Y-38717599D01*
X113833034Y-38717596D01*
X113685553Y-38619051D01*
X113685540Y-38619044D01*
X113521667Y-38551167D01*
X113521658Y-38551164D01*
X113347694Y-38516561D01*
X113347691Y-38516561D01*
X113170309Y-38516561D01*
X113170306Y-38516561D01*
X112996341Y-38551164D01*
X112996332Y-38551167D01*
X112832459Y-38619044D01*
X112832446Y-38619051D01*
X112684965Y-38717596D01*
X112684961Y-38717599D01*
X112559538Y-38843022D01*
X112559535Y-38843026D01*
X112460990Y-38990507D01*
X112460983Y-38990520D01*
X112393106Y-39154393D01*
X112393103Y-39154402D01*
X112358500Y-39328365D01*
X79908994Y-39328365D01*
X80507356Y-38769212D01*
X80510407Y-38766456D01*
X81234201Y-38134604D01*
X81237340Y-38131956D01*
X81352359Y-38038215D01*
X85052500Y-38038215D01*
X85052500Y-38195908D01*
X85083261Y-38350551D01*
X85083264Y-38350563D01*
X85143602Y-38496234D01*
X85143609Y-38496247D01*
X85231210Y-38627350D01*
X85231213Y-38627354D01*
X85342707Y-38738848D01*
X85342711Y-38738851D01*
X85473814Y-38826452D01*
X85473827Y-38826459D01*
X85619498Y-38886797D01*
X85619503Y-38886799D01*
X85774153Y-38917561D01*
X85774156Y-38917562D01*
X85774158Y-38917562D01*
X85931844Y-38917562D01*
X85931845Y-38917561D01*
X86086497Y-38886799D01*
X86232179Y-38826456D01*
X86363289Y-38738851D01*
X86474789Y-38627351D01*
X86562394Y-38496241D01*
X86622737Y-38350559D01*
X86653500Y-38195904D01*
X86653500Y-38038220D01*
X86653500Y-38038217D01*
X86653499Y-38038215D01*
X86622737Y-37883565D01*
X86622735Y-37883560D01*
X86562397Y-37737889D01*
X86562390Y-37737876D01*
X86474789Y-37606773D01*
X86474786Y-37606769D01*
X86363292Y-37495275D01*
X86363288Y-37495272D01*
X86232185Y-37407671D01*
X86232172Y-37407664D01*
X86086501Y-37347326D01*
X86086489Y-37347323D01*
X85931845Y-37316562D01*
X85931842Y-37316562D01*
X85774158Y-37316562D01*
X85774155Y-37316562D01*
X85619510Y-37347323D01*
X85619498Y-37347326D01*
X85473827Y-37407664D01*
X85473814Y-37407671D01*
X85342711Y-37495272D01*
X85342707Y-37495275D01*
X85231213Y-37606769D01*
X85231210Y-37606773D01*
X85143609Y-37737876D01*
X85143602Y-37737889D01*
X85083264Y-37883560D01*
X85083261Y-37883572D01*
X85052500Y-38038215D01*
X81352359Y-38038215D01*
X81982111Y-37524966D01*
X81985375Y-37522398D01*
X82750224Y-36941001D01*
X82753541Y-36938566D01*
X83537689Y-36383355D01*
X83541090Y-36381032D01*
X84343574Y-35852691D01*
X84347094Y-35850458D01*
X85025964Y-35435744D01*
X85090607Y-35417562D01*
X114133416Y-35417562D01*
X114198059Y-35435745D01*
G37*
%TD.AperFunction*%
%TD*%
M02*
