%TF.GenerationSoftware,KiCad,Pcbnew,9.0.6*%
%TF.CreationDate,2026-01-26T21:03:18+01:00*%
%TF.ProjectId,neptune-imu,6e657074-756e-4652-9d69-6d752e6b6963,1.0*%
%TF.SameCoordinates,Original*%
%TF.FileFunction,Copper,L1,Top*%
%TF.FilePolarity,Positive*%
%FSLAX46Y46*%
G04 Gerber Fmt 4.6, Leading zero omitted, Abs format (unit mm)*
G04 Created by KiCad (PCBNEW 9.0.6) date 2026-01-26 21:03:18*
%MOMM*%
%LPD*%
G01*
G04 APERTURE LIST*
G04 Aperture macros list*
%AMRoundRect*
0 Rectangle with rounded corners*
0 $1 Rounding radius*
0 $2 $3 $4 $5 $6 $7 $8 $9 X,Y pos of 4 corners*
0 Add a 4 corners polygon primitive as box body*
4,1,4,$2,$3,$4,$5,$6,$7,$8,$9,$2,$3,0*
0 Add four circle primitives for the rounded corners*
1,1,$1+$1,$2,$3*
1,1,$1+$1,$4,$5*
1,1,$1+$1,$6,$7*
1,1,$1+$1,$8,$9*
0 Add four rect primitives between the rounded corners*
20,1,$1+$1,$2,$3,$4,$5,0*
20,1,$1+$1,$4,$5,$6,$7,0*
20,1,$1+$1,$6,$7,$8,$9,0*
20,1,$1+$1,$8,$9,$2,$3,0*%
G04 Aperture macros list end*
%TA.AperFunction,SMDPad,CuDef*%
%ADD10RoundRect,0.150000X-0.150000X0.512500X-0.150000X-0.512500X0.150000X-0.512500X0.150000X0.512500X0*%
%TD*%
%TA.AperFunction,SMDPad,CuDef*%
%ADD11R,1.500000X1.500000*%
%TD*%
%TA.AperFunction,SMDPad,CuDef*%
%ADD12RoundRect,0.140000X0.140000X0.170000X-0.140000X0.170000X-0.140000X-0.170000X0.140000X-0.170000X0*%
%TD*%
%TA.AperFunction,SMDPad,CuDef*%
%ADD13RoundRect,0.050000X-0.225000X-0.050000X0.225000X-0.050000X0.225000X0.050000X-0.225000X0.050000X0*%
%TD*%
%TA.AperFunction,SMDPad,CuDef*%
%ADD14RoundRect,0.050000X0.050000X-0.225000X0.050000X0.225000X-0.050000X0.225000X-0.050000X-0.225000X0*%
%TD*%
%TA.AperFunction,SMDPad,CuDef*%
%ADD15RoundRect,0.062500X0.062500X-0.375000X0.062500X0.375000X-0.062500X0.375000X-0.062500X-0.375000X0*%
%TD*%
%TA.AperFunction,SMDPad,CuDef*%
%ADD16RoundRect,0.062500X0.375000X-0.062500X0.375000X0.062500X-0.375000X0.062500X-0.375000X-0.062500X0*%
%TD*%
%TA.AperFunction,HeatsinkPad*%
%ADD17R,3.450000X3.450000*%
%TD*%
%TA.AperFunction,SMDPad,CuDef*%
%ADD18RoundRect,0.140000X0.170000X-0.140000X0.170000X0.140000X-0.170000X0.140000X-0.170000X-0.140000X0*%
%TD*%
%TA.AperFunction,SMDPad,CuDef*%
%ADD19RoundRect,0.135000X-0.185000X0.135000X-0.185000X-0.135000X0.185000X-0.135000X0.185000X0.135000X0*%
%TD*%
%TA.AperFunction,SMDPad,CuDef*%
%ADD20RoundRect,0.135000X0.185000X-0.135000X0.185000X0.135000X-0.185000X0.135000X-0.185000X-0.135000X0*%
%TD*%
%TA.AperFunction,SMDPad,CuDef*%
%ADD21RoundRect,0.225000X0.225000X0.250000X-0.225000X0.250000X-0.225000X-0.250000X0.225000X-0.250000X0*%
%TD*%
%TA.AperFunction,SMDPad,CuDef*%
%ADD22RoundRect,0.150000X0.587500X0.150000X-0.587500X0.150000X-0.587500X-0.150000X0.587500X-0.150000X0*%
%TD*%
%TA.AperFunction,SMDPad,CuDef*%
%ADD23RoundRect,0.140000X-0.170000X0.140000X-0.170000X-0.140000X0.170000X-0.140000X0.170000X0.140000X0*%
%TD*%
%TA.AperFunction,SMDPad,CuDef*%
%ADD24R,1.000000X1.000000*%
%TD*%
%TA.AperFunction,ComponentPad*%
%ADD25R,2.580000X1.000000*%
%TD*%
%TA.AperFunction,SMDPad,CuDef*%
%ADD26RoundRect,0.225000X-0.250000X0.225000X-0.250000X-0.225000X0.250000X-0.225000X0.250000X0.225000X0*%
%TD*%
%TA.AperFunction,SMDPad,CuDef*%
%ADD27RoundRect,0.225000X-0.225000X-0.250000X0.225000X-0.250000X0.225000X0.250000X-0.225000X0.250000X0*%
%TD*%
%TA.AperFunction,SMDPad,CuDef*%
%ADD28R,0.550000X1.300000*%
%TD*%
%TA.AperFunction,SMDPad,CuDef*%
%ADD29R,1.300000X0.600000*%
%TD*%
%TA.AperFunction,SMDPad,CuDef*%
%ADD30RoundRect,0.140000X-0.140000X-0.170000X0.140000X-0.170000X0.140000X0.170000X-0.140000X0.170000X0*%
%TD*%
%TA.AperFunction,ViaPad*%
%ADD31C,0.600000*%
%TD*%
%TA.AperFunction,ViaPad*%
%ADD32C,0.800000*%
%TD*%
%TA.AperFunction,ViaPad*%
%ADD33C,0.500000*%
%TD*%
%TA.AperFunction,Conductor*%
%ADD34C,0.200000*%
%TD*%
%TA.AperFunction,Conductor*%
%ADD35C,0.400000*%
%TD*%
%TA.AperFunction,Conductor*%
%ADD36C,0.500000*%
%TD*%
%TA.AperFunction,Conductor*%
%ADD37C,0.300000*%
%TD*%
%TA.AperFunction,Conductor*%
%ADD38C,1.000000*%
%TD*%
%TA.AperFunction,Conductor*%
%ADD39C,0.800000*%
%TD*%
G04 APERTURE END LIST*
D10*
%TO.P,U10,1,VIN*%
%TO.N,/VOUT_B1*%
X113486000Y-74316500D03*
%TO.P,U10,2,GND*%
%TO.N,GND*%
X112536000Y-74316500D03*
%TO.P,U10,3,EN*%
%TO.N,/VOUT_B1*%
X111586000Y-74316500D03*
%TO.P,U10,4,NC*%
%TO.N,unconnected-(U10-NC-Pad4)*%
X111586000Y-76591500D03*
%TO.P,U10,5,VOUT*%
%TO.N,+1V8*%
X113486000Y-76591500D03*
%TD*%
D11*
%TO.P,TP3,1,1*%
%TO.N,+3.3V*%
X113259000Y-39417061D03*
%TD*%
D12*
%TO.P,C8,1*%
%TO.N,+3.3V*%
X90612000Y-81157062D03*
%TO.P,C8,2*%
%TO.N,GND*%
X89652000Y-81157062D03*
%TD*%
D13*
%TO.P,U2,1,NC*%
%TO.N,unconnected-(U2-NC-Pad1)*%
X101547000Y-77611062D03*
%TO.P,U2,2,NC*%
%TO.N,unconnected-(U2-NC-Pad2)*%
X101547000Y-78011062D03*
%TO.P,U2,3,NC*%
%TO.N,unconnected-(U2-NC-Pad3)*%
X101547000Y-78411062D03*
%TO.P,U2,4,NC*%
%TO.N,unconnected-(U2-NC-Pad4)*%
X101547000Y-78811062D03*
%TO.P,U2,5,NC*%
%TO.N,unconnected-(U2-NC-Pad5)*%
X101547000Y-79211062D03*
%TO.P,U2,6,NC*%
%TO.N,unconnected-(U2-NC-Pad6)*%
X101547000Y-79611062D03*
D14*
%TO.P,U2,7,AUX_CL*%
%TO.N,unconnected-(U2-AUX_CL-Pad7)*%
X102047000Y-80111062D03*
%TO.P,U2,8,VDDIO*%
%TO.N,+1V8*%
X102447000Y-80111062D03*
%TO.P,U2,9,SDO/AD0*%
%TO.N,GND*%
X102847000Y-80111062D03*
%TO.P,U2,10,REGOUT*%
%TO.N,Net-(U2-REGOUT)*%
X103247000Y-80111062D03*
%TO.P,U2,11,FSYNC*%
%TO.N,GND*%
X103647000Y-80111062D03*
%TO.P,U2,12,INT1*%
%TO.N,/ICM209481_INT_1v8*%
X104047000Y-80111062D03*
D13*
%TO.P,U2,13,VDD*%
%TO.N,+3.3V*%
X104547000Y-79611062D03*
%TO.P,U2,14,NC*%
%TO.N,unconnected-(U2-NC-Pad14)*%
X104547000Y-79211062D03*
%TO.P,U2,15,NC*%
%TO.N,unconnected-(U2-NC-Pad15)*%
X104547000Y-78811062D03*
%TO.P,U2,16,NC*%
%TO.N,unconnected-(U2-NC-Pad16)*%
X104547000Y-78411062D03*
%TO.P,U2,17,NC*%
%TO.N,unconnected-(U2-NC-Pad17)*%
X104547000Y-78011062D03*
%TO.P,U2,18,GND*%
%TO.N,GND*%
X104547000Y-77611062D03*
D14*
%TO.P,U2,19,RESV*%
%TO.N,unconnected-(U2-RESV-Pad19)*%
X104047000Y-77111062D03*
%TO.P,U2,20,RESV*%
%TO.N,GND*%
X103647000Y-77111062D03*
%TO.P,U2,21,AUX_DA*%
%TO.N,unconnected-(U2-AUX_DA-Pad21)*%
X103247000Y-77111062D03*
%TO.P,U2,22,nCS*%
%TO.N,+1V8*%
X102847000Y-77111062D03*
%TO.P,U2,23,SCL/SCLK*%
%TO.N,I2C_SCL_1v8*%
X102447000Y-77111062D03*
%TO.P,U2,24,SDA/SDI*%
%TO.N,I2C_SDA_1v8*%
X102047000Y-77111062D03*
%TD*%
D15*
%TO.P,U1,1,VDD*%
%TO.N,+3.3V*%
X84716000Y-48071500D03*
%TO.P,U1,2,PC14*%
%TO.N,unconnected-(U1-PC14-Pad2)*%
X85216000Y-48071500D03*
%TO.P,U1,3,PC15*%
%TO.N,unconnected-(U1-PC15-Pad3)*%
X85716000Y-48071500D03*
%TO.P,U1,4,NRST*%
%TO.N,/reset*%
X86216000Y-48071500D03*
%TO.P,U1,5,VDDA*%
%TO.N,+3.3V*%
X86716000Y-48071500D03*
%TO.P,U1,6,PA0*%
%TO.N,unconnected-(U1-PA0-Pad6)*%
X87216000Y-48071500D03*
%TO.P,U1,7,PA1*%
%TO.N,/ADXL375_INT1_3v3*%
X87716000Y-48071500D03*
%TO.P,U1,8,PA2*%
%TO.N,/ICM209481_INT_3v3*%
X88216000Y-48071500D03*
D16*
%TO.P,U1,9,PA3*%
%TO.N,unconnected-(U1-PA3-Pad9)*%
X88903500Y-47384000D03*
%TO.P,U1,10,PA4*%
%TO.N,unconnected-(U1-PA4-Pad10)*%
X88903500Y-46884000D03*
%TO.P,U1,11,PA5*%
%TO.N,unconnected-(U1-PA5-Pad11)*%
X88903500Y-46384000D03*
%TO.P,U1,12,PA6*%
%TO.N,unconnected-(U1-PA6-Pad12)*%
X88903500Y-45884000D03*
%TO.P,U1,13,PA7*%
%TO.N,/I2C3_SCL*%
X88903500Y-45384000D03*
%TO.P,U1,14,PB0*%
%TO.N,unconnected-(U1-PB0-Pad14)*%
X88903500Y-44884000D03*
%TO.P,U1,15,PB1*%
%TO.N,unconnected-(U1-PB1-Pad15)*%
X88903500Y-44384000D03*
%TO.P,U1,16,VSS*%
%TO.N,GND*%
X88903500Y-43884000D03*
D15*
%TO.P,U1,17,VDD*%
%TO.N,+3.3V*%
X88216000Y-43196500D03*
%TO.P,U1,18,PA8*%
%TO.N,unconnected-(U1-PA8-Pad18)*%
X87716000Y-43196500D03*
%TO.P,U1,19,PA9*%
%TO.N,/USART1_TX*%
X87216000Y-43196500D03*
%TO.P,U1,20,PA10*%
%TO.N,/USART1_RX*%
X86716000Y-43196500D03*
%TO.P,U1,21,PA11*%
%TO.N,unconnected-(U1-PA11-Pad21)*%
X86216000Y-43196500D03*
%TO.P,U1,22,PA12*%
%TO.N,unconnected-(U1-PA12-Pad22)*%
X85716000Y-43196500D03*
%TO.P,U1,23,PA13*%
%TO.N,/SWDIO*%
X85216000Y-43196500D03*
%TO.P,U1,24,PA14*%
%TO.N,/SWCLK*%
X84716000Y-43196500D03*
D16*
%TO.P,U1,25,PA15*%
%TO.N,unconnected-(U1-PA15-Pad25)*%
X84028500Y-43884000D03*
%TO.P,U1,26,PB3*%
%TO.N,unconnected-(U1-PB3-Pad26)*%
X84028500Y-44384000D03*
%TO.P,U1,27,PB4*%
%TO.N,/I2C3_SDA*%
X84028500Y-44884000D03*
%TO.P,U1,28,PB5*%
%TO.N,unconnected-(U1-PB5-Pad28)*%
X84028500Y-45384000D03*
%TO.P,U1,29,PB6*%
%TO.N,/I2C_2_SCL*%
X84028500Y-45884000D03*
%TO.P,U1,30,PB7*%
%TO.N,/I2C_2_SDA*%
X84028500Y-46384000D03*
%TO.P,U1,31,PH3*%
%TO.N,/boot0*%
X84028500Y-46884000D03*
%TO.P,U1,32,VSS*%
%TO.N,GND*%
X84028500Y-47384000D03*
D17*
%TO.P,U1,33,VSS*%
X86466000Y-45634000D03*
%TD*%
D18*
%TO.P,C3,1*%
%TO.N,+3.3V*%
X105636000Y-79091062D03*
%TO.P,C3,2*%
%TO.N,GND*%
X105636000Y-78131062D03*
%TD*%
D19*
%TO.P,R3,1*%
%TO.N,/I2C3_SCL*%
X94246000Y-75985062D03*
%TO.P,R3,2*%
%TO.N,+3.3V*%
X94246000Y-77005062D03*
%TD*%
D20*
%TO.P,R4,1*%
%TO.N,+1V8*%
X99301000Y-80286062D03*
%TO.P,R4,2*%
%TO.N,I2C_SDA_1v8*%
X99301000Y-79266062D03*
%TD*%
D21*
%TO.P,C7,1*%
%TO.N,+1V8*%
X113427000Y-78319500D03*
%TO.P,C7,2*%
%TO.N,GND*%
X111877000Y-78319500D03*
%TD*%
D20*
%TO.P,R9,1*%
%TO.N,/ICM209481_INT_3v3*%
X87052000Y-73839062D03*
%TO.P,R9,2*%
%TO.N,+3.3V*%
X87052000Y-72819062D03*
%TD*%
D11*
%TO.P,TP4,1,1*%
%TO.N,GND*%
X113259000Y-42967061D03*
%TD*%
D12*
%TO.P,C5,1*%
%TO.N,GND*%
X102827000Y-81179062D03*
%TO.P,C5,2*%
%TO.N,+1V8*%
X101867000Y-81179062D03*
%TD*%
D21*
%TO.P,C1,1*%
%TO.N,GND*%
X88787000Y-38117062D03*
%TO.P,C1,2*%
%TO.N,/reset*%
X87237000Y-38117062D03*
%TD*%
D22*
%TO.P,Q2,1,G*%
%TO.N,+1V8*%
X97703000Y-80726062D03*
%TO.P,Q2,2,S*%
%TO.N,I2C_SDA_1v8*%
X97703000Y-78826062D03*
%TO.P,Q2,3,D*%
%TO.N,/I2C3_SDA*%
X95828000Y-79776062D03*
%TD*%
D12*
%TO.P,C10,1*%
%TO.N,GND*%
X87410000Y-81157062D03*
%TO.P,C10,2*%
%TO.N,+3.3V*%
X86450000Y-81157062D03*
%TD*%
D23*
%TO.P,C2,1*%
%TO.N,+3.3V*%
X90113000Y-42796000D03*
%TO.P,C2,2*%
%TO.N,GND*%
X90113000Y-43756000D03*
%TD*%
D24*
%TO.P,TP2,1,1*%
%TO.N,/boot0*%
X79848000Y-45396000D03*
%TD*%
D25*
%TO.P,J2,1,Pin_1*%
%TO.N,/I2C_2_SDA*%
X77332000Y-50917062D03*
%TO.P,J2,2,Pin_2*%
%TO.N,unconnected-(J2-Pin_2-Pad2)*%
X81502000Y-50917062D03*
%TO.P,J2,3,Pin_3*%
%TO.N,/I2C_2_SCL*%
X77332000Y-52917062D03*
%TO.P,J2,4,Pin_4*%
%TO.N,unconnected-(J2-Pin_4-Pad4)*%
X81502000Y-52917062D03*
%TO.P,J2,5,Pin_5*%
%TO.N,unconnected-(J2-Pin_5-Pad5)*%
X77332000Y-54917062D03*
%TO.P,J2,6,Pin_6*%
%TO.N,GND*%
X81502000Y-54917062D03*
%TO.P,J2,7,Pin_7*%
%TO.N,unconnected-(J2-Pin_7-Pad7)*%
X77332000Y-56917062D03*
%TO.P,J2,8,Pin_8*%
%TO.N,GND*%
X81502000Y-56917062D03*
%TO.P,J2,9,Pin_9*%
X77332000Y-58917062D03*
%TO.P,J2,10,Pin_10*%
X81502000Y-58917062D03*
%TO.P,J2,11,Pin_11*%
%TO.N,unconnected-(J2-Pin_11-Pad11)*%
X77332000Y-60917062D03*
%TO.P,J2,12,Pin_12*%
%TO.N,unconnected-(J2-Pin_12-Pad12)*%
X81502000Y-60917062D03*
%TO.P,J2,13,Pin_13*%
%TO.N,unconnected-(J2-Pin_13-Pad13)*%
X77332000Y-62917062D03*
%TO.P,J2,14,Pin_14*%
%TO.N,unconnected-(J2-Pin_14-Pad14)*%
X81502000Y-62917062D03*
%TO.P,J2,15,Pin_15*%
%TO.N,unconnected-(J2-Pin_15-Pad15)*%
X77332000Y-64917062D03*
%TO.P,J2,16,Pin_16*%
%TO.N,unconnected-(J2-Pin_16-Pad16)*%
X81502000Y-64917062D03*
%TO.P,J2,17,Pin_17*%
%TO.N,GND*%
X77332000Y-66917062D03*
%TO.P,J2,18,Pin_18*%
X81502000Y-66917062D03*
%TO.P,J2,19,Pin_19*%
X77332000Y-68917062D03*
%TO.P,J2,20,Pin_20*%
X81502000Y-68917062D03*
%TD*%
D10*
%TO.P,U5,1,VIN*%
%TO.N,/VOUT_B1*%
X117545000Y-74332000D03*
%TO.P,U5,2,GND*%
%TO.N,GND*%
X116595000Y-74332000D03*
%TO.P,U5,3,EN*%
%TO.N,/VOUT_B1*%
X115645000Y-74332000D03*
%TO.P,U5,4,NC*%
%TO.N,unconnected-(U5-NC-Pad4)*%
X115645000Y-76607000D03*
%TO.P,U5,5,VOUT*%
%TO.N,+3.3V*%
X117545000Y-76607000D03*
%TD*%
D21*
%TO.P,C6,1*%
%TO.N,/VOUT_B1*%
X113898000Y-72611500D03*
%TO.P,C6,2*%
%TO.N,GND*%
X112348000Y-72611500D03*
%TD*%
D25*
%TO.P,J3,1,Pin_1*%
%TO.N,/VOUT_A1*%
X117722000Y-50917062D03*
%TO.P,J3,2,Pin_2*%
X121892000Y-50917062D03*
%TO.P,J3,3,Pin_3*%
%TO.N,unconnected-(J3-Pin_3-Pad3)*%
X117722000Y-52917062D03*
%TO.P,J3,4,Pin_4*%
%TO.N,unconnected-(J3-Pin_4-Pad4)*%
X121892000Y-52917062D03*
%TO.P,J3,5,Pin_5*%
%TO.N,unconnected-(J3-Pin_5-Pad5)*%
X117722000Y-54917062D03*
%TO.P,J3,6,Pin_6*%
%TO.N,unconnected-(J3-Pin_6-Pad6)*%
X121892000Y-54917062D03*
%TO.P,J3,7,Pin_7*%
%TO.N,/VOUT_B1*%
X117722000Y-56917062D03*
%TO.P,J3,8,Pin_8*%
X121892000Y-56917062D03*
%TO.P,J3,9,Pin_9*%
%TO.N,unconnected-(J3-Pin_9-Pad9)*%
X117722000Y-58917062D03*
%TO.P,J3,10,Pin_10*%
%TO.N,unconnected-(J3-Pin_10-Pad10)*%
X121892000Y-58917062D03*
%TO.P,J3,11,Pin_11*%
%TO.N,unconnected-(J3-Pin_11-Pad11)*%
X117722000Y-60917062D03*
%TO.P,J3,12,Pin_12*%
%TO.N,unconnected-(J3-Pin_12-Pad12)*%
X121892000Y-60917062D03*
%TO.P,J3,13,Pin_13*%
%TO.N,GND*%
X117722000Y-62917062D03*
%TO.P,J3,14,Pin_14*%
X121892000Y-62917062D03*
%TO.P,J3,15,Pin_15*%
X117722000Y-64917062D03*
%TO.P,J3,16,Pin_16*%
X121892000Y-64917062D03*
%TO.P,J3,17,Pin_17*%
%TO.N,unconnected-(J3-Pin_17-Pad17)*%
X117722000Y-66917062D03*
%TO.P,J3,18,Pin_18*%
%TO.N,unconnected-(J3-Pin_18-Pad18)*%
X121892000Y-66917062D03*
%TO.P,J3,19,Pin_19*%
%TO.N,unconnected-(J3-Pin_19-Pad19)*%
X117722000Y-68917062D03*
%TO.P,J3,20,Pin_20*%
%TO.N,unconnected-(J3-Pin_20-Pad20)*%
X121892000Y-68917062D03*
%TD*%
D19*
%TO.P,R1,1*%
%TO.N,GND*%
X81525000Y-44401000D03*
%TO.P,R1,2*%
%TO.N,/boot0*%
X81525000Y-45421000D03*
%TD*%
D21*
%TO.P,C9,1*%
%TO.N,+3.3V*%
X90907000Y-82419062D03*
%TO.P,C9,2*%
%TO.N,GND*%
X89357000Y-82419062D03*
%TD*%
D20*
%TO.P,R8,1*%
%TO.N,+1V8*%
X91985000Y-74392062D03*
%TO.P,R8,2*%
%TO.N,/ICM209481_INT_1v8*%
X91985000Y-73372062D03*
%TD*%
D24*
%TO.P,TP1,1,1*%
%TO.N,/reset*%
X79848000Y-47859000D03*
%TD*%
D22*
%TO.P,Q3,1,G*%
%TO.N,+1V8*%
X90449000Y-74803062D03*
%TO.P,Q3,2,S*%
%TO.N,/ICM209481_INT_1v8*%
X90449000Y-72903062D03*
%TO.P,Q3,3,D*%
%TO.N,/ICM209481_INT_3v3*%
X88574000Y-73853062D03*
%TD*%
D18*
%TO.P,C4,1*%
%TO.N,+3.3V*%
X82815000Y-48513000D03*
%TO.P,C4,2*%
%TO.N,GND*%
X82815000Y-47553000D03*
%TD*%
D26*
%TO.P,C22,1*%
%TO.N,+3.3V*%
X91369000Y-42501000D03*
%TO.P,C22,2*%
%TO.N,GND*%
X91369000Y-44051000D03*
%TD*%
D22*
%TO.P,Q1,1,G*%
%TO.N,+1V8*%
X97703000Y-76935062D03*
%TO.P,Q1,2,S*%
%TO.N,I2C_SCL_1v8*%
X97703000Y-75035062D03*
%TO.P,Q1,3,D*%
%TO.N,/I2C3_SCL*%
X95828000Y-75985062D03*
%TD*%
D21*
%TO.P,C15,1*%
%TO.N,+3.3V*%
X117380000Y-78316000D03*
%TO.P,C15,2*%
%TO.N,GND*%
X115830000Y-78316000D03*
%TD*%
D27*
%TO.P,C14,1*%
%TO.N,GND*%
X116478000Y-72631000D03*
%TO.P,C14,2*%
%TO.N,/VOUT_B1*%
X118028000Y-72631000D03*
%TD*%
D19*
%TO.P,R5,1*%
%TO.N,/I2C3_SDA*%
X94246000Y-79776062D03*
%TO.P,R5,2*%
%TO.N,+3.3V*%
X94246000Y-80796062D03*
%TD*%
D28*
%TO.P,U3,1,VDDI/O*%
%TO.N,+3.3V*%
X86529000Y-79746062D03*
%TO.P,U3,2,GND*%
%TO.N,GND*%
X87329000Y-79746062D03*
%TO.P,U3,3,RESERVED*%
%TO.N,unconnected-(U3-RESERVED-Pad3)*%
X88129000Y-79746062D03*
%TO.P,U3,4,GND*%
%TO.N,GND*%
X88929000Y-79746062D03*
%TO.P,U3,5,GND*%
X89729000Y-79746062D03*
%TO.P,U3,6,VS*%
%TO.N,+3.3V*%
X90529000Y-79746062D03*
D29*
%TO.P,U3,7,~{CS}*%
X90759000Y-78526062D03*
D28*
%TO.P,U3,8,INT1*%
%TO.N,/ADXL375_INT1_3v3*%
X90529000Y-77306062D03*
%TO.P,U3,9,INT2*%
%TO.N,/ADXL375/INT2*%
X89729000Y-77306062D03*
%TO.P,U3,10,NC*%
%TO.N,unconnected-(U3-NC-Pad10)*%
X88929000Y-77306062D03*
%TO.P,U3,11,RESERVED*%
%TO.N,unconnected-(U3-RESERVED-Pad11)*%
X88129000Y-77306062D03*
%TO.P,U3,12,SDO/ALTADDRESS*%
%TO.N,GND*%
X87329000Y-77306062D03*
%TO.P,U3,13,SDA/SDI/SDIO*%
%TO.N,/I2C3_SDA*%
X86529000Y-77306062D03*
D29*
%TO.P,U3,14,SCL/SCLK*%
%TO.N,/I2C3_SCL*%
X86299000Y-78526062D03*
%TD*%
D20*
%TO.P,R2,1*%
%TO.N,+1V8*%
X99301000Y-76495062D03*
%TO.P,R2,2*%
%TO.N,I2C_SCL_1v8*%
X99301000Y-75475062D03*
%TD*%
D11*
%TO.P,TP5,1,1*%
%TO.N,/VOUT_B1*%
X113259000Y-46517061D03*
%TD*%
D30*
%TO.P,C11,1*%
%TO.N,GND*%
X102547000Y-82163062D03*
%TO.P,C11,2*%
%TO.N,Net-(U2-REGOUT)*%
X103507000Y-82163062D03*
%TD*%
D31*
%TO.N,GND*%
X86016000Y-46984000D03*
D32*
X115830000Y-78316000D03*
D31*
X85116000Y-46984000D03*
D32*
X116478000Y-72631000D03*
D33*
X103647000Y-76401062D03*
D31*
X86016000Y-44284000D03*
D33*
X81525000Y-44401000D03*
D31*
X86916000Y-45184000D03*
X87816000Y-44284000D03*
X87816000Y-45184000D03*
D32*
X111877000Y-78319500D03*
D33*
X105636000Y-78131062D03*
X87329000Y-77306062D03*
D32*
X100598480Y-43692062D03*
X113259000Y-42967061D03*
X91369000Y-44051000D03*
D31*
X87816000Y-46984000D03*
D33*
X82815000Y-47553000D03*
D31*
X86916000Y-46984000D03*
X85116000Y-45184000D03*
D33*
X102547000Y-82163062D03*
D31*
X86916000Y-44284000D03*
X90171000Y-38117062D03*
X85116000Y-44284000D03*
D33*
X88929000Y-79746062D03*
D31*
X86016000Y-46084000D03*
D33*
X90113000Y-43756000D03*
X103978000Y-81114062D03*
X87410000Y-81157062D03*
X89652000Y-81157062D03*
D31*
X87816000Y-46084000D03*
X86916000Y-46084000D03*
D33*
X102827000Y-81179062D03*
D31*
X85116000Y-46084000D03*
X86016000Y-45184000D03*
D32*
X89357000Y-82419062D03*
X112348000Y-72611500D03*
X92598480Y-43692062D03*
D31*
%TO.N,/reset*%
X85853000Y-38117062D03*
D33*
%TO.N,+3.3V*%
X87052000Y-72819062D03*
X90113000Y-42796000D03*
X105636000Y-79091062D03*
D32*
X91369000Y-42501000D03*
D31*
X86716000Y-49088000D03*
X90759000Y-78526062D03*
D33*
X90612000Y-81157062D03*
D32*
X98598480Y-43692062D03*
D33*
X94246000Y-77005062D03*
X94246000Y-80796062D03*
D32*
X106598480Y-43692062D03*
X90907000Y-82419062D03*
D33*
X82815000Y-48513000D03*
D32*
X113259000Y-39417061D03*
X117380000Y-78316000D03*
D33*
X86450000Y-81157062D03*
%TO.N,+1V8*%
X101867000Y-81179062D03*
X102847000Y-76000000D03*
D31*
%TO.N,/USART1_RX*%
X102598480Y-43692062D03*
D33*
%TO.N,/SWDIO*%
X85765000Y-41794000D03*
%TO.N,/SWCLK*%
X85200000Y-41100000D03*
D31*
%TO.N,/USART1_TX*%
X104598480Y-43692062D03*
D33*
%TO.N,/I2C3_SDA*%
X86529000Y-77306062D03*
X82867000Y-44884000D03*
X94246000Y-79776062D03*
%TO.N,/I2C3_SCL*%
X84599000Y-73416062D03*
X89823000Y-45384000D03*
X94246000Y-75985062D03*
%TO.N,/ICM209481_INT_1v8*%
X105073000Y-80231062D03*
X91985000Y-73372062D03*
%TO.N,/I2C_2_SDA*%
X83105000Y-46403001D03*
%TO.N,/I2C_2_SCL*%
X83105000Y-45703000D03*
%TD*%
D34*
%TO.N,GND*%
X104547000Y-77611062D02*
X105116000Y-77611062D01*
D35*
X89729000Y-79746062D02*
X89729000Y-81080062D01*
D34*
X88903500Y-43884000D02*
X89985000Y-43884000D01*
D36*
X89357000Y-82419062D02*
X89357000Y-81452062D01*
D34*
X103978000Y-81114062D02*
X103978000Y-80814836D01*
X103978000Y-80814836D02*
X103647000Y-80483836D01*
D36*
X116595000Y-74332000D02*
X116595000Y-72748000D01*
D34*
X105116000Y-77611062D02*
X105636000Y-78131062D01*
D35*
X87329000Y-79746062D02*
X87329000Y-81076062D01*
D36*
X89357000Y-81452062D02*
X89652000Y-81157062D01*
D34*
X84028500Y-47384000D02*
X82984000Y-47384000D01*
D36*
X112536000Y-74316500D02*
X112536000Y-72799500D01*
D37*
X90171000Y-38117062D02*
X88787000Y-38117062D01*
D36*
X90408000Y-44051000D02*
X90113000Y-43756000D01*
D34*
X102847000Y-80111062D02*
X102847000Y-81159062D01*
D36*
X91369000Y-44051000D02*
X90408000Y-44051000D01*
D34*
X103647000Y-77111062D02*
X103647000Y-76401062D01*
X103647000Y-80483836D02*
X103647000Y-80111062D01*
%TO.N,/reset*%
X85673000Y-49238000D02*
X81227000Y-49238000D01*
D37*
X85853000Y-38117062D02*
X87237000Y-38117062D01*
D34*
X81227000Y-49238000D02*
X79848000Y-47859000D01*
X86216000Y-48071500D02*
X86216000Y-48695000D01*
X86216000Y-48695000D02*
X85673000Y-49238000D01*
X78630000Y-46641000D02*
X79848000Y-47859000D01*
X85011000Y-38117062D02*
X78630000Y-44498062D01*
X85853000Y-38117062D02*
X85011000Y-38117062D01*
X78630000Y-44498062D02*
X78630000Y-46641000D01*
%TO.N,+3.3V*%
X104547000Y-79611062D02*
X105116000Y-79611062D01*
D36*
X90907000Y-82419062D02*
X90907000Y-81452062D01*
D34*
X105116000Y-79611062D02*
X105636000Y-79091062D01*
X86716000Y-48071500D02*
X86716000Y-49088000D01*
D36*
X117545000Y-76607000D02*
X117545000Y-78151000D01*
X90408000Y-42501000D02*
X90113000Y-42796000D01*
X90907000Y-81452062D02*
X90612000Y-81157062D01*
D34*
X88216000Y-42911000D02*
X89998000Y-42911000D01*
D35*
X90529000Y-79746062D02*
X90529000Y-81074062D01*
D34*
X84716000Y-48385000D02*
X82943000Y-48385000D01*
D36*
X91369000Y-42501000D02*
X90408000Y-42501000D01*
D35*
X86529000Y-79746062D02*
X86529000Y-81078062D01*
D36*
%TO.N,/VOUT_B1*%
X112032000Y-75534062D02*
X113042000Y-75534062D01*
D38*
X121892000Y-56917062D02*
X117722000Y-56917062D01*
D36*
X117545000Y-75105062D02*
X117545000Y-74332000D01*
D39*
X118028000Y-71673000D02*
X118028000Y-72631000D01*
D36*
X113486000Y-75090062D02*
X113486000Y-74316500D01*
D39*
X114864000Y-48122061D02*
X113259000Y-46517061D01*
X114864000Y-56917062D02*
X114864000Y-48122061D01*
D36*
X113486000Y-73023500D02*
X113898000Y-72611500D01*
X111586000Y-75088062D02*
X112032000Y-75534062D01*
X117545000Y-74332000D02*
X117545000Y-73114000D01*
D39*
X114864000Y-70639000D02*
X116994000Y-70639000D01*
X116994000Y-70639000D02*
X118028000Y-71673000D01*
D36*
X115645000Y-74332000D02*
X115645000Y-75103062D01*
X113042000Y-75534062D02*
X113486000Y-75090062D01*
D39*
X113898000Y-71605000D02*
X113898000Y-72611500D01*
D36*
X117545000Y-73114000D02*
X118028000Y-72631000D01*
D39*
X114864000Y-70639000D02*
X113898000Y-71605000D01*
D36*
X115645000Y-75103062D02*
X116099000Y-75557062D01*
D39*
X117722000Y-56917062D02*
X114864000Y-56917062D01*
X114864000Y-56917062D02*
X114864000Y-70639000D01*
D36*
X113486000Y-74316500D02*
X113486000Y-73023500D01*
X111586000Y-74316500D02*
X111586000Y-75088062D01*
X116099000Y-75557062D02*
X117093000Y-75557062D01*
X117093000Y-75557062D02*
X117545000Y-75105062D01*
%TO.N,+1V8*%
X113427000Y-80491062D02*
X110029062Y-83889000D01*
X92797000Y-78495062D02*
X92797000Y-81502062D01*
X113427000Y-78319500D02*
X113427000Y-80491062D01*
X95159938Y-83865000D02*
X97703000Y-83865000D01*
X90449000Y-74803062D02*
X91574000Y-74803062D01*
D34*
X102847000Y-77111062D02*
X102847000Y-76000000D01*
D36*
X101080000Y-83889000D02*
X97727000Y-83889000D01*
X95712000Y-76935062D02*
X97703000Y-76935062D01*
X110029062Y-83889000D02*
X101080000Y-83889000D01*
D34*
X102447000Y-80111062D02*
X102447000Y-80599062D01*
D36*
X92797000Y-78495062D02*
X94152000Y-78495062D01*
X97703000Y-80726062D02*
X97703000Y-83865000D01*
X97703000Y-80726062D02*
X98861000Y-80726062D01*
X91985000Y-74392062D02*
X92797000Y-75204062D01*
X101080000Y-83889000D02*
X101080000Y-81966062D01*
X98861000Y-76935062D02*
X99301000Y-76495062D01*
X97703000Y-76935062D02*
X98861000Y-76935062D01*
X94152000Y-78495062D02*
X95712000Y-76935062D01*
X97703000Y-83865000D02*
X97727000Y-83889000D01*
X98861000Y-80726062D02*
X99301000Y-80286062D01*
X101080000Y-81966062D02*
X101867000Y-81179062D01*
X113487000Y-78259500D02*
X113487000Y-76592500D01*
D34*
X102447000Y-80599062D02*
X101867000Y-81179062D01*
D36*
X92797000Y-75204062D02*
X92797000Y-78495062D01*
X91574000Y-74803062D02*
X91985000Y-74392062D01*
X92797000Y-81502062D02*
X95159938Y-83865000D01*
D34*
%TO.N,/USART1_RX*%
X87709000Y-41230000D02*
X100136418Y-41230000D01*
X86716000Y-42223000D02*
X87709000Y-41230000D01*
X86716000Y-43196500D02*
X86716000Y-42223000D01*
X100136418Y-41230000D02*
X102598480Y-43692062D01*
%TO.N,/SWDIO*%
X85765000Y-41794000D02*
X85216000Y-42343000D01*
X85216000Y-42343000D02*
X85216000Y-43196500D01*
%TO.N,/SWCLK*%
X84716000Y-41584000D02*
X85200000Y-41100000D01*
X84716000Y-43196500D02*
X84716000Y-41584000D01*
%TO.N,/USART1_TX*%
X87912000Y-41633000D02*
X99573000Y-41633000D01*
X87216000Y-42329000D02*
X87912000Y-41633000D01*
X102352000Y-44412000D02*
X103878542Y-44412000D01*
X103878542Y-44412000D02*
X104598480Y-43692062D01*
X87216000Y-43196500D02*
X87216000Y-42329000D01*
X99573000Y-41633000D02*
X102352000Y-44412000D01*
D38*
%TO.N,/VOUT_A1*%
X117722000Y-50917062D02*
X121892000Y-50917062D01*
D34*
%TO.N,/boot0*%
X84028500Y-46884000D02*
X83956438Y-46956062D01*
X81525000Y-46147000D02*
X81525000Y-45421000D01*
X82334062Y-46956062D02*
X81525000Y-46147000D01*
X83956438Y-46956062D02*
X82334062Y-46956062D01*
X79848000Y-45396000D02*
X81500000Y-45396000D01*
%TO.N,/I2C3_SDA*%
X84028500Y-44884000D02*
X82867000Y-44884000D01*
X95828000Y-79776062D02*
X94246000Y-79776062D01*
%TO.N,/I2C3_SCL*%
X89823000Y-45384000D02*
X88903500Y-45384000D01*
X84599000Y-73416062D02*
X84599000Y-77167062D01*
X94246000Y-75985062D02*
X95828000Y-75985062D01*
X84599000Y-77167062D02*
X85958000Y-78526062D01*
%TO.N,I2C_SCL_1v8*%
X102447000Y-76655062D02*
X101267000Y-75475062D01*
X101267000Y-75475062D02*
X99301000Y-75475062D01*
X98861000Y-75035062D02*
X99301000Y-75475062D01*
X97703000Y-75035062D02*
X98861000Y-75035062D01*
X102447000Y-77111062D02*
X102447000Y-76655062D01*
%TO.N,I2C_SDA_1v8*%
X97703000Y-78826062D02*
X98861000Y-78826062D01*
X100576000Y-77111062D02*
X98861000Y-78826062D01*
X102047000Y-77111062D02*
X100576000Y-77111062D01*
X98861000Y-78826062D02*
X99301000Y-79266062D01*
%TO.N,Net-(U2-REGOUT)*%
X103420000Y-80835062D02*
X103420000Y-82076062D01*
X103247000Y-80662062D02*
X103420000Y-80835062D01*
X103247000Y-80111062D02*
X103247000Y-80662062D01*
%TO.N,/ICM209481_INT_1v8*%
X90449000Y-72903062D02*
X91516000Y-72903062D01*
X104650000Y-80231062D02*
X105073000Y-80231062D01*
X104047000Y-80111062D02*
X104530000Y-80111062D01*
X104530000Y-80111062D02*
X104650000Y-80231062D01*
X91516000Y-72903062D02*
X91985000Y-73372062D01*
%TO.N,/ADXL375_INT1_3v3*%
X87574000Y-75886062D02*
X89959000Y-75886062D01*
X87716000Y-48071500D02*
X87716000Y-49159062D01*
X90529000Y-76456062D02*
X90529000Y-77306062D01*
X87716000Y-49159062D02*
X84057000Y-52818062D01*
X84057000Y-66927062D02*
X86016000Y-68886062D01*
X89959000Y-75886062D02*
X90529000Y-76456062D01*
X84057000Y-52818062D02*
X84057000Y-66927062D01*
X86016000Y-74328062D02*
X87574000Y-75886062D01*
X86016000Y-68886062D02*
X86016000Y-74328062D01*
%TO.N,/I2C_2_SDA*%
X84028500Y-46384000D02*
X83124001Y-46384000D01*
X83124001Y-46384000D02*
X83105000Y-46403001D01*
%TO.N,/I2C_2_SCL*%
X84004500Y-45860000D02*
X83551202Y-45860000D01*
X83394202Y-45703000D02*
X83105000Y-45703000D01*
X83551202Y-45860000D02*
X83394202Y-45703000D01*
%TO.N,/ICM209481_INT_3v3*%
X84458000Y-66760962D02*
X84458000Y-52984162D01*
X88574000Y-73853062D02*
X87066000Y-73853062D01*
X88574000Y-73853062D02*
X88574000Y-70879062D01*
X86417000Y-68719962D02*
X84458000Y-66760962D01*
X84458000Y-52984162D02*
X88216000Y-49226162D01*
X88574000Y-70879062D02*
X86417000Y-68722062D01*
X86417000Y-68722062D02*
X86417000Y-68719962D01*
X88216000Y-49226162D02*
X88216000Y-48071500D01*
%TD*%
M02*
