%TF.GenerationSoftware,KiCad,Pcbnew,9.0.6*%
%TF.CreationDate,2026-01-26T21:03:18+01:00*%
%TF.ProjectId,neptune-imu,6e657074-756e-4652-9d69-6d752e6b6963,1.0*%
%TF.SameCoordinates,Original*%
%TF.FileFunction,Soldermask,Top*%
%TF.FilePolarity,Negative*%
%FSLAX46Y46*%
G04 Gerber Fmt 4.6, Leading zero omitted, Abs format (unit mm)*
G04 Created by KiCad (PCBNEW 9.0.6) date 2026-01-26 21:03:18*
%MOMM*%
%LPD*%
G01*
G04 APERTURE LIST*
G04 Aperture macros list*
%AMRoundRect*
0 Rectangle with rounded corners*
0 $1 Rounding radius*
0 $2 $3 $4 $5 $6 $7 $8 $9 X,Y pos of 4 corners*
0 Add a 4 corners polygon primitive as box body*
4,1,4,$2,$3,$4,$5,$6,$7,$8,$9,$2,$3,0*
0 Add four circle primitives for the rounded corners*
1,1,$1+$1,$2,$3*
1,1,$1+$1,$4,$5*
1,1,$1+$1,$6,$7*
1,1,$1+$1,$8,$9*
0 Add four rect primitives between the rounded corners*
20,1,$1+$1,$2,$3,$4,$5,0*
20,1,$1+$1,$4,$5,$6,$7,0*
20,1,$1+$1,$6,$7,$8,$9,0*
20,1,$1+$1,$8,$9,$2,$3,0*%
G04 Aperture macros list end*
%ADD10RoundRect,0.150000X-0.150000X0.512500X-0.150000X-0.512500X0.150000X-0.512500X0.150000X0.512500X0*%
%ADD11R,1.500000X1.500000*%
%ADD12RoundRect,0.140000X0.140000X0.170000X-0.140000X0.170000X-0.140000X-0.170000X0.140000X-0.170000X0*%
%ADD13RoundRect,0.050000X-0.225000X-0.050000X0.225000X-0.050000X0.225000X0.050000X-0.225000X0.050000X0*%
%ADD14RoundRect,0.050000X0.050000X-0.225000X0.050000X0.225000X-0.050000X0.225000X-0.050000X-0.225000X0*%
%ADD15RoundRect,0.062500X0.062500X-0.375000X0.062500X0.375000X-0.062500X0.375000X-0.062500X-0.375000X0*%
%ADD16RoundRect,0.062500X0.375000X-0.062500X0.375000X0.062500X-0.375000X0.062500X-0.375000X-0.062500X0*%
%ADD17R,3.450000X3.450000*%
%ADD18RoundRect,0.140000X0.170000X-0.140000X0.170000X0.140000X-0.170000X0.140000X-0.170000X-0.140000X0*%
%ADD19RoundRect,0.135000X-0.185000X0.135000X-0.185000X-0.135000X0.185000X-0.135000X0.185000X0.135000X0*%
%ADD20RoundRect,0.135000X0.185000X-0.135000X0.185000X0.135000X-0.185000X0.135000X-0.185000X-0.135000X0*%
%ADD21RoundRect,0.225000X0.225000X0.250000X-0.225000X0.250000X-0.225000X-0.250000X0.225000X-0.250000X0*%
%ADD22RoundRect,0.150000X0.587500X0.150000X-0.587500X0.150000X-0.587500X-0.150000X0.587500X-0.150000X0*%
%ADD23RoundRect,0.140000X-0.170000X0.140000X-0.170000X-0.140000X0.170000X-0.140000X0.170000X0.140000X0*%
%ADD24R,1.000000X1.000000*%
%ADD25R,2.580000X1.000000*%
%ADD26RoundRect,0.225000X-0.250000X0.225000X-0.250000X-0.225000X0.250000X-0.225000X0.250000X0.225000X0*%
%ADD27RoundRect,0.225000X-0.225000X-0.250000X0.225000X-0.250000X0.225000X0.250000X-0.225000X0.250000X0*%
%ADD28R,0.550000X1.300000*%
%ADD29R,1.300000X0.600000*%
%ADD30RoundRect,0.140000X-0.140000X-0.170000X0.140000X-0.170000X0.140000X0.170000X-0.140000X0.170000X0*%
G04 APERTURE END LIST*
D10*
%TO.C,U10*%
X113486000Y-74316500D03*
X112536000Y-74316500D03*
X111586000Y-74316500D03*
X111586000Y-76591500D03*
X113486000Y-76591500D03*
%TD*%
D11*
%TO.C,TP3*%
X113259000Y-39417061D03*
%TD*%
D12*
%TO.C,C8*%
X90612000Y-81157062D03*
X89652000Y-81157062D03*
%TD*%
D13*
%TO.C,U2*%
X101547000Y-77611062D03*
X101547000Y-78011062D03*
X101547000Y-78411062D03*
X101547000Y-78811062D03*
X101547000Y-79211062D03*
X101547000Y-79611062D03*
D14*
X102047000Y-80111062D03*
X102447000Y-80111062D03*
X102847000Y-80111062D03*
X103247000Y-80111062D03*
X103647000Y-80111062D03*
X104047000Y-80111062D03*
D13*
X104547000Y-79611062D03*
X104547000Y-79211062D03*
X104547000Y-78811062D03*
X104547000Y-78411062D03*
X104547000Y-78011062D03*
X104547000Y-77611062D03*
D14*
X104047000Y-77111062D03*
X103647000Y-77111062D03*
X103247000Y-77111062D03*
X102847000Y-77111062D03*
X102447000Y-77111062D03*
X102047000Y-77111062D03*
%TD*%
D15*
%TO.C,U1*%
X84716000Y-48071500D03*
X85216000Y-48071500D03*
X85716000Y-48071500D03*
X86216000Y-48071500D03*
X86716000Y-48071500D03*
X87216000Y-48071500D03*
X87716000Y-48071500D03*
X88216000Y-48071500D03*
D16*
X88903500Y-47384000D03*
X88903500Y-46884000D03*
X88903500Y-46384000D03*
X88903500Y-45884000D03*
X88903500Y-45384000D03*
X88903500Y-44884000D03*
X88903500Y-44384000D03*
X88903500Y-43884000D03*
D15*
X88216000Y-43196500D03*
X87716000Y-43196500D03*
X87216000Y-43196500D03*
X86716000Y-43196500D03*
X86216000Y-43196500D03*
X85716000Y-43196500D03*
X85216000Y-43196500D03*
X84716000Y-43196500D03*
D16*
X84028500Y-43884000D03*
X84028500Y-44384000D03*
X84028500Y-44884000D03*
X84028500Y-45384000D03*
X84028500Y-45884000D03*
X84028500Y-46384000D03*
X84028500Y-46884000D03*
X84028500Y-47384000D03*
D17*
X86466000Y-45634000D03*
%TD*%
D18*
%TO.C,C3*%
X105636000Y-79091062D03*
X105636000Y-78131062D03*
%TD*%
D19*
%TO.C,R3*%
X94246000Y-75985062D03*
X94246000Y-77005062D03*
%TD*%
D20*
%TO.C,R4*%
X99301000Y-80286062D03*
X99301000Y-79266062D03*
%TD*%
D21*
%TO.C,C7*%
X113427000Y-78319500D03*
X111877000Y-78319500D03*
%TD*%
D20*
%TO.C,R9*%
X87052000Y-73839062D03*
X87052000Y-72819062D03*
%TD*%
D11*
%TO.C,TP4*%
X113259000Y-42967061D03*
%TD*%
D12*
%TO.C,C5*%
X102827000Y-81179062D03*
X101867000Y-81179062D03*
%TD*%
D21*
%TO.C,C1*%
X88787000Y-38117062D03*
X87237000Y-38117062D03*
%TD*%
D22*
%TO.C,Q2*%
X97703000Y-80726062D03*
X97703000Y-78826062D03*
X95828000Y-79776062D03*
%TD*%
D12*
%TO.C,C10*%
X87410000Y-81157062D03*
X86450000Y-81157062D03*
%TD*%
D23*
%TO.C,C2*%
X90113000Y-42796000D03*
X90113000Y-43756000D03*
%TD*%
D24*
%TO.C,TP2*%
X79848000Y-45396000D03*
%TD*%
D25*
%TO.C,J2*%
X77332000Y-50917062D03*
X81502000Y-50917062D03*
X77332000Y-52917062D03*
X81502000Y-52917062D03*
X77332000Y-54917062D03*
X81502000Y-54917062D03*
X77332000Y-56917062D03*
X81502000Y-56917062D03*
X77332000Y-58917062D03*
X81502000Y-58917062D03*
X77332000Y-60917062D03*
X81502000Y-60917062D03*
X77332000Y-62917062D03*
X81502000Y-62917062D03*
X77332000Y-64917062D03*
X81502000Y-64917062D03*
X77332000Y-66917062D03*
X81502000Y-66917062D03*
X77332000Y-68917062D03*
X81502000Y-68917062D03*
%TD*%
D10*
%TO.C,U5*%
X117545000Y-74332000D03*
X116595000Y-74332000D03*
X115645000Y-74332000D03*
X115645000Y-76607000D03*
X117545000Y-76607000D03*
%TD*%
D21*
%TO.C,C6*%
X113898000Y-72611500D03*
X112348000Y-72611500D03*
%TD*%
D25*
%TO.C,J3*%
X117722000Y-50917062D03*
X121892000Y-50917062D03*
X117722000Y-52917062D03*
X121892000Y-52917062D03*
X117722000Y-54917062D03*
X121892000Y-54917062D03*
X117722000Y-56917062D03*
X121892000Y-56917062D03*
X117722000Y-58917062D03*
X121892000Y-58917062D03*
X117722000Y-60917062D03*
X121892000Y-60917062D03*
X117722000Y-62917062D03*
X121892000Y-62917062D03*
X117722000Y-64917062D03*
X121892000Y-64917062D03*
X117722000Y-66917062D03*
X121892000Y-66917062D03*
X117722000Y-68917062D03*
X121892000Y-68917062D03*
%TD*%
D19*
%TO.C,R1*%
X81525000Y-44401000D03*
X81525000Y-45421000D03*
%TD*%
D21*
%TO.C,C9*%
X90907000Y-82419062D03*
X89357000Y-82419062D03*
%TD*%
D20*
%TO.C,R8*%
X91985000Y-74392062D03*
X91985000Y-73372062D03*
%TD*%
D24*
%TO.C,TP1*%
X79848000Y-47859000D03*
%TD*%
D22*
%TO.C,Q3*%
X90449000Y-74803062D03*
X90449000Y-72903062D03*
X88574000Y-73853062D03*
%TD*%
D18*
%TO.C,C4*%
X82815000Y-48513000D03*
X82815000Y-47553000D03*
%TD*%
D26*
%TO.C,C22*%
X91369000Y-42501000D03*
X91369000Y-44051000D03*
%TD*%
D22*
%TO.C,Q1*%
X97703000Y-76935062D03*
X97703000Y-75035062D03*
X95828000Y-75985062D03*
%TD*%
D21*
%TO.C,C15*%
X117380000Y-78316000D03*
X115830000Y-78316000D03*
%TD*%
D27*
%TO.C,C14*%
X116478000Y-72631000D03*
X118028000Y-72631000D03*
%TD*%
D19*
%TO.C,R5*%
X94246000Y-79776062D03*
X94246000Y-80796062D03*
%TD*%
D28*
%TO.C,U3*%
X86529000Y-79746062D03*
X87329000Y-79746062D03*
X88129000Y-79746062D03*
X88929000Y-79746062D03*
X89729000Y-79746062D03*
X90529000Y-79746062D03*
D29*
X90759000Y-78526062D03*
D28*
X90529000Y-77306062D03*
X89729000Y-77306062D03*
X88929000Y-77306062D03*
X88129000Y-77306062D03*
X87329000Y-77306062D03*
X86529000Y-77306062D03*
D29*
X86299000Y-78526062D03*
%TD*%
D20*
%TO.C,R2*%
X99301000Y-76495062D03*
X99301000Y-75475062D03*
%TD*%
D11*
%TO.C,TP5*%
X113259000Y-46517061D03*
%TD*%
D30*
%TO.C,C11*%
X102547000Y-82163062D03*
X103507000Y-82163062D03*
%TD*%
M02*
