M48
; DRILL file {KiCad 9.0.6} date 2025-12-21T10:04:19+0100
; FORMAT={-:-/ absolute / metric / decimal}
; #@! TF.CreationDate,2025-12-21T10:04:19+01:00
; #@! TF.GenerationSoftware,Kicad,Pcbnew,9.0.6
; #@! TF.FileFunction,Plated,1,6,PTH
FMAT,2
METRIC
; #@! TA.AperFunction,Plated,PTH,ViaDrill
T1C0.300
; #@! TA.AperFunction,Plated,PTH,ViaDrill
T2C0.400
; #@! TA.AperFunction,Plated,PTH,ComponentDrill
T3C0.700
%
G90
G05
T1
X81.525Y-44.401
X82.815Y-47.553
X82.815Y-48.513
X82.867Y-44.884
X83.105Y-45.703
X83.105Y-46.403
X84.599Y-73.416
X85.116Y-44.284
X85.116Y-45.184
X85.116Y-46.084
X85.116Y-46.984
X85.2Y-41.1
X85.765Y-41.794
X85.853Y-38.117
X86.016Y-44.284
X86.016Y-45.184
X86.016Y-46.084
X86.016Y-46.984
X86.45Y-81.157
X86.529Y-77.306
X86.716Y-49.088
X86.916Y-44.284
X86.916Y-45.184
X86.916Y-46.084
X86.916Y-46.984
X87.052Y-72.819
X87.329Y-77.306
X87.41Y-81.157
X87.816Y-44.284
X87.816Y-45.184
X87.816Y-46.084
X87.816Y-46.984
X88.929Y-79.746
X89.652Y-81.157
X89.823Y-45.384
X90.113Y-42.796
X90.113Y-43.756
X90.171Y-38.117
X90.612Y-81.157
X90.759Y-78.526
X91.985Y-73.372
X94.246Y-75.985
X94.246Y-77.005
X94.246Y-79.776
X94.246Y-80.796
X101.867Y-81.179
X102.547Y-82.163
X102.598Y-43.692
X102.827Y-81.179
X102.847Y-76.0
X103.647Y-76.401
X103.978Y-81.114
X104.598Y-43.692
X105.073Y-80.231
X105.636Y-78.131
X105.636Y-79.091
T2
X89.357Y-82.419
X90.907Y-82.419
X91.369Y-42.501
X91.369Y-44.051
X92.598Y-43.692
X98.598Y-43.692
X100.598Y-43.692
X106.598Y-43.692
X111.877Y-78.319
X112.348Y-72.611
X113.259Y-39.417
X113.259Y-42.967
X115.83Y-78.316
X116.478Y-72.631
X117.38Y-78.316
T3
X77.332Y-50.917
X77.332Y-52.917
X77.332Y-54.917
X77.332Y-56.917
X77.332Y-58.917
X77.332Y-60.917
X77.332Y-62.917
X77.332Y-64.917
X77.332Y-66.917
X77.332Y-68.917
X81.502Y-50.917
X81.502Y-52.917
X81.502Y-54.917
X81.502Y-56.917
X81.502Y-58.917
X81.502Y-60.917
X81.502Y-62.917
X81.502Y-64.917
X81.502Y-66.917
X81.502Y-68.917
X117.722Y-50.917
X117.722Y-52.917
X117.722Y-54.917
X117.722Y-56.917
X117.722Y-58.917
X117.722Y-60.917
X117.722Y-62.917
X117.722Y-64.917
X117.722Y-66.917
X117.722Y-68.917
X121.892Y-50.917
X121.892Y-52.917
X121.892Y-54.917
X121.892Y-56.917
X121.892Y-58.917
X121.892Y-60.917
X121.892Y-62.917
X121.892Y-64.917
X121.892Y-66.917
X121.892Y-68.917
M30
