%TF.GenerationSoftware,KiCad,Pcbnew,9.0.6*%
%TF.CreationDate,2026-01-26T21:03:18+01:00*%
%TF.ProjectId,neptune-imu,6e657074-756e-4652-9d69-6d752e6b6963,1.0*%
%TF.SameCoordinates,Original*%
%TF.FileFunction,Copper,L6,Bot*%
%TF.FilePolarity,Positive*%
%FSLAX46Y46*%
G04 Gerber Fmt 4.6, Leading zero omitted, Abs format (unit mm)*
G04 Created by KiCad (PCBNEW 9.0.6) date 2026-01-26 21:03:18*
%MOMM*%
%LPD*%
G01*
G04 APERTURE LIST*
%TA.AperFunction,ComponentPad*%
%ADD10R,2.580000X1.000000*%
%TD*%
%TA.AperFunction,SMDPad,CuDef*%
%ADD11R,0.900000X2.200000*%
%TD*%
%TA.AperFunction,SMDPad,CuDef*%
%ADD12R,1.300000X1.700000*%
%TD*%
%TA.AperFunction,ViaPad*%
%ADD13C,0.600000*%
%TD*%
%TA.AperFunction,ViaPad*%
%ADD14C,0.800000*%
%TD*%
%TA.AperFunction,ViaPad*%
%ADD15C,0.500000*%
%TD*%
%TA.AperFunction,Conductor*%
%ADD16C,0.200000*%
%TD*%
G04 APERTURE END LIST*
D10*
%TO.P,J2,1,Pin_1*%
%TO.N,/I2C_2_SDA*%
X77332000Y-50917062D03*
%TO.P,J2,2,Pin_2*%
%TO.N,unconnected-(J2-Pin_2-Pad2)*%
X81502000Y-50917062D03*
%TO.P,J2,3,Pin_3*%
%TO.N,/I2C_2_SCL*%
X77332000Y-52917062D03*
%TO.P,J2,4,Pin_4*%
%TO.N,unconnected-(J2-Pin_4-Pad4)*%
X81502000Y-52917062D03*
%TO.P,J2,5,Pin_5*%
%TO.N,unconnected-(J2-Pin_5-Pad5)*%
X77332000Y-54917062D03*
%TO.P,J2,6,Pin_6*%
%TO.N,GND*%
X81502000Y-54917062D03*
%TO.P,J2,7,Pin_7*%
%TO.N,unconnected-(J2-Pin_7-Pad7)*%
X77332000Y-56917062D03*
%TO.P,J2,8,Pin_8*%
%TO.N,GND*%
X81502000Y-56917062D03*
%TO.P,J2,9,Pin_9*%
X77332000Y-58917062D03*
%TO.P,J2,10,Pin_10*%
X81502000Y-58917062D03*
%TO.P,J2,11,Pin_11*%
%TO.N,unconnected-(J2-Pin_11-Pad11)*%
X77332000Y-60917062D03*
%TO.P,J2,12,Pin_12*%
%TO.N,unconnected-(J2-Pin_12-Pad12)*%
X81502000Y-60917062D03*
%TO.P,J2,13,Pin_13*%
%TO.N,unconnected-(J2-Pin_13-Pad13)*%
X77332000Y-62917062D03*
%TO.P,J2,14,Pin_14*%
%TO.N,unconnected-(J2-Pin_14-Pad14)*%
X81502000Y-62917062D03*
%TO.P,J2,15,Pin_15*%
%TO.N,unconnected-(J2-Pin_15-Pad15)*%
X77332000Y-64917062D03*
%TO.P,J2,16,Pin_16*%
%TO.N,unconnected-(J2-Pin_16-Pad16)*%
X81502000Y-64917062D03*
%TO.P,J2,17,Pin_17*%
%TO.N,GND*%
X77332000Y-66917062D03*
%TO.P,J2,18,Pin_18*%
X81502000Y-66917062D03*
%TO.P,J2,19,Pin_19*%
X77332000Y-68917062D03*
%TO.P,J2,20,Pin_20*%
X81502000Y-68917062D03*
%TD*%
%TO.P,J3,1,Pin_1*%
%TO.N,/VOUT_A1*%
X117722000Y-50917062D03*
%TO.P,J3,2,Pin_2*%
X121892000Y-50917062D03*
%TO.P,J3,3,Pin_3*%
%TO.N,unconnected-(J3-Pin_3-Pad3)*%
X117722000Y-52917062D03*
%TO.P,J3,4,Pin_4*%
%TO.N,unconnected-(J3-Pin_4-Pad4)*%
X121892000Y-52917062D03*
%TO.P,J3,5,Pin_5*%
%TO.N,unconnected-(J3-Pin_5-Pad5)*%
X117722000Y-54917062D03*
%TO.P,J3,6,Pin_6*%
%TO.N,unconnected-(J3-Pin_6-Pad6)*%
X121892000Y-54917062D03*
%TO.P,J3,7,Pin_7*%
%TO.N,/VOUT_B1*%
X117722000Y-56917062D03*
%TO.P,J3,8,Pin_8*%
X121892000Y-56917062D03*
%TO.P,J3,9,Pin_9*%
%TO.N,unconnected-(J3-Pin_9-Pad9)*%
X117722000Y-58917062D03*
%TO.P,J3,10,Pin_10*%
%TO.N,unconnected-(J3-Pin_10-Pad10)*%
X121892000Y-58917062D03*
%TO.P,J3,11,Pin_11*%
%TO.N,unconnected-(J3-Pin_11-Pad11)*%
X117722000Y-60917062D03*
%TO.P,J3,12,Pin_12*%
%TO.N,unconnected-(J3-Pin_12-Pad12)*%
X121892000Y-60917062D03*
%TO.P,J3,13,Pin_13*%
%TO.N,GND*%
X117722000Y-62917062D03*
%TO.P,J3,14,Pin_14*%
X121892000Y-62917062D03*
%TO.P,J3,15,Pin_15*%
X117722000Y-64917062D03*
%TO.P,J3,16,Pin_16*%
X121892000Y-64917062D03*
%TO.P,J3,17,Pin_17*%
%TO.N,unconnected-(J3-Pin_17-Pad17)*%
X117722000Y-66917062D03*
%TO.P,J3,18,Pin_18*%
%TO.N,unconnected-(J3-Pin_18-Pad18)*%
X121892000Y-66917062D03*
%TO.P,J3,19,Pin_19*%
%TO.N,unconnected-(J3-Pin_19-Pad19)*%
X117722000Y-68917062D03*
%TO.P,J3,20,Pin_20*%
%TO.N,unconnected-(J3-Pin_20-Pad20)*%
X121892000Y-68917062D03*
%TD*%
D11*
%TO.P,J1,1,Pin_1*%
%TO.N,GND*%
X92598480Y-43692062D03*
%TO.P,J1,2,Pin_2*%
%TO.N,/SWDIO*%
X94598480Y-43692062D03*
%TO.P,J1,3,Pin_3*%
%TO.N,/SWCLK*%
X96598480Y-43692062D03*
%TO.P,J1,4,Pin_4*%
%TO.N,+3.3V*%
X98598480Y-43692062D03*
%TO.P,J1,5,Pin_5*%
%TO.N,GND*%
X100598480Y-43692062D03*
%TO.P,J1,6,Pin_6*%
%TO.N,/USART1_RX*%
X102598480Y-43692062D03*
%TO.P,J1,7,Pin_7*%
%TO.N,/USART1_TX*%
X104598480Y-43692062D03*
%TO.P,J1,8,Pin_8*%
%TO.N,+3.3V*%
X106598480Y-43692062D03*
%TD*%
D12*
%TO.P,SW1,1,1*%
%TO.N,GND*%
X90171000Y-38317062D03*
%TO.P,SW1,2,2*%
%TO.N,/reset*%
X85853000Y-38317062D03*
%TD*%
D13*
%TO.N,GND*%
X86016000Y-46984000D03*
D14*
X115830000Y-78316000D03*
D13*
X85116000Y-46984000D03*
D14*
X116478000Y-72631000D03*
D15*
X103647000Y-76401062D03*
D13*
X86016000Y-44284000D03*
D15*
X81525000Y-44401000D03*
D13*
X86916000Y-45184000D03*
X87816000Y-44284000D03*
X87816000Y-45184000D03*
D14*
X111877000Y-78319500D03*
D15*
X105636000Y-78131062D03*
X87329000Y-77306062D03*
D14*
X100598480Y-43692062D03*
X113259000Y-42967061D03*
X91369000Y-44051000D03*
D13*
X87816000Y-46984000D03*
D15*
X82815000Y-47553000D03*
D13*
X86916000Y-46984000D03*
X85116000Y-45184000D03*
D15*
X102547000Y-82163062D03*
D13*
X86916000Y-44284000D03*
X90171000Y-38117062D03*
X85116000Y-44284000D03*
D15*
X88929000Y-79746062D03*
D13*
X86016000Y-46084000D03*
D15*
X90113000Y-43756000D03*
X103978000Y-81114062D03*
X87410000Y-81157062D03*
X89652000Y-81157062D03*
D13*
X87816000Y-46084000D03*
X86916000Y-46084000D03*
D15*
X102827000Y-81179062D03*
D13*
X85116000Y-46084000D03*
X86016000Y-45184000D03*
D14*
X89357000Y-82419062D03*
X112348000Y-72611500D03*
X92598480Y-43692062D03*
D13*
%TO.N,/reset*%
X85853000Y-38117062D03*
D15*
%TO.N,+3.3V*%
X87052000Y-72819062D03*
X90113000Y-42796000D03*
X105636000Y-79091062D03*
D14*
X91369000Y-42501000D03*
D13*
X86716000Y-49088000D03*
X90759000Y-78526062D03*
D15*
X90612000Y-81157062D03*
D14*
X98598480Y-43692062D03*
D15*
X94246000Y-77005062D03*
X94246000Y-80796062D03*
D14*
X106598480Y-43692062D03*
X90907000Y-82419062D03*
D15*
X82815000Y-48513000D03*
D14*
X113259000Y-39417061D03*
X117380000Y-78316000D03*
D15*
X86450000Y-81157062D03*
%TO.N,+1V8*%
X101867000Y-81179062D03*
X102847000Y-76000000D03*
D13*
%TO.N,/USART1_RX*%
X102598480Y-43692062D03*
D15*
%TO.N,/SWDIO*%
X85765000Y-41794000D03*
%TO.N,/SWCLK*%
X85200000Y-41100000D03*
D13*
%TO.N,/USART1_TX*%
X104598480Y-43692062D03*
D15*
%TO.N,/I2C3_SDA*%
X86529000Y-77306062D03*
X82867000Y-44884000D03*
X94246000Y-79776062D03*
%TO.N,/I2C3_SCL*%
X84599000Y-73416062D03*
X89823000Y-45384000D03*
X94246000Y-75985062D03*
%TO.N,/ICM209481_INT_1v8*%
X105073000Y-80231062D03*
X91985000Y-73372062D03*
%TO.N,/I2C_2_SDA*%
X83105000Y-46403001D03*
%TO.N,/I2C_2_SCL*%
X83105000Y-45703000D03*
%TD*%
D16*
%TO.N,/SWDIO*%
X85765000Y-41794000D02*
X93299000Y-41794000D01*
X93299000Y-41794000D02*
X94598480Y-43093480D01*
%TO.N,/SWCLK*%
X85200000Y-41100000D02*
X94655000Y-41100000D01*
X94655000Y-41100000D02*
X96598480Y-43043480D01*
%TO.N,/I2C3_SDA*%
X83989000Y-73961062D02*
X86529000Y-76501062D01*
X83989000Y-73961062D02*
X83989000Y-45426062D01*
X86529000Y-76501062D02*
X86529000Y-77306062D01*
X83989000Y-45426062D02*
X83446938Y-44884000D01*
X91915000Y-76501062D02*
X86529000Y-76501062D01*
X94246000Y-78832062D02*
X91915000Y-76501062D01*
X94246000Y-79776062D02*
X94246000Y-78832062D01*
X83446938Y-44884000D02*
X82867000Y-44884000D01*
%TO.N,/I2C3_SCL*%
X84599000Y-73416062D02*
X84599000Y-73803062D01*
X89823000Y-47165062D02*
X89823000Y-45384000D01*
X84599000Y-73803062D02*
X86781000Y-75985062D01*
X84599000Y-52389062D02*
X89823000Y-47165062D01*
X84599000Y-73416062D02*
X84599000Y-52389062D01*
X86781000Y-75985062D02*
X94246000Y-75985062D01*
%TO.N,/I2C_2_SDA*%
X82587061Y-46403001D02*
X78073000Y-50917062D01*
X83105000Y-46403001D02*
X82587061Y-46403001D01*
%TO.N,/I2C_2_SCL*%
X78397000Y-49738062D02*
X82432062Y-45703000D01*
X75518000Y-51891062D02*
X75518000Y-50248062D01*
X75518000Y-50248062D02*
X76028000Y-49738062D01*
X76544000Y-52917062D02*
X75518000Y-51891062D01*
X82432062Y-45703000D02*
X83105000Y-45703000D01*
X76028000Y-49738062D02*
X78397000Y-49738062D01*
%TD*%
M02*
