%TF.GenerationSoftware,KiCad,Pcbnew,9.0.6*%
%TF.CreationDate,2025-12-21T10:04:18+01:00*%
%TF.ProjectId,neptune-imu,6e657074-756e-4652-9d69-6d752e6b6963,1.0*%
%TF.SameCoordinates,Original*%
%TF.FileFunction,Legend,Bot*%
%TF.FilePolarity,Positive*%
%FSLAX46Y46*%
G04 Gerber Fmt 4.6, Leading zero omitted, Abs format (unit mm)*
G04 Created by KiCad (PCBNEW 9.0.6) date 2025-12-21 10:04:18*
%MOMM*%
%LPD*%
G01*
G04 APERTURE LIST*
%ADD10C,0.100000*%
%ADD11C,0.017999*%
%ADD12C,0.150000*%
%ADD13C,0.112500*%
%ADD14C,0.120000*%
%ADD15C,0.250000*%
%ADD16C,0.254000*%
G04 APERTURE END LIST*
D10*
X98674495Y-76859908D02*
X99327133Y-75916227D01*
X99512342Y-75916227D01*
X98686842Y-77147422D01*
X98491050Y-77147422D01*
X98491050Y-75916227D01*
X98669203Y-75916227D01*
X98674495Y-76859908D01*
G36*
X98674495Y-76859908D02*
G01*
X99327133Y-75916227D01*
X99512342Y-75916227D01*
X98686842Y-77147422D01*
X98491050Y-77147422D01*
X98491050Y-75916227D01*
X98669203Y-75916227D01*
X98674495Y-76859908D01*
G37*
X101422633Y-76059101D02*
X101230369Y-76059101D01*
X101230369Y-75916225D01*
X101422633Y-75916225D01*
X101422633Y-76059101D01*
G36*
X101422633Y-76059101D02*
G01*
X101230369Y-76059101D01*
X101230369Y-75916225D01*
X101422633Y-75916225D01*
X101422633Y-76059101D01*
G37*
X99526454Y-77147422D02*
X99343009Y-77147422D01*
X99343009Y-76554754D01*
X99526454Y-76290171D01*
X99526454Y-77147422D01*
G36*
X99526454Y-77147422D02*
G01*
X99343009Y-77147422D01*
X99343009Y-76554754D01*
X99526454Y-76290171D01*
X99526454Y-77147422D01*
G37*
X101422633Y-77147422D02*
X101232133Y-77147422D01*
X101232133Y-76283115D01*
X101422633Y-76283115D01*
X101422633Y-77147422D01*
G36*
X101422633Y-77147422D02*
G01*
X101232133Y-77147422D01*
X101232133Y-76283115D01*
X101422633Y-76283115D01*
X101422633Y-77147422D01*
G37*
X95970452Y-76101435D02*
X95023242Y-76101435D01*
X95023242Y-75916227D01*
X95970452Y-75916227D01*
X95970452Y-76101435D01*
G36*
X95970452Y-76101435D02*
G01*
X95023242Y-76101435D01*
X95023242Y-75916227D01*
X95970452Y-75916227D01*
X95970452Y-76101435D01*
G37*
D11*
X81012000Y-40717062D02*
X81741887Y-41025399D01*
X81012000Y-41333736D01*
X80703662Y-42063624D01*
X80395325Y-41333736D01*
X79665438Y-41025399D01*
X80395325Y-40717062D01*
X80703662Y-39987174D01*
X81012000Y-40717062D01*
G36*
X81012000Y-40717062D02*
G01*
X81741887Y-41025399D01*
X81012000Y-41333736D01*
X80703662Y-42063624D01*
X80395325Y-41333736D01*
X79665438Y-41025399D01*
X80395325Y-40717062D01*
X80703662Y-39987174D01*
X81012000Y-40717062D01*
G37*
D10*
X97210466Y-77147422D02*
X97004091Y-77147422D01*
X96646022Y-76069685D01*
X96635439Y-76069685D01*
X96252674Y-77147422D01*
X96032188Y-77147422D01*
X96504911Y-75916227D01*
X96776550Y-75916227D01*
X97210466Y-77147422D01*
G36*
X97210466Y-77147422D02*
G01*
X97004091Y-77147422D01*
X96646022Y-76069685D01*
X96635439Y-76069685D01*
X96252674Y-77147422D01*
X96032188Y-77147422D01*
X96504911Y-75916227D01*
X96776550Y-75916227D01*
X97210466Y-77147422D01*
G37*
X102727912Y-77147422D02*
X102544467Y-77147422D01*
X102544467Y-76554754D01*
X102727912Y-76290171D01*
X102727912Y-77147422D01*
G36*
X102727912Y-77147422D02*
G01*
X102544467Y-77147422D01*
X102544467Y-76554754D01*
X102727912Y-76290171D01*
X102727912Y-77147422D01*
G37*
X95589452Y-77147422D02*
X95400715Y-77147422D01*
X95400715Y-76320158D01*
X95589452Y-76320158D01*
X95589452Y-77147422D01*
G36*
X95589452Y-77147422D02*
G01*
X95400715Y-77147422D01*
X95400715Y-76320158D01*
X95589452Y-76320158D01*
X95589452Y-77147422D01*
G37*
X101875952Y-76859908D02*
X102528591Y-75916227D01*
X102713800Y-75916227D01*
X101888300Y-77147422D01*
X101692508Y-77147422D01*
X101692508Y-75916227D01*
X101870661Y-75916227D01*
X101875952Y-76859908D01*
G36*
X101875952Y-76859908D02*
G01*
X102528591Y-75916227D01*
X102713800Y-75916227D01*
X101888300Y-77147422D01*
X101692508Y-77147422D01*
X101692508Y-75916227D01*
X101870661Y-75916227D01*
X101875952Y-76859908D01*
G37*
X97783730Y-76043227D02*
X97758393Y-76045689D01*
X97733417Y-76049773D01*
X97708959Y-76055490D01*
X97685172Y-76062851D01*
X97662212Y-76071865D01*
X97640234Y-76082543D01*
X97619393Y-76094895D01*
X97609447Y-76101703D01*
X97599844Y-76108932D01*
X97590602Y-76116586D01*
X97581741Y-76124664D01*
X97573281Y-76133169D01*
X97565241Y-76142102D01*
X97557640Y-76151463D01*
X97550498Y-76161255D01*
X97543834Y-76171478D01*
X97537667Y-76182134D01*
X97532016Y-76193224D01*
X97526902Y-76204749D01*
X97522344Y-76216711D01*
X97518360Y-76229111D01*
X97514971Y-76241951D01*
X97512195Y-76255230D01*
X97510053Y-76268952D01*
X97508563Y-76283117D01*
X97316300Y-76283115D01*
X97318166Y-76258598D01*
X97321104Y-76234982D01*
X97325088Y-76212256D01*
X97330094Y-76190411D01*
X97336097Y-76169439D01*
X97343073Y-76149329D01*
X97350998Y-76130072D01*
X97359846Y-76111660D01*
X97369593Y-76094082D01*
X97380215Y-76077329D01*
X97391687Y-76061392D01*
X97403984Y-76046261D01*
X97417083Y-76031928D01*
X97430958Y-76018382D01*
X97445585Y-76005615D01*
X97460939Y-75993617D01*
X97476996Y-75982378D01*
X97493731Y-75971890D01*
X97511120Y-75962143D01*
X97529138Y-75953127D01*
X97547761Y-75944833D01*
X97566963Y-75937252D01*
X97586722Y-75930375D01*
X97607011Y-75924192D01*
X97627807Y-75918693D01*
X97649084Y-75913870D01*
X97692987Y-75906212D01*
X97738522Y-75901143D01*
X97785495Y-75898588D01*
X97783730Y-76043227D01*
G36*
X97783730Y-76043227D02*
G01*
X97758393Y-76045689D01*
X97733417Y-76049773D01*
X97708959Y-76055490D01*
X97685172Y-76062851D01*
X97662212Y-76071865D01*
X97640234Y-76082543D01*
X97619393Y-76094895D01*
X97609447Y-76101703D01*
X97599844Y-76108932D01*
X97590602Y-76116586D01*
X97581741Y-76124664D01*
X97573281Y-76133169D01*
X97565241Y-76142102D01*
X97557640Y-76151463D01*
X97550498Y-76161255D01*
X97543834Y-76171478D01*
X97537667Y-76182134D01*
X97532016Y-76193224D01*
X97526902Y-76204749D01*
X97522344Y-76216711D01*
X97518360Y-76229111D01*
X97514971Y-76241951D01*
X97512195Y-76255230D01*
X97510053Y-76268952D01*
X97508563Y-76283117D01*
X97316300Y-76283115D01*
X97318166Y-76258598D01*
X97321104Y-76234982D01*
X97325088Y-76212256D01*
X97330094Y-76190411D01*
X97336097Y-76169439D01*
X97343073Y-76149329D01*
X97350998Y-76130072D01*
X97359846Y-76111660D01*
X97369593Y-76094082D01*
X97380215Y-76077329D01*
X97391687Y-76061392D01*
X97403984Y-76046261D01*
X97417083Y-76031928D01*
X97430958Y-76018382D01*
X97445585Y-76005615D01*
X97460939Y-75993617D01*
X97476996Y-75982378D01*
X97493731Y-75971890D01*
X97511120Y-75962143D01*
X97529138Y-75953127D01*
X97547761Y-75944833D01*
X97566963Y-75937252D01*
X97586722Y-75930375D01*
X97607011Y-75924192D01*
X97627807Y-75918693D01*
X97649084Y-75913870D01*
X97692987Y-75906212D01*
X97738522Y-75901143D01*
X97785495Y-75898588D01*
X97783730Y-76043227D01*
G37*
X100344898Y-76078504D02*
X100321041Y-76079970D01*
X100297764Y-76082374D01*
X100275079Y-76085706D01*
X100252997Y-76089952D01*
X100231530Y-76095102D01*
X100210690Y-76101142D01*
X100190487Y-76108062D01*
X100170935Y-76115849D01*
X100152044Y-76124491D01*
X100133826Y-76133977D01*
X100116293Y-76144294D01*
X100099456Y-76155430D01*
X100083327Y-76167373D01*
X100067918Y-76180113D01*
X100053240Y-76193635D01*
X100039305Y-76207929D01*
X100026124Y-76222983D01*
X100013709Y-76238785D01*
X100002072Y-76255322D01*
X99991225Y-76272583D01*
X99981178Y-76290556D01*
X99971944Y-76309229D01*
X99963535Y-76328590D01*
X99955961Y-76348627D01*
X99949234Y-76369328D01*
X99943367Y-76390681D01*
X99938371Y-76412674D01*
X99934257Y-76435295D01*
X99931036Y-76458533D01*
X99928722Y-76482374D01*
X99927325Y-76506808D01*
X99926856Y-76531823D01*
X99927356Y-76557649D01*
X99928845Y-76582861D01*
X99931311Y-76607448D01*
X99934742Y-76631394D01*
X99939126Y-76654686D01*
X99944448Y-76677311D01*
X99950698Y-76699255D01*
X99957862Y-76720505D01*
X99965928Y-76741046D01*
X99974883Y-76760867D01*
X99984715Y-76779952D01*
X99995411Y-76798288D01*
X100006958Y-76815862D01*
X100019343Y-76832661D01*
X100032555Y-76848670D01*
X100046581Y-76863876D01*
X100061407Y-76878266D01*
X100077022Y-76891825D01*
X100093413Y-76904541D01*
X100110567Y-76916400D01*
X100128471Y-76927388D01*
X100147113Y-76937492D01*
X100166481Y-76946698D01*
X100186562Y-76954992D01*
X100207343Y-76962361D01*
X100228811Y-76968792D01*
X100250955Y-76974271D01*
X100273761Y-76978784D01*
X100297217Y-76982317D01*
X100321310Y-76984858D01*
X100346028Y-76986393D01*
X100371357Y-76986907D01*
X100395700Y-76986419D01*
X100419445Y-76984962D01*
X100442582Y-76982551D01*
X100465102Y-76979201D01*
X100486995Y-76974923D01*
X100508252Y-76969734D01*
X100528864Y-76963646D01*
X100548821Y-76956673D01*
X100568114Y-76948829D01*
X100586734Y-76940129D01*
X100604671Y-76930586D01*
X100621916Y-76920213D01*
X100638459Y-76909026D01*
X100654292Y-76897037D01*
X100669404Y-76884261D01*
X100683786Y-76870711D01*
X100697430Y-76856401D01*
X100710325Y-76841346D01*
X100722463Y-76825559D01*
X100733833Y-76809054D01*
X100744427Y-76791844D01*
X100754235Y-76773945D01*
X100763248Y-76755369D01*
X100771457Y-76736131D01*
X100778852Y-76716245D01*
X100785423Y-76695723D01*
X100791162Y-76674581D01*
X100796058Y-76652832D01*
X100800104Y-76630490D01*
X100803288Y-76607569D01*
X100805603Y-76584083D01*
X100807038Y-76560046D01*
X100999301Y-76560047D01*
X100997454Y-76594062D01*
X100994245Y-76627303D01*
X100989693Y-76659749D01*
X100983822Y-76691381D01*
X100976652Y-76722178D01*
X100968206Y-76752121D01*
X100958504Y-76781188D01*
X100947569Y-76809362D01*
X100935423Y-76836620D01*
X100922086Y-76862944D01*
X100907580Y-76888313D01*
X100891928Y-76912708D01*
X100875150Y-76936107D01*
X100857269Y-76958492D01*
X100838305Y-76979842D01*
X100818282Y-77000137D01*
X100797219Y-77019358D01*
X100775140Y-77037483D01*
X100752065Y-77054494D01*
X100728017Y-77070369D01*
X100703016Y-77085090D01*
X100677085Y-77098635D01*
X100650245Y-77110986D01*
X100622518Y-77122122D01*
X100593925Y-77132022D01*
X100564488Y-77140667D01*
X100534229Y-77148038D01*
X100503169Y-77154113D01*
X100471330Y-77158873D01*
X100438734Y-77162297D01*
X100405402Y-77164367D01*
X100371356Y-77165061D01*
X100335553Y-77164376D01*
X100300586Y-77162329D01*
X100266475Y-77158934D01*
X100233239Y-77154202D01*
X100200899Y-77148148D01*
X100169473Y-77140784D01*
X100138982Y-77132122D01*
X100109446Y-77122177D01*
X100080884Y-77110960D01*
X100053316Y-77098485D01*
X100026761Y-77084764D01*
X100001239Y-77069811D01*
X99976770Y-77053639D01*
X99953374Y-77036260D01*
X99931070Y-77017687D01*
X99909879Y-76997933D01*
X99889818Y-76977011D01*
X99870910Y-76954935D01*
X99853172Y-76931716D01*
X99836625Y-76907368D01*
X99821289Y-76881904D01*
X99807183Y-76855337D01*
X99794327Y-76827679D01*
X99782741Y-76798944D01*
X99772444Y-76769145D01*
X99763455Y-76738293D01*
X99755796Y-76706403D01*
X99749485Y-76673487D01*
X99744542Y-76639559D01*
X99740987Y-76604630D01*
X99738840Y-76568714D01*
X99738120Y-76531825D01*
X99738834Y-76496672D01*
X99740962Y-76462333D01*
X99744478Y-76428826D01*
X99749361Y-76396167D01*
X99755586Y-76364375D01*
X99763130Y-76333468D01*
X99771969Y-76303464D01*
X99782079Y-76274379D01*
X99793438Y-76246233D01*
X99806021Y-76219042D01*
X99819804Y-76192825D01*
X99834765Y-76167599D01*
X99850880Y-76143382D01*
X99868125Y-76120191D01*
X99886476Y-76098045D01*
X99905910Y-76076962D01*
X99926404Y-76056958D01*
X99947933Y-76038052D01*
X99970475Y-76020262D01*
X99994005Y-76003605D01*
X100018500Y-75988099D01*
X100043937Y-75973762D01*
X100070291Y-75960612D01*
X100097540Y-75948666D01*
X100125660Y-75937942D01*
X100154627Y-75928458D01*
X100184417Y-75920232D01*
X100215008Y-75913281D01*
X100246375Y-75907624D01*
X100278495Y-75903277D01*
X100311344Y-75900259D01*
X100344898Y-75898588D01*
X100344898Y-76078504D01*
G36*
X100344898Y-76078504D02*
G01*
X100321041Y-76079970D01*
X100297764Y-76082374D01*
X100275079Y-76085706D01*
X100252997Y-76089952D01*
X100231530Y-76095102D01*
X100210690Y-76101142D01*
X100190487Y-76108062D01*
X100170935Y-76115849D01*
X100152044Y-76124491D01*
X100133826Y-76133977D01*
X100116293Y-76144294D01*
X100099456Y-76155430D01*
X100083327Y-76167373D01*
X100067918Y-76180113D01*
X100053240Y-76193635D01*
X100039305Y-76207929D01*
X100026124Y-76222983D01*
X100013709Y-76238785D01*
X100002072Y-76255322D01*
X99991225Y-76272583D01*
X99981178Y-76290556D01*
X99971944Y-76309229D01*
X99963535Y-76328590D01*
X99955961Y-76348627D01*
X99949234Y-76369328D01*
X99943367Y-76390681D01*
X99938371Y-76412674D01*
X99934257Y-76435295D01*
X99931036Y-76458533D01*
X99928722Y-76482374D01*
X99927325Y-76506808D01*
X99926856Y-76531823D01*
X99927356Y-76557649D01*
X99928845Y-76582861D01*
X99931311Y-76607448D01*
X99934742Y-76631394D01*
X99939126Y-76654686D01*
X99944448Y-76677311D01*
X99950698Y-76699255D01*
X99957862Y-76720505D01*
X99965928Y-76741046D01*
X99974883Y-76760867D01*
X99984715Y-76779952D01*
X99995411Y-76798288D01*
X100006958Y-76815862D01*
X100019343Y-76832661D01*
X100032555Y-76848670D01*
X100046581Y-76863876D01*
X100061407Y-76878266D01*
X100077022Y-76891825D01*
X100093413Y-76904541D01*
X100110567Y-76916400D01*
X100128471Y-76927388D01*
X100147113Y-76937492D01*
X100166481Y-76946698D01*
X100186562Y-76954992D01*
X100207343Y-76962361D01*
X100228811Y-76968792D01*
X100250955Y-76974271D01*
X100273761Y-76978784D01*
X100297217Y-76982317D01*
X100321310Y-76984858D01*
X100346028Y-76986393D01*
X100371357Y-76986907D01*
X100395700Y-76986419D01*
X100419445Y-76984962D01*
X100442582Y-76982551D01*
X100465102Y-76979201D01*
X100486995Y-76974923D01*
X100508252Y-76969734D01*
X100528864Y-76963646D01*
X100548821Y-76956673D01*
X100568114Y-76948829D01*
X100586734Y-76940129D01*
X100604671Y-76930586D01*
X100621916Y-76920213D01*
X100638459Y-76909026D01*
X100654292Y-76897037D01*
X100669404Y-76884261D01*
X100683786Y-76870711D01*
X100697430Y-76856401D01*
X100710325Y-76841346D01*
X100722463Y-76825559D01*
X100733833Y-76809054D01*
X100744427Y-76791844D01*
X100754235Y-76773945D01*
X100763248Y-76755369D01*
X100771457Y-76736131D01*
X100778852Y-76716245D01*
X100785423Y-76695723D01*
X100791162Y-76674581D01*
X100796058Y-76652832D01*
X100800104Y-76630490D01*
X100803288Y-76607569D01*
X100805603Y-76584083D01*
X100807038Y-76560046D01*
X100999301Y-76560047D01*
X100997454Y-76594062D01*
X100994245Y-76627303D01*
X100989693Y-76659749D01*
X100983822Y-76691381D01*
X100976652Y-76722178D01*
X100968206Y-76752121D01*
X100958504Y-76781188D01*
X100947569Y-76809362D01*
X100935423Y-76836620D01*
X100922086Y-76862944D01*
X100907580Y-76888313D01*
X100891928Y-76912708D01*
X100875150Y-76936107D01*
X100857269Y-76958492D01*
X100838305Y-76979842D01*
X100818282Y-77000137D01*
X100797219Y-77019358D01*
X100775140Y-77037483D01*
X100752065Y-77054494D01*
X100728017Y-77070369D01*
X100703016Y-77085090D01*
X100677085Y-77098635D01*
X100650245Y-77110986D01*
X100622518Y-77122122D01*
X100593925Y-77132022D01*
X100564488Y-77140667D01*
X100534229Y-77148038D01*
X100503169Y-77154113D01*
X100471330Y-77158873D01*
X100438734Y-77162297D01*
X100405402Y-77164367D01*
X100371356Y-77165061D01*
X100335553Y-77164376D01*
X100300586Y-77162329D01*
X100266475Y-77158934D01*
X100233239Y-77154202D01*
X100200899Y-77148148D01*
X100169473Y-77140784D01*
X100138982Y-77132122D01*
X100109446Y-77122177D01*
X100080884Y-77110960D01*
X100053316Y-77098485D01*
X100026761Y-77084764D01*
X100001239Y-77069811D01*
X99976770Y-77053639D01*
X99953374Y-77036260D01*
X99931070Y-77017687D01*
X99909879Y-76997933D01*
X99889818Y-76977011D01*
X99870910Y-76954935D01*
X99853172Y-76931716D01*
X99836625Y-76907368D01*
X99821289Y-76881904D01*
X99807183Y-76855337D01*
X99794327Y-76827679D01*
X99782741Y-76798944D01*
X99772444Y-76769145D01*
X99763455Y-76738293D01*
X99755796Y-76706403D01*
X99749485Y-76673487D01*
X99744542Y-76639559D01*
X99740987Y-76604630D01*
X99738840Y-76568714D01*
X99738120Y-76531825D01*
X99738834Y-76496672D01*
X99740962Y-76462333D01*
X99744478Y-76428826D01*
X99749361Y-76396167D01*
X99755586Y-76364375D01*
X99763130Y-76333468D01*
X99771969Y-76303464D01*
X99782079Y-76274379D01*
X99793438Y-76246233D01*
X99806021Y-76219042D01*
X99819804Y-76192825D01*
X99834765Y-76167599D01*
X99850880Y-76143382D01*
X99868125Y-76120191D01*
X99886476Y-76098045D01*
X99905910Y-76076962D01*
X99926404Y-76056958D01*
X99947933Y-76038052D01*
X99970475Y-76020262D01*
X99994005Y-76003605D01*
X100018500Y-75988099D01*
X100043937Y-75973762D01*
X100070291Y-75960612D01*
X100097540Y-75948666D01*
X100125660Y-75937942D01*
X100154627Y-75928458D01*
X100184417Y-75920232D01*
X100215008Y-75913281D01*
X100246375Y-75907624D01*
X100278495Y-75903277D01*
X100311344Y-75900259D01*
X100344898Y-75898588D01*
X100344898Y-76078504D01*
G37*
X98265444Y-76260046D02*
X98262996Y-76276843D01*
X98259715Y-76292957D01*
X98255627Y-76308405D01*
X98250752Y-76323209D01*
X98245116Y-76337388D01*
X98238740Y-76350962D01*
X98231649Y-76363951D01*
X98223865Y-76376373D01*
X98215412Y-76388249D01*
X98206313Y-76399599D01*
X98196591Y-76410442D01*
X98186270Y-76420798D01*
X98175373Y-76430687D01*
X98163923Y-76440128D01*
X98151943Y-76449141D01*
X98139457Y-76457746D01*
X98126487Y-76465962D01*
X98113058Y-76473810D01*
X98099192Y-76481308D01*
X98070242Y-76495336D01*
X98039826Y-76508204D01*
X98008127Y-76520069D01*
X97975333Y-76531090D01*
X97941630Y-76541423D01*
X97907203Y-76551226D01*
X97889857Y-76556945D01*
X97872284Y-76562251D01*
X97854586Y-76567225D01*
X97836868Y-76571952D01*
X97801783Y-76580992D01*
X97767856Y-76590032D01*
X97701710Y-76612963D01*
X97670621Y-76624263D01*
X97655573Y-76630016D01*
X97640856Y-76635893D01*
X97626851Y-76643030D01*
X97613319Y-76650576D01*
X97600320Y-76658566D01*
X97587912Y-76667036D01*
X97576155Y-76676024D01*
X97565109Y-76685564D01*
X97554832Y-76695694D01*
X97545385Y-76706448D01*
X97540992Y-76712071D01*
X97536827Y-76717864D01*
X97532900Y-76723832D01*
X97529218Y-76729978D01*
X97525787Y-76736308D01*
X97522616Y-76742826D01*
X97519711Y-76749536D01*
X97517081Y-76756443D01*
X97514732Y-76763552D01*
X97512672Y-76770867D01*
X97510909Y-76778392D01*
X97509450Y-76786133D01*
X97508302Y-76794093D01*
X97507473Y-76802278D01*
X97506970Y-76810691D01*
X97506800Y-76819337D01*
X97507335Y-76834031D01*
X97508904Y-76848027D01*
X97511460Y-76861340D01*
X97514951Y-76873986D01*
X97519329Y-76885980D01*
X97524544Y-76897336D01*
X97530545Y-76908070D01*
X97537283Y-76918197D01*
X97544708Y-76927733D01*
X97552771Y-76936692D01*
X97561422Y-76945089D01*
X97570611Y-76952941D01*
X97580288Y-76960261D01*
X97590404Y-76967066D01*
X97600908Y-76973370D01*
X97611752Y-76979189D01*
X97622885Y-76984537D01*
X97634258Y-76989431D01*
X97645821Y-76993884D01*
X97657524Y-76997913D01*
X97681151Y-77004757D01*
X97704742Y-77010085D01*
X97727899Y-77014017D01*
X97750224Y-77016675D01*
X97771320Y-77018181D01*
X97790787Y-77018656D01*
X97818747Y-77017823D01*
X97846287Y-77015294D01*
X97873239Y-77011029D01*
X97899432Y-77004986D01*
X97924694Y-76997124D01*
X97948855Y-76987402D01*
X97960469Y-76981830D01*
X97971745Y-76975778D01*
X97982660Y-76969240D01*
X97993193Y-76962211D01*
X98003323Y-76954686D01*
X98013029Y-76946660D01*
X98022289Y-76938127D01*
X98031082Y-76929083D01*
X98039387Y-76919522D01*
X98047182Y-76909439D01*
X98054446Y-76898829D01*
X98061158Y-76887687D01*
X98067296Y-76876007D01*
X98072840Y-76863785D01*
X98077767Y-76851015D01*
X98082056Y-76837692D01*
X98085687Y-76823810D01*
X98088637Y-76809366D01*
X98090886Y-76794353D01*
X98092412Y-76778767D01*
X98288203Y-76778768D01*
X98286446Y-76804862D01*
X98283507Y-76829906D01*
X98279416Y-76853914D01*
X98274199Y-76876902D01*
X98267886Y-76898883D01*
X98260503Y-76919872D01*
X98252081Y-76939884D01*
X98242645Y-76958933D01*
X98232225Y-76977034D01*
X98220849Y-76994201D01*
X98208545Y-77010449D01*
X98195341Y-77025792D01*
X98181264Y-77040245D01*
X98166344Y-77053822D01*
X98150607Y-77066539D01*
X98134083Y-77078409D01*
X98116800Y-77089447D01*
X98098784Y-77099667D01*
X98080066Y-77109085D01*
X98060672Y-77117714D01*
X98040630Y-77125569D01*
X98019970Y-77132665D01*
X97998718Y-77139016D01*
X97976904Y-77144637D01*
X97954555Y-77149542D01*
X97931699Y-77153746D01*
X97884579Y-77160109D01*
X97835769Y-77163841D01*
X97785495Y-77165060D01*
X97743309Y-77163851D01*
X97701017Y-77160188D01*
X97659010Y-77154014D01*
X97617677Y-77145271D01*
X97577409Y-77133903D01*
X97538595Y-77119853D01*
X97501626Y-77103064D01*
X97466892Y-77083480D01*
X97450485Y-77072621D01*
X97434783Y-77061043D01*
X97419835Y-77048737D01*
X97405690Y-77035696D01*
X97392396Y-77021914D01*
X97380002Y-77007384D01*
X97368557Y-76992097D01*
X97358109Y-76976048D01*
X97348709Y-76959228D01*
X97340403Y-76941632D01*
X97333241Y-76923251D01*
X97327272Y-76904079D01*
X97322545Y-76884109D01*
X97319108Y-76863333D01*
X97317010Y-76841745D01*
X97316300Y-76819337D01*
X97316796Y-76799882D01*
X97318269Y-76781193D01*
X97320690Y-76763247D01*
X97324034Y-76746025D01*
X97328273Y-76729506D01*
X97333380Y-76713669D01*
X97339329Y-76698493D01*
X97346093Y-76683958D01*
X97353645Y-76670043D01*
X97361958Y-76656728D01*
X97371006Y-76643992D01*
X97380761Y-76631813D01*
X97391197Y-76620172D01*
X97402287Y-76609048D01*
X97414004Y-76598420D01*
X97426322Y-76588267D01*
X97439214Y-76578569D01*
X97452652Y-76569306D01*
X97466610Y-76560455D01*
X97481061Y-76551998D01*
X97511336Y-76536178D01*
X97543263Y-76521681D01*
X97576625Y-76508342D01*
X97611210Y-76495994D01*
X97646803Y-76484474D01*
X97683189Y-76473615D01*
X97701117Y-76467821D01*
X97719128Y-76462315D01*
X97755067Y-76452007D01*
X97824300Y-76433045D01*
X97862503Y-76421687D01*
X97903041Y-76408323D01*
X97923573Y-76400676D01*
X97943952Y-76392272D01*
X97963933Y-76383026D01*
X97983271Y-76372852D01*
X98001719Y-76361665D01*
X98019034Y-76349381D01*
X98034969Y-76335912D01*
X98042342Y-76328708D01*
X98049279Y-76321176D01*
X98055747Y-76313305D01*
X98061718Y-76305085D01*
X98067159Y-76296505D01*
X98072041Y-76287555D01*
X98076332Y-76278224D01*
X98080002Y-76268501D01*
X98083020Y-76258376D01*
X98085356Y-76247837D01*
X98267037Y-76242545D01*
X98265444Y-76260046D01*
G36*
X98265444Y-76260046D02*
G01*
X98262996Y-76276843D01*
X98259715Y-76292957D01*
X98255627Y-76308405D01*
X98250752Y-76323209D01*
X98245116Y-76337388D01*
X98238740Y-76350962D01*
X98231649Y-76363951D01*
X98223865Y-76376373D01*
X98215412Y-76388249D01*
X98206313Y-76399599D01*
X98196591Y-76410442D01*
X98186270Y-76420798D01*
X98175373Y-76430687D01*
X98163923Y-76440128D01*
X98151943Y-76449141D01*
X98139457Y-76457746D01*
X98126487Y-76465962D01*
X98113058Y-76473810D01*
X98099192Y-76481308D01*
X98070242Y-76495336D01*
X98039826Y-76508204D01*
X98008127Y-76520069D01*
X97975333Y-76531090D01*
X97941630Y-76541423D01*
X97907203Y-76551226D01*
X97889857Y-76556945D01*
X97872284Y-76562251D01*
X97854586Y-76567225D01*
X97836868Y-76571952D01*
X97801783Y-76580992D01*
X97767856Y-76590032D01*
X97701710Y-76612963D01*
X97670621Y-76624263D01*
X97655573Y-76630016D01*
X97640856Y-76635893D01*
X97626851Y-76643030D01*
X97613319Y-76650576D01*
X97600320Y-76658566D01*
X97587912Y-76667036D01*
X97576155Y-76676024D01*
X97565109Y-76685564D01*
X97554832Y-76695694D01*
X97545385Y-76706448D01*
X97540992Y-76712071D01*
X97536827Y-76717864D01*
X97532900Y-76723832D01*
X97529218Y-76729978D01*
X97525787Y-76736308D01*
X97522616Y-76742826D01*
X97519711Y-76749536D01*
X97517081Y-76756443D01*
X97514732Y-76763552D01*
X97512672Y-76770867D01*
X97510909Y-76778392D01*
X97509450Y-76786133D01*
X97508302Y-76794093D01*
X97507473Y-76802278D01*
X97506970Y-76810691D01*
X97506800Y-76819337D01*
X97507335Y-76834031D01*
X97508904Y-76848027D01*
X97511460Y-76861340D01*
X97514951Y-76873986D01*
X97519329Y-76885980D01*
X97524544Y-76897336D01*
X97530545Y-76908070D01*
X97537283Y-76918197D01*
X97544708Y-76927733D01*
X97552771Y-76936692D01*
X97561422Y-76945089D01*
X97570611Y-76952941D01*
X97580288Y-76960261D01*
X97590404Y-76967066D01*
X97600908Y-76973370D01*
X97611752Y-76979189D01*
X97622885Y-76984537D01*
X97634258Y-76989431D01*
X97645821Y-76993884D01*
X97657524Y-76997913D01*
X97681151Y-77004757D01*
X97704742Y-77010085D01*
X97727899Y-77014017D01*
X97750224Y-77016675D01*
X97771320Y-77018181D01*
X97790787Y-77018656D01*
X97818747Y-77017823D01*
X97846287Y-77015294D01*
X97873239Y-77011029D01*
X97899432Y-77004986D01*
X97924694Y-76997124D01*
X97948855Y-76987402D01*
X97960469Y-76981830D01*
X97971745Y-76975778D01*
X97982660Y-76969240D01*
X97993193Y-76962211D01*
X98003323Y-76954686D01*
X98013029Y-76946660D01*
X98022289Y-76938127D01*
X98031082Y-76929083D01*
X98039387Y-76919522D01*
X98047182Y-76909439D01*
X98054446Y-76898829D01*
X98061158Y-76887687D01*
X98067296Y-76876007D01*
X98072840Y-76863785D01*
X98077767Y-76851015D01*
X98082056Y-76837692D01*
X98085687Y-76823810D01*
X98088637Y-76809366D01*
X98090886Y-76794353D01*
X98092412Y-76778767D01*
X98288203Y-76778768D01*
X98286446Y-76804862D01*
X98283507Y-76829906D01*
X98279416Y-76853914D01*
X98274199Y-76876902D01*
X98267886Y-76898883D01*
X98260503Y-76919872D01*
X98252081Y-76939884D01*
X98242645Y-76958933D01*
X98232225Y-76977034D01*
X98220849Y-76994201D01*
X98208545Y-77010449D01*
X98195341Y-77025792D01*
X98181264Y-77040245D01*
X98166344Y-77053822D01*
X98150607Y-77066539D01*
X98134083Y-77078409D01*
X98116800Y-77089447D01*
X98098784Y-77099667D01*
X98080066Y-77109085D01*
X98060672Y-77117714D01*
X98040630Y-77125569D01*
X98019970Y-77132665D01*
X97998718Y-77139016D01*
X97976904Y-77144637D01*
X97954555Y-77149542D01*
X97931699Y-77153746D01*
X97884579Y-77160109D01*
X97835769Y-77163841D01*
X97785495Y-77165060D01*
X97743309Y-77163851D01*
X97701017Y-77160188D01*
X97659010Y-77154014D01*
X97617677Y-77145271D01*
X97577409Y-77133903D01*
X97538595Y-77119853D01*
X97501626Y-77103064D01*
X97466892Y-77083480D01*
X97450485Y-77072621D01*
X97434783Y-77061043D01*
X97419835Y-77048737D01*
X97405690Y-77035696D01*
X97392396Y-77021914D01*
X97380002Y-77007384D01*
X97368557Y-76992097D01*
X97358109Y-76976048D01*
X97348709Y-76959228D01*
X97340403Y-76941632D01*
X97333241Y-76923251D01*
X97327272Y-76904079D01*
X97322545Y-76884109D01*
X97319108Y-76863333D01*
X97317010Y-76841745D01*
X97316300Y-76819337D01*
X97316796Y-76799882D01*
X97318269Y-76781193D01*
X97320690Y-76763247D01*
X97324034Y-76746025D01*
X97328273Y-76729506D01*
X97333380Y-76713669D01*
X97339329Y-76698493D01*
X97346093Y-76683958D01*
X97353645Y-76670043D01*
X97361958Y-76656728D01*
X97371006Y-76643992D01*
X97380761Y-76631813D01*
X97391197Y-76620172D01*
X97402287Y-76609048D01*
X97414004Y-76598420D01*
X97426322Y-76588267D01*
X97439214Y-76578569D01*
X97452652Y-76569306D01*
X97466610Y-76560455D01*
X97481061Y-76551998D01*
X97511336Y-76536178D01*
X97543263Y-76521681D01*
X97576625Y-76508342D01*
X97611210Y-76495994D01*
X97646803Y-76484474D01*
X97683189Y-76473615D01*
X97701117Y-76467821D01*
X97719128Y-76462315D01*
X97755067Y-76452007D01*
X97824300Y-76433045D01*
X97862503Y-76421687D01*
X97903041Y-76408323D01*
X97923573Y-76400676D01*
X97943952Y-76392272D01*
X97963933Y-76383026D01*
X97983271Y-76372852D01*
X98001719Y-76361665D01*
X98019034Y-76349381D01*
X98034969Y-76335912D01*
X98042342Y-76328708D01*
X98049279Y-76321176D01*
X98055747Y-76313305D01*
X98061718Y-76305085D01*
X98067159Y-76296505D01*
X98072041Y-76287555D01*
X98076332Y-76278224D01*
X98080002Y-76268501D01*
X98083020Y-76258376D01*
X98085356Y-76247837D01*
X98267037Y-76242545D01*
X98265444Y-76260046D01*
G37*
X103546356Y-76078504D02*
X103522499Y-76079970D01*
X103499222Y-76082374D01*
X103476536Y-76085706D01*
X103454454Y-76089952D01*
X103432987Y-76095102D01*
X103412147Y-76101142D01*
X103391944Y-76108062D01*
X103372392Y-76115849D01*
X103353501Y-76124491D01*
X103335283Y-76133977D01*
X103317750Y-76144294D01*
X103300913Y-76155430D01*
X103284784Y-76167373D01*
X103269375Y-76180113D01*
X103254697Y-76193635D01*
X103240762Y-76207929D01*
X103227581Y-76222983D01*
X103215166Y-76238785D01*
X103203529Y-76255322D01*
X103192682Y-76272583D01*
X103182635Y-76290556D01*
X103173401Y-76309229D01*
X103164992Y-76328590D01*
X103157418Y-76348627D01*
X103150692Y-76369328D01*
X103144824Y-76390681D01*
X103139828Y-76412674D01*
X103135714Y-76435295D01*
X103132494Y-76458533D01*
X103130179Y-76482374D01*
X103128782Y-76506808D01*
X103128314Y-76531823D01*
X103128813Y-76557649D01*
X103130302Y-76582861D01*
X103132768Y-76607448D01*
X103136200Y-76631394D01*
X103140583Y-76654686D01*
X103145906Y-76677311D01*
X103152155Y-76699255D01*
X103159320Y-76720505D01*
X103167386Y-76741046D01*
X103176341Y-76760867D01*
X103186172Y-76779952D01*
X103196868Y-76798288D01*
X103208415Y-76815862D01*
X103220800Y-76832661D01*
X103234012Y-76848670D01*
X103248038Y-76863876D01*
X103262864Y-76878266D01*
X103278479Y-76891825D01*
X103294870Y-76904541D01*
X103312024Y-76916400D01*
X103329928Y-76927388D01*
X103348570Y-76937492D01*
X103367938Y-76946698D01*
X103388019Y-76954992D01*
X103408800Y-76962361D01*
X103430268Y-76968792D01*
X103452412Y-76974271D01*
X103475218Y-76978784D01*
X103498673Y-76982317D01*
X103522766Y-76984858D01*
X103547484Y-76986393D01*
X103572814Y-76986907D01*
X103597157Y-76986419D01*
X103620902Y-76984962D01*
X103644039Y-76982551D01*
X103666558Y-76979201D01*
X103688451Y-76974923D01*
X103709709Y-76969734D01*
X103730320Y-76963646D01*
X103750278Y-76956673D01*
X103769571Y-76948829D01*
X103788190Y-76940129D01*
X103806127Y-76930586D01*
X103823372Y-76920213D01*
X103839916Y-76909026D01*
X103855748Y-76897037D01*
X103870860Y-76884261D01*
X103885243Y-76870711D01*
X103898886Y-76856401D01*
X103911782Y-76841346D01*
X103923919Y-76825559D01*
X103935290Y-76809054D01*
X103945884Y-76791844D01*
X103955692Y-76773945D01*
X103964705Y-76755369D01*
X103972914Y-76736131D01*
X103980308Y-76716245D01*
X103986880Y-76695723D01*
X103992619Y-76674581D01*
X103997515Y-76652832D01*
X104001561Y-76630490D01*
X104004745Y-76607569D01*
X104007060Y-76584083D01*
X104008495Y-76560046D01*
X104200759Y-76560047D01*
X104198912Y-76594062D01*
X104195703Y-76627303D01*
X104191151Y-76659749D01*
X104185280Y-76691381D01*
X104178110Y-76722178D01*
X104169664Y-76752121D01*
X104159962Y-76781188D01*
X104149027Y-76809362D01*
X104136880Y-76836620D01*
X104123543Y-76862944D01*
X104109038Y-76888313D01*
X104093386Y-76912708D01*
X104076608Y-76936107D01*
X104058727Y-76958492D01*
X104039763Y-76979842D01*
X104019740Y-77000137D01*
X103998677Y-77019358D01*
X103976598Y-77037483D01*
X103953523Y-77054494D01*
X103929475Y-77070369D01*
X103904474Y-77085090D01*
X103878543Y-77098635D01*
X103851703Y-77110986D01*
X103823975Y-77122122D01*
X103795382Y-77132022D01*
X103765946Y-77140667D01*
X103735686Y-77148038D01*
X103704627Y-77154113D01*
X103672788Y-77158873D01*
X103640192Y-77162297D01*
X103606860Y-77164367D01*
X103572814Y-77165061D01*
X103537010Y-77164376D01*
X103502043Y-77162329D01*
X103467932Y-77158934D01*
X103434696Y-77154202D01*
X103402356Y-77148148D01*
X103370931Y-77140784D01*
X103340440Y-77132122D01*
X103310904Y-77122177D01*
X103282342Y-77110960D01*
X103254773Y-77098485D01*
X103228218Y-77084764D01*
X103202697Y-77069811D01*
X103178228Y-77053639D01*
X103154832Y-77036260D01*
X103132528Y-77017687D01*
X103111336Y-76997933D01*
X103091276Y-76977011D01*
X103072367Y-76954935D01*
X103054630Y-76931716D01*
X103038083Y-76907368D01*
X103022747Y-76881904D01*
X103008641Y-76855337D01*
X102995784Y-76827679D01*
X102984198Y-76798944D01*
X102973901Y-76769145D01*
X102964913Y-76738293D01*
X102957253Y-76706403D01*
X102950942Y-76673487D01*
X102946000Y-76639559D01*
X102942445Y-76604630D01*
X102940297Y-76568714D01*
X102939577Y-76531825D01*
X102940291Y-76496672D01*
X102942419Y-76462333D01*
X102945936Y-76428826D01*
X102950818Y-76396167D01*
X102957043Y-76364375D01*
X102964587Y-76333468D01*
X102973426Y-76303464D01*
X102983537Y-76274379D01*
X102994895Y-76246233D01*
X103007478Y-76219042D01*
X103021262Y-76192825D01*
X103036222Y-76167599D01*
X103052337Y-76143382D01*
X103069582Y-76120191D01*
X103087933Y-76098045D01*
X103107367Y-76076962D01*
X103127861Y-76056958D01*
X103149390Y-76038052D01*
X103171932Y-76020262D01*
X103195462Y-76003605D01*
X103219957Y-75988099D01*
X103245394Y-75973762D01*
X103271749Y-75960612D01*
X103298998Y-75948666D01*
X103327117Y-75937942D01*
X103356084Y-75928458D01*
X103385875Y-75920232D01*
X103416465Y-75913281D01*
X103447832Y-75907624D01*
X103479952Y-75903277D01*
X103512801Y-75900259D01*
X103546356Y-75898588D01*
X103546356Y-76078504D01*
G36*
X103546356Y-76078504D02*
G01*
X103522499Y-76079970D01*
X103499222Y-76082374D01*
X103476536Y-76085706D01*
X103454454Y-76089952D01*
X103432987Y-76095102D01*
X103412147Y-76101142D01*
X103391944Y-76108062D01*
X103372392Y-76115849D01*
X103353501Y-76124491D01*
X103335283Y-76133977D01*
X103317750Y-76144294D01*
X103300913Y-76155430D01*
X103284784Y-76167373D01*
X103269375Y-76180113D01*
X103254697Y-76193635D01*
X103240762Y-76207929D01*
X103227581Y-76222983D01*
X103215166Y-76238785D01*
X103203529Y-76255322D01*
X103192682Y-76272583D01*
X103182635Y-76290556D01*
X103173401Y-76309229D01*
X103164992Y-76328590D01*
X103157418Y-76348627D01*
X103150692Y-76369328D01*
X103144824Y-76390681D01*
X103139828Y-76412674D01*
X103135714Y-76435295D01*
X103132494Y-76458533D01*
X103130179Y-76482374D01*
X103128782Y-76506808D01*
X103128314Y-76531823D01*
X103128813Y-76557649D01*
X103130302Y-76582861D01*
X103132768Y-76607448D01*
X103136200Y-76631394D01*
X103140583Y-76654686D01*
X103145906Y-76677311D01*
X103152155Y-76699255D01*
X103159320Y-76720505D01*
X103167386Y-76741046D01*
X103176341Y-76760867D01*
X103186172Y-76779952D01*
X103196868Y-76798288D01*
X103208415Y-76815862D01*
X103220800Y-76832661D01*
X103234012Y-76848670D01*
X103248038Y-76863876D01*
X103262864Y-76878266D01*
X103278479Y-76891825D01*
X103294870Y-76904541D01*
X103312024Y-76916400D01*
X103329928Y-76927388D01*
X103348570Y-76937492D01*
X103367938Y-76946698D01*
X103388019Y-76954992D01*
X103408800Y-76962361D01*
X103430268Y-76968792D01*
X103452412Y-76974271D01*
X103475218Y-76978784D01*
X103498673Y-76982317D01*
X103522766Y-76984858D01*
X103547484Y-76986393D01*
X103572814Y-76986907D01*
X103597157Y-76986419D01*
X103620902Y-76984962D01*
X103644039Y-76982551D01*
X103666558Y-76979201D01*
X103688451Y-76974923D01*
X103709709Y-76969734D01*
X103730320Y-76963646D01*
X103750278Y-76956673D01*
X103769571Y-76948829D01*
X103788190Y-76940129D01*
X103806127Y-76930586D01*
X103823372Y-76920213D01*
X103839916Y-76909026D01*
X103855748Y-76897037D01*
X103870860Y-76884261D01*
X103885243Y-76870711D01*
X103898886Y-76856401D01*
X103911782Y-76841346D01*
X103923919Y-76825559D01*
X103935290Y-76809054D01*
X103945884Y-76791844D01*
X103955692Y-76773945D01*
X103964705Y-76755369D01*
X103972914Y-76736131D01*
X103980308Y-76716245D01*
X103986880Y-76695723D01*
X103992619Y-76674581D01*
X103997515Y-76652832D01*
X104001561Y-76630490D01*
X104004745Y-76607569D01*
X104007060Y-76584083D01*
X104008495Y-76560046D01*
X104200759Y-76560047D01*
X104198912Y-76594062D01*
X104195703Y-76627303D01*
X104191151Y-76659749D01*
X104185280Y-76691381D01*
X104178110Y-76722178D01*
X104169664Y-76752121D01*
X104159962Y-76781188D01*
X104149027Y-76809362D01*
X104136880Y-76836620D01*
X104123543Y-76862944D01*
X104109038Y-76888313D01*
X104093386Y-76912708D01*
X104076608Y-76936107D01*
X104058727Y-76958492D01*
X104039763Y-76979842D01*
X104019740Y-77000137D01*
X103998677Y-77019358D01*
X103976598Y-77037483D01*
X103953523Y-77054494D01*
X103929475Y-77070369D01*
X103904474Y-77085090D01*
X103878543Y-77098635D01*
X103851703Y-77110986D01*
X103823975Y-77122122D01*
X103795382Y-77132022D01*
X103765946Y-77140667D01*
X103735686Y-77148038D01*
X103704627Y-77154113D01*
X103672788Y-77158873D01*
X103640192Y-77162297D01*
X103606860Y-77164367D01*
X103572814Y-77165061D01*
X103537010Y-77164376D01*
X103502043Y-77162329D01*
X103467932Y-77158934D01*
X103434696Y-77154202D01*
X103402356Y-77148148D01*
X103370931Y-77140784D01*
X103340440Y-77132122D01*
X103310904Y-77122177D01*
X103282342Y-77110960D01*
X103254773Y-77098485D01*
X103228218Y-77084764D01*
X103202697Y-77069811D01*
X103178228Y-77053639D01*
X103154832Y-77036260D01*
X103132528Y-77017687D01*
X103111336Y-76997933D01*
X103091276Y-76977011D01*
X103072367Y-76954935D01*
X103054630Y-76931716D01*
X103038083Y-76907368D01*
X103022747Y-76881904D01*
X103008641Y-76855337D01*
X102995784Y-76827679D01*
X102984198Y-76798944D01*
X102973901Y-76769145D01*
X102964913Y-76738293D01*
X102957253Y-76706403D01*
X102950942Y-76673487D01*
X102946000Y-76639559D01*
X102942445Y-76604630D01*
X102940297Y-76568714D01*
X102939577Y-76531825D01*
X102940291Y-76496672D01*
X102942419Y-76462333D01*
X102945936Y-76428826D01*
X102950818Y-76396167D01*
X102957043Y-76364375D01*
X102964587Y-76333468D01*
X102973426Y-76303464D01*
X102983537Y-76274379D01*
X102994895Y-76246233D01*
X103007478Y-76219042D01*
X103021262Y-76192825D01*
X103036222Y-76167599D01*
X103052337Y-76143382D01*
X103069582Y-76120191D01*
X103087933Y-76098045D01*
X103107367Y-76076962D01*
X103127861Y-76056958D01*
X103149390Y-76038052D01*
X103171932Y-76020262D01*
X103195462Y-76003605D01*
X103219957Y-75988099D01*
X103245394Y-75973762D01*
X103271749Y-75960612D01*
X103298998Y-75948666D01*
X103327117Y-75937942D01*
X103356084Y-75928458D01*
X103385875Y-75920232D01*
X103416465Y-75913281D01*
X103447832Y-75907624D01*
X103479952Y-75903277D01*
X103512801Y-75900259D01*
X103546356Y-75898588D01*
X103546356Y-76078504D01*
G37*
X102366762Y-79957100D02*
X102366762Y-79523767D01*
X102366762Y-79647576D02*
X102335809Y-79585671D01*
X102335809Y-79585671D02*
X102304857Y-79554719D01*
X102304857Y-79554719D02*
X102242952Y-79523767D01*
X102242952Y-79523767D02*
X102181047Y-79523767D01*
X101716762Y-79926148D02*
X101778666Y-79957100D01*
X101778666Y-79957100D02*
X101902476Y-79957100D01*
X101902476Y-79957100D02*
X101964381Y-79926148D01*
X101964381Y-79926148D02*
X101995333Y-79864243D01*
X101995333Y-79864243D02*
X101995333Y-79616624D01*
X101995333Y-79616624D02*
X101964381Y-79554719D01*
X101964381Y-79554719D02*
X101902476Y-79523767D01*
X101902476Y-79523767D02*
X101778666Y-79523767D01*
X101778666Y-79523767D02*
X101716762Y-79554719D01*
X101716762Y-79554719D02*
X101685809Y-79616624D01*
X101685809Y-79616624D02*
X101685809Y-79678528D01*
X101685809Y-79678528D02*
X101995333Y-79740433D01*
X101469142Y-79523767D02*
X101314380Y-79957100D01*
X101314380Y-79957100D02*
X101159619Y-79523767D01*
X100912000Y-79957100D02*
X100912000Y-79523767D01*
X100912000Y-79307100D02*
X100942952Y-79338052D01*
X100942952Y-79338052D02*
X100912000Y-79369005D01*
X100912000Y-79369005D02*
X100881047Y-79338052D01*
X100881047Y-79338052D02*
X100912000Y-79307100D01*
X100912000Y-79307100D02*
X100912000Y-79369005D01*
X100633428Y-79926148D02*
X100571523Y-79957100D01*
X100571523Y-79957100D02*
X100447714Y-79957100D01*
X100447714Y-79957100D02*
X100385809Y-79926148D01*
X100385809Y-79926148D02*
X100354857Y-79864243D01*
X100354857Y-79864243D02*
X100354857Y-79833290D01*
X100354857Y-79833290D02*
X100385809Y-79771386D01*
X100385809Y-79771386D02*
X100447714Y-79740433D01*
X100447714Y-79740433D02*
X100540571Y-79740433D01*
X100540571Y-79740433D02*
X100602476Y-79709481D01*
X100602476Y-79709481D02*
X100633428Y-79647576D01*
X100633428Y-79647576D02*
X100633428Y-79616624D01*
X100633428Y-79616624D02*
X100602476Y-79554719D01*
X100602476Y-79554719D02*
X100540571Y-79523767D01*
X100540571Y-79523767D02*
X100447714Y-79523767D01*
X100447714Y-79523767D02*
X100385809Y-79554719D01*
X100076286Y-79957100D02*
X100076286Y-79523767D01*
X100076286Y-79307100D02*
X100107238Y-79338052D01*
X100107238Y-79338052D02*
X100076286Y-79369005D01*
X100076286Y-79369005D02*
X100045333Y-79338052D01*
X100045333Y-79338052D02*
X100076286Y-79307100D01*
X100076286Y-79307100D02*
X100076286Y-79369005D01*
X99673904Y-79957100D02*
X99735809Y-79926148D01*
X99735809Y-79926148D02*
X99766762Y-79895195D01*
X99766762Y-79895195D02*
X99797714Y-79833290D01*
X99797714Y-79833290D02*
X99797714Y-79647576D01*
X99797714Y-79647576D02*
X99766762Y-79585671D01*
X99766762Y-79585671D02*
X99735809Y-79554719D01*
X99735809Y-79554719D02*
X99673904Y-79523767D01*
X99673904Y-79523767D02*
X99581047Y-79523767D01*
X99581047Y-79523767D02*
X99519143Y-79554719D01*
X99519143Y-79554719D02*
X99488190Y-79585671D01*
X99488190Y-79585671D02*
X99457238Y-79647576D01*
X99457238Y-79647576D02*
X99457238Y-79833290D01*
X99457238Y-79833290D02*
X99488190Y-79895195D01*
X99488190Y-79895195D02*
X99519143Y-79926148D01*
X99519143Y-79926148D02*
X99581047Y-79957100D01*
X99581047Y-79957100D02*
X99673904Y-79957100D01*
X99178667Y-79523767D02*
X99178667Y-79957100D01*
X99178667Y-79585671D02*
X99147714Y-79554719D01*
X99147714Y-79554719D02*
X99085809Y-79523767D01*
X99085809Y-79523767D02*
X98992952Y-79523767D01*
X98992952Y-79523767D02*
X98931048Y-79554719D01*
X98931048Y-79554719D02*
X98900095Y-79616624D01*
X98900095Y-79616624D02*
X98900095Y-79957100D01*
X97754857Y-79957100D02*
X98126286Y-79957100D01*
X97940572Y-79957100D02*
X97940572Y-79307100D01*
X97940572Y-79307100D02*
X98002476Y-79399957D01*
X98002476Y-79399957D02*
X98064381Y-79461862D01*
X98064381Y-79461862D02*
X98126286Y-79492814D01*
X97476286Y-79895195D02*
X97445333Y-79926148D01*
X97445333Y-79926148D02*
X97476286Y-79957100D01*
X97476286Y-79957100D02*
X97507238Y-79926148D01*
X97507238Y-79926148D02*
X97476286Y-79895195D01*
X97476286Y-79895195D02*
X97476286Y-79957100D01*
X97042952Y-79307100D02*
X96981047Y-79307100D01*
X96981047Y-79307100D02*
X96919143Y-79338052D01*
X96919143Y-79338052D02*
X96888190Y-79369005D01*
X96888190Y-79369005D02*
X96857238Y-79430909D01*
X96857238Y-79430909D02*
X96826285Y-79554719D01*
X96826285Y-79554719D02*
X96826285Y-79709481D01*
X96826285Y-79709481D02*
X96857238Y-79833290D01*
X96857238Y-79833290D02*
X96888190Y-79895195D01*
X96888190Y-79895195D02*
X96919143Y-79926148D01*
X96919143Y-79926148D02*
X96981047Y-79957100D01*
X96981047Y-79957100D02*
X97042952Y-79957100D01*
X97042952Y-79957100D02*
X97104857Y-79926148D01*
X97104857Y-79926148D02*
X97135809Y-79895195D01*
X97135809Y-79895195D02*
X97166762Y-79833290D01*
X97166762Y-79833290D02*
X97197714Y-79709481D01*
X97197714Y-79709481D02*
X97197714Y-79554719D01*
X97197714Y-79554719D02*
X97166762Y-79430909D01*
X97166762Y-79430909D02*
X97135809Y-79369005D01*
X97135809Y-79369005D02*
X97104857Y-79338052D01*
X97104857Y-79338052D02*
X97042952Y-79307100D01*
X103388190Y-81003564D02*
X103388190Y-80353564D01*
X103388190Y-80353564D02*
X103140571Y-80353564D01*
X103140571Y-80353564D02*
X103078666Y-80384516D01*
X103078666Y-80384516D02*
X103047713Y-80415469D01*
X103047713Y-80415469D02*
X103016761Y-80477373D01*
X103016761Y-80477373D02*
X103016761Y-80570231D01*
X103016761Y-80570231D02*
X103047713Y-80632135D01*
X103047713Y-80632135D02*
X103078666Y-80663088D01*
X103078666Y-80663088D02*
X103140571Y-80694040D01*
X103140571Y-80694040D02*
X103388190Y-80694040D01*
X102738190Y-81003564D02*
X102738190Y-80570231D01*
X102738190Y-80694040D02*
X102707237Y-80632135D01*
X102707237Y-80632135D02*
X102676285Y-80601183D01*
X102676285Y-80601183D02*
X102614380Y-80570231D01*
X102614380Y-80570231D02*
X102552475Y-80570231D01*
X102242951Y-81003564D02*
X102304856Y-80972612D01*
X102304856Y-80972612D02*
X102335809Y-80941659D01*
X102335809Y-80941659D02*
X102366761Y-80879754D01*
X102366761Y-80879754D02*
X102366761Y-80694040D01*
X102366761Y-80694040D02*
X102335809Y-80632135D01*
X102335809Y-80632135D02*
X102304856Y-80601183D01*
X102304856Y-80601183D02*
X102242951Y-80570231D01*
X102242951Y-80570231D02*
X102150094Y-80570231D01*
X102150094Y-80570231D02*
X102088190Y-80601183D01*
X102088190Y-80601183D02*
X102057237Y-80632135D01*
X102057237Y-80632135D02*
X102026285Y-80694040D01*
X102026285Y-80694040D02*
X102026285Y-80879754D01*
X102026285Y-80879754D02*
X102057237Y-80941659D01*
X102057237Y-80941659D02*
X102088190Y-80972612D01*
X102088190Y-80972612D02*
X102150094Y-81003564D01*
X102150094Y-81003564D02*
X102242951Y-81003564D01*
X101747714Y-80570231D02*
X101747714Y-81127373D01*
X101747714Y-81127373D02*
X101778666Y-81189278D01*
X101778666Y-81189278D02*
X101840571Y-81220231D01*
X101840571Y-81220231D02*
X101871523Y-81220231D01*
X101747714Y-80353564D02*
X101778666Y-80384516D01*
X101778666Y-80384516D02*
X101747714Y-80415469D01*
X101747714Y-80415469D02*
X101716761Y-80384516D01*
X101716761Y-80384516D02*
X101747714Y-80353564D01*
X101747714Y-80353564D02*
X101747714Y-80415469D01*
X101190571Y-80972612D02*
X101252475Y-81003564D01*
X101252475Y-81003564D02*
X101376285Y-81003564D01*
X101376285Y-81003564D02*
X101438190Y-80972612D01*
X101438190Y-80972612D02*
X101469142Y-80910707D01*
X101469142Y-80910707D02*
X101469142Y-80663088D01*
X101469142Y-80663088D02*
X101438190Y-80601183D01*
X101438190Y-80601183D02*
X101376285Y-80570231D01*
X101376285Y-80570231D02*
X101252475Y-80570231D01*
X101252475Y-80570231D02*
X101190571Y-80601183D01*
X101190571Y-80601183D02*
X101159618Y-80663088D01*
X101159618Y-80663088D02*
X101159618Y-80724992D01*
X101159618Y-80724992D02*
X101469142Y-80786897D01*
X100602475Y-80972612D02*
X100664380Y-81003564D01*
X100664380Y-81003564D02*
X100788189Y-81003564D01*
X100788189Y-81003564D02*
X100850094Y-80972612D01*
X100850094Y-80972612D02*
X100881047Y-80941659D01*
X100881047Y-80941659D02*
X100911999Y-80879754D01*
X100911999Y-80879754D02*
X100911999Y-80694040D01*
X100911999Y-80694040D02*
X100881047Y-80632135D01*
X100881047Y-80632135D02*
X100850094Y-80601183D01*
X100850094Y-80601183D02*
X100788189Y-80570231D01*
X100788189Y-80570231D02*
X100664380Y-80570231D01*
X100664380Y-80570231D02*
X100602475Y-80601183D01*
X100416761Y-80570231D02*
X100169142Y-80570231D01*
X100323904Y-80353564D02*
X100323904Y-80910707D01*
X100323904Y-80910707D02*
X100292951Y-80972612D01*
X100292951Y-80972612D02*
X100231046Y-81003564D01*
X100231046Y-81003564D02*
X100169142Y-81003564D01*
X99457237Y-81003564D02*
X99457237Y-80353564D01*
X99457237Y-80353564D02*
X99085808Y-81003564D01*
X99085808Y-81003564D02*
X99085808Y-80353564D01*
X98528666Y-80972612D02*
X98590570Y-81003564D01*
X98590570Y-81003564D02*
X98714380Y-81003564D01*
X98714380Y-81003564D02*
X98776285Y-80972612D01*
X98776285Y-80972612D02*
X98807237Y-80910707D01*
X98807237Y-80910707D02*
X98807237Y-80663088D01*
X98807237Y-80663088D02*
X98776285Y-80601183D01*
X98776285Y-80601183D02*
X98714380Y-80570231D01*
X98714380Y-80570231D02*
X98590570Y-80570231D01*
X98590570Y-80570231D02*
X98528666Y-80601183D01*
X98528666Y-80601183D02*
X98497713Y-80663088D01*
X98497713Y-80663088D02*
X98497713Y-80724992D01*
X98497713Y-80724992D02*
X98807237Y-80786897D01*
X98219142Y-80570231D02*
X98219142Y-81220231D01*
X98219142Y-80601183D02*
X98157237Y-80570231D01*
X98157237Y-80570231D02*
X98033427Y-80570231D01*
X98033427Y-80570231D02*
X97971523Y-80601183D01*
X97971523Y-80601183D02*
X97940570Y-80632135D01*
X97940570Y-80632135D02*
X97909618Y-80694040D01*
X97909618Y-80694040D02*
X97909618Y-80879754D01*
X97909618Y-80879754D02*
X97940570Y-80941659D01*
X97940570Y-80941659D02*
X97971523Y-80972612D01*
X97971523Y-80972612D02*
X98033427Y-81003564D01*
X98033427Y-81003564D02*
X98157237Y-81003564D01*
X98157237Y-81003564D02*
X98219142Y-80972612D01*
X97723904Y-80570231D02*
X97476285Y-80570231D01*
X97631047Y-80353564D02*
X97631047Y-80910707D01*
X97631047Y-80910707D02*
X97600094Y-80972612D01*
X97600094Y-80972612D02*
X97538189Y-81003564D01*
X97538189Y-81003564D02*
X97476285Y-81003564D01*
X96981046Y-80570231D02*
X96981046Y-81003564D01*
X97259618Y-80570231D02*
X97259618Y-80910707D01*
X97259618Y-80910707D02*
X97228665Y-80972612D01*
X97228665Y-80972612D02*
X97166760Y-81003564D01*
X97166760Y-81003564D02*
X97073903Y-81003564D01*
X97073903Y-81003564D02*
X97011999Y-80972612D01*
X97011999Y-80972612D02*
X96981046Y-80941659D01*
X96671523Y-80570231D02*
X96671523Y-81003564D01*
X96671523Y-80632135D02*
X96640570Y-80601183D01*
X96640570Y-80601183D02*
X96578665Y-80570231D01*
X96578665Y-80570231D02*
X96485808Y-80570231D01*
X96485808Y-80570231D02*
X96423904Y-80601183D01*
X96423904Y-80601183D02*
X96392951Y-80663088D01*
X96392951Y-80663088D02*
X96392951Y-81003564D01*
X95835809Y-80972612D02*
X95897713Y-81003564D01*
X95897713Y-81003564D02*
X96021523Y-81003564D01*
X96021523Y-81003564D02*
X96083428Y-80972612D01*
X96083428Y-80972612D02*
X96114380Y-80910707D01*
X96114380Y-80910707D02*
X96114380Y-80663088D01*
X96114380Y-80663088D02*
X96083428Y-80601183D01*
X96083428Y-80601183D02*
X96021523Y-80570231D01*
X96021523Y-80570231D02*
X95897713Y-80570231D01*
X95897713Y-80570231D02*
X95835809Y-80601183D01*
X95835809Y-80601183D02*
X95804856Y-80663088D01*
X95804856Y-80663088D02*
X95804856Y-80724992D01*
X95804856Y-80724992D02*
X96114380Y-80786897D01*
D12*
X86826714Y-35577897D02*
X86576714Y-35935040D01*
X86398143Y-35577897D02*
X86398143Y-36327897D01*
X86398143Y-36327897D02*
X86683857Y-36327897D01*
X86683857Y-36327897D02*
X86755286Y-36292183D01*
X86755286Y-36292183D02*
X86791000Y-36256469D01*
X86791000Y-36256469D02*
X86826714Y-36185040D01*
X86826714Y-36185040D02*
X86826714Y-36077897D01*
X86826714Y-36077897D02*
X86791000Y-36006469D01*
X86791000Y-36006469D02*
X86755286Y-35970754D01*
X86755286Y-35970754D02*
X86683857Y-35935040D01*
X86683857Y-35935040D02*
X86398143Y-35935040D01*
X87148143Y-35970754D02*
X87398143Y-35970754D01*
X87505286Y-35577897D02*
X87148143Y-35577897D01*
X87148143Y-35577897D02*
X87148143Y-36327897D01*
X87148143Y-36327897D02*
X87505286Y-36327897D01*
X87791000Y-35613612D02*
X87898143Y-35577897D01*
X87898143Y-35577897D02*
X88076714Y-35577897D01*
X88076714Y-35577897D02*
X88148143Y-35613612D01*
X88148143Y-35613612D02*
X88183857Y-35649326D01*
X88183857Y-35649326D02*
X88219571Y-35720754D01*
X88219571Y-35720754D02*
X88219571Y-35792183D01*
X88219571Y-35792183D02*
X88183857Y-35863612D01*
X88183857Y-35863612D02*
X88148143Y-35899326D01*
X88148143Y-35899326D02*
X88076714Y-35935040D01*
X88076714Y-35935040D02*
X87933857Y-35970754D01*
X87933857Y-35970754D02*
X87862428Y-36006469D01*
X87862428Y-36006469D02*
X87826714Y-36042183D01*
X87826714Y-36042183D02*
X87791000Y-36113612D01*
X87791000Y-36113612D02*
X87791000Y-36185040D01*
X87791000Y-36185040D02*
X87826714Y-36256469D01*
X87826714Y-36256469D02*
X87862428Y-36292183D01*
X87862428Y-36292183D02*
X87933857Y-36327897D01*
X87933857Y-36327897D02*
X88112428Y-36327897D01*
X88112428Y-36327897D02*
X88219571Y-36292183D01*
X88541000Y-35970754D02*
X88791000Y-35970754D01*
X88898143Y-35577897D02*
X88541000Y-35577897D01*
X88541000Y-35577897D02*
X88541000Y-36327897D01*
X88541000Y-36327897D02*
X88898143Y-36327897D01*
X89112428Y-36327897D02*
X89541000Y-36327897D01*
X89326714Y-35577897D02*
X89326714Y-36327897D01*
D13*
X106311997Y-78876045D02*
X106311997Y-78176045D01*
X105978664Y-78409378D02*
X105978664Y-78876045D01*
X105978664Y-78476045D02*
X105945331Y-78442712D01*
X105945331Y-78442712D02*
X105878664Y-78409378D01*
X105878664Y-78409378D02*
X105778664Y-78409378D01*
X105778664Y-78409378D02*
X105711997Y-78442712D01*
X105711997Y-78442712D02*
X105678664Y-78509378D01*
X105678664Y-78509378D02*
X105678664Y-78876045D01*
X105078664Y-78842712D02*
X105145331Y-78876045D01*
X105145331Y-78876045D02*
X105278664Y-78876045D01*
X105278664Y-78876045D02*
X105345331Y-78842712D01*
X105345331Y-78842712D02*
X105378664Y-78776045D01*
X105378664Y-78776045D02*
X105378664Y-78509378D01*
X105378664Y-78509378D02*
X105345331Y-78442712D01*
X105345331Y-78442712D02*
X105278664Y-78409378D01*
X105278664Y-78409378D02*
X105145331Y-78409378D01*
X105145331Y-78409378D02*
X105078664Y-78442712D01*
X105078664Y-78442712D02*
X105045331Y-78509378D01*
X105045331Y-78509378D02*
X105045331Y-78576045D01*
X105045331Y-78576045D02*
X105378664Y-78642712D01*
X104745331Y-78876045D02*
X104745331Y-78409378D01*
X104745331Y-78542712D02*
X104711998Y-78476045D01*
X104711998Y-78476045D02*
X104678664Y-78442712D01*
X104678664Y-78442712D02*
X104611998Y-78409378D01*
X104611998Y-78409378D02*
X104545331Y-78409378D01*
X104411998Y-78409378D02*
X104145331Y-78409378D01*
X104311998Y-78176045D02*
X104311998Y-78776045D01*
X104311998Y-78776045D02*
X104278665Y-78842712D01*
X104278665Y-78842712D02*
X104211998Y-78876045D01*
X104211998Y-78876045D02*
X104145331Y-78876045D01*
X103911998Y-78876045D02*
X103911998Y-78409378D01*
X103911998Y-78176045D02*
X103945331Y-78209378D01*
X103945331Y-78209378D02*
X103911998Y-78242712D01*
X103911998Y-78242712D02*
X103878665Y-78209378D01*
X103878665Y-78209378D02*
X103911998Y-78176045D01*
X103911998Y-78176045D02*
X103911998Y-78242712D01*
X103278665Y-78876045D02*
X103278665Y-78509378D01*
X103278665Y-78509378D02*
X103311998Y-78442712D01*
X103311998Y-78442712D02*
X103378665Y-78409378D01*
X103378665Y-78409378D02*
X103511998Y-78409378D01*
X103511998Y-78409378D02*
X103578665Y-78442712D01*
X103278665Y-78842712D02*
X103345332Y-78876045D01*
X103345332Y-78876045D02*
X103511998Y-78876045D01*
X103511998Y-78876045D02*
X103578665Y-78842712D01*
X103578665Y-78842712D02*
X103611998Y-78776045D01*
X103611998Y-78776045D02*
X103611998Y-78709378D01*
X103611998Y-78709378D02*
X103578665Y-78642712D01*
X103578665Y-78642712D02*
X103511998Y-78609378D01*
X103511998Y-78609378D02*
X103345332Y-78609378D01*
X103345332Y-78609378D02*
X103278665Y-78576045D01*
X102845332Y-78876045D02*
X102911999Y-78842712D01*
X102911999Y-78842712D02*
X102945332Y-78776045D01*
X102945332Y-78776045D02*
X102945332Y-78176045D01*
X102045332Y-78876045D02*
X102045332Y-78176045D01*
X102045332Y-78176045D02*
X101811999Y-78676045D01*
X101811999Y-78676045D02*
X101578665Y-78176045D01*
X101578665Y-78176045D02*
X101578665Y-78876045D01*
X100978665Y-78842712D02*
X101045332Y-78876045D01*
X101045332Y-78876045D02*
X101178665Y-78876045D01*
X101178665Y-78876045D02*
X101245332Y-78842712D01*
X101245332Y-78842712D02*
X101278665Y-78776045D01*
X101278665Y-78776045D02*
X101278665Y-78509378D01*
X101278665Y-78509378D02*
X101245332Y-78442712D01*
X101245332Y-78442712D02*
X101178665Y-78409378D01*
X101178665Y-78409378D02*
X101045332Y-78409378D01*
X101045332Y-78409378D02*
X100978665Y-78442712D01*
X100978665Y-78442712D02*
X100945332Y-78509378D01*
X100945332Y-78509378D02*
X100945332Y-78576045D01*
X100945332Y-78576045D02*
X101278665Y-78642712D01*
X100345332Y-78876045D02*
X100345332Y-78509378D01*
X100345332Y-78509378D02*
X100378665Y-78442712D01*
X100378665Y-78442712D02*
X100445332Y-78409378D01*
X100445332Y-78409378D02*
X100578665Y-78409378D01*
X100578665Y-78409378D02*
X100645332Y-78442712D01*
X100345332Y-78842712D02*
X100411999Y-78876045D01*
X100411999Y-78876045D02*
X100578665Y-78876045D01*
X100578665Y-78876045D02*
X100645332Y-78842712D01*
X100645332Y-78842712D02*
X100678665Y-78776045D01*
X100678665Y-78776045D02*
X100678665Y-78709378D01*
X100678665Y-78709378D02*
X100645332Y-78642712D01*
X100645332Y-78642712D02*
X100578665Y-78609378D01*
X100578665Y-78609378D02*
X100411999Y-78609378D01*
X100411999Y-78609378D02*
X100345332Y-78576045D01*
X100045332Y-78842712D02*
X99978666Y-78876045D01*
X99978666Y-78876045D02*
X99845332Y-78876045D01*
X99845332Y-78876045D02*
X99778666Y-78842712D01*
X99778666Y-78842712D02*
X99745332Y-78776045D01*
X99745332Y-78776045D02*
X99745332Y-78742712D01*
X99745332Y-78742712D02*
X99778666Y-78676045D01*
X99778666Y-78676045D02*
X99845332Y-78642712D01*
X99845332Y-78642712D02*
X99945332Y-78642712D01*
X99945332Y-78642712D02*
X100011999Y-78609378D01*
X100011999Y-78609378D02*
X100045332Y-78542712D01*
X100045332Y-78542712D02*
X100045332Y-78509378D01*
X100045332Y-78509378D02*
X100011999Y-78442712D01*
X100011999Y-78442712D02*
X99945332Y-78409378D01*
X99945332Y-78409378D02*
X99845332Y-78409378D01*
X99845332Y-78409378D02*
X99778666Y-78442712D01*
X99145332Y-78409378D02*
X99145332Y-78876045D01*
X99445332Y-78409378D02*
X99445332Y-78776045D01*
X99445332Y-78776045D02*
X99411999Y-78842712D01*
X99411999Y-78842712D02*
X99345332Y-78876045D01*
X99345332Y-78876045D02*
X99245332Y-78876045D01*
X99245332Y-78876045D02*
X99178665Y-78842712D01*
X99178665Y-78842712D02*
X99145332Y-78809378D01*
X98811999Y-78876045D02*
X98811999Y-78409378D01*
X98811999Y-78542712D02*
X98778666Y-78476045D01*
X98778666Y-78476045D02*
X98745332Y-78442712D01*
X98745332Y-78442712D02*
X98678666Y-78409378D01*
X98678666Y-78409378D02*
X98611999Y-78409378D01*
X98111999Y-78842712D02*
X98178666Y-78876045D01*
X98178666Y-78876045D02*
X98311999Y-78876045D01*
X98311999Y-78876045D02*
X98378666Y-78842712D01*
X98378666Y-78842712D02*
X98411999Y-78776045D01*
X98411999Y-78776045D02*
X98411999Y-78509378D01*
X98411999Y-78509378D02*
X98378666Y-78442712D01*
X98378666Y-78442712D02*
X98311999Y-78409378D01*
X98311999Y-78409378D02*
X98178666Y-78409378D01*
X98178666Y-78409378D02*
X98111999Y-78442712D01*
X98111999Y-78442712D02*
X98078666Y-78509378D01*
X98078666Y-78509378D02*
X98078666Y-78576045D01*
X98078666Y-78576045D02*
X98411999Y-78642712D01*
X97778666Y-78876045D02*
X97778666Y-78409378D01*
X97778666Y-78476045D02*
X97745333Y-78442712D01*
X97745333Y-78442712D02*
X97678666Y-78409378D01*
X97678666Y-78409378D02*
X97578666Y-78409378D01*
X97578666Y-78409378D02*
X97511999Y-78442712D01*
X97511999Y-78442712D02*
X97478666Y-78509378D01*
X97478666Y-78509378D02*
X97478666Y-78876045D01*
X97478666Y-78509378D02*
X97445333Y-78442712D01*
X97445333Y-78442712D02*
X97378666Y-78409378D01*
X97378666Y-78409378D02*
X97278666Y-78409378D01*
X97278666Y-78409378D02*
X97211999Y-78442712D01*
X97211999Y-78442712D02*
X97178666Y-78509378D01*
X97178666Y-78509378D02*
X97178666Y-78876045D01*
X96578666Y-78842712D02*
X96645333Y-78876045D01*
X96645333Y-78876045D02*
X96778666Y-78876045D01*
X96778666Y-78876045D02*
X96845333Y-78842712D01*
X96845333Y-78842712D02*
X96878666Y-78776045D01*
X96878666Y-78776045D02*
X96878666Y-78509378D01*
X96878666Y-78509378D02*
X96845333Y-78442712D01*
X96845333Y-78442712D02*
X96778666Y-78409378D01*
X96778666Y-78409378D02*
X96645333Y-78409378D01*
X96645333Y-78409378D02*
X96578666Y-78442712D01*
X96578666Y-78442712D02*
X96545333Y-78509378D01*
X96545333Y-78509378D02*
X96545333Y-78576045D01*
X96545333Y-78576045D02*
X96878666Y-78642712D01*
X96245333Y-78409378D02*
X96245333Y-78876045D01*
X96245333Y-78476045D02*
X96212000Y-78442712D01*
X96212000Y-78442712D02*
X96145333Y-78409378D01*
X96145333Y-78409378D02*
X96045333Y-78409378D01*
X96045333Y-78409378D02*
X95978666Y-78442712D01*
X95978666Y-78442712D02*
X95945333Y-78509378D01*
X95945333Y-78509378D02*
X95945333Y-78876045D01*
X95712000Y-78409378D02*
X95445333Y-78409378D01*
X95612000Y-78176045D02*
X95612000Y-78776045D01*
X95612000Y-78776045D02*
X95578667Y-78842712D01*
X95578667Y-78842712D02*
X95512000Y-78876045D01*
X95512000Y-78876045D02*
X95445333Y-78876045D01*
X94678667Y-78176045D02*
X94678667Y-78742712D01*
X94678667Y-78742712D02*
X94645334Y-78809378D01*
X94645334Y-78809378D02*
X94612000Y-78842712D01*
X94612000Y-78842712D02*
X94545334Y-78876045D01*
X94545334Y-78876045D02*
X94412000Y-78876045D01*
X94412000Y-78876045D02*
X94345334Y-78842712D01*
X94345334Y-78842712D02*
X94312000Y-78809378D01*
X94312000Y-78809378D02*
X94278667Y-78742712D01*
X94278667Y-78742712D02*
X94278667Y-78176045D01*
X93945334Y-78409378D02*
X93945334Y-78876045D01*
X93945334Y-78476045D02*
X93912001Y-78442712D01*
X93912001Y-78442712D02*
X93845334Y-78409378D01*
X93845334Y-78409378D02*
X93745334Y-78409378D01*
X93745334Y-78409378D02*
X93678667Y-78442712D01*
X93678667Y-78442712D02*
X93645334Y-78509378D01*
X93645334Y-78509378D02*
X93645334Y-78876045D01*
X93312001Y-78876045D02*
X93312001Y-78409378D01*
X93312001Y-78176045D02*
X93345334Y-78209378D01*
X93345334Y-78209378D02*
X93312001Y-78242712D01*
X93312001Y-78242712D02*
X93278668Y-78209378D01*
X93278668Y-78209378D02*
X93312001Y-78176045D01*
X93312001Y-78176045D02*
X93312001Y-78242712D01*
X93078668Y-78409378D02*
X92812001Y-78409378D01*
X92978668Y-78176045D02*
X92978668Y-78776045D01*
X92978668Y-78776045D02*
X92945335Y-78842712D01*
X92945335Y-78842712D02*
X92878668Y-78876045D01*
X92878668Y-78876045D02*
X92812001Y-78876045D01*
D14*
%TO.C,J2*%
X77307000Y-49807062D02*
X77307000Y-50107062D01*
X77307000Y-51727062D02*
X77307000Y-52107062D01*
X77307000Y-53727062D02*
X77307000Y-54107062D01*
X77307000Y-55727062D02*
X77307000Y-56107062D01*
X77307000Y-57727062D02*
X77307000Y-58107062D01*
X77307000Y-59727062D02*
X77307000Y-60107062D01*
X77307000Y-61727062D02*
X77307000Y-62107062D01*
X77307000Y-63727062D02*
X77307000Y-64107062D01*
X77307000Y-65727062D02*
X77307000Y-66107062D01*
X77307000Y-67727062D02*
X77307000Y-68107062D01*
X77307000Y-69727062D02*
X77307000Y-70027062D01*
X81527000Y-49807062D02*
X77307000Y-49807062D01*
X81527000Y-49807062D02*
X81527000Y-50107062D01*
X81527000Y-51727062D02*
X81527000Y-52107062D01*
X81527000Y-53727062D02*
X81527000Y-54107062D01*
X81527000Y-55727062D02*
X81527000Y-56107062D01*
X81527000Y-57727062D02*
X81527000Y-58107062D01*
X81527000Y-59727062D02*
X81527000Y-60107062D01*
X81527000Y-61727062D02*
X81527000Y-62107062D01*
X81527000Y-63727062D02*
X81527000Y-64107062D01*
X81527000Y-65727062D02*
X81527000Y-66107062D01*
X81527000Y-67727062D02*
X81527000Y-68107062D01*
X81527000Y-69727062D02*
X81527000Y-70027062D01*
X81527000Y-70027062D02*
X77307000Y-70027062D01*
%TO.C,J3*%
X117697000Y-49807062D02*
X117697000Y-50107062D01*
X117697000Y-51727062D02*
X117697000Y-52107062D01*
X117697000Y-53727062D02*
X117697000Y-54107062D01*
X117697000Y-55727062D02*
X117697000Y-56107062D01*
X117697000Y-57727062D02*
X117697000Y-58107062D01*
X117697000Y-59727062D02*
X117697000Y-60107062D01*
X117697000Y-61727062D02*
X117697000Y-62107062D01*
X117697000Y-63727062D02*
X117697000Y-64107062D01*
X117697000Y-65727062D02*
X117697000Y-66107062D01*
X117697000Y-67727062D02*
X117697000Y-68107062D01*
X117697000Y-69727062D02*
X117697000Y-70027062D01*
X121917000Y-49807062D02*
X117697000Y-49807062D01*
X121917000Y-49807062D02*
X121917000Y-50107062D01*
X121917000Y-51727062D02*
X121917000Y-52107062D01*
X121917000Y-53727062D02*
X121917000Y-54107062D01*
X121917000Y-55727062D02*
X121917000Y-56107062D01*
X121917000Y-57727062D02*
X121917000Y-58107062D01*
X121917000Y-59727062D02*
X121917000Y-60107062D01*
X121917000Y-61727062D02*
X121917000Y-62107062D01*
X121917000Y-63727062D02*
X121917000Y-64107062D01*
X121917000Y-65727062D02*
X121917000Y-66107062D01*
X121917000Y-67727062D02*
X121917000Y-68107062D01*
X121917000Y-69727062D02*
X121917000Y-70027062D01*
X121917000Y-70027062D02*
X117697000Y-70027062D01*
D15*
%TO.C,J1*%
X91408480Y-35042062D02*
X107798480Y-35042062D01*
X91408480Y-41392062D02*
X91408480Y-35042062D01*
X107798480Y-35042062D02*
X107798480Y-41392062D01*
X107798480Y-41392062D02*
X91408480Y-41392062D01*
D16*
%TO.C,SW1*%
X85980000Y-36793062D02*
X85980000Y-37236062D01*
X85980000Y-39398062D02*
X85980000Y-39841062D01*
X85980000Y-39841062D02*
X90044000Y-39841062D01*
X86805500Y-37301062D02*
X86805500Y-39333062D01*
X86805500Y-39333062D02*
X89218500Y-39333062D01*
X89218500Y-37301062D02*
X86805500Y-37301062D01*
X89218500Y-39333062D02*
X89218500Y-37301062D01*
X90044000Y-36793062D02*
X85980000Y-36793062D01*
X90044000Y-37236062D02*
X90044000Y-36793062D01*
X90044000Y-39841062D02*
X90044000Y-39398062D01*
X88642500Y-38319062D02*
G75*
G02*
X87392500Y-38319062I-625000J0D01*
G01*
X87392500Y-38319062D02*
G75*
G02*
X88642500Y-38319062I625000J0D01*
G01*
%TD*%
M02*
