%TF.GenerationSoftware,KiCad,Pcbnew,9.0.6*%
%TF.CreationDate,2025-12-21T10:04:18+01:00*%
%TF.ProjectId,neptune-imu,6e657074-756e-4652-9d69-6d752e6b6963,1.0*%
%TF.SameCoordinates,Original*%
%TF.FileFunction,Soldermask,Bot*%
%TF.FilePolarity,Negative*%
%FSLAX46Y46*%
G04 Gerber Fmt 4.6, Leading zero omitted, Abs format (unit mm)*
G04 Created by KiCad (PCBNEW 9.0.6) date 2025-12-21 10:04:18*
%MOMM*%
%LPD*%
G01*
G04 APERTURE LIST*
%ADD10R,2.580000X1.000000*%
%ADD11R,0.900000X2.200000*%
%ADD12R,1.300000X1.700000*%
G04 APERTURE END LIST*
D10*
%TO.C,J2*%
X77332000Y-50917062D03*
X81502000Y-50917062D03*
X77332000Y-52917062D03*
X81502000Y-52917062D03*
X77332000Y-54917062D03*
X81502000Y-54917062D03*
X77332000Y-56917062D03*
X81502000Y-56917062D03*
X77332000Y-58917062D03*
X81502000Y-58917062D03*
X77332000Y-60917062D03*
X81502000Y-60917062D03*
X77332000Y-62917062D03*
X81502000Y-62917062D03*
X77332000Y-64917062D03*
X81502000Y-64917062D03*
X77332000Y-66917062D03*
X81502000Y-66917062D03*
X77332000Y-68917062D03*
X81502000Y-68917062D03*
%TD*%
%TO.C,J3*%
X117722000Y-50917062D03*
X121892000Y-50917062D03*
X117722000Y-52917062D03*
X121892000Y-52917062D03*
X117722000Y-54917062D03*
X121892000Y-54917062D03*
X117722000Y-56917062D03*
X121892000Y-56917062D03*
X117722000Y-58917062D03*
X121892000Y-58917062D03*
X117722000Y-60917062D03*
X121892000Y-60917062D03*
X117722000Y-62917062D03*
X121892000Y-62917062D03*
X117722000Y-64917062D03*
X121892000Y-64917062D03*
X117722000Y-66917062D03*
X121892000Y-66917062D03*
X117722000Y-68917062D03*
X121892000Y-68917062D03*
%TD*%
D11*
%TO.C,J1*%
X92598480Y-43692062D03*
X94598480Y-43692062D03*
X96598480Y-43692062D03*
X98598480Y-43692062D03*
X100598480Y-43692062D03*
X102598480Y-43692062D03*
X104598480Y-43692062D03*
X106598480Y-43692062D03*
%TD*%
D12*
%TO.C,SW1*%
X90171000Y-38317062D03*
X85853000Y-38317062D03*
%TD*%
M02*
