%TF.GenerationSoftware,KiCad,Pcbnew,9.0.6*%
%TF.CreationDate,2026-01-26T21:03:18+01:00*%
%TF.ProjectId,neptune-imu,6e657074-756e-4652-9d69-6d752e6b6963,1.0*%
%TF.SameCoordinates,Original*%
%TF.FileFunction,Legend,Top*%
%TF.FilePolarity,Positive*%
%FSLAX46Y46*%
G04 Gerber Fmt 4.6, Leading zero omitted, Abs format (unit mm)*
G04 Created by KiCad (PCBNEW 9.0.6) date 2026-01-26 21:03:18*
%MOMM*%
%LPD*%
G01*
G04 APERTURE LIST*
%ADD10C,0.100000*%
%ADD11C,0.017999*%
%ADD12C,0.120000*%
%ADD13C,0.112500*%
%ADD14C,0.150000*%
G04 APERTURE END LIST*
D10*
X99872471Y-37967394D02*
X99872471Y-38560062D01*
X99689026Y-38560062D01*
X99689026Y-37702811D01*
X99872471Y-37967394D01*
G36*
X99872471Y-37967394D02*
G01*
X99872471Y-38560062D01*
X99689026Y-38560062D01*
X99689026Y-37702811D01*
X99872471Y-37967394D01*
G37*
X104192238Y-37514075D02*
X103245028Y-37514075D01*
X103245028Y-37328867D01*
X104192238Y-37328867D01*
X104192238Y-37514075D01*
G36*
X104192238Y-37514075D02*
G01*
X103245028Y-37514075D01*
X103245028Y-37328867D01*
X104192238Y-37328867D01*
X104192238Y-37514075D01*
G37*
X98904136Y-37312899D02*
X98936985Y-37315917D01*
X98969105Y-37320264D01*
X99000472Y-37325921D01*
X99031063Y-37332872D01*
X99060853Y-37341098D01*
X99089820Y-37350582D01*
X99117940Y-37361306D01*
X99145189Y-37373252D01*
X99171543Y-37386402D01*
X99196980Y-37400739D01*
X99221475Y-37416245D01*
X99245005Y-37432902D01*
X99267547Y-37450692D01*
X99289076Y-37469598D01*
X99309570Y-37489602D01*
X99329004Y-37510685D01*
X99347355Y-37532831D01*
X99364600Y-37556022D01*
X99380715Y-37580239D01*
X99395676Y-37605465D01*
X99409459Y-37631682D01*
X99422042Y-37658873D01*
X99433401Y-37687019D01*
X99443511Y-37716104D01*
X99452350Y-37746108D01*
X99459894Y-37777015D01*
X99466119Y-37808807D01*
X99471002Y-37841466D01*
X99474518Y-37874973D01*
X99476646Y-37909312D01*
X99477360Y-37944465D01*
X99476640Y-37981354D01*
X99474493Y-38017270D01*
X99470938Y-38052199D01*
X99465995Y-38086127D01*
X99459684Y-38119043D01*
X99452025Y-38150933D01*
X99443036Y-38181785D01*
X99432739Y-38211584D01*
X99421153Y-38240319D01*
X99408297Y-38267977D01*
X99394191Y-38294544D01*
X99378855Y-38320008D01*
X99362308Y-38344356D01*
X99344570Y-38367575D01*
X99325662Y-38389651D01*
X99305601Y-38410573D01*
X99284410Y-38430327D01*
X99262106Y-38448900D01*
X99238710Y-38466279D01*
X99214241Y-38482451D01*
X99188719Y-38497404D01*
X99162164Y-38511125D01*
X99134596Y-38523600D01*
X99106034Y-38534817D01*
X99076498Y-38544762D01*
X99046007Y-38553424D01*
X99014581Y-38560788D01*
X98982241Y-38566842D01*
X98949005Y-38571574D01*
X98914894Y-38574969D01*
X98879927Y-38577016D01*
X98844124Y-38577701D01*
X98810078Y-38577007D01*
X98776746Y-38574937D01*
X98744150Y-38571513D01*
X98712311Y-38566753D01*
X98681251Y-38560678D01*
X98650992Y-38553307D01*
X98621555Y-38544662D01*
X98592962Y-38534762D01*
X98565235Y-38523626D01*
X98538395Y-38511275D01*
X98512464Y-38497730D01*
X98487463Y-38483009D01*
X98463415Y-38467134D01*
X98440340Y-38450123D01*
X98418261Y-38431998D01*
X98397198Y-38412777D01*
X98377175Y-38392482D01*
X98358211Y-38371132D01*
X98340330Y-38348747D01*
X98323552Y-38325348D01*
X98307900Y-38300953D01*
X98293394Y-38275584D01*
X98280057Y-38249260D01*
X98267911Y-38222002D01*
X98256976Y-38193828D01*
X98247274Y-38164761D01*
X98238828Y-38134818D01*
X98231658Y-38104021D01*
X98225787Y-38072389D01*
X98221235Y-38039943D01*
X98218026Y-38006702D01*
X98216179Y-37972687D01*
X98408442Y-37972686D01*
X98409877Y-37996723D01*
X98412192Y-38020209D01*
X98415376Y-38043130D01*
X98419422Y-38065472D01*
X98424318Y-38087221D01*
X98430057Y-38108363D01*
X98436628Y-38128885D01*
X98444023Y-38148771D01*
X98452232Y-38168009D01*
X98461245Y-38186585D01*
X98471053Y-38204484D01*
X98481647Y-38221694D01*
X98493017Y-38238199D01*
X98505155Y-38253986D01*
X98518050Y-38269041D01*
X98531694Y-38283351D01*
X98546076Y-38296901D01*
X98561188Y-38309677D01*
X98577021Y-38321666D01*
X98593564Y-38332853D01*
X98610809Y-38343226D01*
X98628746Y-38352769D01*
X98647366Y-38361469D01*
X98666659Y-38369313D01*
X98686616Y-38376286D01*
X98707228Y-38382374D01*
X98728485Y-38387563D01*
X98750378Y-38391841D01*
X98772898Y-38395191D01*
X98796035Y-38397602D01*
X98819780Y-38399059D01*
X98844123Y-38399547D01*
X98869452Y-38399033D01*
X98894170Y-38397498D01*
X98918263Y-38394957D01*
X98941719Y-38391424D01*
X98964525Y-38386911D01*
X98986669Y-38381432D01*
X99008137Y-38375001D01*
X99028918Y-38367632D01*
X99048999Y-38359338D01*
X99068367Y-38350132D01*
X99087009Y-38340028D01*
X99104913Y-38329040D01*
X99122067Y-38317181D01*
X99138458Y-38304465D01*
X99154073Y-38290906D01*
X99168899Y-38276516D01*
X99182925Y-38261310D01*
X99196137Y-38245301D01*
X99208522Y-38228502D01*
X99220069Y-38210928D01*
X99230765Y-38192592D01*
X99240597Y-38173507D01*
X99249552Y-38153686D01*
X99257618Y-38133145D01*
X99264782Y-38111895D01*
X99271032Y-38089951D01*
X99276354Y-38067326D01*
X99280738Y-38044034D01*
X99284169Y-38020088D01*
X99286635Y-37995501D01*
X99288124Y-37970289D01*
X99288624Y-37944463D01*
X99288155Y-37919448D01*
X99286758Y-37895014D01*
X99284444Y-37871173D01*
X99281223Y-37847935D01*
X99277109Y-37825314D01*
X99272113Y-37803321D01*
X99266246Y-37781968D01*
X99259519Y-37761267D01*
X99251945Y-37741230D01*
X99243536Y-37721869D01*
X99234302Y-37703196D01*
X99224255Y-37685223D01*
X99213408Y-37667962D01*
X99201771Y-37651425D01*
X99189356Y-37635623D01*
X99176175Y-37620569D01*
X99162240Y-37606275D01*
X99147562Y-37592753D01*
X99132153Y-37580013D01*
X99116024Y-37568070D01*
X99099187Y-37556934D01*
X99081654Y-37546617D01*
X99063436Y-37537131D01*
X99044545Y-37528489D01*
X99024993Y-37520702D01*
X99004790Y-37513782D01*
X98983950Y-37507742D01*
X98962483Y-37502592D01*
X98940401Y-37498346D01*
X98917716Y-37495014D01*
X98894439Y-37492610D01*
X98870582Y-37491144D01*
X98870582Y-37311228D01*
X98904136Y-37312899D01*
G36*
X98904136Y-37312899D02*
G01*
X98936985Y-37315917D01*
X98969105Y-37320264D01*
X99000472Y-37325921D01*
X99031063Y-37332872D01*
X99060853Y-37341098D01*
X99089820Y-37350582D01*
X99117940Y-37361306D01*
X99145189Y-37373252D01*
X99171543Y-37386402D01*
X99196980Y-37400739D01*
X99221475Y-37416245D01*
X99245005Y-37432902D01*
X99267547Y-37450692D01*
X99289076Y-37469598D01*
X99309570Y-37489602D01*
X99329004Y-37510685D01*
X99347355Y-37532831D01*
X99364600Y-37556022D01*
X99380715Y-37580239D01*
X99395676Y-37605465D01*
X99409459Y-37631682D01*
X99422042Y-37658873D01*
X99433401Y-37687019D01*
X99443511Y-37716104D01*
X99452350Y-37746108D01*
X99459894Y-37777015D01*
X99466119Y-37808807D01*
X99471002Y-37841466D01*
X99474518Y-37874973D01*
X99476646Y-37909312D01*
X99477360Y-37944465D01*
X99476640Y-37981354D01*
X99474493Y-38017270D01*
X99470938Y-38052199D01*
X99465995Y-38086127D01*
X99459684Y-38119043D01*
X99452025Y-38150933D01*
X99443036Y-38181785D01*
X99432739Y-38211584D01*
X99421153Y-38240319D01*
X99408297Y-38267977D01*
X99394191Y-38294544D01*
X99378855Y-38320008D01*
X99362308Y-38344356D01*
X99344570Y-38367575D01*
X99325662Y-38389651D01*
X99305601Y-38410573D01*
X99284410Y-38430327D01*
X99262106Y-38448900D01*
X99238710Y-38466279D01*
X99214241Y-38482451D01*
X99188719Y-38497404D01*
X99162164Y-38511125D01*
X99134596Y-38523600D01*
X99106034Y-38534817D01*
X99076498Y-38544762D01*
X99046007Y-38553424D01*
X99014581Y-38560788D01*
X98982241Y-38566842D01*
X98949005Y-38571574D01*
X98914894Y-38574969D01*
X98879927Y-38577016D01*
X98844124Y-38577701D01*
X98810078Y-38577007D01*
X98776746Y-38574937D01*
X98744150Y-38571513D01*
X98712311Y-38566753D01*
X98681251Y-38560678D01*
X98650992Y-38553307D01*
X98621555Y-38544662D01*
X98592962Y-38534762D01*
X98565235Y-38523626D01*
X98538395Y-38511275D01*
X98512464Y-38497730D01*
X98487463Y-38483009D01*
X98463415Y-38467134D01*
X98440340Y-38450123D01*
X98418261Y-38431998D01*
X98397198Y-38412777D01*
X98377175Y-38392482D01*
X98358211Y-38371132D01*
X98340330Y-38348747D01*
X98323552Y-38325348D01*
X98307900Y-38300953D01*
X98293394Y-38275584D01*
X98280057Y-38249260D01*
X98267911Y-38222002D01*
X98256976Y-38193828D01*
X98247274Y-38164761D01*
X98238828Y-38134818D01*
X98231658Y-38104021D01*
X98225787Y-38072389D01*
X98221235Y-38039943D01*
X98218026Y-38006702D01*
X98216179Y-37972687D01*
X98408442Y-37972686D01*
X98409877Y-37996723D01*
X98412192Y-38020209D01*
X98415376Y-38043130D01*
X98419422Y-38065472D01*
X98424318Y-38087221D01*
X98430057Y-38108363D01*
X98436628Y-38128885D01*
X98444023Y-38148771D01*
X98452232Y-38168009D01*
X98461245Y-38186585D01*
X98471053Y-38204484D01*
X98481647Y-38221694D01*
X98493017Y-38238199D01*
X98505155Y-38253986D01*
X98518050Y-38269041D01*
X98531694Y-38283351D01*
X98546076Y-38296901D01*
X98561188Y-38309677D01*
X98577021Y-38321666D01*
X98593564Y-38332853D01*
X98610809Y-38343226D01*
X98628746Y-38352769D01*
X98647366Y-38361469D01*
X98666659Y-38369313D01*
X98686616Y-38376286D01*
X98707228Y-38382374D01*
X98728485Y-38387563D01*
X98750378Y-38391841D01*
X98772898Y-38395191D01*
X98796035Y-38397602D01*
X98819780Y-38399059D01*
X98844123Y-38399547D01*
X98869452Y-38399033D01*
X98894170Y-38397498D01*
X98918263Y-38394957D01*
X98941719Y-38391424D01*
X98964525Y-38386911D01*
X98986669Y-38381432D01*
X99008137Y-38375001D01*
X99028918Y-38367632D01*
X99048999Y-38359338D01*
X99068367Y-38350132D01*
X99087009Y-38340028D01*
X99104913Y-38329040D01*
X99122067Y-38317181D01*
X99138458Y-38304465D01*
X99154073Y-38290906D01*
X99168899Y-38276516D01*
X99182925Y-38261310D01*
X99196137Y-38245301D01*
X99208522Y-38228502D01*
X99220069Y-38210928D01*
X99230765Y-38192592D01*
X99240597Y-38173507D01*
X99249552Y-38153686D01*
X99257618Y-38133145D01*
X99264782Y-38111895D01*
X99271032Y-38089951D01*
X99276354Y-38067326D01*
X99280738Y-38044034D01*
X99284169Y-38020088D01*
X99286635Y-37995501D01*
X99288124Y-37970289D01*
X99288624Y-37944463D01*
X99288155Y-37919448D01*
X99286758Y-37895014D01*
X99284444Y-37871173D01*
X99281223Y-37847935D01*
X99277109Y-37825314D01*
X99272113Y-37803321D01*
X99266246Y-37781968D01*
X99259519Y-37761267D01*
X99251945Y-37741230D01*
X99243536Y-37721869D01*
X99234302Y-37703196D01*
X99224255Y-37685223D01*
X99213408Y-37667962D01*
X99201771Y-37651425D01*
X99189356Y-37635623D01*
X99176175Y-37620569D01*
X99162240Y-37606275D01*
X99147562Y-37592753D01*
X99132153Y-37580013D01*
X99116024Y-37568070D01*
X99099187Y-37556934D01*
X99081654Y-37546617D01*
X99063436Y-37537131D01*
X99044545Y-37528489D01*
X99024993Y-37520702D01*
X99004790Y-37513782D01*
X98983950Y-37507742D01*
X98962483Y-37502592D01*
X98940401Y-37498346D01*
X98917716Y-37495014D01*
X98894439Y-37492610D01*
X98870582Y-37491144D01*
X98870582Y-37311228D01*
X98904136Y-37312899D01*
G37*
X97985111Y-37471741D02*
X97792847Y-37471741D01*
X97792847Y-37328865D01*
X97985111Y-37328865D01*
X97985111Y-37471741D01*
G36*
X97985111Y-37471741D02*
G01*
X97792847Y-37471741D01*
X97792847Y-37328865D01*
X97985111Y-37328865D01*
X97985111Y-37471741D01*
G37*
X103183292Y-38560062D02*
X102962806Y-38560062D01*
X102580041Y-37482325D01*
X102569458Y-37482325D01*
X102211389Y-38560062D01*
X102005014Y-38560062D01*
X102438930Y-37328867D01*
X102710569Y-37328867D01*
X103183292Y-38560062D01*
G36*
X103183292Y-38560062D02*
G01*
X102962806Y-38560062D01*
X102580041Y-37482325D01*
X102569458Y-37482325D01*
X102211389Y-38560062D01*
X102005014Y-38560062D01*
X102438930Y-37328867D01*
X102710569Y-37328867D01*
X103183292Y-38560062D01*
G37*
X100540985Y-38272548D02*
X100546277Y-37328867D01*
X100724430Y-37328867D01*
X100724430Y-38560062D01*
X100528638Y-38560062D01*
X99703138Y-37328867D01*
X99888347Y-37328867D01*
X100540985Y-38272548D01*
G36*
X100540985Y-38272548D02*
G01*
X100546277Y-37328867D01*
X100724430Y-37328867D01*
X100724430Y-38560062D01*
X100528638Y-38560062D01*
X99703138Y-37328867D01*
X99888347Y-37328867D01*
X100540985Y-38272548D01*
G37*
X97339528Y-38272548D02*
X97344819Y-37328867D01*
X97522972Y-37328867D01*
X97522972Y-38560062D01*
X97327180Y-38560062D01*
X96501680Y-37328867D01*
X96686889Y-37328867D01*
X97339528Y-38272548D01*
G36*
X97339528Y-38272548D02*
G01*
X97344819Y-37328867D01*
X97522972Y-37328867D01*
X97522972Y-38560062D01*
X97327180Y-38560062D01*
X96501680Y-37328867D01*
X96686889Y-37328867D01*
X97339528Y-38272548D01*
G37*
X101476958Y-37313783D02*
X101522493Y-37318852D01*
X101566396Y-37326510D01*
X101587673Y-37331333D01*
X101608469Y-37336832D01*
X101628758Y-37343015D01*
X101648517Y-37349892D01*
X101667719Y-37357473D01*
X101686342Y-37365767D01*
X101704360Y-37374783D01*
X101721749Y-37384530D01*
X101738484Y-37395018D01*
X101754541Y-37406257D01*
X101769895Y-37418255D01*
X101784522Y-37431022D01*
X101798397Y-37444568D01*
X101811496Y-37458901D01*
X101823793Y-37474032D01*
X101835265Y-37489969D01*
X101845887Y-37506722D01*
X101855634Y-37524300D01*
X101864482Y-37542712D01*
X101872407Y-37561969D01*
X101879383Y-37582079D01*
X101885386Y-37603051D01*
X101890392Y-37624896D01*
X101894376Y-37647622D01*
X101897314Y-37671238D01*
X101899180Y-37695755D01*
X101706917Y-37695757D01*
X101705427Y-37681592D01*
X101703285Y-37667870D01*
X101700509Y-37654591D01*
X101697120Y-37641751D01*
X101693136Y-37629351D01*
X101688578Y-37617389D01*
X101683464Y-37605864D01*
X101677813Y-37594774D01*
X101671646Y-37584118D01*
X101664982Y-37573895D01*
X101657840Y-37564103D01*
X101650239Y-37554742D01*
X101642199Y-37545809D01*
X101633739Y-37537304D01*
X101624878Y-37529226D01*
X101615636Y-37521572D01*
X101606033Y-37514343D01*
X101596087Y-37507535D01*
X101575246Y-37495183D01*
X101553268Y-37484505D01*
X101530308Y-37475491D01*
X101506521Y-37468130D01*
X101482063Y-37462413D01*
X101457087Y-37458329D01*
X101431750Y-37455867D01*
X101429985Y-37311228D01*
X101476958Y-37313783D01*
G36*
X101476958Y-37313783D02*
G01*
X101522493Y-37318852D01*
X101566396Y-37326510D01*
X101587673Y-37331333D01*
X101608469Y-37336832D01*
X101628758Y-37343015D01*
X101648517Y-37349892D01*
X101667719Y-37357473D01*
X101686342Y-37365767D01*
X101704360Y-37374783D01*
X101721749Y-37384530D01*
X101738484Y-37395018D01*
X101754541Y-37406257D01*
X101769895Y-37418255D01*
X101784522Y-37431022D01*
X101798397Y-37444568D01*
X101811496Y-37458901D01*
X101823793Y-37474032D01*
X101835265Y-37489969D01*
X101845887Y-37506722D01*
X101855634Y-37524300D01*
X101864482Y-37542712D01*
X101872407Y-37561969D01*
X101879383Y-37582079D01*
X101885386Y-37603051D01*
X101890392Y-37624896D01*
X101894376Y-37647622D01*
X101897314Y-37671238D01*
X101899180Y-37695755D01*
X101706917Y-37695757D01*
X101705427Y-37681592D01*
X101703285Y-37667870D01*
X101700509Y-37654591D01*
X101697120Y-37641751D01*
X101693136Y-37629351D01*
X101688578Y-37617389D01*
X101683464Y-37605864D01*
X101677813Y-37594774D01*
X101671646Y-37584118D01*
X101664982Y-37573895D01*
X101657840Y-37564103D01*
X101650239Y-37554742D01*
X101642199Y-37545809D01*
X101633739Y-37537304D01*
X101624878Y-37529226D01*
X101615636Y-37521572D01*
X101606033Y-37514343D01*
X101596087Y-37507535D01*
X101575246Y-37495183D01*
X101553268Y-37484505D01*
X101530308Y-37475491D01*
X101506521Y-37468130D01*
X101482063Y-37462413D01*
X101457087Y-37458329D01*
X101431750Y-37455867D01*
X101429985Y-37311228D01*
X101476958Y-37313783D01*
G37*
X101130124Y-37660477D02*
X101132460Y-37671016D01*
X101135478Y-37681141D01*
X101139148Y-37690864D01*
X101143439Y-37700195D01*
X101148321Y-37709145D01*
X101153762Y-37717725D01*
X101159733Y-37725945D01*
X101166201Y-37733816D01*
X101173138Y-37741348D01*
X101180511Y-37748552D01*
X101196446Y-37762021D01*
X101213761Y-37774305D01*
X101232209Y-37785492D01*
X101251547Y-37795666D01*
X101271528Y-37804912D01*
X101291907Y-37813316D01*
X101312439Y-37820963D01*
X101352977Y-37834327D01*
X101391180Y-37845685D01*
X101460413Y-37864647D01*
X101496352Y-37874955D01*
X101514363Y-37880461D01*
X101532291Y-37886255D01*
X101568677Y-37897114D01*
X101604270Y-37908634D01*
X101638855Y-37920982D01*
X101672217Y-37934321D01*
X101704144Y-37948818D01*
X101734419Y-37964638D01*
X101748870Y-37973095D01*
X101762828Y-37981946D01*
X101776266Y-37991209D01*
X101789158Y-38000907D01*
X101801476Y-38011060D01*
X101813193Y-38021688D01*
X101824283Y-38032812D01*
X101834719Y-38044453D01*
X101844474Y-38056632D01*
X101853522Y-38069368D01*
X101861835Y-38082683D01*
X101869387Y-38096598D01*
X101876151Y-38111133D01*
X101882100Y-38126309D01*
X101887207Y-38142146D01*
X101891446Y-38158665D01*
X101894790Y-38175887D01*
X101897211Y-38193833D01*
X101898684Y-38212522D01*
X101899180Y-38231977D01*
X101898470Y-38254385D01*
X101896372Y-38275973D01*
X101892935Y-38296749D01*
X101888208Y-38316719D01*
X101882239Y-38335891D01*
X101875077Y-38354272D01*
X101866771Y-38371868D01*
X101857371Y-38388688D01*
X101846923Y-38404737D01*
X101835478Y-38420024D01*
X101823084Y-38434554D01*
X101809790Y-38448336D01*
X101795645Y-38461377D01*
X101780697Y-38473683D01*
X101764995Y-38485261D01*
X101748588Y-38496120D01*
X101713854Y-38515704D01*
X101676885Y-38532493D01*
X101638071Y-38546543D01*
X101597803Y-38557911D01*
X101556470Y-38566654D01*
X101514463Y-38572828D01*
X101472171Y-38576491D01*
X101429985Y-38577700D01*
X101379711Y-38576481D01*
X101330901Y-38572749D01*
X101283781Y-38566386D01*
X101260925Y-38562182D01*
X101238576Y-38557277D01*
X101216762Y-38551656D01*
X101195510Y-38545305D01*
X101174850Y-38538209D01*
X101154808Y-38530354D01*
X101135414Y-38521725D01*
X101116696Y-38512307D01*
X101098680Y-38502087D01*
X101081397Y-38491049D01*
X101064873Y-38479179D01*
X101049136Y-38466462D01*
X101034216Y-38452885D01*
X101020139Y-38438432D01*
X101006935Y-38423089D01*
X100994631Y-38406841D01*
X100983255Y-38389674D01*
X100972835Y-38371573D01*
X100963399Y-38352524D01*
X100954977Y-38332512D01*
X100947594Y-38311523D01*
X100941281Y-38289542D01*
X100936064Y-38266554D01*
X100931973Y-38242546D01*
X100929034Y-38217502D01*
X100927277Y-38191408D01*
X101123068Y-38191407D01*
X101124594Y-38206993D01*
X101126843Y-38222006D01*
X101129793Y-38236450D01*
X101133424Y-38250332D01*
X101137713Y-38263655D01*
X101142640Y-38276425D01*
X101148184Y-38288647D01*
X101154322Y-38300327D01*
X101161034Y-38311469D01*
X101168298Y-38322079D01*
X101176093Y-38332162D01*
X101184398Y-38341723D01*
X101193191Y-38350767D01*
X101202451Y-38359300D01*
X101212157Y-38367326D01*
X101222287Y-38374851D01*
X101232820Y-38381880D01*
X101243735Y-38388418D01*
X101255011Y-38394470D01*
X101266625Y-38400042D01*
X101290786Y-38409764D01*
X101316048Y-38417626D01*
X101342241Y-38423669D01*
X101369193Y-38427934D01*
X101396733Y-38430463D01*
X101424693Y-38431296D01*
X101444160Y-38430821D01*
X101465256Y-38429315D01*
X101487581Y-38426657D01*
X101510738Y-38422725D01*
X101534329Y-38417397D01*
X101557956Y-38410553D01*
X101569659Y-38406524D01*
X101581222Y-38402071D01*
X101592595Y-38397177D01*
X101603728Y-38391829D01*
X101614572Y-38386010D01*
X101625076Y-38379706D01*
X101635192Y-38372901D01*
X101644869Y-38365581D01*
X101654058Y-38357729D01*
X101662709Y-38349332D01*
X101670772Y-38340373D01*
X101678197Y-38330837D01*
X101684935Y-38320710D01*
X101690936Y-38309976D01*
X101696151Y-38298620D01*
X101700529Y-38286626D01*
X101704020Y-38273980D01*
X101706576Y-38260667D01*
X101708145Y-38246671D01*
X101708680Y-38231977D01*
X101708510Y-38223331D01*
X101708007Y-38214918D01*
X101707178Y-38206733D01*
X101706030Y-38198773D01*
X101704571Y-38191032D01*
X101702808Y-38183507D01*
X101700748Y-38176192D01*
X101698399Y-38169083D01*
X101695769Y-38162176D01*
X101692864Y-38155466D01*
X101689693Y-38148948D01*
X101686262Y-38142618D01*
X101682580Y-38136472D01*
X101678653Y-38130504D01*
X101674488Y-38124711D01*
X101670095Y-38119088D01*
X101660648Y-38108334D01*
X101650371Y-38098204D01*
X101639325Y-38088664D01*
X101627568Y-38079676D01*
X101615160Y-38071206D01*
X101602161Y-38063216D01*
X101588629Y-38055670D01*
X101574624Y-38048533D01*
X101559907Y-38042656D01*
X101544859Y-38036903D01*
X101513770Y-38025603D01*
X101447624Y-38002672D01*
X101413697Y-37993632D01*
X101378612Y-37984592D01*
X101360894Y-37979865D01*
X101343196Y-37974891D01*
X101325623Y-37969585D01*
X101308277Y-37963866D01*
X101273850Y-37954063D01*
X101240147Y-37943730D01*
X101207353Y-37932709D01*
X101175654Y-37920844D01*
X101145238Y-37907976D01*
X101116288Y-37893948D01*
X101102422Y-37886450D01*
X101088993Y-37878602D01*
X101076023Y-37870386D01*
X101063537Y-37861781D01*
X101051557Y-37852768D01*
X101040107Y-37843327D01*
X101029210Y-37833438D01*
X101018889Y-37823082D01*
X101009167Y-37812239D01*
X101000068Y-37800889D01*
X100991615Y-37789013D01*
X100983831Y-37776591D01*
X100976740Y-37763602D01*
X100970364Y-37750028D01*
X100964728Y-37735849D01*
X100959853Y-37721045D01*
X100955765Y-37705597D01*
X100952484Y-37689483D01*
X100950036Y-37672686D01*
X100948443Y-37655185D01*
X101130124Y-37660477D01*
G36*
X101130124Y-37660477D02*
G01*
X101132460Y-37671016D01*
X101135478Y-37681141D01*
X101139148Y-37690864D01*
X101143439Y-37700195D01*
X101148321Y-37709145D01*
X101153762Y-37717725D01*
X101159733Y-37725945D01*
X101166201Y-37733816D01*
X101173138Y-37741348D01*
X101180511Y-37748552D01*
X101196446Y-37762021D01*
X101213761Y-37774305D01*
X101232209Y-37785492D01*
X101251547Y-37795666D01*
X101271528Y-37804912D01*
X101291907Y-37813316D01*
X101312439Y-37820963D01*
X101352977Y-37834327D01*
X101391180Y-37845685D01*
X101460413Y-37864647D01*
X101496352Y-37874955D01*
X101514363Y-37880461D01*
X101532291Y-37886255D01*
X101568677Y-37897114D01*
X101604270Y-37908634D01*
X101638855Y-37920982D01*
X101672217Y-37934321D01*
X101704144Y-37948818D01*
X101734419Y-37964638D01*
X101748870Y-37973095D01*
X101762828Y-37981946D01*
X101776266Y-37991209D01*
X101789158Y-38000907D01*
X101801476Y-38011060D01*
X101813193Y-38021688D01*
X101824283Y-38032812D01*
X101834719Y-38044453D01*
X101844474Y-38056632D01*
X101853522Y-38069368D01*
X101861835Y-38082683D01*
X101869387Y-38096598D01*
X101876151Y-38111133D01*
X101882100Y-38126309D01*
X101887207Y-38142146D01*
X101891446Y-38158665D01*
X101894790Y-38175887D01*
X101897211Y-38193833D01*
X101898684Y-38212522D01*
X101899180Y-38231977D01*
X101898470Y-38254385D01*
X101896372Y-38275973D01*
X101892935Y-38296749D01*
X101888208Y-38316719D01*
X101882239Y-38335891D01*
X101875077Y-38354272D01*
X101866771Y-38371868D01*
X101857371Y-38388688D01*
X101846923Y-38404737D01*
X101835478Y-38420024D01*
X101823084Y-38434554D01*
X101809790Y-38448336D01*
X101795645Y-38461377D01*
X101780697Y-38473683D01*
X101764995Y-38485261D01*
X101748588Y-38496120D01*
X101713854Y-38515704D01*
X101676885Y-38532493D01*
X101638071Y-38546543D01*
X101597803Y-38557911D01*
X101556470Y-38566654D01*
X101514463Y-38572828D01*
X101472171Y-38576491D01*
X101429985Y-38577700D01*
X101379711Y-38576481D01*
X101330901Y-38572749D01*
X101283781Y-38566386D01*
X101260925Y-38562182D01*
X101238576Y-38557277D01*
X101216762Y-38551656D01*
X101195510Y-38545305D01*
X101174850Y-38538209D01*
X101154808Y-38530354D01*
X101135414Y-38521725D01*
X101116696Y-38512307D01*
X101098680Y-38502087D01*
X101081397Y-38491049D01*
X101064873Y-38479179D01*
X101049136Y-38466462D01*
X101034216Y-38452885D01*
X101020139Y-38438432D01*
X101006935Y-38423089D01*
X100994631Y-38406841D01*
X100983255Y-38389674D01*
X100972835Y-38371573D01*
X100963399Y-38352524D01*
X100954977Y-38332512D01*
X100947594Y-38311523D01*
X100941281Y-38289542D01*
X100936064Y-38266554D01*
X100931973Y-38242546D01*
X100929034Y-38217502D01*
X100927277Y-38191408D01*
X101123068Y-38191407D01*
X101124594Y-38206993D01*
X101126843Y-38222006D01*
X101129793Y-38236450D01*
X101133424Y-38250332D01*
X101137713Y-38263655D01*
X101142640Y-38276425D01*
X101148184Y-38288647D01*
X101154322Y-38300327D01*
X101161034Y-38311469D01*
X101168298Y-38322079D01*
X101176093Y-38332162D01*
X101184398Y-38341723D01*
X101193191Y-38350767D01*
X101202451Y-38359300D01*
X101212157Y-38367326D01*
X101222287Y-38374851D01*
X101232820Y-38381880D01*
X101243735Y-38388418D01*
X101255011Y-38394470D01*
X101266625Y-38400042D01*
X101290786Y-38409764D01*
X101316048Y-38417626D01*
X101342241Y-38423669D01*
X101369193Y-38427934D01*
X101396733Y-38430463D01*
X101424693Y-38431296D01*
X101444160Y-38430821D01*
X101465256Y-38429315D01*
X101487581Y-38426657D01*
X101510738Y-38422725D01*
X101534329Y-38417397D01*
X101557956Y-38410553D01*
X101569659Y-38406524D01*
X101581222Y-38402071D01*
X101592595Y-38397177D01*
X101603728Y-38391829D01*
X101614572Y-38386010D01*
X101625076Y-38379706D01*
X101635192Y-38372901D01*
X101644869Y-38365581D01*
X101654058Y-38357729D01*
X101662709Y-38349332D01*
X101670772Y-38340373D01*
X101678197Y-38330837D01*
X101684935Y-38320710D01*
X101690936Y-38309976D01*
X101696151Y-38298620D01*
X101700529Y-38286626D01*
X101704020Y-38273980D01*
X101706576Y-38260667D01*
X101708145Y-38246671D01*
X101708680Y-38231977D01*
X101708510Y-38223331D01*
X101708007Y-38214918D01*
X101707178Y-38206733D01*
X101706030Y-38198773D01*
X101704571Y-38191032D01*
X101702808Y-38183507D01*
X101700748Y-38176192D01*
X101698399Y-38169083D01*
X101695769Y-38162176D01*
X101692864Y-38155466D01*
X101689693Y-38148948D01*
X101686262Y-38142618D01*
X101682580Y-38136472D01*
X101678653Y-38130504D01*
X101674488Y-38124711D01*
X101670095Y-38119088D01*
X101660648Y-38108334D01*
X101650371Y-38098204D01*
X101639325Y-38088664D01*
X101627568Y-38079676D01*
X101615160Y-38071206D01*
X101602161Y-38063216D01*
X101588629Y-38055670D01*
X101574624Y-38048533D01*
X101559907Y-38042656D01*
X101544859Y-38036903D01*
X101513770Y-38025603D01*
X101447624Y-38002672D01*
X101413697Y-37993632D01*
X101378612Y-37984592D01*
X101360894Y-37979865D01*
X101343196Y-37974891D01*
X101325623Y-37969585D01*
X101308277Y-37963866D01*
X101273850Y-37954063D01*
X101240147Y-37943730D01*
X101207353Y-37932709D01*
X101175654Y-37920844D01*
X101145238Y-37907976D01*
X101116288Y-37893948D01*
X101102422Y-37886450D01*
X101088993Y-37878602D01*
X101076023Y-37870386D01*
X101063537Y-37861781D01*
X101051557Y-37852768D01*
X101040107Y-37843327D01*
X101029210Y-37833438D01*
X101018889Y-37823082D01*
X101009167Y-37812239D01*
X101000068Y-37800889D01*
X100991615Y-37789013D01*
X100983831Y-37776591D01*
X100976740Y-37763602D01*
X100970364Y-37750028D01*
X100964728Y-37735849D01*
X100959853Y-37721045D01*
X100955765Y-37705597D01*
X100952484Y-37689483D01*
X100950036Y-37672686D01*
X100948443Y-37655185D01*
X101130124Y-37660477D01*
G37*
D11*
X81012000Y-40717062D02*
X81741887Y-41025399D01*
X81012000Y-41333736D01*
X80703663Y-42063624D01*
X80395325Y-41333736D01*
X79665438Y-41025399D01*
X80395325Y-40717062D01*
X80703663Y-39987174D01*
X81012000Y-40717062D01*
G36*
X81012000Y-40717062D02*
G01*
X81741887Y-41025399D01*
X81012000Y-41333736D01*
X80703663Y-42063624D01*
X80395325Y-41333736D01*
X79665438Y-41025399D01*
X80395325Y-40717062D01*
X80703663Y-39987174D01*
X81012000Y-40717062D01*
G37*
D10*
X103814765Y-38560062D02*
X103626028Y-38560062D01*
X103626028Y-37732798D01*
X103814765Y-37732798D01*
X103814765Y-38560062D01*
G36*
X103814765Y-38560062D02*
G01*
X103626028Y-38560062D01*
X103626028Y-37732798D01*
X103814765Y-37732798D01*
X103814765Y-38560062D01*
G37*
X95702679Y-37312899D02*
X95735528Y-37315917D01*
X95767648Y-37320264D01*
X95799015Y-37325921D01*
X95829605Y-37332872D01*
X95859396Y-37341098D01*
X95888363Y-37350582D01*
X95916482Y-37361306D01*
X95943731Y-37373252D01*
X95970086Y-37386402D01*
X95995523Y-37400739D01*
X96020018Y-37416245D01*
X96043548Y-37432902D01*
X96066090Y-37450692D01*
X96087619Y-37469598D01*
X96108113Y-37489602D01*
X96127547Y-37510685D01*
X96145898Y-37532831D01*
X96163143Y-37556022D01*
X96179258Y-37580239D01*
X96194218Y-37605465D01*
X96208002Y-37631682D01*
X96220585Y-37658873D01*
X96231943Y-37687019D01*
X96242054Y-37716104D01*
X96250893Y-37746108D01*
X96258437Y-37777015D01*
X96264662Y-37808807D01*
X96269544Y-37841466D01*
X96273061Y-37874973D01*
X96275189Y-37909312D01*
X96275903Y-37944465D01*
X96275183Y-37981354D01*
X96273035Y-38017270D01*
X96269480Y-38052199D01*
X96264538Y-38086127D01*
X96258227Y-38119043D01*
X96250567Y-38150933D01*
X96241579Y-38181785D01*
X96231282Y-38211584D01*
X96219696Y-38240319D01*
X96206839Y-38267977D01*
X96192733Y-38294544D01*
X96177397Y-38320008D01*
X96160850Y-38344356D01*
X96143113Y-38367575D01*
X96124204Y-38389651D01*
X96104144Y-38410573D01*
X96082952Y-38430327D01*
X96060648Y-38448900D01*
X96037252Y-38466279D01*
X96012783Y-38482451D01*
X95987262Y-38497404D01*
X95960707Y-38511125D01*
X95933138Y-38523600D01*
X95904576Y-38534817D01*
X95875040Y-38544762D01*
X95844549Y-38553424D01*
X95813124Y-38560788D01*
X95780784Y-38566842D01*
X95747548Y-38571574D01*
X95713437Y-38574969D01*
X95678470Y-38577016D01*
X95642666Y-38577701D01*
X95608620Y-38577007D01*
X95575288Y-38574937D01*
X95542692Y-38571513D01*
X95510853Y-38566753D01*
X95479794Y-38560678D01*
X95449534Y-38553307D01*
X95420098Y-38544662D01*
X95391505Y-38534762D01*
X95363777Y-38523626D01*
X95336937Y-38511275D01*
X95311006Y-38497730D01*
X95286005Y-38483009D01*
X95261957Y-38467134D01*
X95238882Y-38450123D01*
X95216803Y-38431998D01*
X95195740Y-38412777D01*
X95175717Y-38392482D01*
X95156753Y-38371132D01*
X95138872Y-38348747D01*
X95122094Y-38325348D01*
X95106442Y-38300953D01*
X95091937Y-38275584D01*
X95078600Y-38249260D01*
X95066453Y-38222002D01*
X95055518Y-38193828D01*
X95045816Y-38164761D01*
X95037370Y-38134818D01*
X95030200Y-38104021D01*
X95024329Y-38072389D01*
X95019777Y-38039943D01*
X95016568Y-38006702D01*
X95014721Y-37972687D01*
X95206985Y-37972686D01*
X95208420Y-37996723D01*
X95210735Y-38020209D01*
X95213919Y-38043130D01*
X95217965Y-38065472D01*
X95222861Y-38087221D01*
X95228600Y-38108363D01*
X95235172Y-38128885D01*
X95242566Y-38148771D01*
X95250775Y-38168009D01*
X95259788Y-38186585D01*
X95269596Y-38204484D01*
X95280190Y-38221694D01*
X95291561Y-38238199D01*
X95303698Y-38253986D01*
X95316594Y-38269041D01*
X95330237Y-38283351D01*
X95344620Y-38296901D01*
X95359732Y-38309677D01*
X95375564Y-38321666D01*
X95392108Y-38332853D01*
X95409353Y-38343226D01*
X95427290Y-38352769D01*
X95445909Y-38361469D01*
X95465202Y-38369313D01*
X95485160Y-38376286D01*
X95505771Y-38382374D01*
X95527029Y-38387563D01*
X95548922Y-38391841D01*
X95571441Y-38395191D01*
X95594578Y-38397602D01*
X95618323Y-38399059D01*
X95642666Y-38399547D01*
X95667996Y-38399033D01*
X95692714Y-38397498D01*
X95716807Y-38394957D01*
X95740262Y-38391424D01*
X95763068Y-38386911D01*
X95785212Y-38381432D01*
X95806680Y-38375001D01*
X95827461Y-38367632D01*
X95847542Y-38359338D01*
X95866910Y-38350132D01*
X95885552Y-38340028D01*
X95903456Y-38329040D01*
X95920610Y-38317181D01*
X95937001Y-38304465D01*
X95952616Y-38290906D01*
X95967442Y-38276516D01*
X95981468Y-38261310D01*
X95994680Y-38245301D01*
X96007065Y-38228502D01*
X96018612Y-38210928D01*
X96029308Y-38192592D01*
X96039139Y-38173507D01*
X96048094Y-38153686D01*
X96056160Y-38133145D01*
X96063325Y-38111895D01*
X96069574Y-38089951D01*
X96074897Y-38067326D01*
X96079280Y-38044034D01*
X96082712Y-38020088D01*
X96085178Y-37995501D01*
X96086667Y-37970289D01*
X96087166Y-37944463D01*
X96086698Y-37919448D01*
X96085301Y-37895014D01*
X96082986Y-37871173D01*
X96079766Y-37847935D01*
X96075652Y-37825314D01*
X96070656Y-37803321D01*
X96064788Y-37781968D01*
X96058062Y-37761267D01*
X96050488Y-37741230D01*
X96042079Y-37721869D01*
X96032845Y-37703196D01*
X96022798Y-37685223D01*
X96011951Y-37667962D01*
X96000314Y-37651425D01*
X95987899Y-37635623D01*
X95974718Y-37620569D01*
X95960783Y-37606275D01*
X95946105Y-37592753D01*
X95930696Y-37580013D01*
X95914567Y-37568070D01*
X95897730Y-37556934D01*
X95880197Y-37546617D01*
X95861979Y-37537131D01*
X95843088Y-37528489D01*
X95823536Y-37520702D01*
X95803333Y-37513782D01*
X95782493Y-37507742D01*
X95761026Y-37502592D01*
X95738944Y-37498346D01*
X95716258Y-37495014D01*
X95692981Y-37492610D01*
X95669124Y-37491144D01*
X95669124Y-37311228D01*
X95702679Y-37312899D01*
G36*
X95702679Y-37312899D02*
G01*
X95735528Y-37315917D01*
X95767648Y-37320264D01*
X95799015Y-37325921D01*
X95829605Y-37332872D01*
X95859396Y-37341098D01*
X95888363Y-37350582D01*
X95916482Y-37361306D01*
X95943731Y-37373252D01*
X95970086Y-37386402D01*
X95995523Y-37400739D01*
X96020018Y-37416245D01*
X96043548Y-37432902D01*
X96066090Y-37450692D01*
X96087619Y-37469598D01*
X96108113Y-37489602D01*
X96127547Y-37510685D01*
X96145898Y-37532831D01*
X96163143Y-37556022D01*
X96179258Y-37580239D01*
X96194218Y-37605465D01*
X96208002Y-37631682D01*
X96220585Y-37658873D01*
X96231943Y-37687019D01*
X96242054Y-37716104D01*
X96250893Y-37746108D01*
X96258437Y-37777015D01*
X96264662Y-37808807D01*
X96269544Y-37841466D01*
X96273061Y-37874973D01*
X96275189Y-37909312D01*
X96275903Y-37944465D01*
X96275183Y-37981354D01*
X96273035Y-38017270D01*
X96269480Y-38052199D01*
X96264538Y-38086127D01*
X96258227Y-38119043D01*
X96250567Y-38150933D01*
X96241579Y-38181785D01*
X96231282Y-38211584D01*
X96219696Y-38240319D01*
X96206839Y-38267977D01*
X96192733Y-38294544D01*
X96177397Y-38320008D01*
X96160850Y-38344356D01*
X96143113Y-38367575D01*
X96124204Y-38389651D01*
X96104144Y-38410573D01*
X96082952Y-38430327D01*
X96060648Y-38448900D01*
X96037252Y-38466279D01*
X96012783Y-38482451D01*
X95987262Y-38497404D01*
X95960707Y-38511125D01*
X95933138Y-38523600D01*
X95904576Y-38534817D01*
X95875040Y-38544762D01*
X95844549Y-38553424D01*
X95813124Y-38560788D01*
X95780784Y-38566842D01*
X95747548Y-38571574D01*
X95713437Y-38574969D01*
X95678470Y-38577016D01*
X95642666Y-38577701D01*
X95608620Y-38577007D01*
X95575288Y-38574937D01*
X95542692Y-38571513D01*
X95510853Y-38566753D01*
X95479794Y-38560678D01*
X95449534Y-38553307D01*
X95420098Y-38544662D01*
X95391505Y-38534762D01*
X95363777Y-38523626D01*
X95336937Y-38511275D01*
X95311006Y-38497730D01*
X95286005Y-38483009D01*
X95261957Y-38467134D01*
X95238882Y-38450123D01*
X95216803Y-38431998D01*
X95195740Y-38412777D01*
X95175717Y-38392482D01*
X95156753Y-38371132D01*
X95138872Y-38348747D01*
X95122094Y-38325348D01*
X95106442Y-38300953D01*
X95091937Y-38275584D01*
X95078600Y-38249260D01*
X95066453Y-38222002D01*
X95055518Y-38193828D01*
X95045816Y-38164761D01*
X95037370Y-38134818D01*
X95030200Y-38104021D01*
X95024329Y-38072389D01*
X95019777Y-38039943D01*
X95016568Y-38006702D01*
X95014721Y-37972687D01*
X95206985Y-37972686D01*
X95208420Y-37996723D01*
X95210735Y-38020209D01*
X95213919Y-38043130D01*
X95217965Y-38065472D01*
X95222861Y-38087221D01*
X95228600Y-38108363D01*
X95235172Y-38128885D01*
X95242566Y-38148771D01*
X95250775Y-38168009D01*
X95259788Y-38186585D01*
X95269596Y-38204484D01*
X95280190Y-38221694D01*
X95291561Y-38238199D01*
X95303698Y-38253986D01*
X95316594Y-38269041D01*
X95330237Y-38283351D01*
X95344620Y-38296901D01*
X95359732Y-38309677D01*
X95375564Y-38321666D01*
X95392108Y-38332853D01*
X95409353Y-38343226D01*
X95427290Y-38352769D01*
X95445909Y-38361469D01*
X95465202Y-38369313D01*
X95485160Y-38376286D01*
X95505771Y-38382374D01*
X95527029Y-38387563D01*
X95548922Y-38391841D01*
X95571441Y-38395191D01*
X95594578Y-38397602D01*
X95618323Y-38399059D01*
X95642666Y-38399547D01*
X95667996Y-38399033D01*
X95692714Y-38397498D01*
X95716807Y-38394957D01*
X95740262Y-38391424D01*
X95763068Y-38386911D01*
X95785212Y-38381432D01*
X95806680Y-38375001D01*
X95827461Y-38367632D01*
X95847542Y-38359338D01*
X95866910Y-38350132D01*
X95885552Y-38340028D01*
X95903456Y-38329040D01*
X95920610Y-38317181D01*
X95937001Y-38304465D01*
X95952616Y-38290906D01*
X95967442Y-38276516D01*
X95981468Y-38261310D01*
X95994680Y-38245301D01*
X96007065Y-38228502D01*
X96018612Y-38210928D01*
X96029308Y-38192592D01*
X96039139Y-38173507D01*
X96048094Y-38153686D01*
X96056160Y-38133145D01*
X96063325Y-38111895D01*
X96069574Y-38089951D01*
X96074897Y-38067326D01*
X96079280Y-38044034D01*
X96082712Y-38020088D01*
X96085178Y-37995501D01*
X96086667Y-37970289D01*
X96087166Y-37944463D01*
X96086698Y-37919448D01*
X96085301Y-37895014D01*
X96082986Y-37871173D01*
X96079766Y-37847935D01*
X96075652Y-37825314D01*
X96070656Y-37803321D01*
X96064788Y-37781968D01*
X96058062Y-37761267D01*
X96050488Y-37741230D01*
X96042079Y-37721869D01*
X96032845Y-37703196D01*
X96022798Y-37685223D01*
X96011951Y-37667962D01*
X96000314Y-37651425D01*
X95987899Y-37635623D01*
X95974718Y-37620569D01*
X95960783Y-37606275D01*
X95946105Y-37592753D01*
X95930696Y-37580013D01*
X95914567Y-37568070D01*
X95897730Y-37556934D01*
X95880197Y-37546617D01*
X95861979Y-37537131D01*
X95843088Y-37528489D01*
X95823536Y-37520702D01*
X95803333Y-37513782D01*
X95782493Y-37507742D01*
X95761026Y-37502592D01*
X95738944Y-37498346D01*
X95716258Y-37495014D01*
X95692981Y-37492610D01*
X95669124Y-37491144D01*
X95669124Y-37311228D01*
X95702679Y-37312899D01*
G37*
X96671013Y-37967394D02*
X96671013Y-38560062D01*
X96487568Y-38560062D01*
X96487568Y-37702811D01*
X96671013Y-37967394D01*
G36*
X96671013Y-37967394D02*
G01*
X96671013Y-38560062D01*
X96487568Y-38560062D01*
X96487568Y-37702811D01*
X96671013Y-37967394D01*
G37*
X97983347Y-38560062D02*
X97792847Y-38560062D01*
X97792847Y-37695755D01*
X97983347Y-37695755D01*
X97983347Y-38560062D01*
G36*
X97983347Y-38560062D02*
G01*
X97792847Y-38560062D01*
X97792847Y-37695755D01*
X97983347Y-37695755D01*
X97983347Y-38560062D01*
G37*
D12*
X114883331Y-47174204D02*
X115483331Y-46974204D01*
X115483331Y-46974204D02*
X114883331Y-46774204D01*
X115483331Y-46574203D02*
X114883331Y-46574203D01*
X115483331Y-46288489D02*
X114883331Y-46288489D01*
X114883331Y-46288489D02*
X115483331Y-45945632D01*
X115483331Y-45945632D02*
X114883331Y-45945632D01*
X114911902Y-43424204D02*
X114883331Y-43481347D01*
X114883331Y-43481347D02*
X114883331Y-43567061D01*
X114883331Y-43567061D02*
X114911902Y-43652775D01*
X114911902Y-43652775D02*
X114969045Y-43709918D01*
X114969045Y-43709918D02*
X115026188Y-43738489D01*
X115026188Y-43738489D02*
X115140474Y-43767061D01*
X115140474Y-43767061D02*
X115226188Y-43767061D01*
X115226188Y-43767061D02*
X115340474Y-43738489D01*
X115340474Y-43738489D02*
X115397617Y-43709918D01*
X115397617Y-43709918D02*
X115454760Y-43652775D01*
X115454760Y-43652775D02*
X115483331Y-43567061D01*
X115483331Y-43567061D02*
X115483331Y-43509918D01*
X115483331Y-43509918D02*
X115454760Y-43424204D01*
X115454760Y-43424204D02*
X115426188Y-43395632D01*
X115426188Y-43395632D02*
X115226188Y-43395632D01*
X115226188Y-43395632D02*
X115226188Y-43509918D01*
X115483331Y-43138489D02*
X114883331Y-43138489D01*
X114883331Y-43138489D02*
X115483331Y-42795632D01*
X115483331Y-42795632D02*
X114883331Y-42795632D01*
X115483331Y-42509918D02*
X114883331Y-42509918D01*
X114883331Y-42509918D02*
X114883331Y-42367061D01*
X114883331Y-42367061D02*
X114911902Y-42281347D01*
X114911902Y-42281347D02*
X114969045Y-42224204D01*
X114969045Y-42224204D02*
X115026188Y-42195633D01*
X115026188Y-42195633D02*
X115140474Y-42167061D01*
X115140474Y-42167061D02*
X115226188Y-42167061D01*
X115226188Y-42167061D02*
X115340474Y-42195633D01*
X115340474Y-42195633D02*
X115397617Y-42224204D01*
X115397617Y-42224204D02*
X115454760Y-42281347D01*
X115454760Y-42281347D02*
X115483331Y-42367061D01*
X115483331Y-42367061D02*
X115483331Y-42509918D01*
X114883331Y-40159919D02*
X114883331Y-39788491D01*
X114883331Y-39788491D02*
X115111902Y-39988491D01*
X115111902Y-39988491D02*
X115111902Y-39902776D01*
X115111902Y-39902776D02*
X115140474Y-39845634D01*
X115140474Y-39845634D02*
X115169045Y-39817062D01*
X115169045Y-39817062D02*
X115226188Y-39788491D01*
X115226188Y-39788491D02*
X115369045Y-39788491D01*
X115369045Y-39788491D02*
X115426188Y-39817062D01*
X115426188Y-39817062D02*
X115454760Y-39845634D01*
X115454760Y-39845634D02*
X115483331Y-39902776D01*
X115483331Y-39902776D02*
X115483331Y-40074205D01*
X115483331Y-40074205D02*
X115454760Y-40131348D01*
X115454760Y-40131348D02*
X115426188Y-40159919D01*
X114883331Y-39617062D02*
X115483331Y-39417062D01*
X115483331Y-39417062D02*
X114883331Y-39217062D01*
X114883331Y-39074204D02*
X114883331Y-38702776D01*
X114883331Y-38702776D02*
X115111902Y-38902776D01*
X115111902Y-38902776D02*
X115111902Y-38817061D01*
X115111902Y-38817061D02*
X115140474Y-38759919D01*
X115140474Y-38759919D02*
X115169045Y-38731347D01*
X115169045Y-38731347D02*
X115226188Y-38702776D01*
X115226188Y-38702776D02*
X115369045Y-38702776D01*
X115369045Y-38702776D02*
X115426188Y-38731347D01*
X115426188Y-38731347D02*
X115454760Y-38759919D01*
X115454760Y-38759919D02*
X115483331Y-38817061D01*
X115483331Y-38817061D02*
X115483331Y-38988490D01*
X115483331Y-38988490D02*
X115454760Y-39045633D01*
X115454760Y-39045633D02*
X115426188Y-39074204D01*
D13*
X92903482Y-40288685D02*
X92903482Y-39588685D01*
X93236815Y-39822018D02*
X93236815Y-40288685D01*
X93236815Y-39888685D02*
X93270149Y-39855352D01*
X93270149Y-39855352D02*
X93336815Y-39822018D01*
X93336815Y-39822018D02*
X93436815Y-39822018D01*
X93436815Y-39822018D02*
X93503482Y-39855352D01*
X93503482Y-39855352D02*
X93536815Y-39922018D01*
X93536815Y-39922018D02*
X93536815Y-40288685D01*
X94136815Y-40255352D02*
X94070148Y-40288685D01*
X94070148Y-40288685D02*
X93936815Y-40288685D01*
X93936815Y-40288685D02*
X93870148Y-40255352D01*
X93870148Y-40255352D02*
X93836815Y-40188685D01*
X93836815Y-40188685D02*
X93836815Y-39922018D01*
X93836815Y-39922018D02*
X93870148Y-39855352D01*
X93870148Y-39855352D02*
X93936815Y-39822018D01*
X93936815Y-39822018D02*
X94070148Y-39822018D01*
X94070148Y-39822018D02*
X94136815Y-39855352D01*
X94136815Y-39855352D02*
X94170148Y-39922018D01*
X94170148Y-39922018D02*
X94170148Y-39988685D01*
X94170148Y-39988685D02*
X93836815Y-40055352D01*
X94470148Y-40288685D02*
X94470148Y-39822018D01*
X94470148Y-39955352D02*
X94503482Y-39888685D01*
X94503482Y-39888685D02*
X94536815Y-39855352D01*
X94536815Y-39855352D02*
X94603482Y-39822018D01*
X94603482Y-39822018D02*
X94670148Y-39822018D01*
X94803481Y-39822018D02*
X95070148Y-39822018D01*
X94903481Y-39588685D02*
X94903481Y-40188685D01*
X94903481Y-40188685D02*
X94936815Y-40255352D01*
X94936815Y-40255352D02*
X95003481Y-40288685D01*
X95003481Y-40288685D02*
X95070148Y-40288685D01*
X95303481Y-40288685D02*
X95303481Y-39822018D01*
X95303481Y-39588685D02*
X95270148Y-39622018D01*
X95270148Y-39622018D02*
X95303481Y-39655352D01*
X95303481Y-39655352D02*
X95336815Y-39622018D01*
X95336815Y-39622018D02*
X95303481Y-39588685D01*
X95303481Y-39588685D02*
X95303481Y-39655352D01*
X95936814Y-40288685D02*
X95936814Y-39922018D01*
X95936814Y-39922018D02*
X95903481Y-39855352D01*
X95903481Y-39855352D02*
X95836814Y-39822018D01*
X95836814Y-39822018D02*
X95703481Y-39822018D01*
X95703481Y-39822018D02*
X95636814Y-39855352D01*
X95936814Y-40255352D02*
X95870148Y-40288685D01*
X95870148Y-40288685D02*
X95703481Y-40288685D01*
X95703481Y-40288685D02*
X95636814Y-40255352D01*
X95636814Y-40255352D02*
X95603481Y-40188685D01*
X95603481Y-40188685D02*
X95603481Y-40122018D01*
X95603481Y-40122018D02*
X95636814Y-40055352D01*
X95636814Y-40055352D02*
X95703481Y-40022018D01*
X95703481Y-40022018D02*
X95870148Y-40022018D01*
X95870148Y-40022018D02*
X95936814Y-39988685D01*
X96370147Y-40288685D02*
X96303481Y-40255352D01*
X96303481Y-40255352D02*
X96270147Y-40188685D01*
X96270147Y-40188685D02*
X96270147Y-39588685D01*
X97170147Y-40288685D02*
X97170147Y-39588685D01*
X97170147Y-39588685D02*
X97403481Y-40088685D01*
X97403481Y-40088685D02*
X97636814Y-39588685D01*
X97636814Y-39588685D02*
X97636814Y-40288685D01*
X98236814Y-40255352D02*
X98170147Y-40288685D01*
X98170147Y-40288685D02*
X98036814Y-40288685D01*
X98036814Y-40288685D02*
X97970147Y-40255352D01*
X97970147Y-40255352D02*
X97936814Y-40188685D01*
X97936814Y-40188685D02*
X97936814Y-39922018D01*
X97936814Y-39922018D02*
X97970147Y-39855352D01*
X97970147Y-39855352D02*
X98036814Y-39822018D01*
X98036814Y-39822018D02*
X98170147Y-39822018D01*
X98170147Y-39822018D02*
X98236814Y-39855352D01*
X98236814Y-39855352D02*
X98270147Y-39922018D01*
X98270147Y-39922018D02*
X98270147Y-39988685D01*
X98270147Y-39988685D02*
X97936814Y-40055352D01*
X98870147Y-40288685D02*
X98870147Y-39922018D01*
X98870147Y-39922018D02*
X98836814Y-39855352D01*
X98836814Y-39855352D02*
X98770147Y-39822018D01*
X98770147Y-39822018D02*
X98636814Y-39822018D01*
X98636814Y-39822018D02*
X98570147Y-39855352D01*
X98870147Y-40255352D02*
X98803481Y-40288685D01*
X98803481Y-40288685D02*
X98636814Y-40288685D01*
X98636814Y-40288685D02*
X98570147Y-40255352D01*
X98570147Y-40255352D02*
X98536814Y-40188685D01*
X98536814Y-40188685D02*
X98536814Y-40122018D01*
X98536814Y-40122018D02*
X98570147Y-40055352D01*
X98570147Y-40055352D02*
X98636814Y-40022018D01*
X98636814Y-40022018D02*
X98803481Y-40022018D01*
X98803481Y-40022018D02*
X98870147Y-39988685D01*
X99170147Y-40255352D02*
X99236814Y-40288685D01*
X99236814Y-40288685D02*
X99370147Y-40288685D01*
X99370147Y-40288685D02*
X99436814Y-40255352D01*
X99436814Y-40255352D02*
X99470147Y-40188685D01*
X99470147Y-40188685D02*
X99470147Y-40155352D01*
X99470147Y-40155352D02*
X99436814Y-40088685D01*
X99436814Y-40088685D02*
X99370147Y-40055352D01*
X99370147Y-40055352D02*
X99270147Y-40055352D01*
X99270147Y-40055352D02*
X99203480Y-40022018D01*
X99203480Y-40022018D02*
X99170147Y-39955352D01*
X99170147Y-39955352D02*
X99170147Y-39922018D01*
X99170147Y-39922018D02*
X99203480Y-39855352D01*
X99203480Y-39855352D02*
X99270147Y-39822018D01*
X99270147Y-39822018D02*
X99370147Y-39822018D01*
X99370147Y-39822018D02*
X99436814Y-39855352D01*
X100070147Y-39822018D02*
X100070147Y-40288685D01*
X99770147Y-39822018D02*
X99770147Y-40188685D01*
X99770147Y-40188685D02*
X99803481Y-40255352D01*
X99803481Y-40255352D02*
X99870147Y-40288685D01*
X99870147Y-40288685D02*
X99970147Y-40288685D01*
X99970147Y-40288685D02*
X100036814Y-40255352D01*
X100036814Y-40255352D02*
X100070147Y-40222018D01*
X100403480Y-40288685D02*
X100403480Y-39822018D01*
X100403480Y-39955352D02*
X100436814Y-39888685D01*
X100436814Y-39888685D02*
X100470147Y-39855352D01*
X100470147Y-39855352D02*
X100536814Y-39822018D01*
X100536814Y-39822018D02*
X100603480Y-39822018D01*
X101103480Y-40255352D02*
X101036813Y-40288685D01*
X101036813Y-40288685D02*
X100903480Y-40288685D01*
X100903480Y-40288685D02*
X100836813Y-40255352D01*
X100836813Y-40255352D02*
X100803480Y-40188685D01*
X100803480Y-40188685D02*
X100803480Y-39922018D01*
X100803480Y-39922018D02*
X100836813Y-39855352D01*
X100836813Y-39855352D02*
X100903480Y-39822018D01*
X100903480Y-39822018D02*
X101036813Y-39822018D01*
X101036813Y-39822018D02*
X101103480Y-39855352D01*
X101103480Y-39855352D02*
X101136813Y-39922018D01*
X101136813Y-39922018D02*
X101136813Y-39988685D01*
X101136813Y-39988685D02*
X100803480Y-40055352D01*
X101436813Y-40288685D02*
X101436813Y-39822018D01*
X101436813Y-39888685D02*
X101470147Y-39855352D01*
X101470147Y-39855352D02*
X101536813Y-39822018D01*
X101536813Y-39822018D02*
X101636813Y-39822018D01*
X101636813Y-39822018D02*
X101703480Y-39855352D01*
X101703480Y-39855352D02*
X101736813Y-39922018D01*
X101736813Y-39922018D02*
X101736813Y-40288685D01*
X101736813Y-39922018D02*
X101770147Y-39855352D01*
X101770147Y-39855352D02*
X101836813Y-39822018D01*
X101836813Y-39822018D02*
X101936813Y-39822018D01*
X101936813Y-39822018D02*
X102003480Y-39855352D01*
X102003480Y-39855352D02*
X102036813Y-39922018D01*
X102036813Y-39922018D02*
X102036813Y-40288685D01*
X102636813Y-40255352D02*
X102570146Y-40288685D01*
X102570146Y-40288685D02*
X102436813Y-40288685D01*
X102436813Y-40288685D02*
X102370146Y-40255352D01*
X102370146Y-40255352D02*
X102336813Y-40188685D01*
X102336813Y-40188685D02*
X102336813Y-39922018D01*
X102336813Y-39922018D02*
X102370146Y-39855352D01*
X102370146Y-39855352D02*
X102436813Y-39822018D01*
X102436813Y-39822018D02*
X102570146Y-39822018D01*
X102570146Y-39822018D02*
X102636813Y-39855352D01*
X102636813Y-39855352D02*
X102670146Y-39922018D01*
X102670146Y-39922018D02*
X102670146Y-39988685D01*
X102670146Y-39988685D02*
X102336813Y-40055352D01*
X102970146Y-39822018D02*
X102970146Y-40288685D01*
X102970146Y-39888685D02*
X103003480Y-39855352D01*
X103003480Y-39855352D02*
X103070146Y-39822018D01*
X103070146Y-39822018D02*
X103170146Y-39822018D01*
X103170146Y-39822018D02*
X103236813Y-39855352D01*
X103236813Y-39855352D02*
X103270146Y-39922018D01*
X103270146Y-39922018D02*
X103270146Y-40288685D01*
X103503479Y-39822018D02*
X103770146Y-39822018D01*
X103603479Y-39588685D02*
X103603479Y-40188685D01*
X103603479Y-40188685D02*
X103636813Y-40255352D01*
X103636813Y-40255352D02*
X103703479Y-40288685D01*
X103703479Y-40288685D02*
X103770146Y-40288685D01*
X104536812Y-39588685D02*
X104536812Y-40155352D01*
X104536812Y-40155352D02*
X104570146Y-40222018D01*
X104570146Y-40222018D02*
X104603479Y-40255352D01*
X104603479Y-40255352D02*
X104670146Y-40288685D01*
X104670146Y-40288685D02*
X104803479Y-40288685D01*
X104803479Y-40288685D02*
X104870146Y-40255352D01*
X104870146Y-40255352D02*
X104903479Y-40222018D01*
X104903479Y-40222018D02*
X104936812Y-40155352D01*
X104936812Y-40155352D02*
X104936812Y-39588685D01*
X105270145Y-39822018D02*
X105270145Y-40288685D01*
X105270145Y-39888685D02*
X105303479Y-39855352D01*
X105303479Y-39855352D02*
X105370145Y-39822018D01*
X105370145Y-39822018D02*
X105470145Y-39822018D01*
X105470145Y-39822018D02*
X105536812Y-39855352D01*
X105536812Y-39855352D02*
X105570145Y-39922018D01*
X105570145Y-39922018D02*
X105570145Y-40288685D01*
X105903478Y-40288685D02*
X105903478Y-39822018D01*
X105903478Y-39588685D02*
X105870145Y-39622018D01*
X105870145Y-39622018D02*
X105903478Y-39655352D01*
X105903478Y-39655352D02*
X105936812Y-39622018D01*
X105936812Y-39622018D02*
X105903478Y-39588685D01*
X105903478Y-39588685D02*
X105903478Y-39655352D01*
X106136811Y-39822018D02*
X106403478Y-39822018D01*
X106236811Y-39588685D02*
X106236811Y-40188685D01*
X106236811Y-40188685D02*
X106270145Y-40255352D01*
X106270145Y-40255352D02*
X106336811Y-40288685D01*
X106336811Y-40288685D02*
X106403478Y-40288685D01*
D12*
X78173668Y-47530428D02*
X78459382Y-47330428D01*
X78173668Y-47187571D02*
X78773668Y-47187571D01*
X78773668Y-47187571D02*
X78773668Y-47416142D01*
X78773668Y-47416142D02*
X78745097Y-47473285D01*
X78745097Y-47473285D02*
X78716525Y-47501856D01*
X78716525Y-47501856D02*
X78659382Y-47530428D01*
X78659382Y-47530428D02*
X78573668Y-47530428D01*
X78573668Y-47530428D02*
X78516525Y-47501856D01*
X78516525Y-47501856D02*
X78487954Y-47473285D01*
X78487954Y-47473285D02*
X78459382Y-47416142D01*
X78459382Y-47416142D02*
X78459382Y-47187571D01*
X78202240Y-47758999D02*
X78173668Y-47844714D01*
X78173668Y-47844714D02*
X78173668Y-47987571D01*
X78173668Y-47987571D02*
X78202240Y-48044714D01*
X78202240Y-48044714D02*
X78230811Y-48073285D01*
X78230811Y-48073285D02*
X78287954Y-48101856D01*
X78287954Y-48101856D02*
X78345097Y-48101856D01*
X78345097Y-48101856D02*
X78402240Y-48073285D01*
X78402240Y-48073285D02*
X78430811Y-48044714D01*
X78430811Y-48044714D02*
X78459382Y-47987571D01*
X78459382Y-47987571D02*
X78487954Y-47873285D01*
X78487954Y-47873285D02*
X78516525Y-47816142D01*
X78516525Y-47816142D02*
X78545097Y-47787571D01*
X78545097Y-47787571D02*
X78602240Y-47758999D01*
X78602240Y-47758999D02*
X78659382Y-47758999D01*
X78659382Y-47758999D02*
X78716525Y-47787571D01*
X78716525Y-47787571D02*
X78745097Y-47816142D01*
X78745097Y-47816142D02*
X78773668Y-47873285D01*
X78773668Y-47873285D02*
X78773668Y-48016142D01*
X78773668Y-48016142D02*
X78745097Y-48101856D01*
X78773668Y-48273285D02*
X78773668Y-48616143D01*
X78173668Y-48444714D02*
X78773668Y-48444714D01*
X78487954Y-45153143D02*
X78459382Y-45238857D01*
X78459382Y-45238857D02*
X78430811Y-45267428D01*
X78430811Y-45267428D02*
X78373668Y-45296000D01*
X78373668Y-45296000D02*
X78287954Y-45296000D01*
X78287954Y-45296000D02*
X78230811Y-45267428D01*
X78230811Y-45267428D02*
X78202240Y-45238857D01*
X78202240Y-45238857D02*
X78173668Y-45181714D01*
X78173668Y-45181714D02*
X78173668Y-44953143D01*
X78173668Y-44953143D02*
X78773668Y-44953143D01*
X78773668Y-44953143D02*
X78773668Y-45153143D01*
X78773668Y-45153143D02*
X78745097Y-45210286D01*
X78745097Y-45210286D02*
X78716525Y-45238857D01*
X78716525Y-45238857D02*
X78659382Y-45267428D01*
X78659382Y-45267428D02*
X78602240Y-45267428D01*
X78602240Y-45267428D02*
X78545097Y-45238857D01*
X78545097Y-45238857D02*
X78516525Y-45210286D01*
X78516525Y-45210286D02*
X78487954Y-45153143D01*
X78487954Y-45153143D02*
X78487954Y-44953143D01*
X78773668Y-45667428D02*
X78773668Y-45724571D01*
X78773668Y-45724571D02*
X78745097Y-45781714D01*
X78745097Y-45781714D02*
X78716525Y-45810286D01*
X78716525Y-45810286D02*
X78659382Y-45838857D01*
X78659382Y-45838857D02*
X78545097Y-45867428D01*
X78545097Y-45867428D02*
X78402240Y-45867428D01*
X78402240Y-45867428D02*
X78287954Y-45838857D01*
X78287954Y-45838857D02*
X78230811Y-45810286D01*
X78230811Y-45810286D02*
X78202240Y-45781714D01*
X78202240Y-45781714D02*
X78173668Y-45724571D01*
X78173668Y-45724571D02*
X78173668Y-45667428D01*
X78173668Y-45667428D02*
X78202240Y-45610286D01*
X78202240Y-45610286D02*
X78230811Y-45581714D01*
X78230811Y-45581714D02*
X78287954Y-45553143D01*
X78287954Y-45553143D02*
X78402240Y-45524571D01*
X78402240Y-45524571D02*
X78545097Y-45524571D01*
X78545097Y-45524571D02*
X78659382Y-45553143D01*
X78659382Y-45553143D02*
X78716525Y-45581714D01*
X78716525Y-45581714D02*
X78745097Y-45610286D01*
X78745097Y-45610286D02*
X78773668Y-45667428D01*
D10*
X96848717Y-41369740D02*
X96848717Y-40936407D01*
X96848717Y-41060216D02*
X96879670Y-40998311D01*
X96879670Y-40998311D02*
X96910622Y-40967359D01*
X96910622Y-40967359D02*
X96972527Y-40936407D01*
X96972527Y-40936407D02*
X97034432Y-40936407D01*
X97498717Y-41338788D02*
X97436813Y-41369740D01*
X97436813Y-41369740D02*
X97313003Y-41369740D01*
X97313003Y-41369740D02*
X97251098Y-41338788D01*
X97251098Y-41338788D02*
X97220146Y-41276883D01*
X97220146Y-41276883D02*
X97220146Y-41029264D01*
X97220146Y-41029264D02*
X97251098Y-40967359D01*
X97251098Y-40967359D02*
X97313003Y-40936407D01*
X97313003Y-40936407D02*
X97436813Y-40936407D01*
X97436813Y-40936407D02*
X97498717Y-40967359D01*
X97498717Y-40967359D02*
X97529670Y-41029264D01*
X97529670Y-41029264D02*
X97529670Y-41091168D01*
X97529670Y-41091168D02*
X97220146Y-41153073D01*
X97746337Y-40936407D02*
X97901099Y-41369740D01*
X97901099Y-41369740D02*
X98055860Y-40936407D01*
X98303479Y-41369740D02*
X98303479Y-40936407D01*
X98303479Y-40719740D02*
X98272527Y-40750692D01*
X98272527Y-40750692D02*
X98303479Y-40781645D01*
X98303479Y-40781645D02*
X98334432Y-40750692D01*
X98334432Y-40750692D02*
X98303479Y-40719740D01*
X98303479Y-40719740D02*
X98303479Y-40781645D01*
X98582051Y-41338788D02*
X98643956Y-41369740D01*
X98643956Y-41369740D02*
X98767765Y-41369740D01*
X98767765Y-41369740D02*
X98829670Y-41338788D01*
X98829670Y-41338788D02*
X98860622Y-41276883D01*
X98860622Y-41276883D02*
X98860622Y-41245930D01*
X98860622Y-41245930D02*
X98829670Y-41184026D01*
X98829670Y-41184026D02*
X98767765Y-41153073D01*
X98767765Y-41153073D02*
X98674908Y-41153073D01*
X98674908Y-41153073D02*
X98613003Y-41122121D01*
X98613003Y-41122121D02*
X98582051Y-41060216D01*
X98582051Y-41060216D02*
X98582051Y-41029264D01*
X98582051Y-41029264D02*
X98613003Y-40967359D01*
X98613003Y-40967359D02*
X98674908Y-40936407D01*
X98674908Y-40936407D02*
X98767765Y-40936407D01*
X98767765Y-40936407D02*
X98829670Y-40967359D01*
X99139193Y-41369740D02*
X99139193Y-40936407D01*
X99139193Y-40719740D02*
X99108241Y-40750692D01*
X99108241Y-40750692D02*
X99139193Y-40781645D01*
X99139193Y-40781645D02*
X99170146Y-40750692D01*
X99170146Y-40750692D02*
X99139193Y-40719740D01*
X99139193Y-40719740D02*
X99139193Y-40781645D01*
X99541575Y-41369740D02*
X99479670Y-41338788D01*
X99479670Y-41338788D02*
X99448717Y-41307835D01*
X99448717Y-41307835D02*
X99417765Y-41245930D01*
X99417765Y-41245930D02*
X99417765Y-41060216D01*
X99417765Y-41060216D02*
X99448717Y-40998311D01*
X99448717Y-40998311D02*
X99479670Y-40967359D01*
X99479670Y-40967359D02*
X99541575Y-40936407D01*
X99541575Y-40936407D02*
X99634432Y-40936407D01*
X99634432Y-40936407D02*
X99696336Y-40967359D01*
X99696336Y-40967359D02*
X99727289Y-40998311D01*
X99727289Y-40998311D02*
X99758241Y-41060216D01*
X99758241Y-41060216D02*
X99758241Y-41245930D01*
X99758241Y-41245930D02*
X99727289Y-41307835D01*
X99727289Y-41307835D02*
X99696336Y-41338788D01*
X99696336Y-41338788D02*
X99634432Y-41369740D01*
X99634432Y-41369740D02*
X99541575Y-41369740D01*
X100036812Y-40936407D02*
X100036812Y-41369740D01*
X100036812Y-40998311D02*
X100067765Y-40967359D01*
X100067765Y-40967359D02*
X100129670Y-40936407D01*
X100129670Y-40936407D02*
X100222527Y-40936407D01*
X100222527Y-40936407D02*
X100284431Y-40967359D01*
X100284431Y-40967359D02*
X100315384Y-41029264D01*
X100315384Y-41029264D02*
X100315384Y-41369740D01*
X101460622Y-41369740D02*
X101089193Y-41369740D01*
X101274907Y-41369740D02*
X101274907Y-40719740D01*
X101274907Y-40719740D02*
X101213003Y-40812597D01*
X101213003Y-40812597D02*
X101151098Y-40874502D01*
X101151098Y-40874502D02*
X101089193Y-40905454D01*
X101739193Y-41307835D02*
X101770146Y-41338788D01*
X101770146Y-41338788D02*
X101739193Y-41369740D01*
X101739193Y-41369740D02*
X101708241Y-41338788D01*
X101708241Y-41338788D02*
X101739193Y-41307835D01*
X101739193Y-41307835D02*
X101739193Y-41369740D01*
X102389194Y-41369740D02*
X102017765Y-41369740D01*
X102203479Y-41369740D02*
X102203479Y-40719740D01*
X102203479Y-40719740D02*
X102141575Y-40812597D01*
X102141575Y-40812597D02*
X102079670Y-40874502D01*
X102079670Y-40874502D02*
X102017765Y-40905454D01*
X95827289Y-42416204D02*
X95827289Y-41766204D01*
X95827289Y-41766204D02*
X96074908Y-41766204D01*
X96074908Y-41766204D02*
X96136813Y-41797156D01*
X96136813Y-41797156D02*
X96167766Y-41828109D01*
X96167766Y-41828109D02*
X96198718Y-41890013D01*
X96198718Y-41890013D02*
X96198718Y-41982871D01*
X96198718Y-41982871D02*
X96167766Y-42044775D01*
X96167766Y-42044775D02*
X96136813Y-42075728D01*
X96136813Y-42075728D02*
X96074908Y-42106680D01*
X96074908Y-42106680D02*
X95827289Y-42106680D01*
X96477289Y-42416204D02*
X96477289Y-41982871D01*
X96477289Y-42106680D02*
X96508242Y-42044775D01*
X96508242Y-42044775D02*
X96539194Y-42013823D01*
X96539194Y-42013823D02*
X96601099Y-41982871D01*
X96601099Y-41982871D02*
X96663004Y-41982871D01*
X96972528Y-42416204D02*
X96910623Y-42385252D01*
X96910623Y-42385252D02*
X96879670Y-42354299D01*
X96879670Y-42354299D02*
X96848718Y-42292394D01*
X96848718Y-42292394D02*
X96848718Y-42106680D01*
X96848718Y-42106680D02*
X96879670Y-42044775D01*
X96879670Y-42044775D02*
X96910623Y-42013823D01*
X96910623Y-42013823D02*
X96972528Y-41982871D01*
X96972528Y-41982871D02*
X97065385Y-41982871D01*
X97065385Y-41982871D02*
X97127289Y-42013823D01*
X97127289Y-42013823D02*
X97158242Y-42044775D01*
X97158242Y-42044775D02*
X97189194Y-42106680D01*
X97189194Y-42106680D02*
X97189194Y-42292394D01*
X97189194Y-42292394D02*
X97158242Y-42354299D01*
X97158242Y-42354299D02*
X97127289Y-42385252D01*
X97127289Y-42385252D02*
X97065385Y-42416204D01*
X97065385Y-42416204D02*
X96972528Y-42416204D01*
X97467765Y-41982871D02*
X97467765Y-42540013D01*
X97467765Y-42540013D02*
X97436813Y-42601918D01*
X97436813Y-42601918D02*
X97374908Y-42632871D01*
X97374908Y-42632871D02*
X97343956Y-42632871D01*
X97467765Y-41766204D02*
X97436813Y-41797156D01*
X97436813Y-41797156D02*
X97467765Y-41828109D01*
X97467765Y-41828109D02*
X97498718Y-41797156D01*
X97498718Y-41797156D02*
X97467765Y-41766204D01*
X97467765Y-41766204D02*
X97467765Y-41828109D01*
X98024908Y-42385252D02*
X97963004Y-42416204D01*
X97963004Y-42416204D02*
X97839194Y-42416204D01*
X97839194Y-42416204D02*
X97777289Y-42385252D01*
X97777289Y-42385252D02*
X97746337Y-42323347D01*
X97746337Y-42323347D02*
X97746337Y-42075728D01*
X97746337Y-42075728D02*
X97777289Y-42013823D01*
X97777289Y-42013823D02*
X97839194Y-41982871D01*
X97839194Y-41982871D02*
X97963004Y-41982871D01*
X97963004Y-41982871D02*
X98024908Y-42013823D01*
X98024908Y-42013823D02*
X98055861Y-42075728D01*
X98055861Y-42075728D02*
X98055861Y-42137632D01*
X98055861Y-42137632D02*
X97746337Y-42199537D01*
X98613004Y-42385252D02*
X98551099Y-42416204D01*
X98551099Y-42416204D02*
X98427290Y-42416204D01*
X98427290Y-42416204D02*
X98365385Y-42385252D01*
X98365385Y-42385252D02*
X98334432Y-42354299D01*
X98334432Y-42354299D02*
X98303480Y-42292394D01*
X98303480Y-42292394D02*
X98303480Y-42106680D01*
X98303480Y-42106680D02*
X98334432Y-42044775D01*
X98334432Y-42044775D02*
X98365385Y-42013823D01*
X98365385Y-42013823D02*
X98427290Y-41982871D01*
X98427290Y-41982871D02*
X98551099Y-41982871D01*
X98551099Y-41982871D02*
X98613004Y-42013823D01*
X98798718Y-41982871D02*
X99046337Y-41982871D01*
X98891575Y-41766204D02*
X98891575Y-42323347D01*
X98891575Y-42323347D02*
X98922528Y-42385252D01*
X98922528Y-42385252D02*
X98984433Y-42416204D01*
X98984433Y-42416204D02*
X99046337Y-42416204D01*
X99758242Y-42416204D02*
X99758242Y-41766204D01*
X99758242Y-41766204D02*
X100129671Y-42416204D01*
X100129671Y-42416204D02*
X100129671Y-41766204D01*
X100686813Y-42385252D02*
X100624909Y-42416204D01*
X100624909Y-42416204D02*
X100501099Y-42416204D01*
X100501099Y-42416204D02*
X100439194Y-42385252D01*
X100439194Y-42385252D02*
X100408242Y-42323347D01*
X100408242Y-42323347D02*
X100408242Y-42075728D01*
X100408242Y-42075728D02*
X100439194Y-42013823D01*
X100439194Y-42013823D02*
X100501099Y-41982871D01*
X100501099Y-41982871D02*
X100624909Y-41982871D01*
X100624909Y-41982871D02*
X100686813Y-42013823D01*
X100686813Y-42013823D02*
X100717766Y-42075728D01*
X100717766Y-42075728D02*
X100717766Y-42137632D01*
X100717766Y-42137632D02*
X100408242Y-42199537D01*
X100996337Y-41982871D02*
X100996337Y-42632871D01*
X100996337Y-42013823D02*
X101058242Y-41982871D01*
X101058242Y-41982871D02*
X101182052Y-41982871D01*
X101182052Y-41982871D02*
X101243956Y-42013823D01*
X101243956Y-42013823D02*
X101274909Y-42044775D01*
X101274909Y-42044775D02*
X101305861Y-42106680D01*
X101305861Y-42106680D02*
X101305861Y-42292394D01*
X101305861Y-42292394D02*
X101274909Y-42354299D01*
X101274909Y-42354299D02*
X101243956Y-42385252D01*
X101243956Y-42385252D02*
X101182052Y-42416204D01*
X101182052Y-42416204D02*
X101058242Y-42416204D01*
X101058242Y-42416204D02*
X100996337Y-42385252D01*
X101491575Y-41982871D02*
X101739194Y-41982871D01*
X101584432Y-41766204D02*
X101584432Y-42323347D01*
X101584432Y-42323347D02*
X101615385Y-42385252D01*
X101615385Y-42385252D02*
X101677290Y-42416204D01*
X101677290Y-42416204D02*
X101739194Y-42416204D01*
X102234433Y-41982871D02*
X102234433Y-42416204D01*
X101955861Y-41982871D02*
X101955861Y-42323347D01*
X101955861Y-42323347D02*
X101986814Y-42385252D01*
X101986814Y-42385252D02*
X102048719Y-42416204D01*
X102048719Y-42416204D02*
X102141576Y-42416204D01*
X102141576Y-42416204D02*
X102203480Y-42385252D01*
X102203480Y-42385252D02*
X102234433Y-42354299D01*
X102543956Y-41982871D02*
X102543956Y-42416204D01*
X102543956Y-42044775D02*
X102574909Y-42013823D01*
X102574909Y-42013823D02*
X102636814Y-41982871D01*
X102636814Y-41982871D02*
X102729671Y-41982871D01*
X102729671Y-41982871D02*
X102791575Y-42013823D01*
X102791575Y-42013823D02*
X102822528Y-42075728D01*
X102822528Y-42075728D02*
X102822528Y-42416204D01*
X103379670Y-42385252D02*
X103317766Y-42416204D01*
X103317766Y-42416204D02*
X103193956Y-42416204D01*
X103193956Y-42416204D02*
X103132051Y-42385252D01*
X103132051Y-42385252D02*
X103101099Y-42323347D01*
X103101099Y-42323347D02*
X103101099Y-42075728D01*
X103101099Y-42075728D02*
X103132051Y-42013823D01*
X103132051Y-42013823D02*
X103193956Y-41982871D01*
X103193956Y-41982871D02*
X103317766Y-41982871D01*
X103317766Y-41982871D02*
X103379670Y-42013823D01*
X103379670Y-42013823D02*
X103410623Y-42075728D01*
X103410623Y-42075728D02*
X103410623Y-42137632D01*
X103410623Y-42137632D02*
X103101099Y-42199537D01*
D12*
%TO.C,U10*%
X110976000Y-74544000D02*
X111026000Y-74544000D01*
X110976000Y-76364000D02*
X110976000Y-74544000D01*
X111026000Y-76364000D02*
X110976000Y-76364000D01*
X112926000Y-76364000D02*
X112146000Y-76364000D01*
X114046000Y-74544000D02*
X114096000Y-74544000D01*
X114096000Y-74544000D02*
X114096000Y-76364000D01*
X114096000Y-76364000D02*
X114046000Y-76364000D01*
%TO.C,TP3*%
X112309000Y-38467061D02*
X114209000Y-38467061D01*
X112309000Y-40367061D02*
X112309000Y-38467061D01*
X114209000Y-38467061D02*
X114209000Y-40367061D01*
X114209000Y-40367061D02*
X112309000Y-40367061D01*
%TO.C,C8*%
X90239836Y-80797062D02*
X90024164Y-80797062D01*
X90239836Y-81517062D02*
X90024164Y-81517062D01*
%TO.C,U2*%
X101447000Y-77011062D02*
X101447000Y-77261062D01*
X101447000Y-77011062D02*
X101697000Y-77011062D01*
X101447000Y-80211062D02*
X101447000Y-79961062D01*
X101447000Y-80211062D02*
X101697000Y-80211062D01*
X104647000Y-77011062D02*
X104397000Y-77011062D01*
X104647000Y-77011062D02*
X104647000Y-77261062D01*
X104647000Y-80211062D02*
X104397000Y-80211062D01*
X104647000Y-80211062D02*
X104647000Y-79961062D01*
%TO.C,U1*%
X83856000Y-43024000D02*
X84331000Y-43024000D01*
X83856000Y-43499000D02*
X83856000Y-43024000D01*
X83856000Y-48244000D02*
X83856000Y-47769000D01*
X84331000Y-48244000D02*
X83856000Y-48244000D01*
X88601000Y-43024000D02*
X89076000Y-43024000D01*
X89076000Y-43024000D02*
X89076000Y-43499000D01*
X89076000Y-47769000D02*
X89076000Y-48244000D01*
X89076000Y-48244000D02*
X88601000Y-48244000D01*
%TO.C,C3*%
X105276000Y-78718898D02*
X105276000Y-78503226D01*
X105996000Y-78718898D02*
X105996000Y-78503226D01*
%TO.C,R3*%
X93866000Y-76341421D02*
X93866000Y-76648703D01*
X94626000Y-76341421D02*
X94626000Y-76648703D01*
%TO.C,R4*%
X98921000Y-79929703D02*
X98921000Y-79622421D01*
X99681000Y-79929703D02*
X99681000Y-79622421D01*
%TO.C,C7*%
X112792580Y-77809500D02*
X112511420Y-77809500D01*
X112792580Y-78829500D02*
X112511420Y-78829500D01*
%TO.C,R9*%
X86672000Y-73482703D02*
X86672000Y-73175421D01*
X87432000Y-73482703D02*
X87432000Y-73175421D01*
%TO.C,TP4*%
X112309000Y-42017061D02*
X114209000Y-42017061D01*
X112309000Y-43917061D02*
X112309000Y-42017061D01*
X114209000Y-42017061D02*
X114209000Y-43917061D01*
X114209000Y-43917061D02*
X112309000Y-43917061D01*
%TO.C,C5*%
X102454836Y-80819062D02*
X102239164Y-80819062D01*
X102454836Y-81539062D02*
X102239164Y-81539062D01*
%TO.C,C1*%
X88152580Y-37607062D02*
X87871420Y-37607062D01*
X88152580Y-38627062D02*
X87871420Y-38627062D01*
%TO.C,Q2*%
X96005500Y-78216062D02*
X97525500Y-78216062D01*
X96005500Y-79216062D02*
X96005500Y-78216062D01*
X96005500Y-81336062D02*
X96005500Y-80336062D01*
X97525500Y-78216062D02*
X97525500Y-78266062D01*
X97525500Y-79386062D02*
X97525500Y-80166062D01*
X97525500Y-81286062D02*
X97525500Y-81336062D01*
X97525500Y-81336062D02*
X96005500Y-81336062D01*
%TO.C,C10*%
X87037836Y-80797062D02*
X86822164Y-80797062D01*
X87037836Y-81517062D02*
X86822164Y-81517062D01*
%TO.C,C2*%
X89753000Y-43168164D02*
X89753000Y-43383836D01*
X90473000Y-43168164D02*
X90473000Y-43383836D01*
%TO.C,TP2*%
X79148000Y-44696000D02*
X80548000Y-44696000D01*
X79148000Y-46096000D02*
X79148000Y-44696000D01*
X80548000Y-44696000D02*
X80548000Y-46096000D01*
X80548000Y-46096000D02*
X79148000Y-46096000D01*
%TO.C,J2*%
X77307000Y-49807062D02*
X77307000Y-50107062D01*
X77307000Y-49807062D02*
X81527000Y-49807062D01*
X77307000Y-51727062D02*
X77307000Y-52107062D01*
X77307000Y-53727062D02*
X77307000Y-54107062D01*
X77307000Y-55727062D02*
X77307000Y-56107062D01*
X77307000Y-57727062D02*
X77307000Y-58107062D01*
X77307000Y-59727062D02*
X77307000Y-60107062D01*
X77307000Y-61727062D02*
X77307000Y-62107062D01*
X77307000Y-63727062D02*
X77307000Y-64107062D01*
X77307000Y-65727062D02*
X77307000Y-66107062D01*
X77307000Y-67727062D02*
X77307000Y-68107062D01*
X77307000Y-69727062D02*
X77307000Y-70027062D01*
X77307000Y-70027062D02*
X81527000Y-70027062D01*
X81527000Y-49807062D02*
X81527000Y-50107062D01*
X81527000Y-51727062D02*
X81527000Y-52107062D01*
X81527000Y-53727062D02*
X81527000Y-54107062D01*
X81527000Y-55727062D02*
X81527000Y-56107062D01*
X81527000Y-57727062D02*
X81527000Y-58107062D01*
X81527000Y-59727062D02*
X81527000Y-60107062D01*
X81527000Y-61727062D02*
X81527000Y-62107062D01*
X81527000Y-63727062D02*
X81527000Y-64107062D01*
X81527000Y-65727062D02*
X81527000Y-66107062D01*
X81527000Y-67727062D02*
X81527000Y-68107062D01*
X81527000Y-69727062D02*
X81527000Y-70027062D01*
%TO.C,U5*%
X115035000Y-74559500D02*
X115085000Y-74559500D01*
X115035000Y-76379500D02*
X115035000Y-74559500D01*
X115085000Y-76379500D02*
X115035000Y-76379500D01*
X116985000Y-76379500D02*
X116205000Y-76379500D01*
X118105000Y-74559500D02*
X118155000Y-74559500D01*
X118155000Y-74559500D02*
X118155000Y-76379500D01*
X118155000Y-76379500D02*
X118105000Y-76379500D01*
%TO.C,C6*%
X113263580Y-72101500D02*
X112982420Y-72101500D01*
X113263580Y-73121500D02*
X112982420Y-73121500D01*
%TO.C,J3*%
X117697000Y-49807062D02*
X117697000Y-50107062D01*
X117697000Y-49807062D02*
X121917000Y-49807062D01*
X117697000Y-51727062D02*
X117697000Y-52107062D01*
X117697000Y-53727062D02*
X117697000Y-54107062D01*
X117697000Y-55727062D02*
X117697000Y-56107062D01*
X117697000Y-57727062D02*
X117697000Y-58107062D01*
X117697000Y-59727062D02*
X117697000Y-60107062D01*
X117697000Y-61727062D02*
X117697000Y-62107062D01*
X117697000Y-63727062D02*
X117697000Y-64107062D01*
X117697000Y-65727062D02*
X117697000Y-66107062D01*
X117697000Y-67727062D02*
X117697000Y-68107062D01*
X117697000Y-69727062D02*
X117697000Y-70027062D01*
X117697000Y-70027062D02*
X121917000Y-70027062D01*
X121917000Y-49807062D02*
X121917000Y-50107062D01*
X121917000Y-51727062D02*
X121917000Y-52107062D01*
X121917000Y-53727062D02*
X121917000Y-54107062D01*
X121917000Y-55727062D02*
X121917000Y-56107062D01*
X121917000Y-57727062D02*
X121917000Y-58107062D01*
X121917000Y-59727062D02*
X121917000Y-60107062D01*
X121917000Y-61727062D02*
X121917000Y-62107062D01*
X121917000Y-63727062D02*
X121917000Y-64107062D01*
X121917000Y-65727062D02*
X121917000Y-66107062D01*
X121917000Y-67727062D02*
X121917000Y-68107062D01*
X121917000Y-69727062D02*
X121917000Y-70027062D01*
%TO.C,R1*%
X81145000Y-44757359D02*
X81145000Y-45064641D01*
X81905000Y-44757359D02*
X81905000Y-45064641D01*
%TO.C,C9*%
X90272580Y-81909062D02*
X89991420Y-81909062D01*
X90272580Y-82929062D02*
X89991420Y-82929062D01*
%TO.C,R8*%
X91605000Y-74035703D02*
X91605000Y-73728421D01*
X92365000Y-74035703D02*
X92365000Y-73728421D01*
%TO.C,TP1*%
X79148000Y-47159000D02*
X80548000Y-47159000D01*
X79148000Y-48559000D02*
X79148000Y-47159000D01*
X80548000Y-47159000D02*
X80548000Y-48559000D01*
X80548000Y-48559000D02*
X79148000Y-48559000D01*
%TO.C,Q3*%
X88751500Y-72293062D02*
X90271500Y-72293062D01*
X88751500Y-73293062D02*
X88751500Y-72293062D01*
X88751500Y-75413062D02*
X88751500Y-74413062D01*
X90271500Y-72293062D02*
X90271500Y-72343062D01*
X90271500Y-73463062D02*
X90271500Y-74243062D01*
X90271500Y-75363062D02*
X90271500Y-75413062D01*
X90271500Y-75413062D02*
X88751500Y-75413062D01*
%TO.C,C4*%
X82455000Y-48140836D02*
X82455000Y-47925164D01*
X83175000Y-48140836D02*
X83175000Y-47925164D01*
%TO.C,C22*%
X90859000Y-43135420D02*
X90859000Y-43416580D01*
X91879000Y-43135420D02*
X91879000Y-43416580D01*
%TO.C,Q1*%
X96005500Y-74425062D02*
X97525500Y-74425062D01*
X96005500Y-75425062D02*
X96005500Y-74425062D01*
X96005500Y-77545062D02*
X96005500Y-76545062D01*
X97525500Y-74425062D02*
X97525500Y-74475062D01*
X97525500Y-75595062D02*
X97525500Y-76375062D01*
X97525500Y-77495062D02*
X97525500Y-77545062D01*
X97525500Y-77545062D02*
X96005500Y-77545062D01*
%TO.C,C15*%
X116745580Y-77806000D02*
X116464420Y-77806000D01*
X116745580Y-78826000D02*
X116464420Y-78826000D01*
%TO.C,C14*%
X117112420Y-72121000D02*
X117393580Y-72121000D01*
X117112420Y-73141000D02*
X117393580Y-73141000D01*
%TO.C,R5*%
X93866000Y-80132421D02*
X93866000Y-80439703D01*
X94626000Y-80132421D02*
X94626000Y-80439703D01*
D14*
%TO.C,U3*%
X85959000Y-76956062D02*
X86119000Y-76956062D01*
X85959000Y-77986062D02*
X85959000Y-76956062D01*
X85959000Y-79066062D02*
X85959000Y-80106062D01*
X85959000Y-80106062D02*
X86119000Y-80106062D01*
X91109000Y-76956062D02*
X90949000Y-76956062D01*
X91109000Y-77986062D02*
X91109000Y-76956062D01*
X91109000Y-79066062D02*
X91109000Y-80106062D01*
X91109000Y-80106062D02*
X90949000Y-80106062D01*
D12*
%TO.C,R2*%
X98921000Y-76138703D02*
X98921000Y-75831421D01*
X99681000Y-76138703D02*
X99681000Y-75831421D01*
%TO.C,TP5*%
X112309000Y-45567061D02*
X114209000Y-45567061D01*
X112309000Y-47467061D02*
X112309000Y-45567061D01*
X114209000Y-45567061D02*
X114209000Y-47467061D01*
X114209000Y-47467061D02*
X112309000Y-47467061D01*
%TO.C,C11*%
X102919164Y-81803062D02*
X103134836Y-81803062D01*
X102919164Y-82523062D02*
X103134836Y-82523062D01*
%TD*%
M02*
